<svg id="Layer_1" data-name="Layer 1" xmlns="http://www.w3.org/2000/svg" viewBox="0 0 283.63 45.91"><defs><style>.cls-1{fill:#fff;}.cls-2{fill:#4ae278;}</style></defs><title>greenfield_logo</title><g id="Warstwa_1"><g id="_378934168" data-name=" 378934168"><path class="cls-1" d="M85.55,42.92a5.06,5.06,0,0,0,2.15-.43,7.85,7.85,0,0,0,1.87-1.33l1.56,1.59a7.15,7.15,0,0,1-5.52,2.52,7.42,7.42,0,0,1-5.39-2.1,7.05,7.05,0,0,1-2.13-5.27,7.17,7.17,0,0,1,2.19-5.33,7.53,7.53,0,0,1,5.5-2.13,7.17,7.17,0,0,1,5.55,2.47L89.8,34.58a6.81,6.81,0,0,0-1.93-1.36,5.53,5.53,0,0,0-2.12-.39,5,5,0,0,0-3.63,1.38,4.71,4.71,0,0,0-1.47,3.58,4.84,4.84,0,0,0,1.47,3.62,4.74,4.74,0,0,0,3.46,1.48Zm18.74-8.73a4.78,4.78,0,0,0-3.6-1.51,4.87,4.87,0,0,0-3.6,1.51,5.16,5.16,0,0,0-1.48,3.68,5,5,0,0,0,1.48,3.69,4.74,4.74,0,0,0,3.6,1.5,4.93,4.93,0,0,0,3.6-1.5,5.2,5.2,0,0,0,1.47-3.69A5.07,5.07,0,0,0,104.29,34.19Zm1.75,9a7.8,7.8,0,0,1-10.71,0,7.46,7.46,0,0,1,0-10.54,7.8,7.8,0,0,1,10.71,0,7.44,7.44,0,0,1,0,10.54ZM122,30.81h2.41V45.13h-2.6L113.67,34.7V45.13h-2.41V30.81h2.41L122,41.5Zm8.79,2.24V37h6.35v2.24h-6.35v5.9h-2.41V30.81h9.53l0,2.24Zm20-2.24v2.27h-7.63v3.8H150V39h-6.86v3.83H151v2.27H140.71V30.81Zm14.74,4.65c0,2.35-1,3.86-3.09,4.45l3.74,5.19h-3.06l-3.43-4.82h-3.18V45.1h-2.41V30.78h5.33q3.27,0,4.68,1.11a4.28,4.28,0,0,1,1.42,3.54Zm-6,2.67a4.32,4.32,0,0,0,2.77-.63,2.55,2.55,0,0,0,.74-2,2.17,2.17,0,0,0-.76-1.93,5.21,5.21,0,0,0-2.7-.51H156.5v5.11ZM179,30.81v2.27h-7.63v3.8h6.86V39h-6.86v3.83h7.88v2.27H169V30.81Zm14.06,0h2.41V45.13H192.9L184.79,34.7V45.13h-2.41V30.81h2.41L193.1,41.5ZM206,42.92a5.1,5.1,0,0,0,2.16-.43A8.05,8.05,0,0,0,210,41.16l1.56,1.59a7.17,7.17,0,0,1-5.53,2.52,7.44,7.44,0,0,1-5.39-2.1,7.08,7.08,0,0,1-2.12-5.27,7.2,7.2,0,0,1,2.18-5.33,7.55,7.55,0,0,1,5.5-2.13,7.21,7.21,0,0,1,5.56,2.47l-1.53,1.67a7,7,0,0,0-1.93-1.36,5.58,5.58,0,0,0-2.13-.39,5.12,5.12,0,0,0-3.65,1.38,4.68,4.68,0,0,0-1.48,3.58,4.81,4.81,0,0,0,1.48,3.62A4.72,4.72,0,0,0,206,42.89Zm18.57-12.11v2.27h-7.62v3.8h6.86V39h-6.86v3.83h7.88v2.27H214.53V30.81Z"/><path class="cls-2" d="M38.32,6.77a22.45,22.45,0,1,0,4.65,25H22.85V23.16H44.93v-.57A22.34,22.34,0,0,0,38.35,6.72ZM93.63,11h4.82v7.62A11.27,11.27,0,0,1,89.6,22.2a11,11,0,0,1-7.93-3.12,10.67,10.67,0,0,1-3.21-7.91,10.68,10.68,0,0,1,3.26-8A11,11,0,0,1,89.6,0a11.72,11.72,0,0,1,8,3l-2.5,3.6A9.11,9.11,0,0,0,92.47,4.9a7.37,7.37,0,0,0-2.64-.48,6.28,6.28,0,0,0-4.59,1.87,6.61,6.61,0,0,0-1.87,4.91,6.7,6.7,0,0,0,1.78,4.87,5.79,5.79,0,0,0,4.28,1.82,8,8,0,0,0,4.14-1V11Zm27.3-3.4c0,3.43-1.36,5.67-4.09,6.66l5.45,7.68h-5.9l-4.76-6.83h-3.32v6.83h-4.79V.48h8.14q5,0,7.14,1.7c1.42,1.14,2.13,2.95,2.13,5.45Zm-9.13,3.34c1.64,0,2.75-.25,3.34-.79A3.23,3.23,0,0,0,116,7.63a2.75,2.75,0,0,0-.91-2.39,6,6,0,0,0-3.23-.65h-3.6v6.35h3.52ZM142.13.48V4.76H131.44V9.18h9.61v4.09h-9.61v4.45h11v4.22H126.65V.48ZM163,.48V4.76H152.33V9.18h9.61v4.09h-9.61v4.45h11v4.22H147.54V.48Zm20.44,0h4.79V21.94h-4.79L173.23,8.5V21.94h-4.8V.48h4.48l10.55,13.81Zm25.62,0v4.2h-10V9.33h9.47v4.19h-9.47v8.42h-4.79V.48Zm4.88,0h4.79V21.94H214Zm26.36,0V4.76H229.63V9.18h9.61v4.09h-9.61v4.45h11v4.22H224.84V.48Zm5.42,21.46V.48h4.79V17.66h9.15v4.28ZM271.56.48q5.74,0,8.81,2.81a10.05,10.05,0,0,1,3.07,7.82,10.44,10.44,0,0,1-3,7.91c-2,2-5,2.92-9.13,2.92H264V.48Zm.25,17.21A7,7,0,0,0,276.86,16a6.24,6.24,0,0,0,1.76-4.81,6.55,6.55,0,0,0-1.76-4.88c-1.19-1.13-3-1.7-5.41-1.7h-2.67v13ZM60.46,4.79a6.1,6.1,0,0,1,2.41.48A5.45,5.45,0,0,1,64.8,6.58a7.07,7.07,0,0,1,1.3,1.95,6.14,6.14,0,0,1,.49,2.38,5.93,5.93,0,0,1-.49,2.41,5.43,5.43,0,0,1-1.3,1.93,6.55,6.55,0,0,1-1.93,1.3,6,6,0,0,1-2.41.49,5.82,5.82,0,0,1-2.38-.49,6.55,6.55,0,0,1-1.93-1.3,5.72,5.72,0,0,1-1.3-1.93,6.21,6.21,0,0,1,0-4.79,6.65,6.65,0,0,1,1.3-1.95,5.9,5.9,0,0,1,1.93-1.31A6.09,6.09,0,0,1,60.46,4.79Zm0,23.47a5.61,5.61,0,0,1,2.41.48,5.2,5.2,0,0,1,1.93,1.31A6.4,6.4,0,0,1,66.1,32a6.1,6.1,0,0,1,0,4.79,5.84,5.84,0,0,1-1.3,2,6.14,6.14,0,0,1-4.34,1.79,5.51,5.51,0,0,1-2.38-.49,6,6,0,0,1-1.93-1.3,6.22,6.22,0,0,1-1.78-4.37A6.09,6.09,0,0,1,54.85,32a6.65,6.65,0,0,1,1.3-1.95,7,7,0,0,1,1.93-1.31A6.09,6.09,0,0,1,60.46,28.26Z"/></g></g></svg>