<svg id="Layer_1" data-name="Layer 1" xmlns="http://www.w3.org/2000/svg" viewBox="0 0 283.46 45.28"><defs><style>.cls-1{fill:#001;}.cls-2{fill:#56bb67;fill-rule:evenodd;}</style></defs><title>Greenfield_znak</title><path class="cls-1" d="M292.66,157v2.27H285v3.79h6.86v2.15H285V169h7.88v2.27H282.62V157ZM274.08,169.1a5.19,5.19,0,0,0,2.15-.41,7.23,7.23,0,0,0,1.88-1.35l1.56,1.6a7.14,7.14,0,0,1-5.51,2.52,7.41,7.41,0,0,1-5.39-2.09,7.6,7.6,0,0,1,.05-10.6,7.53,7.53,0,0,1,5.5-2.13,7.2,7.2,0,0,1,5.56,2.46l-1.54,1.68a6.67,6.67,0,0,0-1.93-1.37,5.41,5.41,0,0,0-2.14-.39,5,5,0,0,0-3.64,1.4,4.7,4.7,0,0,0-1.48,3.58,4.92,4.92,0,0,0,1.47,3.64A4.7,4.7,0,0,0,274.08,169.1ZM261.17,157h2.42v14.3H261l-8.1-10.43v10.43h-2.42V157h2.42l8.3,10.68Zm-14.05,0v2.27h-7.63v3.79h6.85v2.15h-6.85V169h7.87v2.27H237.07V157ZM227.6,164.3a4.43,4.43,0,0,0,2.78-.64,2.54,2.54,0,0,0,.74-2,2.17,2.17,0,0,0-.76-1.93,5.09,5.09,0,0,0-2.7-.52h-3.07v5.12Zm6-2.66c0,2.36-1,3.84-3.09,4.46l3.75,5.19h-3.07l-3.42-4.8h-3.17v4.8h-2.41V157h5.32q3.27,0,4.68,1.11A4.21,4.21,0,0,1,233.59,161.64ZM218.84,157v2.27h-7.63v3.79h6.85v2.15h-6.85V169h7.88v2.27H208.8V157Zm-20,2.25v3.93h6.34v2.23h-6.34v5.89h-2.41V157H206l0,2.25Zm-8.8-2.25h2.42v14.3h-2.62l-8.1-10.43v10.43h-2.42V157h2.42l8.3,10.68Zm-15.93,12.33a7.85,7.85,0,0,1-10.73,0,7.53,7.53,0,0,1,0-10.56,7.85,7.85,0,0,1,10.73,0,7.53,7.53,0,0,1,0,10.56Zm-1.77-8.95a5,5,0,0,0-7.19,0,5.34,5.34,0,0,0,0,7.34,5,5,0,0,0,7.19,0,5.34,5.34,0,0,0,0-7.34Zm-18.74,8.73a5.19,5.19,0,0,0,2.15-.41,7.23,7.23,0,0,0,1.88-1.35l1.56,1.6a7.14,7.14,0,0,1-5.51,2.52,7.41,7.41,0,0,1-5.39-2.09,7.6,7.6,0,0,1,0-10.6,7.53,7.53,0,0,1,5.5-2.13,7.17,7.17,0,0,1,5.55,2.46l-1.53,1.68a6.67,6.67,0,0,0-1.93-1.37,5.41,5.41,0,0,0-2.14-.39,5,5,0,0,0-3.64,1.4,4.7,4.7,0,0,0-1.48,3.58,4.92,4.92,0,0,0,1.47,3.64A4.7,4.7,0,0,0,153.61,169.1Z" transform="translate(-68.03 -126.18)"/><path class="cls-2" d="M128.51,154.46a5.88,5.88,0,0,1,2.42.48,5.59,5.59,0,0,1,1.94,1.29,6.07,6.07,0,0,1,1.3,1.94,6,6,0,0,1,.48,2.38,6.22,6.22,0,0,1-1.78,4.38,5.78,5.78,0,0,1-1.94,1.31,6,6,0,0,1-2.42.47,5.89,5.89,0,0,1-2.39-.47,6.09,6.09,0,0,1-1.94-1.31,5.94,5.94,0,0,1-1.32-2,6.25,6.25,0,0,1-.47-2.42,6.16,6.16,0,0,1,.47-2.38,6,6,0,0,1,1.32-1.94,5.88,5.88,0,0,1,1.94-1.29,5.74,5.74,0,0,1,2.39-.48m0-23.47a6,6,0,0,1,2.42.48,5.5,5.5,0,0,1,1.94,1.31,6.34,6.34,0,0,1,1.3,1.95,6.26,6.26,0,0,1,0,4.81,6,6,0,0,1-1.3,1.94,6.06,6.06,0,0,1-1.94,1.3,6.22,6.22,0,0,1-2.42.48,6.07,6.07,0,0,1-2.39-.48,6.41,6.41,0,0,1-1.94-1.3,5.86,5.86,0,0,1-1.32-1.94,6.14,6.14,0,0,1,1.32-6.76,5.78,5.78,0,0,1,1.94-1.31A5.9,5.9,0,0,1,128.51,131Zm211.35,12.9a7.09,7.09,0,0,0,5.05-1.66,6.28,6.28,0,0,0,1.77-4.82,6.43,6.43,0,0,0-1.77-4.86c-1.18-1.14-3-1.7-5.42-1.7h-2.67v13Zm-.25-17.22q5.75,0,8.82,2.81a10.08,10.08,0,0,1,3.07,7.81,10.54,10.54,0,0,1-3,7.92q-3,2.91-9.13,2.91H332V126.67Zm-25.83,21.45V126.67h4.79v17.19h9.15v4.26Zm-5.42-21.45v4.27H297.67v4.42h9.62v4.08h-9.62v4.45h11v4.23H292.88V126.67Zm-26.36,0h4.79v21.45H282Zm-4.86,0v4.21h-9.95v4.63h9.46v4.21h-9.46v8.4H262.4V126.67Zm-25.62,0h4.79v21.45h-4.79l-10.23-13.44v13.44H236.5V126.67H241l10.53,13.81Zm-20.43,0v4.27H220.4v4.42H230v4.08H220.4v4.45h11v4.23H215.61V126.67Zm-20.9,0v4.27H199.51v4.42h9.61v4.08h-9.61v4.45h11v4.23H194.72V126.67Zm-30.32,10.47a5.16,5.16,0,0,0,3.35-.8,3.22,3.22,0,0,0,.89-2.53,2.72,2.72,0,0,0-.92-2.38,5.87,5.87,0,0,0-3.22-.65h-3.6v6.36Zm9.12-3.35q0,5.16-4.08,6.66l5.44,7.67h-5.9l-4.76-6.84h-3.32v6.84h-4.79V126.67h8.14q5,0,7.14,1.69C188.28,129.48,189,131.3,189,133.79Zm-27.31,3.41h4.83v7.61q-3.19,3.56-8.85,3.56a10.88,10.88,0,0,1-7.93-3.13,11.34,11.34,0,0,1,.06-15.87,10.88,10.88,0,0,1,7.89-3.19,11.65,11.65,0,0,1,8,3l-2.49,3.59a9.24,9.24,0,0,0-2.66-1.73,7,7,0,0,0-2.62-.48,6.3,6.3,0,0,0-4.61,1.86,6.56,6.56,0,0,0-1.87,4.89,6.64,6.64,0,0,0,1.8,4.87,5.8,5.8,0,0,0,4.28,1.82,8.13,8.13,0,0,0,4.14-.95ZM106.38,133A22.47,22.47,0,1,0,111,158H90.9v-8.6h22v-.54A22.4,22.4,0,0,0,106.38,133Z" transform="translate(-68.03 -126.18)"/></svg>