<svg xmlns="http://www.w3.org/2000/svg" width="258.031" height="54.164" viewBox="0 0 258.031 54.164"><defs><style>.a{fill:#004489;}.b{fill:#e4003a;}</style></defs><g transform="translate(87.595 492.383)"><g transform="translate(-10.303 -451.163)"><path class="a" d="M35.3,4.5c2.4,0,2.742-.084,2.742-1.6,0-1.477-.38-1.6-2.785-1.6H32.1V4.538H35.3Zm-.169,2.447h-3v4.641H28.933V-1.2h6.455c5.021,0,5.949.717,5.949,4.05,0,2.658-.591,3.671-3.207,3.966a8.23,8.23,0,0,1,1.35,1.6l2.363,3.164H38.131Z" transform="translate(-28.933 1.2)"/></g><g transform="translate(5.4 -451.114)"><path class="a" d="M42.14,11.6v2.532h6.582v2.447H42.14v2.953h7.51v2.447H38.933V9.2H49.439v2.447h-7.3Z" transform="translate(-38.933 -9.2)"/></g><g transform="translate(18.53 -451.307)"><path class="a" d="M23,13.063v.8l-.211.211a29.694,29.694,0,0,0-4.093-.253c-4.219,0-4.472.127-4.472,4.05s.3,4.05,4.683,4.05a22.15,22.15,0,0,0,4.008-.3l.211.211v.8c0,1.181-.633,1.772-5.021,1.772-6.118,0-7.173-.591-7.173-6.54s1.139-6.54,7.215-6.54c4.388,0,4.852.633,4.852,1.73" transform="translate(-10.933 -11.333)"/></g><g transform="translate(32.194 -451.156)"><path class="a" d="M31.2,11.514V21.851H27.954V11.514H22.933V9.067h13.29v2.447H31.2Z" transform="translate(-22.933 -9.067)"/></g><g transform="translate(47.153 -451.299)"><path class="a" d="M41.958,2.673c0,3.924.253,4.05,4.05,4.05,3.755,0,4.05-.127,4.05-4.05s-.3-4.05-4.05-4.05c-3.8,0-4.05.127-4.05,4.05m11.392,0c0,5.949-1.013,6.54-7.384,6.54-6.287,0-7.3-.591-7.3-6.54s1.013-6.54,7.341-6.54,7.341.591,7.341,6.54" transform="translate(-38.667 3.867)"/></g><g transform="translate(65.037 -451.163)"><path class="a" d="M35.3,4.5c2.4,0,2.742-.084,2.742-1.6,0-1.477-.38-1.6-2.785-1.6H32.1V4.538H35.3Zm-.169,2.447h-3v4.641H28.933V-1.2h6.455c5.021,0,5.949.717,5.949,4.05,0,2.658-.591,3.671-3.207,3.966a8.23,8.23,0,0,1,1.35,1.6l2.363,3.164H38.131Z" transform="translate(-28.933 1.2)"/></g><g transform="translate(-12.424 -485.483)"><path class="a" d="M-317.32-8.082h-6.16v-6.2h6.118c4.641,0,5.4.211,5.4,3.122s-.591,3.08-5.358,3.08m8.438,7.806a16.79,16.79,0,0,0-2.531-3.038c4.81-.633,6.2-2.447,6.2-7.932,0-6.751-1.983-8.1-11.9-8.1h-12.953V6.179h6.582v-9.24h5.78l6.033,9.24h7.595Zm-41.939,1.645c-7.341,0-7.89-.169-7.89-7.932s.548-7.932,7.89-7.932,7.89.169,7.89,7.932c0,7.721-.548,7.932-7.89,7.932m-.042-20.969c-6.5,0-9.957.3-11.983,2.067-1.645,1.392-2.616,3.671-2.616,10.97,0,5.527.422,9.113,2.616,10.97,2.067,1.772,5.527,2.067,11.983,2.067,6.54,0,10-.3,12.067-2.067,1.645-1.392,2.616-3.671,2.616-10.97,0-5.527-.422-9.113-2.616-10.97-2.067-1.772-5.527-2.067-12.067-2.067m-44.175,5.316h9.957V6.179h6.624V-14.284h9.957v-5.063h-26.539Zm-19.493,9.451,2.911-8.438c.38-1.224.549-1.224,2.11-1.224s1.772.084,2.152,1.224l2.785,8.438Zm5.105-14.767c-5.78,0-6.708.3-8.312,4.683l-7.679,21.138h7.13l2.025-5.949h13.375l1.941,5.949h7.426L-401.2-14.832c-1.73-4.515-2.531-4.768-8.227-4.768M-438.116-8.082h-6.16v-6.2h6.118c4.641,0,5.4.211,5.4,3.122s-.591,3.08-5.358,3.08m.127-11.265H-450.9V6.179h6.582v-9.24h6.329c9.915,0,11.9-1.392,11.9-8.185.042-6.751-1.983-8.1-11.9-8.1M-476.047-4.833l2.911-8.438c.38-1.224.548-1.224,2.11-1.224s1.772.084,2.152,1.224l2.785,8.438Zm5.105-14.767c-5.78,0-6.708.3-8.312,4.683l-7.679,21.138h7.13l2.025-5.949H-464.4l1.941,5.949h7.426l-7.679-21.054c-1.688-4.515-2.489-4.768-8.227-4.768" transform="translate(486.932 19.6)"/></g><g transform="translate(-72.116 -492.383)"><path class="a" d="M49.067-26.241,65.395-13.457,81.723-26.241l-14.6-19.071a2.136,2.136,0,0,0-3.418,0Z" transform="translate(-49.067 46.167)"/></g><g transform="translate(-87.595 -472.451)"><path class="b" d="M47.287-32.052,60.619-21.63a2.215,2.215,0,0,0,2.658,0L78.3-33.36,61.969-54.667,46.907-35.047a2.143,2.143,0,0,0,.38,3" transform="translate(-46.463 54.667)"/></g><g transform="translate(-55.78 -472.458)"><path class="b" d="M49.067-29.226,64.087-17.5a2.215,2.215,0,0,0,2.658,0L80.078-27.918a2.143,2.143,0,0,0,.38-3L65.395-50.533Z" transform="translate(-49.067 50.533)"/></g></g></svg>