<svg xmlns="http://www.w3.org/2000/svg" width="219.335" height="92.03" viewBox="0 0 219.335 92.03"><defs><style>.a{fill:#cad400;}.b{fill:#1d447b;}</style></defs><g transform="translate(-5.22 -9.29)"><g transform="translate(5.22 9.29)"><g transform="translate(0 0)"><g transform="translate(188.121 79.356)"><path class="a" d="M489.354,212.97l-.012.031c-.425.175-.845.347-1.282.522Z" transform="translate(-488.06 -212.97)"/></g><path class="b" d="M211.275,176.842a69.019,69.019,0,0,1-13.5,8.007l-3.144,1.356-1.29.553c-19.461,7.831-47.778,12.487-84.281,12.1C56.828,198.3,21.568,187.8,5.22,172.806,24.942,185.172,59.018,193.72,98,194.472c36.7.694,69.519-5.673,90.367-16.11l.164-.086,4.255-2.268a56.613,56.613,0,0,0,9.666-6.888l8.377.086Z" transform="translate(-5.22 -106.848)"/><path class="a" d="M413.064,56.273c-.1,6.76-3,13.161-8.626,18.888l-.5-8.353-8.451-.086a21.1,21.1,0,0,0,4.761-12.249C400.967,33.2,364.082,14.69,314.06,9.29,379,12.563,413.423,32.515,413.064,56.273Z" transform="translate(-193.732 -9.29)"/></g></g><g transform="translate(26.98 43.689)"><path class="b" d="M61.07,98.57H68.3l5.357,17.073h.066L79.082,98.57h7.227V121.1H81.984V102.505h-.066L75.852,121.1H71.527l-6.066-18.592-.066.066V121.1H61.07Z" transform="translate(-61.07 -98.184)"/><path class="b" d="M135.98,98.57h13.3v3.549H140.5v5.552h8.038v3.553H140.5v6.327h8.844V121.1H135.98Z" transform="translate(-106.794 -98.184)"/><path class="b" d="M184.106,102.119H177.65V98.57h17.431v3.549h-6.456V121.1h-4.52Z" transform="translate(-132.229 -98.184)"/><path class="b" d="M225.964,98.57h5.1l8.844,22.527h-5l-1.936-5.166h-9.133l-1.968,5.166H217.19Zm2.486,4.52h-.066l-3.261,9.3h6.584Z" transform="translate(-156.364 -98.184)"/><path class="b" d="M281.97,98.57h5.712c4.905,0,9.394,1.418,9.394,6.81,0,5.26-3.842,7.165-8.681,7.165H286.49V121.1h-4.52ZM286.486,109h1.582c2.26,0,4.294-.744,4.294-3.358s-1.968-3.518-4.294-3.518h-1.582Z" transform="translate(-195.904 -98.184)"/><path class="b" d="M326.878,98.57h5.1l8.844,22.527h-5l-1.936-5.166h-9.133l-1.968,5.166H318.1Zm2.486,4.52H329.3l-3.261,9.3h6.584Z" transform="translate(-217.958 -98.184)"/><path class="b" d="M393.754,120.174a22.939,22.939,0,0,1-5.131.709c-7.294,0-12.362-3.647-12.362-11.264,0-7.714,4.714-12.039,12.362-12.039a14.939,14.939,0,0,1,5.1.935l-.323,3.807a9.319,9.319,0,0,0-4.874-1.192c-4.648,0-7.551,3.549-7.551,8.166,0,4.582,2.84,8.038,7.648,8.038a12.576,12.576,0,0,0,4.94-.935Z" transform="translate(-253.458 -97.58)"/><path class="b" d="M429.62,98.57h4.52v9.682l8.135-9.682h5.552l-9.265,10.617,9.651,11.91h-5.907l-8.1-10.457h-.062V121.1h-4.52V98.57Z" transform="translate(-286.028 -98.184)"/></g></g></svg>