<?xml version="1.0" encoding="utf-8"?>
<!-- Generator: Adobe Illustrator 23.0.1, SVG Export Plug-In . SVG Version: 6.00 Build 0)  -->
<svg version="1.1" id="Layer_1" xmlns="http://www.w3.org/2000/svg" xmlns:xlink="http://www.w3.org/1999/xlink" x="0px" y="0px"
	 viewBox="0 0 572.74 251.19" style="enable-background:new 0 0 572.74 251.19;" xml:space="preserve">
<style type="text/css">
	.st0{fill:#CAD400;}
	.st1{fill:#1D447B;}
</style>
<g>
	<g>
		<g>
			<g>
				<g>
					<g>
						<path class="st0" d="M491.38,212.97l-0.03,0.08c-1.09,0.45-2.17,0.89-3.29,1.34L491.38,212.97z"/>
					</g>
					<g>
						<path class="st1" d="M534.09,188.94c-9.58,7.43-21.13,14.34-34.64,20.55l-8.07,3.48l-3.31,1.42
							c-49.95,20.1-122.63,32.05-216.32,31.05c-134.07-1.42-224.57-28.37-266.53-66.86c50.62,31.74,138.08,53.68,238.13,55.61
							c94.2,1.78,178.43-14.56,231.94-41.35l0.42-0.22l10.92-5.82c9.55-5.51,17.88-11.42,24.81-17.68l21.5,0.22L534.09,188.94z"/>
						<path class="st0" d="M568.17,129.88c-0.25,17.35-7.71,33.78-22.14,48.48l-1.28-21.44l-21.69-0.22
							c7.6-9.91,11.89-20.44,12.22-31.44c1.84-54.6-92.83-102.11-221.22-115.97C480.74,17.69,569.09,68.9,568.17,129.88z"/>
					</g>
				</g>
			</g>
		</g>
		<g>
		</g>
	</g>
	<g>
		<path class="st1" d="M61.07,98.57h18.56l13.75,43.82h0.17l13.75-43.82h18.55v57.82h-11.1v-47.72h-0.17l-15.57,47.72h-11.1
			l-15.57-47.72l-0.17,0.17v47.55h-11.1V98.57z"/>
		<path class="st1" d="M135.98,98.57h34.13v9.11h-22.54v14.25h20.63v9.12h-20.63v16.24h22.7v9.11h-34.29V98.57z"/>
		<path class="st1" d="M194.22,107.68h-16.57v-9.11h44.74v9.11h-16.57v48.71h-11.6V107.68z"/>
		<path class="st1" d="M239.71,98.57h13.09l22.7,57.82h-12.84l-4.97-13.26h-23.44l-5.05,13.26h-12.01L239.71,98.57z M246.09,110.17
			h-0.17l-8.37,23.86h16.9L246.09,110.17z"/>
		<path class="st1" d="M281.97,98.57h14.66c12.59,0,24.11,3.64,24.11,17.48c0,13.5-9.86,18.39-22.28,18.39h-4.89v21.95h-11.6V98.57z
			 M293.56,125.33h4.06c5.8,0,11.02-1.91,11.02-8.62c0-6.71-5.05-9.03-11.02-9.03h-4.06V125.33z"/>
		<path class="st1" d="M340.63,98.57h13.09l22.7,57.82h-12.84l-4.97-13.26h-23.44l-5.05,13.26H318.1L340.63,98.57z M347.01,110.17
			h-0.17l-8.37,23.86h16.9L347.01,110.17z"/>
		<path class="st1" d="M421.16,155.57c-4.22,0.99-8.78,1.82-13.17,1.82c-18.72,0-31.73-9.36-31.73-28.91
			c0-19.8,12.1-30.9,31.73-30.9c3.81,0,8.87,0.75,13.09,2.4l-0.83,9.77c-4.39-2.48-8.37-3.06-12.51-3.06
			c-11.93,0-19.38,9.11-19.38,20.96c0,11.76,7.29,20.63,19.63,20.63c4.56,0,9.94-0.99,12.68-2.4L421.16,155.57z"/>
		<path class="st1" d="M429.62,98.57h11.6v24.85l20.88-24.85h14.25l-23.78,27.25l24.77,30.57h-15.16l-20.79-26.84h-0.16v26.84h-11.6
			V98.57z"/>
	</g>
</g>
</svg>
