<?xml version="1.0" encoding="UTF-8" standalone="no"?>
<!-- Created with Inkscape (http://www.inkscape.org/) -->

<svg
   xmlns:dc="http://purl.org/dc/elements/1.1/"
   xmlns:cc="http://creativecommons.org/ns#"
   xmlns:rdf="http://www.w3.org/1999/02/22-rdf-syntax-ns#"
   xmlns:svg="http://www.w3.org/2000/svg"
   xmlns="http://www.w3.org/2000/svg"
   xmlns:sodipodi="http://sodipodi.sourceforge.net/DTD/sodipodi-0.dtd"
   xmlns:inkscape="http://www.inkscape.org/namespaces/inkscape"
   version="1.1"
   id="svg48"
   xml:space="preserve"
   width="1001.892"
   height="337.21866"
   viewBox="0 0 1001.892 337.21866"
   sodipodi:docname="apator-logo.svg"
   inkscape:version="0.92.4 (33fec40, 2019-01-16)"><metadata
     id="metadata54"><rdf:RDF><cc:Work
         rdf:about=""><dc:format>image/svg+xml</dc:format><dc:type
           rdf:resource="http://purl.org/dc/dcmitype/StillImage" /><dc:title></dc:title></cc:Work></rdf:RDF></metadata><defs
     id="defs52"><clipPath
       clipPathUnits="userSpaceOnUse"
       id="clipPath64"><path
         d="M 0,252.914 H 751.419 V 0 H 0 Z"
         id="path62"
         inkscape:connector-curvature="0" /></clipPath></defs><sodipodi:namedview
     pagecolor="#ffffff"
     bordercolor="#666666"
     borderopacity="1"
     objecttolerance="10"
     gridtolerance="10"
     guidetolerance="10"
     inkscape:pageopacity="0"
     inkscape:pageshadow="2"
     inkscape:window-width="1920"
     inkscape:window-height="1016"
     id="namedview50"
     showgrid="false"
     inkscape:zoom="1.7586725"
     inkscape:cx="500.94601"
     inkscape:cy="168.60933"
     inkscape:window-x="0"
     inkscape:window-y="27"
     inkscape:window-maximized="1"
     inkscape:current-layer="g56" /><g
     id="g56"
     inkscape:groupmode="layer"
     inkscape:label="logoAPATOR RECTORpoziomCMYK"
     transform="matrix(1.3333333,0,0,-1.3333333,0,337.21867)"><g
       id="g58"><g
         id="g60"
         clip-path="url(#clipPath64)"><g
           id="g66"
           transform="translate(268.2957,79.4408)"><path
             d="m 0,0 c 5.736,0 6.548,0.217 6.548,3.843 0,3.516 -0.92,3.841 -6.602,3.841 H -7.522 V 0 Z m -0.433,-5.789 h -7.089 v -11.04 h -7.629 V 13.475 H 0.162 c 11.905,0 14.124,-1.678 14.124,-9.579 0,-6.277 -1.407,-8.657 -7.576,-9.415 1.028,-0.865 1.948,-1.895 3.247,-3.788 l 5.574,-7.522 H 6.764 Z"
             style="fill:#004489;fill-opacity:1;fill-rule:nonzero;stroke:none"
             id="path68"
             inkscape:connector-curvature="0" /></g><g
           id="g70"
           transform="translate(298.0131,87.1249)"><path
             d="m 0,0 v -5.952 h 15.638 v -5.791 H 0 v -6.979 h 17.804 v -5.791 H -7.63 V 5.791 h 24.892 l 0,-5.791 z"
             style="fill:#004489;fill-opacity:1;fill-rule:nonzero;stroke:none"
             id="path72"
             inkscape:connector-curvature="0" /></g><g
           id="g74"
           transform="translate(350.133,89.1825)"><path
             d="m 0,0 v -1.895 l -0.487,-0.488 c -1.84,0.325 -5.682,0.596 -9.741,0.596 -10.011,0 -10.606,-0.323 -10.606,-9.632 0,-9.308 0.704,-9.633 11.093,-9.633 4.167,0 7.468,0.325 9.524,0.705 l 0.487,-0.487 v -1.895 c 0,-2.814 -1.515,-4.166 -11.851,-4.166 -14.556,0 -17.099,1.352 -17.099,15.476 0,14.125 2.706,15.477 17.099,15.477 C -1.083,4.058 0,2.543 0,0"
             style="fill:#004489;fill-opacity:1;fill-rule:nonzero;stroke:none"
             id="path76"
             inkscape:connector-curvature="0" /></g><g
           id="g78"
           transform="translate(373.5181,87.1249)"><path
             d="M 0,0 V -24.513 H -7.684 V 0 h -11.905 v 5.791 h 31.494 l 0,-5.791 z"
             style="fill:#004489;fill-opacity:1;fill-rule:nonzero;stroke:none"
             id="path80"
             inkscape:connector-curvature="0" /></g><g
           id="g82"
           transform="translate(397.1735,77.763)"><path
             d="m 0,0 c 0,-9.307 0.595,-9.632 9.578,-9.632 8.929,0 9.578,0.325 9.578,9.632 0,9.309 -0.649,9.632 -9.578,9.632 C 0.595,9.632 0,9.309 0,0 m 27.003,0 c 0,-14.123 -2.435,-15.476 -17.479,-15.476 -14.935,0 -17.37,1.353 -17.37,15.476 0,14.125 2.435,15.478 17.37,15.478 15.044,0 17.479,-1.353 17.479,-15.478"
             style="fill:#004489;fill-opacity:1;fill-rule:nonzero;stroke:none"
             id="path84"
             inkscape:connector-curvature="0" /></g><g
           id="g86"
           transform="translate(446.8608,79.4408)"><path
             d="m 0,0 c 5.736,0 6.548,0.217 6.548,3.843 0,3.516 -0.919,3.841 -6.602,3.841 H -7.522 V 0 Z m -0.433,-5.789 h -7.089 v -11.04 h -7.629 V 13.475 H 0.163 c 11.905,0 14.123,-1.678 14.123,-9.579 0,-6.277 -1.407,-8.657 -7.576,-9.415 1.028,-0.865 1.948,-1.895 3.247,-3.788 l 5.574,-7.522 H 6.764 Z"
             style="fill:#004489;fill-opacity:1;fill-rule:nonzero;stroke:none"
             id="path88"
             inkscape:connector-curvature="0" /></g><g
           id="g90"
           transform="translate(650.1689,146.9845)"><path
             d="m 0,0 h -14.644 v 14.715 h 14.537 c 11.048,0 12.822,-0.499 12.822,-7.358 C 12.715,0.409 11.278,0 0,0 m 19.921,-18.538 c -2.258,3.295 -4.043,5.42 -6.047,7.184 11.357,1.515 14.663,5.826 14.663,18.819 0,15.982 -4.747,19.215 -28.216,19.215 h -30.573 v -60.502 h 15.608 v 21.857 h 13.651 l 14.251,-21.857 h 17.989 z m -99.322,-3.855 c -17.396,0 -18.715,0.437 -18.715,18.823 0,18.385 1.319,18.822 18.715,18.822 17.395,0 18.714,-0.437 18.714,-18.822 0,-18.386 -1.319,-18.823 -18.714,-18.823 m -0.108,49.715 c -15.373,0 -23.551,-0.732 -28.449,-4.893 -3.924,-3.334 -6.195,-8.658 -6.195,-25.999 0,-13.133 1.013,-21.597 6.195,-26.001 4.898,-4.161 13.076,-4.894 28.449,-4.894 15.479,0 23.711,0.733 28.636,4.894 3.94,3.331 6.223,8.652 6.223,26.001 0,13.135 -1.019,21.6 -6.223,25.999 -4.925,4.161 -13.157,4.893 -28.636,4.893 M -184.23,14.715 h 23.572 v -48.537 h 15.715 v 48.537 h 23.572 V 26.68 h -62.859 z m -46.228,-22.43 6.853,20.032 c 0.917,2.854 1.288,2.935 5.012,2.935 3.673,0 4.196,-0.163 5.12,-2.937 l 6.642,-20.03 z m 12.079,35.037 c -13.72,0 -15.941,-0.685 -19.735,-11.093 l -18.231,-50.051 h 16.93 l 4.821,14.142 h 31.677 l 4.607,-14.142 h 17.576 l -18.231,49.946 c -3.925,10.575 -5.88,11.198 -19.414,11.198 M -286.313,0 h -14.644 v 14.715 h 14.536 c 11.049,0 12.822,-0.499 12.822,-7.358 0,-6.948 -1.436,-7.357 -12.714,-7.357 m 0.321,26.68 h -30.572 v -60.502 h 15.607 v 21.857 h 14.965 c 23.469,0 28.215,3.269 28.215,19.43 0,15.982 -4.746,19.215 -28.215,19.215 m -90.195,-34.395 6.852,20.032 c 0.917,2.854 1.288,2.935 5.013,2.935 3.673,0 4.195,-0.163 5.12,-2.937 l 6.64,-20.03 z m 12.079,35.037 c -13.721,0 -15.942,-0.685 -19.737,-11.093 l -18.229,-50.051 h 16.929 l 4.822,14.142 h 31.677 l 4.607,-14.142 h 17.575 l -18.23,49.946 c -3.925,10.575 -5.88,11.198 -19.414,11.198"
             style="fill:#004489;fill-opacity:1;fill-rule:nonzero;stroke:none"
             id="path92"
             inkscape:connector-curvature="0" /></g><g
           id="g94"
           transform="translate(106.6925,143.4128)"><path
             d="M 0,0 38.717,-30.3 77.434,0 42.77,45.215 c -2.044,2.666 -6.062,2.666 -8.106,0 z"
             style="fill:#004489;fill-opacity:1;fill-rule:evenodd;stroke:none"
             id="path96"
             inkscape:connector-curvature="0" /></g><g
           id="g98"
           transform="translate(71.9566,89.7959)"><path
             d="m 0,0 31.588,-24.721 c 1.849,-1.447 4.446,-1.447 6.295,0 L 73.453,3.116 34.735,53.617 -0.905,7.129 C -2.609,4.906 -2.206,1.726 0,0"
             style="fill:#e4003a;fill-opacity:1;fill-rule:evenodd;stroke:none"
             id="path100"
             inkscape:connector-curvature="0" /></g><g
           id="g102"
           transform="translate(145.4093,92.9122)"><path
             d="m 0,0 35.57,-27.837 c 1.849,-1.447 4.446,-1.447 6.295,0 l 31.588,24.721 c 2.205,1.726 2.609,4.906 0.905,7.129 L 38.717,50.501 Z"
             style="fill:#e4003a;fill-opacity:1;fill-rule:evenodd;stroke:none"
             id="path104"
             inkscape:connector-curvature="0" /></g></g></g></g></svg>