<?xml version="1.0" encoding="UTF-8"?>
<!DOCTYPE svg PUBLIC "-//W3C//DTD SVG 1.1//EN" "http://www.w3.org/Graphics/SVG/1.1/DTD/svg11.dtd">
<!-- Creator: CorelDRAW X5 -->
<svg xmlns="http://www.w3.org/2000/svg" xml:space="preserve" width="148mm" height="105mm" style="shape-rendering:geometricPrecision; text-rendering:geometricPrecision; image-rendering:optimizeQuality; fill-rule:evenodd; clip-rule:evenodd"
viewBox="0 0 14800 10500"
 xmlns:xlink="http://www.w3.org/1999/xlink">
 <defs>
  <style type="text/css">
   <![CDATA[
    .fil1 {fill:#4AE278}
    .fil0 {fill:white;fill-rule:nonzero}
   ]]>
  </style>
 </defs>
 <g id="Warstwa_x0020_1">
  <metadata id="CorelCorpID_0Corel-Layer"/>
  <g id="_378934168">
   <path class="fil0" d="M5419 5966c29,0 55,-5 76,-15 21,-10 43,-26 66,-47l55 56c-53,59 -118,89 -195,89 -76,0 -140,-25 -190,-74 -50,-49 -75,-111 -75,-186 0,-75 26,-138 77,-188 51,-50 116,-75 194,-75 78,0 144,29 196,87l-54 59c-24,-23 -47,-39 -68,-48 -21,-9 -47,-14 -75,-14 -51,0 -94,16 -128,49 -35,33 -52,75 -52,126 0,51 17,94 52,128 34,34 75,52 122,52zm661 -308c-34,-36 -77,-53 -127,-53 -50,0 -92,18 -127,53 -34,36 -52,79 -52,130 0,51 17,94 52,130 34,36 77,53 127,53 50,0 92,-18 127,-53 34,-36 52,-79 52,-130 0,-51 -17,-94 -52,-130zm62 316c-51,50 -114,75 -189,75 -75,0 -138,-25 -189,-75 -51,-50 -77,-112 -77,-186 0,-74 26,-136 77,-186 51,-50 114,-75 189,-75 75,0 138,25 189,75 51,50 77,112 77,186 0,74 -26,136 -77,186zm562 -435l85 0 0 505 -92 0 -286 -368 0 368 -85 0 0 -505 85 0 293 377 0 -377zm310 79l0 139 224 0 0 79 -224 0 0 208 -85 0 0 -505 336 0 -1 79 -250 0zm705 -79l0 80 -269 0 0 134 242 0 0 76 -242 0 0 135 278 0 0 80 -363 0 0 -505 354 0zm520 164c0,83 -36,136 -109,157l132 183 -108 0 -121 -170 -112 0 0 170 -85 0 0 -505 188 0c77,0 132,13 165,39 33,26 50,68 50,125zm-211 94c48,0 81,-7 98,-22 17,-15 26,-39 26,-72 0,-33 -9,-56 -27,-68 -18,-12 -50,-18 -95,-18l-108 0 0 180 106 0zm689 -258l0 80 -269 0 0 134 242 0 0 76 -242 0 0 135 278 0 0 80 -363 0 0 -505 354 0zm496 0l85 0 0 505 -92 0 -286 -368 0 368 -85 0 0 -505 85 0 293 377 0 -377zm455 427c29,0 55,-5 76,-15 21,-10 43,-26 66,-47l55 56c-53,59 -118,89 -195,89 -76,0 -140,-25 -190,-74 -50,-49 -75,-111 -75,-186 0,-75 26,-138 77,-188 51,-50 116,-75 194,-75 78,0 144,29 196,87l-54 59c-24,-23 -47,-39 -68,-48 -21,-9 -47,-14 -75,-14 -51,0 -94,16 -129,49 -35,33 -52,75 -52,126 0,51 17,94 52,128 34,34 75,52 122,52zm655 -427l0 80 -269 0 0 134 242 0 0 76 -242 0 0 135 278 0 0 80 -363 0 0 -505 354 0z"/>
   <path class="fil1" d="M3753 4691c-143,-143 -342,-232 -560,-232 -219,0 -417,89 -560,232 -143,143 -232,342 -232,560 0,219 89,417 232,560 143,143 342,232 560,232 163,0 314,-49 440,-133 124,-83 223,-199 284,-337l-695 0 -15 0 0 -15 0 -274 0 -15 15 0 764 0 0 -3c0,-4 0,-9 0,-17 0,-219 -89,-417 -232,-560zm1951 149l170 0 0 269c-75,84 -179,126 -312,126 -111,0 -205,-37 -280,-110 -75,-74 -113,-167 -113,-279 0,-112 38,-206 115,-281 77,-75 170,-113 278,-113 109,0 203,36 283,107l-88 127c-34,-30 -65,-50 -94,-61 -29,-11 -59,-17 -93,-17 -64,0 -118,22 -162,66 -44,44 -66,101 -66,173 0,71 21,129 63,172 42,43 93,64 151,64 59,0 107,-11 146,-34l0 -208zm963 -120c0,121 -48,200 -144,235l192 271 -208 0 -168 -241 -117 0 0 241 -169 0 0 -757 287 0c118,0 202,20 252,60 50,40 75,104 75,192zm-322 118c58,0 97,-9 118,-28 21,-19 31,-49 31,-89 0,-41 -11,-69 -32,-84 -22,-15 -60,-23 -114,-23l-127 0 0 224 123 0zm1070 -369l0 151 -377 0 0 156 339 0 0 144 -339 0 0 157 389 0 0 149 -558 0 0 -757 546 0zm737 0l0 151 -377 0 0 156 339 0 0 144 -339 0 0 157 389 0 0 149 -558 0 0 -757 546 0zm721 0l169 0 0 757 -169 0 -361 -474 0 474 -169 0 0 -757 158 0 372 487 0 -487zm904 0l0 148 -351 0 0 164 334 0 0 148 -334 0 0 297 -169 0 0 -757 520 0zm172 0l169 0 0 757 -169 0 0 -757zm930 0l0 151 -377 0 0 156 339 0 0 144 -339 0 0 157 389 0 0 149 -558 0 0 -757 546 0zm191 757l0 -757 169 0 0 606 323 0 0 151 -492 0zm911 -757c135,0 239,33 311,99 72,66 108,158 108,276 0,118 -35,211 -106,279 -70,69 -178,103 -322,103l-259 0 0 -757 268 0zm9 607c77,0 137,-19 178,-58 42,-39 62,-96 62,-170 0,-74 -21,-132 -62,-172 -42,-40 -105,-60 -191,-60l-94 0 0 460 107 0zm-7456 -455c31,0 59,6 85,17 27,11 50,27 68,46 19,20 34,43 46,69 11,27 17,55 17,84 0,31 -6,59 -17,85 -11,27 -27,50 -46,68 -19,19 -42,34 -68,46 -26,11 -55,17 -85,17 -30,0 -59,-6 -84,-17 -26,-12 -49,-27 -68,-46 -20,-19 -35,-42 -46,-68 -11,-26 -17,-55 -17,-85 0,-30 6,-57 17,-84 11,-26 27,-49 46,-69 20,-20 42,-35 68,-46 26,-11 54,-17 84,-17zm0 828c31,0 59,5 85,17 27,11 50,26 68,46 19,19 34,42 46,69 11,26 17,55 17,84 0,30 -6,59 -17,85 -11,27 -27,50 -46,69 -19,19 -42,35 -68,46 -26,11 -55,17 -85,17 -30,0 -59,-5 -84,-17 -26,-11 -49,-27 -68,-46 -20,-20 -35,-43 -46,-69 -11,-26 -17,-55 -17,-85 0,-30 6,-58 17,-84 11,-26 27,-49 46,-69 20,-19 42,-34 68,-46 26,-11 54,-17 84,-17z"/>
  </g>
 </g>
</svg>
