<svg xmlns="http://www.w3.org/2000/svg" width="611.419" height="128.34" viewBox="0 0 611.419 128.34">
  <g id="Group_5" data-name="Group 5" transform="translate(-69.997 -62.287)">
    <g id="Group_3" data-name="Group 3">
      <g id="Group_2" data-name="Group 2">
        <g id="Group_1" data-name="Group 1">
          <path id="Path_1" data-name="Path 1" d="M267.863,179.262h-7.089V190.3h-7.629V160h15.313c11.9,0,14.123,1.678,14.123,9.579,0,6.277-1.406,8.658-7.575,9.415a17.64,17.64,0,0,1,3.247,3.789l5.573,7.521H275.06Zm.433-5.789c5.736,0,6.547-.217,6.547-3.843,0-3.516-.919-3.841-6.6-3.841h-7.468v7.684Z" fill="#fff"/>
          <path id="Path_2" data-name="Path 2" d="M298.013,165.789v5.952h15.638v5.791H298.013v6.979h17.8V190.3H290.383V160h24.892v5.791Z" fill="#fff"/>
          <path id="Path_3" data-name="Path 3" d="M350.133,163.732v1.9l-.487.487a67.189,67.189,0,0,0-9.741-.6c-10.011,0-10.606.323-10.606,9.632s.7,9.632,11.093,9.632a55.44,55.44,0,0,0,9.524-.705l.487.488v1.9c0,2.813-1.515,4.166-11.851,4.166-14.556,0-17.1-1.353-17.1-15.476s2.706-15.478,17.1-15.478C349.05,159.673,350.133,161.189,350.133,163.732Z" fill="#fff"/>
          <path id="Path_4" data-name="Path 4" d="M373.518,165.789V190.3h-7.684V165.789H353.929V160h31.494v5.791Z" fill="#fff"/>
          <path id="Path_5" data-name="Path 5" d="M424.177,175.151c0,14.123-2.436,15.476-17.479,15.476-14.936,0-17.37-1.353-17.37-15.476s2.434-15.478,17.37-15.478C421.741,159.673,424.177,161.026,424.177,175.151Zm-27,0c0,9.307.6,9.632,9.578,9.632,8.929,0,9.578-.325,9.578-9.632s-.649-9.632-9.578-9.632C397.769,165.519,397.174,165.842,397.174,175.151Z" fill="#fff"/>
          <path id="Path_6" data-name="Path 6" d="M446.428,179.262h-7.089V190.3H431.71V160h15.313c11.9,0,14.123,1.678,14.123,9.579,0,6.277-1.406,8.658-7.575,9.415a17.64,17.64,0,0,1,3.247,3.789l5.574,7.521h-8.767Zm.433-5.789c5.736,0,6.548-.217,6.548-3.843,0-3.516-.92-3.841-6.6-3.841h-7.468v7.684Z" fill="#fff"/>
        </g>
      </g>
      <path id="Path_7" data-name="Path 7" d="M286.06,78.607c-13.72,0-15.941.686-19.736,11.093L248.1,139.752h16.929l4.822-14.143h31.676l4.608,14.143H323.7l-18.23-49.946C301.55,79.23,299.6,78.607,286.06,78.607Zm-12.079,35.038,6.853-20.033c.917-2.853,1.288-2.934,5.013-2.934,3.673,0,4.2.163,5.12,2.936l6.64,20.031Zm90.2-34.395H333.6v60.5h15.608V117.895h14.965c23.469,0,28.214-3.269,28.214-19.43C392.391,82.482,387.646,79.25,364.177,79.25Zm-.322,26.68H349.212V91.215h14.536c11.049,0,12.822.5,12.822,7.357C376.57,105.52,375.134,105.93,363.855,105.93ZM431.79,78.607c-13.72,0-15.941.686-19.735,11.093l-18.231,50.052h16.93l4.821-14.143h31.677l4.607,14.143h17.576L451.2,89.806C447.279,79.23,445.324,78.607,431.79,78.607Zm-12.079,35.038,6.852-20.033c.917-2.853,1.289-2.934,5.013-2.934,3.673,0,4.2.163,5.12,2.936l6.642,20.031Zm46.227-22.43h23.573v48.537h15.715V91.215H528.8V79.25h-62.86ZM570.66,78.607c-15.373,0-23.551.733-28.449,4.894-3.924,3.334-6.2,8.657-6.2,26,0,13.133,1.013,21.6,6.2,26,4.9,4.161,13.076,4.894,28.449,4.894,15.479,0,23.711-.733,28.636-4.894,3.94-3.331,6.223-8.652,6.223-26,0-13.136-1.019-21.6-6.223-26C594.371,79.34,586.139,78.607,570.66,78.607Zm.107,49.715c-17.4,0-18.714-.436-18.714-18.822s1.319-18.822,18.714-18.822,18.715.436,18.715,18.822S588.163,128.322,570.767,128.322Zm99.323-3.854a36.863,36.863,0,0,0-6.047-7.184c11.357-1.515,14.663-5.826,14.663-18.819,0-15.983-4.747-19.215-28.216-19.215H619.917v60.5h15.608V117.895h13.651l14.251,21.857h17.989ZM650.169,105.93H635.525V91.215h14.536c11.049,0,12.823.5,12.823,7.357C662.884,105.52,661.447,105.93,650.169,105.93Z" fill="#fff"/>
    </g>
    <g id="Group_4" data-name="Group 4">
      <path id="Path_8" data-name="Path 8" d="M106.693,109.5l38.716,30.3,38.718-30.3L149.462,64.287a5.106,5.106,0,0,0-8.106,0Z" fill="#fff" fill-rule="evenodd"/>
      <path id="Path_9" data-name="Path 9" d="M71.957,163.118l31.588,24.721a5.107,5.107,0,0,0,6.295,0L145.409,160l-38.717-50.5L71.051,155.989A5.107,5.107,0,0,0,71.957,163.118Z" fill="#fff" fill-rule="evenodd"/>
      <path id="Path_10" data-name="Path 10" d="M145.409,160l35.57,27.837a5.107,5.107,0,0,0,6.295,0l31.588-24.721a5.106,5.106,0,0,0,.9-7.129L184.127,109.5Z" fill="#fff" fill-rule="evenodd"/>
    </g>
  </g>
</svg>
