<?xml version="1.0" encoding="utf-8"?>
<!-- Generator: Adobe Illustrator 22.1.0, SVG Export Plug-In . SVG Version: 6.00 Build 0)  -->
<svg version="1.1"
	 id="svg48" inkscape:version="0.92.4 (33fec40, 2019-01-16)" sodipodi:docname="apator-logo.svg" xmlns:cc="http://creativecommons.org/ns#" xmlns:dc="http://purl.org/dc/elements/1.1/" xmlns:inkscape="http://www.inkscape.org/namespaces/inkscape" xmlns:rdf="http://www.w3.org/1999/02/22-rdf-syntax-ns#" xmlns:sodipodi="http://sodipodi.sourceforge.net/DTD/sodipodi-0.dtd" xmlns:svg="http://www.w3.org/2000/svg"
	 xmlns="http://www.w3.org/2000/svg" xmlns:xlink="http://www.w3.org/1999/xlink" x="0px" y="0px" viewBox="0 0 1100.1 370.8"
	 style="enable-background:new 0 0 1100.1 370.8;" xml:space="preserve">
<style type="text/css">
	.st0{fill:#FFFFFF;}
	.st1{clip-path:url(#SVGID_2_);}
	.st2{fill:#004489;}
	.st3{fill:#E4003A;}
</style>
<rect x="0.1" y="0.4" class="st0" width="1100" height="370"/>
<sodipodi:namedview  bordercolor="#666666" borderopacity="1" gridtolerance="10" guidetolerance="10" id="namedview50" inkscape:current-layer="g56" inkscape:cx="500.94601" inkscape:cy="168.60933" inkscape:pageopacity="0" inkscape:pageshadow="2" inkscape:window-height="1016" inkscape:window-maximized="1" inkscape:window-width="1920" inkscape:window-x="0" inkscape:window-y="27" inkscape:zoom="1.7586725" objecttolerance="10" pagecolor="#ffffff" showgrid="false">
	</sodipodi:namedview>
<g id="g56" transform="matrix(1.3333333,0,0,-1.3333333,0,337.21867)" inkscape:groupmode="layer" inkscape:label="logoAPATOR RECTORpoziomCMYK">
	<g id="g58">
		<g>
			<defs>
				<rect id="SVGID_1_" x="-88.4" y="-54.7" width="1001.9" height="337.2"/>
			</defs>
			<clipPath id="SVGID_2_">
				<use xlink:href="#SVGID_1_"  style="overflow:visible;"/>
			</clipPath>
			<g id="g60" class="st1">
				<g id="g66" transform="translate(268.2957,79.4408)">
					<path id="path68" inkscape:connector-curvature="0" class="st2" d="M36.8-12.6c5.7,0,6.5,0.2,6.5,3.8c0,3.5-0.9,3.8-6.6,3.8
						h-7.5v-7.7H36.8z M36.4-18.4h-7.1v-11h-7.6V0.9H37c11.9,0,14.1-1.7,14.1-9.6c0-6.3-1.4-8.7-7.6-9.4c1-0.9,1.9-1.9,3.2-3.8
						l5.6-7.5h-8.8L36.4-18.4z"/>
				</g>
				<g id="g70" transform="translate(298.0131,87.1249)">
					<path id="path72" inkscape:connector-curvature="0" class="st2" d="M36.8-12.6v-6h15.6v-5.8H36.8v-7h17.8v-5.8H29.2v30.3h24.9
						v-5.8H36.8z"/>
				</g>
				<g id="g74" transform="translate(350.133,89.1825)">
					<path id="path76" inkscape:connector-curvature="0" class="st2" d="M36.8-12.6v-1.9L36.3-15c-1.8,0.3-5.7,0.6-9.7,0.6
						c-10,0-10.6-0.3-10.6-9.6c0-9.3,0.7-9.6,11.1-9.6c4.2,0,7.5,0.3,9.5,0.7l0.5-0.5v-1.9c0-2.8-1.5-4.2-11.9-4.2
						C10.7-39.5,8.2-38.1,8.2-24c0,14.1,2.7,15.5,17.1,15.5C35.7-8.5,36.8-10,36.8-12.6"/>
				</g>
				<g id="g78" transform="translate(373.5181,87.1249)">
					<path id="path80" inkscape:connector-curvature="0" class="st2" d="M36.8-12.6v-24.5h-7.7v24.5H17.2v5.8h31.5v-5.8H36.8z"/>
				</g>
				<g id="g82" transform="translate(397.1735,77.763)">
					<path id="path84" inkscape:connector-curvature="0" class="st2" d="M36.8-12.6c0-9.3,0.6-9.6,9.6-9.6c8.9,0,9.6,0.3,9.6,9.6
						C56-3.3,55.3-3,46.4-3C37.4-3,36.8-3.3,36.8-12.6 M63.8-12.6c0-14.1-2.4-15.5-17.5-15.5C31.4-28.1,29-26.7,29-12.6
						C29,1.5,31.4,2.9,46.4,2.9C61.4,2.9,63.8,1.5,63.8-12.6"/>
				</g>
				<g id="g86" transform="translate(446.8608,79.4408)">
					<path id="path88" inkscape:connector-curvature="0" class="st2" d="M36.8-12.6c5.7,0,6.5,0.2,6.5,3.8c0,3.5-0.9,3.8-6.6,3.8
						h-7.5v-7.7H36.8z M36.4-18.4h-7.1v-11h-7.6V0.9H37c11.9,0,14.1-1.7,14.1-9.6c0-6.3-1.4-8.7-7.6-9.4c1-0.9,1.9-1.9,3.2-3.8
						l5.6-7.5h-8.8L36.4-18.4z"/>
				</g>
				<g id="g90" transform="translate(650.1689,146.9845)">
					<path id="path92" inkscape:connector-curvature="0" class="st2" d="M36.8-12.6H22.2V2.1h14.5c11,0,12.8-0.5,12.8-7.4
						C49.5-12.2,48.1-12.6,36.8-12.6 M56.8-31.1c-2.3,3.3-4,5.4-6,7.2c11.4,1.5,14.7,5.8,14.7,18.8c0,16-4.7,19.2-28.2,19.2H6.6
						v-60.5h15.6v21.9h13.7l14.3-21.9h18L56.8-31.1z M-42.6-35c-17.4,0-18.7,0.4-18.7,18.8c0,18.4,1.3,18.8,18.7,18.8
						c17.4,0,18.7-0.4,18.7-18.8C-23.9-34.5-25.2-35-42.6-35 M-42.7,14.7c-15.4,0-23.6-0.7-28.4-4.9c-3.9-3.3-6.2-8.7-6.2-26
						c0-13.1,1-21.6,6.2-26c4.9-4.2,13.1-4.9,28.4-4.9c15.5,0,23.7,0.7,28.6,4.9c3.9,3.3,6.2,8.7,6.2,26c0,13.1-1,21.6-6.2,26
						C-19,14-27.2,14.7-42.7,14.7 M-147.4,2.1h23.6v-48.5h15.7V2.1h23.6v12h-62.9V2.1z M-193.6-20.3l6.9,20c0.9,2.9,1.3,2.9,5,2.9
						c3.7,0,4.2-0.2,5.1-2.9l6.6-20L-193.6-20.3z M-181.5,14.7c-13.7,0-15.9-0.7-19.7-11.1l-18.2-50.1h16.9l4.8,14.1h31.7l4.6-14.1
						h17.6l-18.2,49.9C-166.1,14.1-168,14.7-181.5,14.7 M-249.5-12.6h-14.6V2.1h14.5c11,0,12.8-0.5,12.8-7.4
						C-236.8-12.2-238.2-12.6-249.5-12.6 M-249.2,14.1h-30.6v-60.5h15.6v21.9h15c23.5,0,28.2,3.3,28.2,19.4
						C-220.9,10.9-225.7,14.1-249.2,14.1 M-339.4-20.3l6.9,20c0.9,2.9,1.3,2.9,5,2.9c3.7,0,4.2-0.2,5.1-2.9l6.6-20L-339.4-20.3z
						 M-327.3,14.7c-13.7,0-15.9-0.7-19.7-11.1l-18.2-50.1h16.9l4.8,14.1h31.7l4.6-14.1h17.6l-18.2,49.9
						C-311.8,14.1-313.7,14.7-327.3,14.7"/>
				</g>
				<g id="g94" transform="translate(106.6925,143.4128)">
					<path id="path96" inkscape:connector-curvature="0" class="st2" d="M36.8-12.6l38.7-30.3l38.7,30.3L79.6,32.6
						c-2,2.7-6.1,2.7-8.1,0L36.8-12.6z"/>
				</g>
				<g id="g98" transform="translate(71.9566,89.7959)">
					<path id="path100" inkscape:connector-curvature="0" class="st3" d="M36.8-12.6l31.6-24.7c1.8-1.4,4.4-1.4,6.3,0l35.6,27.8
						L71.6,41L35.9-5.5C34.2-7.7,34.6-10.9,36.8-12.6"/>
				</g>
				<g id="g102" transform="translate(145.4093,92.9122)">
					<path id="path104" inkscape:connector-curvature="0" class="st3" d="M36.8-12.6l35.6-27.8c1.8-1.4,4.4-1.4,6.3,0l31.6,24.7
						c2.2,1.7,2.6,4.9,0.9,7.1L75.5,37.9L36.8-12.6z"/>
				</g>
			</g>
		</g>
	</g>
</g>
</svg>
