<?xml version="1.0" encoding="utf-8"?>
<!-- Generator: Adobe Illustrator 22.1.0, SVG Export Plug-In . SVG Version: 6.00 Build 0)  -->
<svg version="1.1" id="Layer_1" xmlns="http://www.w3.org/2000/svg" xmlns:xlink="http://www.w3.org/1999/xlink" x="0px" y="0px"
	 viewBox="0 0 335.5 64.2" style="enable-background:new 0 0 335.5 64.2;" xml:space="preserve">
<style type="text/css">
	.st0{fill:#FFFFFF;}
</style>
<path d="M5.2,31.8c0-14,11.3-25.3,25.3-25.3s25.3,11.3,25.3,25.3S44.5,57.1,30.5,57.1S5.2,45.8,5.2,31.8"/>
<path class="st0" d="M11.4,31.8c0,10.6,8.6,19.1,19.1,19.1c10.6,0,19.1-8.6,19.1-19.1c0-10.6-8.6-19.1-19.1-19.1
	C19.9,12.7,11.4,21.2,11.4,31.8"/>
<path d="M123.6,39.4c-0.6,0.3-1.2,0.4-1.9,0.6c-0.7,0.1-1.5,0.2-2.4,0.2s-1.8-0.1-2.6-0.4c-0.8-0.3-1.5-0.7-2.1-1.3
	s-1.1-1.3-1.4-2.1s-0.5-1.8-0.5-2.9c0-1.3,0.2-2.5,0.8-3.5c0.5-1,1.3-1.8,2.2-2.4c1-0.6,2.1-0.9,3.4-0.9c1,0,1.8,0.1,2.5,0.2
	s1.2,0.3,1.7,0.5l1.2-5.6c-0.5-0.2-1.1-0.4-1.7-0.5s-1.3-0.2-2-0.3c-0.7-0.1-1.3-0.1-2-0.1c-2.2,0-4.2,0.4-5.9,1
	c-1.7,0.7-3.2,1.6-4.3,2.8c-1.2,1.2-2,2.6-2.6,4.1c-0.6,1.6-0.9,3.2-0.9,5c0,2.5,0.5,4.7,1.6,6.6c1,1.9,2.5,3.3,4.4,4.3
	s4.1,1.5,6.7,1.5c1,0,1.9,0,2.7-0.2c0.9-0.1,1.6-0.2,2.3-0.4c0.7-0.2,1.2-0.4,1.7-0.6L123.6,39.4z M134.1,21.3h-7.5v24.3h7.5V21.3z
	 M130.4,10.7c-0.8,0-1.5,0.2-2.1,0.5c-0.6,0.3-1.1,0.8-1.4,1.3c-0.3,0.6-0.5,1.2-0.5,1.9s0.2,1.3,0.5,1.9c0.3,0.6,0.8,1,1.3,1.4
	c0.6,0.3,1.3,0.5,2.1,0.5s1.6-0.2,2.2-0.5c0.6-0.3,1.1-0.8,1.4-1.4c0.3-0.6,0.5-1.2,0.5-1.9s-0.2-1.4-0.5-1.9
	c-0.3-0.6-0.8-1-1.3-1.3C131.9,10.9,131.2,10.7,130.4,10.7 M138.1,45.6h7.5v-14c0-0.4,0-0.7,0.1-1c0-0.3,0.1-0.6,0.2-0.9
	c0.2-0.5,0.4-0.9,0.8-1.3c0.3-0.4,0.7-0.8,1.3-1.1c0.5-0.3,1.1-0.4,1.8-0.4c0.9,0,1.6,0.2,2.2,0.7c0.6,0.4,1,1.1,1.2,1.8
	c0.3,0.8,0.4,1.7,0.4,2.8v13.5h7.5V31.2c0-1.8-0.2-3.3-0.7-4.7c-0.4-1.3-1-2.4-1.8-3.3s-1.7-1.5-2.7-1.9s-2.2-0.6-3.4-0.6
	c-1,0-1.9,0.1-2.7,0.4s-1.5,0.6-2.1,1s-1.1,0.8-1.6,1.3c-0.4,0.4-0.8,0.9-1,1.3H145l-0.3-3.4h-6.8c0,1.1,0.1,2.3,0.1,3.6
	c0,1.3,0.1,2.7,0.1,4.2L138.1,45.6L138.1,45.6z M172.4,10.2h-7.5v35.4h7.5V38l1.9-2.4l5.8,10h9.2l-9.8-14.5l8.6-9.8h-9l-4.9,7.3
	c-0.3,0.4-0.6,0.9-0.9,1.4c-0.3,0.5-0.6,1-0.8,1.5h-0.1V10.2z M206.1,39.4c-0.6,0.3-1.2,0.4-1.9,0.6c-0.7,0.1-1.5,0.2-2.4,0.2
	s-1.8-0.1-2.6-0.4c-0.8-0.3-1.5-0.7-2.1-1.3s-1.1-1.3-1.4-2.1c-0.3-0.8-0.5-1.8-0.5-2.9c0-1.3,0.3-2.5,0.8-3.5s1.3-1.8,2.2-2.4
	c1-0.6,2.1-0.9,3.4-0.9c1,0,1.8,0.1,2.5,0.2s1.2,0.3,1.7,0.5l1.2-5.6c-0.5-0.2-1.1-0.4-1.7-0.5c-0.6-0.1-1.3-0.2-2-0.3
	c-0.7-0.1-1.3-0.1-2-0.1c-2.2,0-4.2,0.4-5.9,1c-1.7,0.7-3.2,1.6-4.3,2.8c-1.2,1.2-2,2.6-2.6,4.1c-0.6,1.6-0.9,3.2-0.9,5
	c0,2.5,0.5,4.7,1.6,6.6c1,1.9,2.5,3.3,4.4,4.3s4.1,1.5,6.8,1.5c1,0,1.9,0,2.7-0.2c0.9-0.1,1.6-0.2,2.3-0.4s1.2-0.4,1.7-0.6
	L206.1,39.4z M216.6,21.3h-7.5v24.3h7.5V21.3z M212.9,10.7c-0.8,0-1.5,0.2-2.1,0.5s-1.1,0.8-1.4,1.3c-0.3,0.6-0.5,1.2-0.5,1.9
	s0.2,1.3,0.5,1.9c0.3,0.6,0.8,1,1.3,1.4c0.6,0.3,1.3,0.5,2.1,0.5s1.6-0.2,2.2-0.5c0.6-0.3,1.1-0.8,1.4-1.4c0.3-0.6,0.5-1.2,0.5-1.9
	s-0.2-1.4-0.5-1.9c-0.3-0.6-0.8-1-1.3-1.3C214.4,10.9,213.7,10.7,212.9,10.7 M240.6,31.2c0-1.4-0.2-2.8-0.5-4.1
	c-0.4-1.3-0.9-2.4-1.7-3.4s-1.9-1.7-3.2-2.3c-1.4-0.5-3-0.8-5-0.8c-1.5,0-2.8,0.1-4,0.4c-1.2,0.2-2.2,0.5-3.1,0.8
	c-0.9,0.3-1.6,0.7-2.2,1l1.4,4.9c0.5-0.3,1.2-0.6,1.9-0.9s1.5-0.5,2.3-0.7s1.6-0.3,2.5-0.3s1.7,0.1,2.2,0.3c0.6,0.2,1,0.5,1.3,0.8
	s0.5,0.7,0.6,1c0.1,0.4,0.2,0.7,0.2,1.1v0.3c-2.1,0-4.1,0.2-5.8,0.6s-3.2,1-4.4,1.7c-1.2,0.8-2.2,1.7-2.9,2.9c-0.7,1.2-1,2.5-1,4.1
	c0,1,0.2,1.9,0.5,2.8c0.3,0.9,0.9,1.7,1.5,2.4c0.7,0.7,1.5,1.3,2.4,1.7c1,0.4,2,0.6,3.3,0.6c1.4,0,2.7-0.3,3.9-0.8s2.2-1.3,3-2.2
	h0.1l0.5,2.4h6.7c-0.1-0.5-0.2-1-0.2-1.6c-0.1-0.6-0.1-1.3-0.1-2s0-1.5,0-2.2v-8.5H240.6z M233.4,36.7c0,0.2,0,0.4,0,0.7
	c0,0.2-0.1,0.4-0.1,0.6c-0.2,0.5-0.4,1-0.8,1.4c-0.4,0.4-0.8,0.7-1.4,1c-0.5,0.2-1.1,0.4-1.7,0.4c-0.6,0-1.1-0.1-1.5-0.3
	s-0.8-0.5-1-1c-0.3-0.4-0.4-1-0.4-1.6c0-1,0.3-1.7,0.9-2.3c0.6-0.6,1.4-1,2.5-1.2c1-0.2,2.2-0.4,3.6-0.4v2.7H233.4z M244.6,45.6h7.5
	V33.3c0-0.3,0-0.6,0-0.9s0.1-0.6,0.1-0.8c0.3-1.2,0.8-2.1,1.7-2.8c0.9-0.7,2-1,3.4-1c0.4,0,0.8,0,1.1,0.1c0.3,0,0.6,0.1,0.9,0.1
	v-7.1c-0.3-0.1-0.5-0.1-0.7-0.1s-0.5,0-0.8,0c-0.6,0-1.2,0.1-1.8,0.3c-0.6,0.2-1.2,0.5-1.8,0.9s-1.1,0.9-1.6,1.6
	c-0.5,0.6-0.9,1.4-1.2,2.3h-0.2l-0.3-4.5h-6.4c0.1,0.7,0.1,1.4,0.1,2.2c0,0.8,0.1,1.7,0.1,2.6s0,2,0,3.2L244.6,45.6L244.6,45.6z
	 M259.7,45.6h20.9v-6h-11.5v-0.1c0.7-0.7,1.3-1.4,2-2.1c0.6-0.8,1.3-1.5,2-2.3l7.2-9.2v-4.6h-19.7v6h10.5v0.1
	c-0.7,0.7-1.3,1.4-1.9,2.1s-1.2,1.4-1.9,2.2l-7.6,9.6V45.6z M285.1,46c0.7,0,1.4-0.2,1.9-0.5s0.9-0.7,1.2-1.3
	c0.3-0.5,0.4-1.2,0.5-1.9c0-0.8-0.2-1.4-0.5-2s-0.7-1-1.2-1.3s-1.1-0.5-1.8-0.5c-0.7,0-1.3,0.2-1.8,0.5s-0.9,0.7-1.2,1.3
	c-0.3,0.5-0.4,1.2-0.4,1.9s0.1,1.3,0.4,1.9c0.3,0.6,0.7,1,1.2,1.3C283.9,45.9,284.5,46,285.1,46 M290.8,53.5h6v-9.7h0.1
	c0.3,0.4,0.7,0.8,1.2,1.1s1.1,0.6,1.7,0.8c0.7,0.2,1.4,0.3,2.1,0.3c0.9,0,1.7-0.1,2.6-0.4c0.8-0.3,1.6-0.7,2.4-1.2s1.4-1.2,2-2.1
	c0.6-0.8,1-1.8,1.3-2.9c0.3-1.1,0.5-2.4,0.5-3.8c0-1.6-0.2-2.9-0.7-4.2c-0.4-1.2-1-2.3-1.8-3.1c-0.7-0.9-1.6-1.5-2.6-1.9
	c-0.9-0.5-2-0.7-3-0.7c-1.4,0-2.6,0.3-3.7,0.8s-2,1.3-2.7,2.3h-0.1l-0.3-2.7h-5.2c0,0.9,0.1,1.9,0.1,3s0,2.3,0,3.5v20.9H290.8z
	 M296.7,34.6c0-0.2,0-0.4,0-0.6s0-0.4,0.1-0.5c0.1-0.6,0.4-1.1,0.7-1.6c0.3-0.5,0.8-0.8,1.3-1.1c0.5-0.3,1-0.4,1.6-0.4
	c0.9,0,1.6,0.3,2.2,0.7c0.6,0.5,1.1,1.1,1.4,1.9s0.5,1.7,0.5,2.8s-0.2,2.1-0.5,2.9c-0.3,0.8-0.8,1.5-1.4,1.9
	c-0.6,0.5-1.3,0.7-2.2,0.7c-0.6,0-1.1-0.1-1.6-0.4c-0.5-0.2-0.9-0.6-1.2-1c-0.3-0.4-0.6-0.9-0.7-1.5c0-0.2-0.1-0.4-0.1-0.6
	c0-0.2,0-0.4,0-0.7L296.7,34.6L296.7,34.6z M312.7,45.6h6V17.3h-6V45.6z"/>
<path d="M58,11c-1.5,1-2.9,2.2-4.1,3.4c0.1,0.1,0.2,0.3,0.3,0.4c7.3,10.8,6.9,24.6-0.1,34.8c8.4,8.6,22,10.2,32.3,3.2
	C98,45,101,29.2,93.2,17.7C85.3,6.1,69.6,3.1,58,11"/>
<path d="M37,38.8c-0.8,0.4-2.6,1-4.3,1c-1.9,0-3.7-0.6-4.9-1.9c-0.6-0.6-1-1.5-1.2-2.6h9.5v-2.7h-10V32c0-0.4,0-0.8,0-1.2h10v-2.7
	h-9.4c0.3-1,0.7-1.8,1.2-2.5c1.2-1.4,2.8-2,4.6-2c1.7,0,3.2,0.5,4.2,0.9l1.1-4.3c-1.4-0.6-3.4-1.1-5.7-1.1c-3.5,0-6.6,1.4-8.7,3.9
	c-1.2,1.4-2.1,3.1-2.6,5.1h-2.5v2.7h2.1c0,0.4,0,0.8,0,1.1v0.6h-2v2.7h2.4c0.4,2,1.1,3.6,2.1,4.9c2.1,2.8,5.5,4.3,9.2,4.3
	c2.4,0,4.6-0.7,5.9-1.4L37,38.8z"/>
<path d="M323.2,20.2h0.7c0.3,0,0.5,0,0.7-0.1c0.1-0.1,0.2-0.2,0.2-0.4c0-0.1,0-0.2-0.1-0.3c-0.1-0.1-0.1-0.1-0.2-0.2
	c-0.1,0-0.3-0.1-0.6-0.1h-0.6v1.1H323.2z M322.7,22.1v-3.4h1.2c0.4,0,0.7,0,0.9,0.1c0.2,0.1,0.3,0.2,0.4,0.3
	c0.1,0.2,0.2,0.3,0.2,0.5c0,0.3-0.1,0.5-0.3,0.7c-0.2,0.2-0.4,0.3-0.7,0.3c0.1,0.1,0.2,0.1,0.3,0.2c0.1,0.1,0.3,0.4,0.5,0.7l0.4,0.7
	h-0.7l-0.3-0.5c-0.2-0.4-0.4-0.7-0.6-0.8c-0.1-0.1-0.2-0.1-0.4-0.1h-0.3v1.5h-0.6V22.1z M324.1,17.7c-0.5,0-0.9,0.1-1.3,0.3
	c-0.4,0.2-0.8,0.6-1,1c-0.2,0.4-0.4,0.9-0.4,1.3c0,0.5,0.1,0.9,0.4,1.3c0.2,0.4,0.6,0.7,1,1c0.4,0.2,0.9,0.4,1.3,0.4
	c0.5,0,0.9-0.1,1.3-0.4c0.4-0.2,0.8-0.6,1-1s0.4-0.9,0.4-1.3c0-0.5-0.1-0.9-0.4-1.3c-0.2-0.4-0.6-0.8-1-1
	C325,17.8,324.5,17.7,324.1,17.7 M324.1,17.2c0.5,0,1.1,0.1,1.6,0.4c0.5,0.3,0.9,0.7,1.2,1.2c0.3,0.5,0.4,1,0.4,1.6
	s-0.1,1.1-0.4,1.6s-0.7,0.9-1.2,1.2c-0.5,0.3-1,0.4-1.6,0.4s-1.1-0.1-1.6-0.4s-0.9-0.7-1.2-1.2c-0.3-0.5-0.4-1-0.4-1.6
	s0.1-1.1,0.4-1.6s0.7-0.9,1.2-1.2C323,17.3,323.6,17.2,324.1,17.2"/>
<path class="st0" d="M76.9,29.1c-3-1.1-4.2-1.8-4.2-2.6c0-0.8,0.6-1.5,2.8-1.5c2.7,0,4.4,0.8,5.4,1.2l1.2-4.8
	c-1.3-0.5-2.9-1-5.4-1.1v-3h-4.1v3.3c-4.1,0.8-6.3,3.4-6.3,6.7c0,3.6,2.8,5.4,6.6,6.7c2.7,0.8,3.7,1.5,3.7,2.6s-1.3,1.6-3.1,1.6
	c-2.4,0-4.7-0.8-6.3-1.6l-1.2,5c1.4,0.7,3.8,1.4,6.3,1.5v3.3h4.1v-3.7c4.3-0.8,6.7-3.5,6.7-6.8C83.1,32.7,81.4,30.6,76.9,29.1"/>
</svg>
