<?xml version="1.0" encoding="UTF-8" standalone="no"?>
<svg
   xmlns:dc="http://purl.org/dc/elements/1.1/"
   xmlns:cc="http://creativecommons.org/ns#"
   xmlns:rdf="http://www.w3.org/1999/02/22-rdf-syntax-ns#"
   xmlns:svg="http://www.w3.org/2000/svg"
   xmlns="http://www.w3.org/2000/svg"
   viewBox="0 0 377.94666 148.66667"
   height="148.66667"
   width="377.94666"
   xml:space="preserve"
   id="svg10"
   version="1.1"><metadata
     id="metadata16"><rdf:RDF><cc:Work
         rdf:about=""><dc:format>image/svg+xml</dc:format><dc:type
           rdf:resource="http://purl.org/dc/dcmitype/StillImage" /><dc:title></dc:title></cc:Work></rdf:RDF></metadata><defs
     id="defs14" /><g
     transform="matrix(1.3333333,0,0,-1.3333333,0,148.66667)"
     id="g18"><g
       transform="scale(0.1)"
       id="g20"><path
         id="path22"
         style="fill:#00abbf;fill-opacity:1;fill-rule:nonzero;stroke:none"
         d="m 560.359,891.648 c -185.504,0 -335.906,-149.136 -335.906,-333.125 0,-171.367 130.481,-312.539 298.313,-331.05 -0.356,19.429 -4.575,149.8 -54.731,237.73 -25.23,44.223 -140.23,192.539 -140.23,192.539 -4.282,5 -6.86,11.438 -6.86,18.488 0,15.774 12.895,28.567 28.813,28.567 9.937,0 18.711,-5 23.863,-12.578 17.973,-24.906 113.344,-163.735 187.949,-163.735 74.59,0 169.946,138.829 187.934,163.735 5.164,7.578 13.941,12.578 23.863,12.578 15.942,0 28.821,-12.793 28.821,-28.567 0,-7.05 -2.586,-13.488 -6.856,-18.488 0,0 -115.012,-148.316 -140.215,-192.539 -49.929,-87.535 -54.363,-217.117 -54.734,-237.469 166.66,19.602 295.933,160.204 295.933,330.789 0,183.989 -150.425,333.125 -335.957,333.125 m 0,-264.863 c -40.523,0 -73.394,32.578 -73.394,72.793 0,40.219 32.871,72.797 73.394,72.797 40.571,0 73.418,-32.578 73.418,-72.797 0,-40.215 -32.847,-72.793 -73.418,-72.793" /><path
         id="path24"
         style="fill:#00abbf;fill-opacity:1;fill-rule:nonzero;stroke:none"
         d="m 1127.61,725.984 c 51.31,0 91.85,-14.136 87.13,-65.425 -8.64,-100.137 -140.21,-80.461 -156.17,-74.036 -6.9,-41.503 1.73,-53.039 32.36,-53.464 28.04,-1.731 69.02,2.144 98.34,6.836 l -5.61,-35.911 c -35.39,-10.273 -72.03,-14.113 -115.15,-12.421 -55.24,1.707 -71.623,44.929 -56.1,127.91 13.38,69.726 31.08,106.086 115.2,106.511 m 36.21,-70.586 c 4.31,24.375 -10.35,28.657 -39.7,28.227 -50.89,0 -54.33,-31.645 -60.8,-63.723 0,0 92.31,-12.414 100.5,35.496" /><path
         id="path26"
         style="fill:#00abbf;fill-opacity:1;fill-rule:nonzero;stroke:none"
         d="m 1271.61,744.348 c 8.18,49.215 38.81,64.629 73.72,63.32 0,0 116.5,-4.27 134.17,-6.828 l -6.48,-40.645 h -126.37 c -21.15,0 -24.59,-12.39 -26.32,-23.972 l -9.48,-61.993 128.98,-4.296 -6.49,-40.649 -130.69,-4.246 -20.72,-130.488 h -50.03 l 39.71,249.797" /><path
         id="path28"
         style="fill:#00abbf;fill-opacity:1;fill-rule:nonzero;stroke:none"
         d="m 1504.01,721.711 h 50.03 l -36.22,-227.16 h -50.04 z m 7.36,67.144 c 0.82,6.418 5.14,10.708 12.05,10.708 h 36.67 c 6.48,0 8.63,-4.708 7.75,-10.708 l -4.73,-32.5 c -0.86,-6.421 -5.62,-9.863 -11.65,-9.863 h -36.65 c -6.06,0 -9.48,3.852 -8.63,9.863 l 5.19,32.5" /><path
         id="path30"
         style="fill:#00abbf;fill-opacity:1;fill-rule:nonzero;stroke:none"
         d="m 1579.04,711.426 40.96,10.691 19.43,63.313 h 40.55 l -9.93,-63.313 h 56.94 l -6.46,-40.64 h -56.95 l -15.94,-100.071 c -6.07,-38.086 0.84,-41.933 14.65,-46.203 0,0 26.72,-8.125 28.01,-8.125 l -5.16,-32.527 h -37.07 c -39.27,0 -60.41,23.984 -51.34,80.879 l 16.81,106.047 h -39.25 l 4.75,29.949" /><path
         id="path32"
         style="fill:#00abbf;fill-opacity:1;fill-rule:nonzero;stroke:none"
         d="m 1759.29,721.711 h 38.83 l 7.35,-25.234 c 24.12,14.546 46.55,29.07 81.51,29.07 50.88,0 63.84,-35.945 56.93,-76.992 l -24.57,-154.004 h -50.06 l 24.59,154.426 c 3.89,24.375 -6.89,34.648 -24.59,34.648 -28.03,0 -43.57,-7.258 -69.44,-21.367 l -26.72,-167.707 h -50.07 l 36.24,227.16" /><path
         id="path34"
         style="fill:#00abbf;fill-opacity:1;fill-rule:nonzero;stroke:none"
         d="m 2083.59,725.984 c 51.32,0 91.87,-14.136 87.13,-65.425 -8.61,-100.137 -140.17,-80.461 -156.14,-74.036 -6.89,-41.503 1.74,-53.039 32.35,-53.464 28.03,-1.731 69.04,2.144 98.35,6.836 l -5.59,-35.911 c -35.38,-10.273 -72.05,-14.113 -115.19,-12.421 -55.2,1.707 -71.61,44.929 -56.07,127.91 13.36,69.726 31.07,106.086 115.16,106.511 m 36.23,-70.586 c 4.33,24.375 -10.35,28.657 -39.66,28.227 -50.9,0 -54.37,-31.645 -60.83,-63.723 0,0 92.29,-12.414 100.49,35.496" /><path
         id="path36"
         style="fill:#00abbf;fill-opacity:1;fill-rule:nonzero;stroke:none"
         d="m 2190.06,534.355 h 111.76 c 2.56,0 18.08,-0.871 21.12,17.52 l 2.58,15.84 c 2.14,11.543 -0.88,17.949 -15.52,17.949 h -56.08 c -40.56,0 -63,18.809 -56.09,62.039 l 3.45,20.981 c 6.03,36.343 24.61,56.445 69.03,56.445 36.21,0 99.21,-2.563 117.32,-9.816 l -5.18,-32.958 H 2275.5 c -19.86,0 -23.32,-10.722 -24.6,-18.847 l -2.16,-15.371 c -3.9,-20.969 8.6,-17.949 18.12,-17.949 h 57.37 c 41.4,0 57.36,-27.844 52.18,-60.333 l -3.87,-26.535 c -7.33,-46.632 -39.7,-52.187 -65.16,-52.187 -35.35,0 -107.81,3.418 -122.48,10.715 l 5.16,32.507" /><path
         id="path38"
         style="fill:#00abbf;fill-opacity:1;fill-rule:nonzero;stroke:none"
         d="m 2404.83,534.355 h 111.72 c 2.57,0 18.1,-0.871 21.12,17.52 l 2.59,15.84 c 2.14,11.543 -0.86,17.949 -15.52,17.949 h -56.09 c -40.54,0 -62.98,18.809 -56.08,62.039 l 3.47,20.981 c 6.02,36.343 24.59,56.445 69.03,56.445 36.21,0 99.2,-2.563 117.29,-9.816 l -5.15,-32.958 h -106.98 c -19.86,0 -23.32,-10.722 -24.58,-18.847 l -2.14,-15.371 c -3.91,-20.969 8.58,-17.949 18.09,-17.949 h 57.36 c 41.41,0 57.37,-27.844 52.21,-60.333 l -3.88,-26.535 c -7.34,-46.632 -39.69,-52.187 -65.16,-52.187 -35.36,0 -107.82,3.418 -122.5,10.715 l 5.2,32.507" /><path
         id="path40"
         style="fill:#00abbf;fill-opacity:1;fill-rule:nonzero;stroke:none"
         d="m 1371.84,413.145 h -22.79 l 1.57,8.027 h 55.04 l -1.56,-8.027 h -22.9 L 1367.16,342.5 h -9.35 l 14.03,70.645" /><path
         id="path42"
         style="fill:#00abbf;fill-opacity:1;fill-rule:nonzero;stroke:none"
         d="m 1425,421.172 h 9.36 l -6.71,-33.211 h 35.49 l 6.72,33.211 h 9.24 L 1463.38,342.5 h -9.35 l 7.55,37.422 h -35.5 l -7.43,-37.422 h -9.35 l 15.7,78.672" /><path
         id="path44"
         style="fill:#00abbf;fill-opacity:1;fill-rule:nonzero;stroke:none"
         d="m 1505.64,421.172 h 43.42 l -1.56,-7.793 h -34.18 l -5.04,-25.547 h 28.91 l -1.68,-7.91 h -28.66 l -6.13,-29.5 H 1536 l -1.68,-7.922 h -44.38 l 15.7,78.672" /><path
         id="path46"
         style="fill:#00abbf;fill-opacity:1;fill-rule:nonzero;stroke:none"
         d="m 1614.72,383.398 c 14.99,0 23.27,7.071 23.27,18.235 0,8.633 -6.11,12.105 -17.64,12.105 h -11.5 l -6,-30.34 z m 7.92,37.774 c 14.63,0 24.59,-5.156 24.59,-18.352 0,-14.507 -9.85,-23.504 -23.16,-26.14 l 13.8,-34.18 h -9.96 l -12.95,33.34 h -13.67 l -6.6,-33.34 h -9.36 l 15.71,78.672 h 21.6" /><path
         id="path48"
         style="fill:#00abbf;fill-opacity:1;fill-rule:nonzero;stroke:none"
         d="m 1670.41,374.766 c 0,-15.352 5.63,-25.672 18.22,-25.672 16.92,0 28.3,21.472 28.3,39.824 0,15.469 -5.75,25.66 -18.22,25.66 -16.91,0 -28.3,-21.348 -28.3,-39.812 z m -9.47,-0.723 c 0,23.984 15.7,48.574 38.25,48.574 17.63,0 27.23,-13.074 27.23,-32.859 0,-24.113 -15.72,-48.695 -38.27,-48.695 -17.62,0 -27.21,13.07 -27.21,32.98" /><path
         id="path50"
         style="fill:#00abbf;fill-opacity:1;fill-rule:nonzero;stroke:none"
         d="m 1779.36,374.285 -1.22,13.43 c -0.71,8.269 -1.55,16.672 -2.14,25.664 h -0.49 c -4.2,-9.109 -8.16,-17.031 -12.59,-25.664 l -6.96,-13.43 z m 0.71,-7.195 h -27.82 l -12.6,-24.59 h -10.31 l 42.69,78.672 h 10.8 l 9.11,-78.672 h -9.71 l -2.16,24.59" /><path
         id="path52"
         style="fill:#00abbf;fill-opacity:1;fill-rule:nonzero;stroke:none"
         d="m 1828.2,350.176 c 20.39,0 33.11,16.308 33.11,39.695 0,14.875 -8.4,23.75 -24.24,23.75 h -6.46 l -12.72,-63.445 z m -5.4,70.996 h 14.64 c 21.82,0 33.34,-11.387 33.34,-30.703 0,-28.535 -15.96,-47.969 -42.58,-47.969 h -21.11 l 15.71,78.672" /><path
         id="path54"
         style="fill:#00abbf;fill-opacity:1;fill-rule:nonzero;stroke:none"
         d="m 1942.91,413.145 h -22.79 l 1.56,8.027 h 55.06 l -1.56,-8.027 h -22.91 L 1938.23,342.5 h -9.35 l 14.03,70.645" /><path
         id="path56"
         style="fill:#00abbf;fill-opacity:1;fill-rule:nonzero;stroke:none"
         d="m 1990.45,374.766 c 0,-15.352 5.63,-25.672 18.22,-25.672 16.92,0 28.3,21.472 28.3,39.824 0,15.469 -5.75,25.66 -18.22,25.66 -16.91,0 -28.3,-21.348 -28.3,-39.812 z m -9.47,-0.723 c 0,23.984 15.7,48.574 38.25,48.574 17.63,0 27.23,-13.074 27.23,-32.859 0,-24.113 -15.72,-48.695 -38.27,-48.695 -17.62,0 -27.21,13.07 -27.21,32.98" /><path
         id="path58"
         style="fill:#00abbf;fill-opacity:1;fill-rule:nonzero;stroke:none"
         d="m 2093.05,360.129 c 4.67,-6.953 11.51,-11.152 20.27,-11.152 9.59,0 16.9,5.878 16.9,14.871 0,5.761 -3.95,9.355 -9.83,12.949 l -9.12,5.516 c -6.71,4.082 -12.11,9.601 -12.11,18.48 0,11.875 10.31,21.824 24.47,21.824 9.36,0 17.39,-4.679 22.31,-11.035 l -6.12,-5.519 c -4.08,4.796 -9.6,8.515 -16.91,8.515 -8.88,0 -14.28,-6.355 -14.28,-12.715 0,-6.109 4.45,-9.351 10.2,-12.832 l 9.12,-5.398 c 7.56,-4.434 11.87,-9.707 11.87,-18.465 0,-14.035 -11.39,-24.105 -27.34,-24.105 -10.8,0 -19.91,4.55 -26.27,13.91 l 6.84,5.156" /><path
         id="path60"
         style="fill:#00abbf;fill-opacity:1;fill-rule:nonzero;stroke:none"
         d="m 2171.04,421.172 h 9.35 l -8.99,-44.973 c -0.72,-3.594 -1.09,-6.59 -1.09,-9.469 0,-11.281 4.92,-17.636 15.96,-17.636 8.99,0 16.67,6.719 20.03,23.867 l 9.72,48.211 h 9.11 l -9.84,-48.567 c -4.43,-22.671 -15.47,-31.542 -29.5,-31.542 -15.95,0 -24.83,8.515 -24.83,24.828 0,3.355 0.49,7.195 1.21,11.152 l 8.87,44.129" /><path
         id="path62"
         style="fill:#00abbf;fill-opacity:1;fill-rule:nonzero;stroke:none"
         d="m 2278.91,422.617 c 8.99,0 15.47,-4.922 19.3,-11.633 l -6.47,-4.921 c -3.13,5.042 -7.32,8.515 -13.31,8.515 -18.71,0 -30.59,-21.824 -30.59,-40.894 0,-14.27 5.88,-24.59 20.03,-24.59 6.36,0 11.51,2.761 16.67,7.078 l 4.2,-5.996 c -5.75,-5.039 -13.08,-9.113 -22.55,-9.113 -17.99,0 -27.95,12.953 -27.95,31.781 0,24.707 16.32,49.773 40.67,49.773" /><path
         id="path64"
         style="fill:#00abbf;fill-opacity:1;fill-rule:nonzero;stroke:none"
         d="m 2345.02,422.617 c 9,0 15.47,-4.922 19.32,-11.633 l -6.49,-4.921 c -3.11,5.042 -7.3,8.515 -13.31,8.515 -18.7,0 -30.58,-21.824 -30.58,-40.894 0,-14.27 5.88,-24.59 20.02,-24.59 6.37,0 11.53,2.761 16.68,7.078 l 4.2,-5.996 c -5.76,-5.039 -13.07,-9.113 -22.56,-9.113 -17.98,0 -27.93,12.953 -27.93,31.781 0,24.707 16.31,49.773 40.65,49.773" /><path
         id="path66"
         style="fill:#00abbf;fill-opacity:1;fill-rule:nonzero;stroke:none"
         d="m 2389.43,421.172 h 43.42 l -1.56,-7.793 h -34.18 l -5.04,-25.547 h 28.91 l -1.68,-7.91 h -28.67 l -6.12,-29.5 h 35.28 l -1.68,-7.922 h -44.38 l 15.7,78.672" /><path
         id="path68"
         style="fill:#00abbf;fill-opacity:1;fill-rule:nonzero;stroke:none"
         d="m 2444.16,360.129 c 4.68,-6.953 11.51,-11.152 20.27,-11.152 9.59,0 16.91,5.878 16.91,14.871 0,5.761 -3.96,9.355 -9.84,12.949 l -9.12,5.516 c -6.71,4.082 -12.11,9.601 -12.11,18.48 0,11.875 10.32,21.824 24.48,21.824 9.35,0 17.38,-4.679 22.3,-11.035 l -6.11,-5.519 c -4.08,4.796 -9.6,8.515 -16.92,8.515 -8.87,0 -14.27,-6.355 -14.27,-12.715 0,-6.109 4.44,-9.351 10.19,-12.832 l 9.12,-5.398 c 7.56,-4.434 11.88,-9.707 11.88,-18.465 0,-14.035 -11.4,-24.105 -27.35,-24.105 -10.8,0 -19.91,4.55 -26.27,13.91 l 6.84,5.156" /><path
         id="path70"
         style="fill:#00abbf;fill-opacity:1;fill-rule:nonzero;stroke:none"
         d="m 2509.69,360.129 c 4.67,-6.953 11.5,-11.152 20.26,-11.152 9.6,0 16.91,5.878 16.91,14.871 0,5.761 -3.95,9.355 -9.83,12.949 l -9.12,5.516 c -6.72,4.082 -12.11,9.601 -12.11,18.48 0,11.875 10.31,21.824 24.46,21.824 9.36,0 17.4,-4.679 22.32,-11.035 l -6.12,-5.519 c -4.08,4.796 -9.6,8.515 -16.91,8.515 -8.89,0 -14.28,-6.355 -14.28,-12.715 0,-6.109 4.44,-9.351 10.2,-12.832 l 9.11,-5.398 c 7.56,-4.434 11.88,-9.707 11.88,-18.465 0,-14.035 -11.4,-24.105 -27.35,-24.105 -10.79,0 -19.91,4.55 -26.26,13.91 l 6.84,5.156" /></g></g></svg>