<svg xmlns="http://www.w3.org/2000/svg" width="189.736" height="33.654" viewBox="0 0 189.736 33.654">
  <g id="Layer_1" data-name="Layer 1" transform="translate(-22.661 -21.369)">
    <g id="Group_2" data-name="Group 2">
      <g id="Group_1" data-name="Group 1">
        <path id="Path_1" data-name="Path 1" d="M34.558,36.852h8.35a9.127,9.127,0,1,1-.341-5.946h2.477A11.461,11.461,0,1,0,34.121,45.842a11.325,11.325,0,0,0,8.932-4.432v3.94h2.124V34.561H34.558Z" fill="#fff"/>
        <rect id="Rectangle_2" data-name="Rectangle 2" width="2.285" height="21.716" transform="translate(49.049 23.633)" fill="#fff"/>
        <rect id="Rectangle_3" data-name="Rectangle 3" width="2.287" height="21.69" transform="translate(116.586 23.633)" fill="#fff"/>
        <path id="Path_2" data-name="Path 2" d="M63.25,43.776a6.518,6.518,0,1,1,6.365-6.524,6.51,6.51,0,0,1-6.365,6.524m0-15.2a8.675,8.675,0,1,0,8.679,8.676,8.684,8.684,0,0,0-8.679-8.676" fill="#fff"/>
        <path id="Path_3" data-name="Path 3" d="M83.258,43.776a6.518,6.518,0,1,1,6.364-6.524,6.511,6.511,0,0,1-6.364,6.524m.1-15.36a8.658,8.658,0,0,0-6.467,2.916v-7.7H74.6V45.35h2.285V43.166a8.654,8.654,0,0,0,6.467,2.912,8.831,8.831,0,0,0,0-17.662" fill="#fff"/>
        <path id="Path_4" data-name="Path 4" d="M103.9,43.768a6.52,6.52,0,1,1,6.364-6.532,6.516,6.516,0,0,1-6.364,6.532m6.381-12.4a8.832,8.832,0,1,0,0,11.77V45.35h2.311v-15.9h-2.311Z" fill="#fff"/>
        <rect id="Rectangle_4" data-name="Rectangle 4" width="4.059" height="3.838" transform="translate(179.034 21.424)" fill="#fff"/>
        <path id="Path_5" data-name="Path 5" d="M127.025,23.633h-3.712v21.7h12.169V41.84h-8.456Z" fill="#fff"/>
        <rect id="Rectangle_5" data-name="Rectangle 5" width="4.059" height="17.042" transform="translate(179.034 28.257)" fill="#fff"/>
        <path id="Path_6" data-name="Path 6" d="M145.77,42.367a5.277,5.277,0,1,1,4.914-5.265,5.1,5.1,0,0,1-4.914,5.265m0-14.17a8.9,8.9,0,1,0,8.9,8.907,8.908,8.908,0,0,0-8.9-8.907" fill="#fff"/>
        <path id="Path_7" data-name="Path 7" d="M199.989,39.5a4.9,4.9,0,0,1-4.394,2.911,5.111,5.111,0,0,1-4.918-5.275,4.946,4.946,0,0,1,4.918-5.271,4.879,4.879,0,0,1,4.275,2.658h4.244a8.918,8.918,0,1,0,.068,4.977Z" fill="#fff"/>
        <path id="Path_8" data-name="Path 8" d="M165.562,51.22a5.842,5.842,0,0,1-4.6-2.38l-3.6,1.752a9.425,9.425,0,0,0,8.2,4.431,9.125,9.125,0,0,0,9.017-8.3h-4.071a5.087,5.087,0,0,1-4.946,4.5" fill="#fff"/>
        <path id="Path_9" data-name="Path 9" d="M165.751,42.453a5.261,5.261,0,1,1,4.9-5.251,5.087,5.087,0,0,1-4.9,5.251m5.208-12.421a8.861,8.861,0,1,0,3.661,7.212V28.272h-3.661Z" fill="#fff"/>
        <path id="Path_10" data-name="Path 10" d="M207.6,23.818A2.4,2.4,0,1,1,210,26.26a2.385,2.385,0,0,1-2.406-2.442m4.435,0A2.027,2.027,0,1,0,210,25.934a2.02,2.02,0,0,0,2.029-2.116m-2.98-1.329h1.211a.759.759,0,0,1,.835.736.615.615,0,0,1-.525.627v.007c.3.077.4.227.434.545.039.36.039.625.125.659V25.1h-.5c-.075-.032-.084-.307-.11-.61a.43.43,0,0,0-.494-.441h-.467V25.1h-.507Zm.507,1.17h.586c.293,0,.444-.149.444-.376s-.145-.368-.438-.368h-.592Z" fill="#fff"/>
      </g>
    </g>
  </g>
</svg>
