<?xml version="1.0" encoding="utf-8"?>
<!-- Generator: Adobe Illustrator 22.1.0, SVG Export Plug-In . SVG Version: 6.00 Build 0)  -->
<svg version="1.1" id="Layer_1" xmlns="http://www.w3.org/2000/svg" xmlns:xlink="http://www.w3.org/1999/xlink" x="0px" y="0px"
	 viewBox="0 0 1100.9 370" style="enable-background:new 0 0 1100.9 370;" xml:space="preserve">
<style type="text/css">
	.st0{fill:#FFFFFF;}
	.st1{fill:#231F20;}
</style>
<rect x="0.4" y="0" class="st0" width="1100" height="370"/>
<title>GlobalLogic_logo_SafeZone_BLACK</title>
<g id="Layer_2_1_">
	<rect x="432.9" y="150.5" class="st0" width="235.1" height="69"/>
</g>
<g id="Layer_1_1_">
	<path class="st1" d="M151.5,182.1h40.1c-6.6,23.3-30.8,36.9-54.1,30.3c-23.3-6.6-36.9-30.8-30.3-54.1c6.6-23.3,30.8-36.9,54.1-30.3
		c13,3.7,23.5,13.1,28.7,25.6h11.7c-9.2-29-40.2-45-69.2-35.8s-45,40.2-35.8,69.2c7.3,22.9,28.6,38.5,52.7,38.4
		c16.8-0.1,32.7-7.9,42.9-21.3V223h10.2v-51.9h-51.1V182.1z"/>
	<rect x="221.2" y="118.6" class="st1" width="11" height="104.4"/>
	<rect x="545.9" y="118.6" class="st1" width="11" height="104.3"/>
	<path class="st1" d="M289.5,215.4c-17.3,0.4-31.7-13.3-32.1-30.6s13.3-31.7,30.6-32.1c17.3-0.4,31.7,13.3,32.1,30.6
		c0,0.2,0,0.4,0,0.7C320.1,201.1,306.5,215.1,289.5,215.4 M289.5,142.4c-23,0-41.7,18.7-41.7,41.7c0,23,18.7,41.7,41.7,41.7
		s41.7-18.7,41.7-41.7c0,0,0,0,0,0C331.2,161,312.5,142.4,289.5,142.4"/>
	<path class="st1" d="M385.7,215.4c-17.3,0.4-31.7-13.3-32.1-30.6c-0.4-17.3,13.3-31.7,30.6-32.1s31.7,13.3,32.1,30.6
		c0,0.2,0,0.5,0,0.7C416.3,201.1,402.7,215.1,385.7,215.4 M386.2,141.6c-11.9,0-23.2,5.1-31.1,14v-37h-11V223h11v-10.5
		c7.9,8.9,19.2,14,31.1,14c23.4,0,42.5-19,42.5-42.5S409.6,141.6,386.2,141.6"/>
	<path class="st1" d="M484.9,215.4c-17.3,0.4-31.7-13.3-32.1-30.6c-0.4-17.3,13.3-31.7,30.6-32.1c17.3-0.4,31.7,13.3,32.1,30.6
		c0,0.2,0,0.5,0,0.7C515.5,201,502,215,484.9,215.4 M515.6,155.8c-15.6-17.5-42.5-19-59.9-3.4c-17.5,15.6-19,42.5-3.4,59.9
		c15.6,17.5,42.5,19,59.9,3.4c1.2-1.1,2.3-2.2,3.4-3.4V223h11.1v-76.4h-11.1V155.8z"/>
	<rect x="846.1" y="107.9" class="st1" width="19.5" height="18.5"/>
	<polygon class="st1" points="596.1,118.6 578.2,118.6 578.2,206.1 578.2,222.9 636.8,222.9 636.8,206.1 596.1,206.1 	"/>
	<rect x="846.1" y="140.8" class="st1" width="19.5" height="81.9"/>
	<path class="st1" d="M686.2,208.7c-14,1-26.1-9.6-27.1-23.5c-1-14,9.6-26.1,23.5-27.1s26.1,9.6,27.1,23.5c0,0.6,0.1,1.2,0.1,1.8
		C710.3,196.8,699.7,208.1,686.2,208.7 M686.2,140.5c-23.6,0-42.8,19.2-42.8,42.8c0,23.6,19.2,42.8,42.8,42.8
		c23.6,0,42.8-19.2,42.8-42.8v0C729,159.7,709.9,140.6,686.2,140.5"/>
	<path class="st1" d="M947,194.9c-3.7,8.4-12,13.9-21.2,14c-13.5-0.5-24.1-11.8-23.6-25.3c-0.9-13.1,9-24.4,22.1-25.3
		c0.5,0,1-0.1,1.5-0.1c8.7,0.1,16.6,5,20.6,12.8h20.4c-7-22.6-30.9-35.3-53.5-28.3c-22.6,7-35.3,30.9-28.3,53.5
		c7,22.6,30.9,35.3,53.5,28.3c14-4.3,24.8-15.4,28.7-29.5L947,194.9z"/>
	<path class="st1" d="M781.4,251.2c-8.8-0.2-16.9-4.4-22.1-11.4l-17.3,8.4c8.5,13.6,23.4,21.7,39.4,21.3
		c22.5-0.2,41.2-17.5,43.3-39.9h-19.6C803.7,241.7,793.5,251,781.4,251.2"/>
	<path class="st1" d="M782.3,209.1c-13.9,1-26-9.6-27-23.5c-1-13.9,9.6-26,23.5-27c13.9-1,26,9.6,27,23.5c0,0.6,0.1,1.1,0.1,1.7
		C806.3,197.3,795.8,208.6,782.3,209.1 M807.5,149.2c-19-13.8-45.7-9.6-59.5,9.5c-13.8,19-9.6,45.7,9.5,59.5
		c19,13.8,45.7,9.6,59.5-9.5c5.2-7.2,8.1-15.9,8.1-24.8v-43.3h-17.6V149.2z"/>
	<path class="st1" d="M983.5,119.5c0.1-6.4,5.3-11.5,11.7-11.4c6.4,0.1,11.5,5.3,11.4,11.7c-0.1,6.3-5.2,11.4-11.6,11.4
		c-6.3,0.1-11.5-5-11.6-11.4C983.5,119.7,983.5,119.6,983.5,119.5 M1004.8,119.5c-0.3-5.3-4.8-9.4-10.1-9.1
		c-5.3,0.3-9.4,4.8-9.1,10.1c0.3,5.1,4.5,9.1,9.6,9.1c5.3,0,9.6-4.3,9.6-9.6C1004.8,119.8,1004.8,119.7,1004.8,119.5 M990.4,113.1
		h5.8c2-0.2,3.8,1.2,4,3.2c0,0.1,0,0.2,0,0.3c0,1.5-1.1,2.8-2.5,3l0,0c1.3,0.2,2.2,1.3,2.1,2.6c0,1.7,0,3,0.6,3.2l0,0H998
		c-0.4,0-0.4-1.4-0.5-2.9c0-1.2-0.9-2.1-2.1-2.1c-0.1,0-0.2,0-0.3,0h-2.2v5.3h-2.5V113.1z M992.8,118.7h2.8c1.4,0,2.2-0.7,2.2-1.8
		c0-1.1-0.7-1.7-2.1-1.7h-2.8V118.7z"/>
</g>
</svg>
