<?xml version="1.0" encoding="utf-8"?>
<!-- Generator: Adobe Illustrator 23.0.3, SVG Export Plug-In . SVG Version: 6.00 Build 0)  -->
<svg version="1.1" id="Warstwa_1" xmlns="http://www.w3.org/2000/svg" xmlns:xlink="http://www.w3.org/1999/xlink" x="0px" y="0px"
	 viewBox="0 0 2004.1 468.2" style="enable-background:new 0 0 2004.1 468.2;" xml:space="preserve">
<style type="text/css">
	.st0{fill-rule:evenodd;clip-rule:evenodd;fill:#2B2A29;}
	.st1{fill-rule:evenodd;clip-rule:evenodd;fill:#FEFEFE;}
	.st2{fill-rule:evenodd;clip-rule:evenodd;fill:#009846;}
	.st3{fill-rule:evenodd;clip-rule:evenodd;fill:#E31E24;}
	.st4{fill:none;stroke:#2B2A29;stroke-width:5;}
	.st5{fill-rule:evenodd;clip-rule:evenodd;fill:#FFED00;}
	.st6{fill:none;stroke:#E31E24;stroke-width:6.5;}
	.st7{fill:none;stroke:#231F20;}
	.st8{fill:none;stroke:#2B2A29;stroke-width:6.52;}
	.st9{fill-rule:evenodd;clip-rule:evenodd;fill:#F1E50D;}
	.st10{fill:none;stroke:#898989;stroke-width:5;}
	.st11{fill:#231F20;}
</style>
<g id="Warstwa_x0020_1">
	<g id="_511269584">
		<path class="st0" d="M226,292.7c-0.7,18.7-1.9,23.7-5.9,31.5c-4.4,6.2-8.7,9.1-16.5,10.3c-5.6,0-10.3-1.5-15.6-3.7
			c0,9.9,4,17.5,13.1,20.2c8.7,2.9,17.2-4.7,21.5-12.1l1.5-1.2c-3.7,5.9-6.2,8.1-11.3,12.4c-2.9,2.2-5,5-5.6,8.7c0,4,0,6.2,1.2,7.2
			c1.9,0.3,4,0,5.9-0.3c4-0.7,6.2-3.4,7.2-7.7c1.9-6.2,3.4-11.3,5.6-16.5c-4,15.3-6.9,18.7-1.2,30.3c2.9,5,6.2,9.4,9.4,13.5
			c2.9-4,5-7.7,7.7-11.8c6.2-9.4,4-18.3,1.5-27.8c-6.2-23-4.4-34-4.7-52.7c-9.1-4.4-8.1-1.5-14-0.7V292.7z"/>
		<path class="st1" d="M236.6,295.9c0.7,0,1.2,0,1.9,0c0.7,18.7-0.7,29.3,5,52c2.2,8.4,4,16.2-1.2,24.6c-2.2,3.7-4.4,6.9-6.9,10.3
			c-2.9-3.7-5.9-7.2-8.4-12.1c-5-10.3-2.5-13.1,0.7-25.2c4.4-17.5,4.4-28.6,4-49.3c0.3,0,1.2,0,1.9,0c0.3,12.8,0.3,25.9,0.7,38.7
			c0.3,10.6,0.3,21.2,0.7,31.5c0.3-10.6,0.7-21.2,1.2-31.5c0-12.8,0.3-25.9,0.3-38.7L236.6,295.9z"/>
		<path class="st1" d="M226,340.8c-1.9,5.6-3.7,11.8-5,17.2c-1.2,3.7-2.9,5.6-6.2,6.6c-1.9,0-3.7,0.3-5,0c-0.7-0.7-1.2-2.9-0.7-6.2
			c0.3-3.4,2.2-5.6,4.7-7.2c4.4-4,7.7-7.7,10.9-12.4c-1.9,5-6.9,11.8-10.6,18c-0.7,1.9-0.7,3.4,1.2,0.7c4.7-5,8.4-11.3,10.9-16.5
			H226z"/>
		<path class="st1" d="M227.2,295.2c0.3-0.3,1.2,0,1.9,0.3c0.3,20.5-1.2,28.1-8.7,36.5c-7.2,7.7-15,10.3-23.4,6.2
			c-2.2-0.7-1.9,1.2,0,2.2c8.4,4,15.3,2.2,21.9-2.9c5-4.4,8.1-10.6,10.6-17.5c-2.2,10.3-3.4,16.2-16.2,27.1
			c-3.4,2.5-7.7,3.4-12.4,2.2c-6.9-2.5-10.3-8.4-10.3-16.5c4,1.9,8.1,2.9,12.4,2.9c6.2,0,11.8-2.9,16.2-8.4
			C224.2,321.5,226.3,310.2,227.2,295.2z"/>
		<path class="st2" d="M236.6,68.1h143.7v188.6c1.5,78.6-63.9,145.9-143.7,143.7V67.9V68.1z"/>
		<path class="st3" d="M236.6,68.1h-144v188.6c-1.5,78.6,63.9,145.9,144,143.7V67.9V68.1z"/>
		<path class="st0" d="M226,293c-0.7,18.7-1.9,23.7-5.9,31.5c-4.4,6.6-8.7,9.6-16.5,10.3c-5.6,0-10.3-1.5-15.3-3.7
			c0,9.9,3.7,18,12.8,20.5c9.1,2.9,17.2-4.7,21.9-12.1l1.5-1.2c-4,5.9-6.2,7.7-11.8,12.4c-2.9,1.9-5,4.7-5.6,8.7
			c0,4,0.3,6.2,1.2,7.2c1.9,0.3,4,0,5.9-0.3c4-1,6.2-3.4,7.2-7.7c2.2-6.2,3.4-11.3,5.6-16.5c-3.7,15-6.6,18.7-1.2,29.9
			c2.9,5,6.2,9.4,9.4,13.5c2.9-3.7,5.6-7.2,7.7-11.8c6.2-9.6,4-18.3,1.9-27.4c-6.6-23.4-4.7-34.3-5-53c-9.1-4-7.7-1.2-14-0.7
			L226,293z"/>
		<path class="st1" d="M236.6,296.2c0.7,0,1.2,0,2.2,0c0.3,18.7-1.2,29.3,4.7,52.3c2.2,8.1,4,15.6-1.2,24.1
			c-2.2,3.7-4.4,6.9-6.9,10.3c-2.9-3.4-5.9-7.2-8.4-11.8c-5-10.3-2.5-13.1,1.2-25.6c4-17.2,4-28.1,3.7-49c0.3-0.3,1.2-0.3,1.9,0
			c0.3,12.8,0.3,25.6,0.7,38.7c0.3,10.3,0.3,20.9,0.7,31.5c0.3-10.6,0.7-21.2,1.5-31.8C236.6,322.1,236.6,309,236.6,296.2z"/>
		<path class="st1" d="M226,341.6c-1.9,5-3.7,11.3-5,16.8c-1.2,3.7-2.9,5.9-6.2,6.6c-1.9,0.3-3.7,0.7-5,0.3
			c-0.7-1.2-0.7-2.9-0.7-6.2c0.3-3.4,2.2-5.9,4.7-7.7c4.4-3.7,8.1-7.2,10.9-12.4c-1.5,5-6.9,11.8-10.3,17.8
			c-1.2,1.9-1.2,3.7,0.7,1.2c4.7-5.6,8.4-11.3,10.9-16.5V341.6z"/>
		<path class="st1" d="M227.2,295.9c0.3-0.3,1.2,0,2.2,0c0,20.5-1.2,28.6-9.1,36.5c-7.2,7.7-15,10.3-23.4,6.6
			c-1.9-1.2-1.9,0.7,0,1.9c8.4,4.4,15.3,2.5,21.9-2.9c5-4,8.4-10.3,10.6-17.5c-1.9,10.6-3.4,16.5-16.2,27.4
			c-3.4,2.5-7.7,3.4-12.4,2.2c-6.9-2.9-10.3-8.4-10.3-16.8c4,1.9,8.1,3.4,12.4,2.9c6.2,0,11.8-2.9,16.2-8.1
			C224.2,321.8,226.3,310.9,227.2,295.9z"/>
		<path class="st4" d="M236.6,67.8h143.7v188.6c1.5,78.6-63.9,145.9-143.7,143.7V67.8"/>
		<polygon class="st2" points="236.6,399.3 240,399.3 240,69.3 236.6,69.3 		"/>
		<path class="st0" d="M117.8,182.5c-0.7,0-1.2,0-1.9,0c0,0,0-0.7-0.3-0.7c-0.3,0-1.2,0.7-1.5,0.7c-3.7,0-5.9-0.3-6.6-1.5
			c5-3.4,8.1-6.2,10.3-9.6v10.9V182.5z M117.8,243.6c-1.2,0.3-1.9,1.2-2.2,1.2c-0.3-0.7,0.3-0.7,0-1.5c-3.4,0.3-1.2,2.5-3.7,2.9
			c-1.2-0.3-3.7,0.3-9.1,0c-1.9-0.3-0.3-1.2-1.2-1.5c-0.3-0.3-1.2,0.3-1.5,0.3c-2.9-1.5-5-2.2-5.9-3.7c1.9-3.4,1.9-0.7,8.4-7.2
			c2.9-2.9,4-5,6.2-8.7c1.9-2.9,3.4-6.6,4.4-9.9c0.7-1.5,0.3-2.9,0.7-3.4c0.3-0.7,1.2-0.3,1.5-0.3c0-0.7-1.2-1.5-0.7-1.9
			c2.2-3.7,1.9-5.9,2.9-8.4v7.7c-1.2,3.4-2.2,6.6-3.4,9.4c-1.2,2.5-2.2,5-3.7,7.2c-1.2,1.5-2.2,2.9-2.2,3.7
			c-2.9,4.4-6.9,8.1-11.3,10.9c4.7,2.5,9.9,3.4,15,1.9c2.2-0.7,3.7-1.5,5.6-2.5v3.7L117.8,243.6z M117.8,255.7
			c-0.3-0.3-0.3-1.2,0-1.9V255.7z M117.8,281.6c-2.5-0.7-6.2-2.9-8.7-5.9c1.2-1.5,4.4-1.2,8.7-3.4v9.1V281.6z M162.4,314.9v-1.5
			c-1.9,0.3-2.5,1.2-3.7,2.9c-1.5-3.4,1.9-6.2,3.7-6.6v-1.5c-3.7,1.9-6.6,4.4-3.7,9.6c0-0.3,0.3-1.2,0.7-1.5
			c1.5-1.9,2.2-1.9,2.9-1.5L162.4,314.9z M162.4,329.2c-0.7,0.7-1.2,1.9-1.2,4c-2.2-0.3-2.9-5-1.9-6.9c0.7-1.9,1.5-2.2,2.9-2.9v1.2
			c-0.7,0.3-1.2,0.7-1.5,1.2c-1.2,1.2-1.2,2.5-1.2,4c0,1.2,1.2,2.5,1.2,2.5c0-1.5,0.3-2.9,1.5-4v1.2L162.4,329.2z M162.4,305.8
			c-6.6,4-10.3,7.2-12.8,7.2c-1.2,0.7-2.2-1.9-2.9-0.7c-0.7,1.2,3.4,1.5,1.2,2.2c-6.2,0-8.1,0.3-13.5-1.5c-0.3,0,0-1.2-0.3-1.2
			c-1.9,0.7-2.9-0.7-4-1.2c-1.9-1.2-3.4-1.9-4-3.7c9.6-2.2,14.6-4.7,19-9.9c3.4-2.9,4-4.7,4.7-6.9c10.3-43.1,9.6-44.2-1.2-21.2
			c-0.7,2.2-2.5,5.6-4,6.6c-0.3,0.3-1.2-0.7-1.5,0.3c-0.3,1.2,1.5,1.2,0.7,2.2c-1.2,1.2-4.4,3.4-5,3.7c-3.4,1.5,0-2.5-2.5-1.2
			c-1.5,0.7-0.3,2.9-1.2,2.9c-1.2,0.7-5.6,1.2-8.7,1.2c-1.5,0,0.7-2.2-0.3-1.9c-0.3,0.3-1.2,1.9-2.2,1.5c-0.7,0-1.9-0.3-2.5-0.7
			c-1.9-0.7-0.3-2.5-0.7-2.9c-0.7,0-1.9,1.5-2.2,1.2c-0.3-0.3-0.3-0.3-0.3-0.3v-9.1c0.7-0.7,1.9-1,2.9-2.2c2.9-1.9,5.6-4.7,7.2-8.7
			c1.9-3.7,8.1-27.4,8.4-33.6c-3.4,13.1-17.2,29.9-18.7,27.8v-1.9c0.3-2.5,2.9-7.7,8.1-16.2c0.3-1.5,1.2-3.4,0-3.4
			c-0.3,0.3-1.2,3.4-1.2,4c0,0.3-4.4,3.4-6.9,5v-3.7c2.5-1.9,4.7-4,6.6-6.9c2.9-5,5-10.9,7.2-16.5c1.5-3.4,2.2-6.2,2.9-9.1
			c1.2-4.4,2.5-8.4,3.7-13.1c-1.5,0.7-1.9,1.9-3.4,2.5c-0.3-0.3-0.3-0.7,0.3-2.2c-0.3-0.3-1.2-2.2-1.5-2.9c-0.3,1.5-1.2,2.9-1.5,4.4
			c0,0.7-0.3,1.5-1.2,2.2c0,0.3,0.3,0,0.7,0.3c-1.5,5-3.4,8.1-4.4,12.1c-2.2,5.9-5,14-6.2,13.5c-0.7-0.3,2.2-5.9,3.4-9.9
			c2.9-8.4,5.6-16.5,6.9-25.9c-2.2,1.9-4.7,2.9-7.2,2.2c0-2.5,1.5-2.9,2.2-5.6c0.3-2.2,0-4,0.7-5.9c-0.7,0.3-1.9,0.7-2.5,1.2
			c-0.3,1.5-0.3,2.2,0,2.5c-2.2,3.4-0.3,4-1.9,6.9c-0.3,1.2-0.7,2.5-1.2,3.7c-1.2,4.7-2.5,10.3-4,15.6v-7.7c0-0.3,0-0.7,0.3-1.5
			c0.3-0.7,0.3-2.2,1.2-3.7c0-0.7,1.2-0.3,1.2-1.2c0.3-0.3-0.7-0.3-0.3-1.2c0.3-2.2,1.5-5,1.9-9.1c0-0.7,0.3-2.5,0.3-3.7
			c-1.5,0.7-2.9,1.2-4.4,1.2v-10.9c1.5-2.2,2.5-5,4-8.4c2.5-4.4,2.9-7.7,4-14c1.2-7.2,1.5-10.3,2.2-11.3c0.7-1.5,1.2-1,1.5-1.9
			c0-0.3-1.2-0.3-0.7-1.2c0.7-2.2,0-5,2.9-6.2c0.3-0.3,0.3-0.3,0.3-0.7c0-1.2-1.2-0.7-1.2-1.5c0.7-1.5,1.9-2.2,2.5-3.4
			c0.3-0.3,0.7-0.3,1.2-0.7c0,0,0-0.7,0-1.2c1.2-1.9,2.5-2.9,4-4.4c0.3-0.3,2.5,0.3,3.4,0c0.3-0.3-0.7-2.2,0-2.2
			c1.9-0.3,1.9-1.9,4.4-2.5c2.5-0.3,3.4-1.2,4.7-1.5c0.7,0,1.2,2.2,1.9,2.2c1.5,0-0.7-2.2,0.3-2.2c4,0,6.9,0,8.4,1.2
			c0.7,0.3,0,1.9,0.7,1.9v192L162.4,305.8z M175.9,324.1c-0.3,0.3-1.2,0.7-1.5,1.2c-0.7,2.2-1.9,4.4-4,5c-1.9,1.5-3.7,0.7-5-0.3
			c-0.3-1.5-1.9-1.9-2.9-0.7v-1.2c0.7-0.7,1.9-1.2,2.9-1.2c0-1.5-0.3-2.5-1.5-2.5c-0.3,0-1.2,0-1.5,0v-1.2c0.3,0,0.7,0,1.2-0.3
			c1.2-6.2,7.7-2.9,9.9-6.2c-1.2-0.3-2.5-0.7-3.4-0.3c-0.3,0.3-1.2,0.7-1.2,1.2l0,0c0.3,0,0.3,0,0.3,0c-4,3.4-4.7-1.5-6.9-2.5v-1.5
			c0.3,0,0.3,0,0.7,0c0-2.5,0.7-1.5-0.3-3.7c0,0,0,0-0.3,0v-1.5c1.5-0.7,2.9-1.2,4.4-1.9c2.5,0,4-0.7,5.9,1.9c0.3-0.3,0.3-0.3,0.3,0
			c1.2,0,1.9,0.7,2.9,0.3V324L175.9,324.1z M175.9,339.5c0,0.7,0,1.2-0.3,2.5c-2.2-1.5-4.4-5.9-2.9-8.4c0-3.7,1.5-5.9,3.4-7.2v5
			c-0.3,0.3-0.7,0.3-1.2,0.3c-0.3,0.7-0.7,1.2-1.2,1.9c-1.2,1.5-1.2,5.6,1.5,6.2c0.3-1.9,0.3-2.9,0.7-4V339.5z M175.9,289.7V162.1
			c-4.4-4.4-4-5.9-6.2-7.2c2.9-1.9,4.7-3.4,6.2-5.6v-27.1c-0.3-0.7-1.2-1.5-1.9-2.2c-0.3-0.3-1.5,0.3-2.2-0.3
			c-0.3-0.3,0.3-1.9,0-2.2c-0.7-0.7-1.2-1.5-1.9-2.2c-0.3,0-1.2,0.7-1.5-0.3c-1.2-1.5-2.9-1.9-5-2.5c-0.7,0-0.3,1.2-1.2,1.5v192
			c0.7-0.3,1.9-0.7,2.5-1.5c1.9-0.7-2.2-1.2-1.2-1.9c0.7-1.2,2.2,1.2,2.9,0c1.5-2.2,3.4-4.7,5-8.4c0.3-0.7-2.2-0.3-1.5-1.9
			c0.7-1.2,1.5,1.5,1.9,0.3c1.5-1.9,2.2-5.9,2.9-6.9c0.3,0.7,0.3,2.2,0.7,4l0,0L175.9,289.7z M175.9,291.5c0-0.3,0-0.3,0-0.7V291.5z
			 M209.5,95.2c0,0-0.3,0-0.3-0.3c0-5.6-3.4-8.7-2.2-11.3c0.7,0.3,1.9,0.7,2.5,1.2v10.6V95.2z M209.5,126.6v-20.2
			c-0.3,0.3-0.7,0.7-1.5,0.7c-4-0.3-3.7,4-4.4,4c-2.2-1.2-4-0.7-7.7-1.5c-2.5-0.7-5.6,3.7-4.7,6.9c0.7,7.2-0.7,6.6,1.2,8.7
			c0.3,0.3,0.7,0,1.2-0.7c0.3-1.5,1.2-3.4,1.9-3.7c3.4-1.5,5,1.5,6.9,1.9c1.5,1.2,5.6,3.4,7.2,3.7l0,0V126.6z M209.5,133.9
			c-4-2.2-8.1-3.7-9.9-2.9c-1.2,0,0.7-6.6,9.9-2.5v5.6V133.9z M175.9,122.1c1.5,1.9,2.5,4,3.4,6.2c0.3,0.7-1.2,1.5-0.3,2.2
			c0.7,0.7,1.5,0,1.9,1.2c0,5,0.3,8.1-2.2,12.8c-0.3,1.2-1.2-0.3-1.9,0.3c-0.3,0.3,0.7,1.9,0.3,2.5c-0.3,0.7-0.7,1.2-1.2,1.9V122.1z
			 M209.5,234.6v-71c-5.6,1.5-9.9,1.2-14.6,6.6c-0.3,1.2,0,2.9,1.2,2.9c1.9-1.9,8.1-1.9,8.4-0.7c-0.7,1.5-1.2,2.5-1.5,4.7
			c-3.4-0.7-8.4-2.5-14-4.7c-6.2-2.5-9.4-6.9-11.3-8.7c-0.7-0.7-1.2-1.2-1.9-1.9v127.5c0.3,0.7,0.3,0.7,0,1.2v0.7
			c0.7,2.2,4.4-4.7,5-4.7c1.5-0.3-0.3,16.8,2.5-9.6c0-4.7,0.7-6.2,0.7-9.6c0-0.3-1.9-3.4-1.9-3.7c0-0.7,4.4-9.1,4.7-10.3
			c0-1.5,2.5,7.7,2.5,6.2c-0.3-2.5,1.9-1.2,1.9-1.9c0.7-1.9,1.9-2.5,2.5-4c0.3-0.3-0.7-0.7-0.7-1.2c0.3-0.3,1.5,0.7,1.5-0.3
			c1.9-2.5,2.9-5.6,4-6.9c0-1.2-1.9-0.7-1.5-1.5c0.7-1.5,2.2-0.3,2.5-2.5c0.7-1.2-0.3-4.7,0.7-5.9c0.7-0.3,0.7,1.9,1.9,2.2
			c0.7-0.3,0.7-1.9,1.9-2.5c1.2-1.5,2.5-3.7,2.9-4.4c0.7,1.5,0.7,2.2,2.2,2.5c-0.3,0.3,0,0.7,0,1.2l0,0L209.5,234.6z M196.1,281.8
			c0.3-1.2,0.3-2.2,0.3-3.4c-2.5,1.9-4.4,2.2-6.2,2.2c0.7-0.7,1.2-1.5,1.5-2.2c0.7-1.5,1.2-2.9,1.5-4.4c-1.2,0.3-2.5,0-4-1.2
			c2.2-1.9,4-4.4,5-8.1c1.2,0,1.5-0.3,1.5-1.9c-1.2,0-2.5,0-4-0.3l-0.3-1.2c1.2-1,1.9-1.5,2.5-2.5c1.5-0.7,2.5-2.5,3.4-2.5
			c1.2-1.9,2.2-3.7,3.7-5c-0.7,0-1.9,0-2.9-0.3c1.9-1.9,2.9-4.7,4.4-6.9c0.7-1.5,1.5-3.7,2.2-3.7c-0.3-1.5,2.5-4.7,5-5v50.1
			c-0.3-0.3-0.7-0.3-1.2-0.7c-2.2-1.2-3.4-2.2-4.4-3.7c-0.3,1.2-0.3,1.9-0.7,2.9c0.3,3.7-1.9-1.2-1.5,4.4c0,0,0,0-0.3,0
			c0-0.3-0.3-0.7-0.3-1.2c-0.7,2.5-1.5,4.7-2.2,6.9c0,1.2-0.3,2.2-0.3,3.7c-0.3,0-0.3,0-0.7,0c0,1.2,0,4.7-0.7,4.7
			c0,0.3,0,0.3,0,0.7c-0.3,0-0.7,0-1.2,0.3c-0.3,1.2-0.3,2.2-0.3,3.4c0.3,0.3,0.3,0.3,0.7,0.7c0,0,0,0.3,0.3,0.3
			c2.9,0,3.7-4,8.4-3.4c1.2,0,1.5,1.2,2.5,1.2c0.7,0,1.2,0.3,1.9,0.3v1c-2.2-0.3-0.3,0.3-1.5,4c0.3,0,1.5,0.7,1.2,1.5
			c0.3,0,0.3,0,0.3,0v0.7c-0.3,0.3-0.7,0.7-1.2,0.7c-0.7-0.3,0.7-1.5-0.3-2.2c-2.9,2.2-3.7,5-8.7,3.7c-0.7-0.3-1.2-0.7-1.2-1.2
			c-2.9,0.3-6.2,2.2-8.4,4.4c-0.7,2.9-1.5,5.9-3.4,5.9c0,0,0.3,0,0.7,0c-0.7,6.2-1.2,8.7-6.6,10.6c0,0-2.9,0-3.4,0
			c-1.2,2.5-1.2,2.9-1.5,3.7v-3.7c0.7-1.2,1.5-1.5,2.5-1.2c0.3-0.3,0.7-1.5,0.3-2.2c-0.3-0.7-0.7-0.7-1.5-1.2c-0.3,0-1.2,0-1.5,0v-5
			c1.9-1.5,3.7-2.9,4-5.6c-1.5,0.7-2.5,2.2-4,3.4V308l0.3,0.3c0.7,0,1.9,0,2.5,0c0.7,0.7,4,1,4.7-0.3c-0.3-0.3-0.3-0.3-0.3-0.7
			c2.9-0.3,5-9.6,6.2-10.6c0.3-0.7,2.2-4.7,2.2-5c0.7-4,3.4-6.6,4.4-10.3l0,0L196.1,281.8z M209.5,306.3c1.5,0.7,2.5,2.2,2.2,4.4
			c0,0.3-1.2,2.2-2.2,2.9v-0.7c2.2-1.2,1.2-5.6,0-5.6V306.3z M209.5,235.3c0.3-0.3,0-0.3,0-0.7v-71c1.2-0.3,2.5-0.7,4-1.2
			c8.4-2.2,12.8-16.8,5.6-23c-0.7-0.3-5-3.4-9.6-5.9V128c1.2,0.7,2.2,1.2,3.4,1.9c2.5,1.9,1.9,0,1.2-0.7c-0.3-0.7-2.5-2.2-4-2.9
			h-0.3v-20.2c1.5-0.7,2.9-2.9,0.7-6.2c0.3-1.5,0-2.5-0.3-2.9c0.7-0.3,0.3-1.2-0.3-2.2V84.3c1.5,0.7,2.5,1.5,3.7,2.5
			c1.2,0.3,0,1.2,0.3,1.5c0.3,0.3,1.2-0.3,1.2,0c1.5,0.7,1.2,2.5,1.9,3.7c3.4,0,5.9-0.7,6.2,0.3c0,1.2,1.5,1.5,0,2.9
			c-1.2,0.7-4,4.4-3.4,5.6c1.5,2.9,6.6,1.9,8.4,2.9c1.2-2.9,0.3-5-1.2-6.9c-0.3-1.5-2.5-1.5-2.5-2.5c0-1.5,4-2.2,4.7-2.2
			c0.7-1.9,2.9-6.6,5-7.7c0.7-0.3,1.5-0.7,2.5-0.7v163c0,0.3-4.4-1.5-6.6-2.5c0,1.2-1.2,1.9-1.5,1.9c0,0.7,0,1.5-0.3,2.2
			c-0.7,1.2-1.2,2.5-1.5,4c-0.3,1.2-0.3,2.5-0.3,3.7s0.3,1.9,0.7,2.5c0.3,0.3,0,0.7-0.7,0.7c-1.2,0.3-2.5,0.3-3.7,0l-0.3,5.9
			c0.7,1.5,1.5,3.4,1.9,3.7c0,0.3,0.3,0.3,0.7,0.3c0,0.7,0,1.2,0,1.5l0.3,1.5c-2.2,0.3-4.7,0-6.9-0.3h-0.3v2.9
			c0.3,0.3,0.3,1.2,0.7,1.5c-0.3,1.2,0.3,1.9,1.5,2.2l1.9,2.2c0.3,0.7,0.3,1.2,0,1.5c-1.9,0-4,0-6.2,0c-0.7-0.3-1.9-0.3-2.5-0.7
			c-1.2-0.3-2.2-1.2-2.9-1.9c-0.3,0.3-0.3,1.2,0,1.9c0.3,0.7,0.3,1.9,0.7,2.2c0,0.7,0,1.5-0.3,1.9c0,0.3-0.3,0.3-0.7,0.7
			c0-0.3,0-0.3-0.3-0.3v-50.1L209.5,235.3z"/>
		<path class="st1" d="M124.7,180.3c0.7-0.3,1.9-0.7,2.5-1.2c-0.7,1.9-0.3,3.7-0.7,5.9c-0.7,2.5-2.2,2.9-2.2,5.6
			c2.5,0.7,5-0.3,7.2-2.2c-1.5,9.6-4,17.5-6.9,25.9c-1.2,4-4,9.6-3.4,9.9c1.2,0.3,4-7.7,6.2-13.5c1.2-4,2.9-6.9,4.4-12.1
			c-0.3-0.3-0.7,0-0.7-0.3c0.7-0.7,1.2-1.5,1.2-2.2c0.3-1.5,1.2-2.9,1.5-4.4c0.3,0.7,1.2,2.5,1.5,2.9c-0.7,1.5-0.7,1.9-0.3,2.2
			c1.5-0.7,1.9-1.9,3.4-2.5c5.6,5.6-3.4,19-6.2,25.9c-2.2,5.9-4.4,8.7-7.2,14c-2.9,4.7-7.2,6.6-12.4,8.4c-5,1.5-10.3,0.7-15-1.9
			c4.4-2.9,8.4-6.6,11.3-10.9c0-0.7,1.2-2.2,2.2-3.7c1.5-2.2,2.5-4.7,3.7-7.2c2.9-8.4,5.9-17.5,7.2-25.2c0.3-1.2,0.7-2.5,1.2-3.7
			c1.5-2.9-0.3-3.7,1.9-6.9c-0.3-0.3-0.3-1.2,0-2.5L124.7,180.3z"/>
		<path class="st0" d="M236.6,246.9c-3.4-1.5-6.6-2.9-9.9-4.4c-2.2,3.4-0.3,6.6,1.9,10.6c-0.7,4.4-2.2,9.9-4.4,14
			c-0.7,1.5-0.3,2.5,1.2,2.5c1.2-0.7,2.2-2.2,3.7-2.5c0,0,0,1.9-0.7,3.4c-2.2,2.9-3.4,6.9-5.9,9.9c-0.3,0.3-0.3,1.5,0,2.2
			c0.3,0.3,1.5,0,2.2,0c1.2-0.3,2.2-1.5,3.7-1.2c0,2.5-1.2,6.6-4.7,11.3c-3.7,3.7-7.2,6.6-10.9,6.6c0,1.5,1.2,1.9,3.7,2.2
			c2.2,1.2,4.7,0.3,6.2,0.3c1.5,0,2.9-0.3,5.6-1.2c1.2,3.4,2.2,6.6,3.4,9.4c1.5,4,3.7,6.9,5.6,10.3c0-1.9,0-3.7,0-5.6
			c0-22.7,0-45.3,0-68L236.6,246.9z"/>
		<path class="st1" d="M233.7,278.1c0.3,1.9,0,4-0.7,6.2c-0.3,1.5-0.7,3.4-1.9,5c-0.3,0.3,0.3,0.3,0.7,0c1.2-1.2,1.5-1.9,2.2-3.4
			c1.5-2.2,0.7-3.7,1.5-3.7c0,3.4,0,6.9,0,10.3c-0.7,1.2-2.2,2.5-3.7,3.7c-2.2,1.5-4.4,2.9-6.6,3.4c-4.4,1.9-7.7,1.5-10.3,0.3
			c1.5-0.3,2.9-0.7,4-1.9c2.9-1.2,4.7-3.4,6.9-5.6c1.5-2.2,2.9-4.4,4-6.6c0.7-1.9,1.5-3.7,1.9-5.9c0-1.2,1.2-2.2,1.9-2.2V278.1z"/>
		<path class="st1" d="M231.2,270.3c0.7,1.5,1.9,2.9,2.5,3.4c0.7,0.7,0.7,1.2-0.3,2.2c-1.2,0.7-2.2,1.5-3.4,2.2
			c-1.2-0.3-1.2,0.3-1.5,0.7c-1.2,0.3-1.9,0.7-2.9,1.2c-0.7,0.7-1.5,0-0.7-0.3c0,0,5.9-9.1,6.2-9.1V270.3z"/>
		<path class="st1" d="M229.7,254.7c0.7,1.2,1.9,2.2,2.9,2.5c0.3,0-1.2,0.3-1.2,0.3c0.7,0.3,1.9,0.3,2.2,0.3
			c0.3,0.3,1.2,0.3,1.2,1.2c-0.3,0-0.7,0.3-1.2,0.3c0.3,0.7,0,1.2-0.3,1.9c-1.5,1.5-3.7,3.4-5.9,4.7c0-1.9,0.3-1.9,0.3-2.9
			c0-0.7,0.3-1.9,0.7-2.2c0-1.2,0.3-1.9,0.3-2.9c0.3-0.7,0-3.4,0.7-3.4H229.7z"/>
		<path class="st1" d="M233.7,255.7c0.3-0.3,0.7,0,0.7,0s0,0.3-0.3,0.3c0,0.3-0.3,0.3-0.3,0V255.7z"/>
		<path class="st1" d="M228.2,244.1c2.2,1.2,6.6,2.5,6.6,2.9c0.3,0.3,0.7,6.2,0.3,7.2c-0.3,0.7-1.2,0.7-1.9,0
			c-0.7-1.2-2.5-2.5-3.4-3.4c0.3-1.2,0-2.2-0.7-3.7c-0.3-0.3,0.7-1.9-1.2-3.4L228.2,244.1z"/>
		<path class="st1" d="M235.3,263.8c0,2.9,0,5.6,0,8.4c-0.3,0-1.2-0.7-1.2-0.7c-0.3-1.5-1.2-1.5-1.5-2.5c-0.3-0.3-0.3-1.2-0.3-1.9
			c-0.7-1.5,0-1.9,0-2.9c0.3-0.3,0.3,0,0.7-0.3c0.3,0.3,0.3,0.7,0.7,0.7c0.7,0,0.7-0.7,1.5-0.7L235.3,263.8z"/>
		<path class="st1" d="M165.4,279.1c0.3,0,0.7,0,0.7,0.3c0.3,0.7,0,0.7,0,0.7c-0.3,0-0.7-0.3-1.2-0.7c-0.3-0.3,0-0.3,0.3-0.3H165.4z
			"/>
		<path class="st1" d="M158.4,127.7c0.3,0,0.3,0,0,0.3c0,0.3,0,0.3-0.3,0.3s0-0.3,0-0.3C158,127.7,158,127.7,158.4,127.7z"/>
		<path class="st1" d="M137.2,147.2c0.3,0,0.3,0,0.3,0.3c0,0.3,0,0.3-0.3,0.3l-0.3-0.3C136.8,147.2,137.2,147.2,137.2,147.2z"/>
		<path class="st1" d="M137.2,151.9c0,0,0.3-0.3,0.3,0s-0.3,0.7-0.7,0.7s-0.3-0.3-0.3-0.7C136.5,151.9,136.8,151.9,137.2,151.9z"/>
		<path class="st1" d="M235.3,192.4c-1.9-2.2-6.9-2.5-9.6-8.7c-0.3-3.4-0.3-5.9-1.9-6.9c0.3-0.7,2.5-2.2,2.5-2.9
			c-0.7-0.3-1.9,1.9-3.4,1.9c-4,1.2-5,4-5,7.2c-4.7-4.4-4.4-5-4.4-9.9c0.7-0.7,0.7-1.9,0-1.5c-1.5,0.3-4.7,0-8.1-1.2
			c-1.9-0.3-4-0.7-8.4,0.7c0.7-2.2,3.7-4,6.6-4.4c1.2,0,1.9-0.7,2.5-0.7c5.6-0.7,11.8-2.5,14.3-5.6c1.2-0.7-1.2-1.2,1.5-2.2
			c1.2-1.9,1.9-2.5,2.5-4.7c0.7-1.5-0.7-3.4-0.3-3.7c0.3-0.7,0.7,1.9,1.2,1.2c0.3-0.7,0-4,0-4.7c1.2,1.2,1.5,3.7,1.5,5.6
			c1.2,2.2,1.2-0.7,0.3-4.4c-0.7-3.7-4-7.7-4.7-8.7c-0.3-1.2,2.9-1.5,3.4-2.9c0.7-0.7,0.7-1.2,0-4.4c-1.5-3.7-4.4-5.9-6.9-9.1
			c-2.9,0-5.9-2.2-6.9-5c-0.7-2.5-0.7-5.6,1.2-5c-0.7,2.2-0.7,4,0.3,5.9c1.2,1.5,2.9,2.2,5,1.5c0.7-0.3,1.5-0.7,2.2-1.9
			c2.5-0.3,3.4,1.2,3.7,0c-0.3-0.7-2.5-0.3-4.4-1.2c-0.7,0-2.2-1.9-2.5-2.5c1.9,0,3.4,1.2,4.7,0.3c-0.7-0.3-0.7-1.2-1.5-0.7
			c-1.2-0.3-3.4-0.7-4.4-1.2c-1.2-0.7-2.5-1.2-4.4-1.2c-1.5,0-1.9,1.2-2.2,2.2c-1.5-0.7-2.9-1.5-3.7-2.2c0.3-1.9,1.5-2.9,2.2-2.9
			c0.7,0.3-0.3,1.9,0,2.2c0,0.3,0.7,0.3,1.2,0c0-1,0.7-1.5,1.9-1.9c1.5-0.7,3.7-0.7,6.2,0c2.2,0.3,3.4,1.2,5.9,2.2
			c0.3,0,0.3-0.3,0.7-0.3s0.7,0.3,1.2,0.7c1.5,0.7,2.9,1.2,4.7,1.5c1.5,0,4,0.3,5.6,0v79.7L235.3,192.4z"/>
		<path class="st1" d="M235.3,193.1c0,6.2,0,12.8,0,19.3c-0.3,0-1.2,0-1.2-0.3c0-0.7-0.3-1.2-1.5-1.5c-0.7-0.7-1.5-1.9-2.2-2.5
			c0.3-0.3,0-0.7-1.2-1.9c-0.3-0.3-0.7-1.5-1.2-2.5c-0.7-0.7-0.7-1.9,0-2.9c0.7-0.7,1.5-1.5,1.9-2.5c-0.3-1.5-0.3-2.5,0.7-2.5
			c0.3-1.9,0.7-2.5,0.7-2.5c0.3,0,0.3,1.2,0.7,2.2c0.3,0.7,0.7,0.7,1.2,0.7c0-0.7,0-1.5-0.3-2.2c0.3-0.7,0.3-0.7,0.7-0.7
			c0.7,0,1.2,0,1.5,0L235.3,193.1z"/>
		<path class="st1" d="M235.6,232.3c-1.9-1-3.7-2.2-4.7-4.4c-0.7-1.2-1.5-2.9-2.2-4c-0.3-0.7-0.3-1.2,0-2.2c0.7-0.3,1.2-0.7,1.5-1.5
			c0.7,0,1.2-0.7,1.2-1.5c0.3-0.7,0.3-2.2,1.2-3.4c0-0.3,0.3-0.3,0.3-1.5c0-0.7,0-0.7,0.3-0.3c0,0.3,0,0.7,0,1.2
			c0.3,0.7,0.7,1.5,0.7,2.5c0.3,0.3,0.7,0.3,0.7-0.3c0-0.3,0.3-0.3,0.3-0.7c-0.3-0.7-0.3-1.5-0.3-2.2c0-0.3,0.3-0.7,1.2,0.7
			c0,5.9,0,11.8,0,17.5L235.6,232.3z"/>
		<path class="st5" d="M141.2,140.1c-1.2,0.3-1.5-1.2-1.5-1.2c0,0.3,0.3-1.9,2.9-5c1.5-1.5,6.6-2.2,8.7-1.5c0.7,0,0.7-0.7,0.3-1.5
			c-1.2-0.3-1.9-1.9-1.9-3.4c0-1.9,1.9-3.7,3.7-3.7c2.2,0,3.7,1.9,3.7,3.7c0,1-0.7,2.2-1.5,2.9c0.7-0.3,1.5-1.2,1.9,0.3
			c0.7-1.2,1.5-1.9,2.9-1.9c1.9,0,3.7,1.9,3.7,3.7c-0.3,2.9-2.9,3.4-2.9,3.4c-0.3,0-0.7,0-1.2,0c-0.3-0.7-1.5,0.7-2.9-1.2
			c-0.3-0.3-2.2,0-1.9,0.3c0,0,1.9,1.5,1.5,2.5c0,1.5-1.5,2.5-3.4,2.5s-3.4-1.2-3.4-2.5c0-1,0.7-2.2,1.9-2.9c1.2-1.9-4-2.2-6.9-0.3
			c-1.5,1.2-2.2,2.2-2.9,3.4c-0.7,1.2-1.2,1.9-1.2,2.2L141.2,140.1z"/>
		<path class="st1" d="M142.4,141.3c-0.3-0.7,0-3.4,2.5-5c2.2-2.2,8.1-3.4,4,1.2c-0.3,0.3,0.3,0.3,1.2,0.3l-0.3,0.3
			c-2.2,0.7,1.2,4.7,3.7,4.7c0.3,0,0-0.7,0-1.5h0.3c1.9,2.2,4.4-0.3,4.7-2.9c0-1.2-0.3-0.3-0.7-0.7c0-0.3,0.3-0.7,0.7-0.3
			c0.7,0.3,2.2,0.7,2.2-0.3h0.7c0,1.9,3.7-0.7,4.4-2.9c0.3-0.3-0.3-0.7-0.7-1.2v-0.3c1.9-0.7-1.2-4-3.4-4c0-1.5-1.2-0.7-2.2-1.2
			c0-0.7,0-1-0.7-1.5c-0.3-1.2-1.5-2.9-2.5-2.2c-0.3-1.2-1.2-1.2-2.2-1.2c-2.2,0-6.6,2.9-4.4,4v0.7c-1.5,1.5,0,3.4,0,4
			c-3.4,0-4.4-0.7-8.1,2.5c-1.9,2.2-2.2,4.4-3.4,6.9c-1.2,0,0.7-3.4,0.3-4.4c0-0.7-0.3-0.3-0.3-2.9c0-0.7,0-2.5,0.7-4
			c0.3-0.7,0.3-0.7,0.7-1.5c1.2-2.9,3.4-4.7,5.6-6.2c0.3-1.9,1.5-0.3,2.2-0.7c1.9-2.9,5.6,0,5.6-1.9c0.3,0,0.3-0.3,0.7,0
			c1.5,2.2,4.7-0.7,9.9,5.6c2.5,1.9,3.4,4.7,3.4,8.1c0.3,6.9-5.6,14.3-14.3,14c-4.4,0-6.2-1.2-8.4-2.5c-0.3-0.3,0.3-0.7,0.7-0.7
			c0-0.3-0.3-1.2-0.3-1.2C143.9,142.1,143.1,142.1,142.4,141.3z"/>
		<path class="st1" d="M210.7,260.9c2.5-1.9,4.4-2.9,6.6-5.9c1.5,1.9,2.5,2.9,4,3.7c-0.7,4.7-1.2,5.9,0,10.9c-1.2,0-2.2,0.3-3.4,0
			C213.9,267.5,212,265.3,210.7,260.9z"/>
		<path class="st1" d="M216.3,245.4c1.2-1.5,2.9-1.5,4.7-2.5c1.2-1.2,2.9-3.4,2.9-2.9c1.9,0,2.9,2.5,2.9,5.6c0,2.2-0.7,2.9-1.5,5.9
			c-0.7,1.9-0.3,5-0.3,5.9c-1.2,0-1.5,0-2.5,0c-0.7,0-3.7-4-5-6.2c-0.7-1.5-1.9-4.4-1.2-5.6L216.3,245.4z"/>
		<path class="st1" d="M207.3,251.3c0.7-0.3,2.2-0.7,2.9-1.2c1.2-0.3,1.5-0.7,2.2-1.5c-0.7,1.9-1.2,3.7-0.3,5.6
			c1.2-2.2,1.9-3.7,2.9-5c0,1.9,0.7,2.9,1.5,4.4c-1.9,2.9-5,5-7.2,5.6C208,256.9,206.7,254.3,207.3,251.3z"/>
		<path class="st1" d="M200.4,249.5c0.3-1.2,1.5-2.2,2.2-3.4c0.7-1.9,1.5-3.4,2.2-4.4c0.7-1.5,1.9-3.4,3.7-4.7
			c0.7-0.3,2.9-0.7,3.4,0c0.3,2.9,0.3,2.9,0.7,4.4c0.3,1.2,1.2,2.2,1.9,3.4c0,0.3,0.3,0.7,0,0.7c0,0.3-0.3,0.7-0.7,1.2
			c-0.3,0.3-0.7,0.7-1.2,1.2c-0.7,0.7-2.5,1.2-2.9,1.5c-0.3,0-0.7,0.3-1.5,0.3c-0.3,0.3-2.2,0-2.5,0.3c-0.3,0-0.3,0.3-0.7,0.3
			c-1.2,0-2.9-0.3-4.4,0c-0.3,0-0.3-0.3,0-0.7L200.4,249.5z"/>
		<path class="st1" d="M194.2,261.6c2.9,0.7,6.6-0.3,8.1-0.3l4-0.7l0.7-0.3h1.2c-1.2-2.2-1.9-4-1.9-8.7l-2.5,0.3
			c-1.2,0-2.2,1.2-2.9,2.5c-0.7,1.2-1.9,1.9-1.9,2.5c-1.5,1.5-2.9,3.4-4.7,4.7H194.2z"/>
		<path class="st1" d="M207.3,272.2c1.9-1.2,4-2.9,5-4.4c1.2,1.2,2.9,2.2,4.4,2.9c-1.5,6.9,0.7,7.2,2.2,9.6c-1.9,0.3-3.7,0-5,0
			C211.7,279.1,208.9,275.2,207.3,272.2z"/>
		<path class="st1" d="M207.8,275.4c0.3,0.7,0.3,1.5,0.7,2.2c0.7,0.7,0,3.7,0.7,5.9c-1.9-0.7-3.7-2.9-4.4-5c1.5-0.7,2.5-1.9,2.9-2.9
			L207.8,275.4z"/>
		<path class="st1" d="M202,278.7c-0.3-0.3-0.7-1.2-0.7-1.9c-0.3-1.2,0-1.9,0.3-2.5c-0.3-0.3-0.3-0.7-0.3-1.2
			c0.7-0.7,1.5-1.2,2.2-1.2c0.3,0.7-0.3,2.5,0.3,2.9c0.7-1,1.2-2.2,1.9-2.5c0.3,0,0.3,0,0.7,0c0.3,0.7,0.3,1.5,0.7,1.9
			c-0.3,0.7-1.9,2.5-5,4.4V278.7z"/>
		<path class="st1" d="M192.9,278.7c0.7-1.2,1.5-2.5,1.9-4c1.9,0,3.4-0.3,4.7-0.7c0,0.3,0,0.7,0,1.5c-1.9,1.5-4,2.5-6.6,3.4V278.7z"
			/>
		<path class="st1" d="M191.7,272.5c1.5-1.9,2.5-3.7,3.7-5.9c2.5-2.9,2.5-2.9,5.9-3.4c0,3.4,0.3,4.7,1.9,8.1c-5.6,1-6.9,1.9-11.3,1
			L191.7,272.5z"/>
		<path class="st1" d="M203.5,262.6c1.5-0.3,2.9-1.2,4.4-1.9c-0.7,1.5-1.2,5-0.3,5.6c1.5-1.9,1.5-2.9,2.2-4.4
			c1.2,1.9,1.9,3.4,2.2,4.4c-1.5,2.9-4.7,5-6.9,5.6c-1.5-1.9-2.5-5.6-1.5-9.1V262.6z"/>
		<path class="st1" d="M225.7,207.1c0,2.9,0.7,7.7,1.5,8.1c0-0.3,0-0.7,0-1.2c0.3-0.3,0.3-0.3,0.3-0.7c-0.3-0.3-0.3-1.2-0.3-1.9
			c0-0.7-0.3-1.5-0.3-2.9c0-0.3,0-1.2,0-1.5c0-0.3,0.3-0.3,0.3-0.7c-0.3-0.3-0.7-1.2-0.7-1.5c0.3-0.3,0.7,0.7,1.5,1.5
			c-0.3,0.3-0.3,0.7-0.3,1.2c0,0.3,0.3,0.7,1.2,1.2c0,0.3,0.3,1.2,0.7,1.9c0.7,0.7,1.9,1.5,2.5,2.2c0,1.2-0.3,1.9-0.7,2.9
			c0,1.2-0.3,1.9-1.2,2.5c-0.3,0.7,0,1.5-1.2,2.5c-0.7,0.7-1.5,1.5-2.5,2.5c-0.3-0.3-0.7-0.7-1.5-0.7c0-0.3,0-0.7-0.3-1.2
			c-1.5-1.5-2.5-2.5-4-4c-0.7-0.7-0.3-1.9,0.3-2.2c0.7-1.2,1.5-1.9,1.9-3.4C224,210.3,224.7,208.4,225.7,207.1z"/>
		<path class="st1" d="M216.9,215.8c0.3,0,0.3,1.2,0.3,1.5c0,1.2,0.3,1.9,0.3,2.9c0.3,0.7,0.3,2.2,0.3,4c0.3,0.3,0.3,0.7,0.7,0.7
			c0-0.3,0-1.2,0-1.5c0.3,0,0.3-0.7,0.3-1.5c0-1.2,0-2.5,0-3.7c0-0.7,0.3-0.7,0.7,0.3c0,0,0,0.3,0,0.7c-0.3,0-0.3,0.3-0.3,1.2
			c1.2,0.7,2.5,1.9,3.4,2.9c0.7,0.7,0.7,1.5,0,2.5c-1.2,1.2-2.2,2.5-3.4,3.7c-0.7,0.7-1.2,0.7-1.9,0c-1.2-1.2-2.2-2.2-2.5-4
			c-0.3-0.7-0.3-1.9-0.3-2.5c-0.3-1.2-0.3-1.9,0.3-2.9c0.3-0.3,0.7-1.9,0.7-2.9c0.7,0,0.7-1.9,1.2-1.5L216.9,215.8z"/>
		<path class="st1" d="M208.9,222.7c0.3,0.3,1.2,1.2,1.9,1.5c0.3,0.3,0.7,0.3,1.5-0.3c0.3,0.7,0,2.2,0,3.4c0,0.7,0,1.5,0,2.2
			c0,1.5,0.3,1.5,0.7,1.5c0.3-0.3,0.3-1.2,0.3-1.9c0.3,0,0.3,0,0.7-0.3c-0.7-0.3-0.3-0.7-0.3-1.2c1.2,1.5,2.9,2.5,3.7,4
			c-1.5,1.2-2.9,2.2-5,3.4c-0.7-0.7-1.5-1.5-1.9-2.5c-0.3-0.3-0.3-0.7-0.3-1c-0.3-0.3-0.7-0.3-1.2-1.2c0.3,0,0.7,0,0.7,0
			c-0.3-0.3-0.7-1.2-0.7-1.5s0-1.2,0-1.5c0-0.3-0.3-0.3-0.3-0.7c-0.3-0.3,0-1.2-0.3-1.5c0.7,0,0-2.2,0.7-2.2V222.7z"/>
		<path class="st1" d="M225.3,237c1.9-0.7,2.5-2.2,3.7-3.7c0.3-0.7,0.3-1.5,0.7-2.2c0.7-0.7,0.7-1.5,0-2.2c-1.2-0.7-1.9-3.7-2.5-5
			c0,0.7-0.3,1.9,0,4.4c0.3,0.7,0.3,1.5,0,2.2c-0.3,0-0.3,0.7-0.7,1.5c-0.3-0.3-0.3-1.9-0.7-2.2c0-0.7-0.7-1.5-0.7-3.4
			c-0.3,0.3-1.2,0.7-1.2,1.9c-1.9-1.5-0.7,0-1.5,0.3c-0.3,0.7-1.2,1.2-1.9,1.5c0,0.7,0,1.5,0.3,2.5
			C222.1,234.5,223.2,236.3,225.3,237z"/>
		<path class="st1" d="M231.9,231.6c1.2,1.2,2.5,1.9,3.7,2.2c0,4,0,8.1,0,11.8c-2.5-1.2-4-2.5-5-4c-0.3,0.3-0.3,0.7-0.7,0
			c-1.2-1.2-1.9-2.2-2.2-3.7c-0.3-0.7,0-1.2,0.3-1.5c1.2-1.2,2.2-2.5,2.9-3.7c0.3,0.7,0.3,1.9,0.7,2.5c0.3,1.5,0.7,2.9,1.2,2.9
			c0.3-0.7,0.3-1.5,0-1.9c-0.3-1.9-0.3-3.4-0.7-4.7L231.9,231.6z"/>
		<path class="st1" d="M207.3,173.1c0.7-0.3,2.2-0.3,2.9,0c0.3,0.7-1.9,2.9-2.2,4.4c-0.3,0.7,0,1,0.3,1c0.7-1.9,1.9-2.9,3.4-4.4
			c0,0.3,0,1.5,0.3,2.2c0.3,1.2,0,2.2-0.7,3.4c-0.7,1.9-2.5,3.4-4.7,4c0,0.3-0.7,0.7-2.2,0.3c-0.3,0.3-0.7,1.2-1.2,0.7
			c-0.3-2.2,0-4,0-5.6c1.2-2.5,2.2-4.4,4-6.2V173.1z"/>
		<path class="st1" d="M204.8,185.2c0.7-0.3,1.5-0.3,2.2-0.7c0.3,0.3,0,0.7,0,1.2c-0.3,1.9-0.3,2.2-0.3,3.7c-0.3,1.2,0,1.5,0.3,1.9
			c0.3-1.5,0.3-2.9,0.7-4c0.3-1.2,0.7-2.2,1.2-2.9c0.3-0.7,0.7-0.7,0.7,0.3c0,0.3,0,0.7,0.3,1.2c0.3,0.3,1.2,0,0.3,1.5
			c0,0.3,0,0.7,0,1.5c0.3,0.7,0,1.2-0.3,1.9c-0.3,0.7-0.3,1.5-0.7,2.2c-0.7,1.5-1.9,2.5-2.5,3.7c-0.3-0.7-0.3-1.9-1.2-2.2
			c0-1.2-0.3-1.9-0.7-2.9c0-1.5,0-2.9,0-4.4c-0.3-0.7-0.7-1,0-1.5V185.2z"/>
		<path class="st1" d="M212.9,179.6c0.7,1.2,1.2,1.9,1.5,2.2c0.3,0.7,0.7,0.7,1.2,0c1.5,1.5,2.2,2.9,2.2,4.4
			c0.7,1.5,1.2,0.7,1.5-0.7c0.7-5,0.7-6.9,4.4-7.7c0.3,2.5,0.7,4-0.3,6.2c-0.7,2.5-1.9,4.7-3.4,7.2c-1.2,1.2-2.2,2.2-2.9,3.4
			c-2.2-1.5-3.7-3.7-4.7-6.2c-0.7-3.4-1.2-6.2,0.7-8.7H212.9z"/>
		<path class="st1" d="M208.2,196.5c1.2-1.2,2.2-2.9,2.9-4.4c0.3,1.2,0.3,3.7,0.3,5c0.3,0.7,0.3,1.5,0.7,1.5c0-1.9,0-3.4,0.7-4.4
			c0.3-0.7,0.7-1.2,1.2-0.3c0.3,0.7,1.2,1.5,1.9,1.5c0.7,0.7,0.3,1.9,0,2.9c-1.2,2.5-1.9,5-3.7,7.7c-1.2,1.2-1.5,1.2-1.5-0.3
			c-0.7-1.2-1.9-2.5-1.9-3.7c-0.7,0-1.5,0-1.5-0.7c0-0.7,0.3-0.7,0.7-0.7c0-0.7,0-1.9,0-2.5c-0.3-0.3-0.7-1.2,0-1.5L208.2,196.5z"/>
		<path class="st1" d="M216.6,201.2c0.3,1.9,0.7,3.7,1.5,5.6c0,0.7,0.3,0.7,0.7,0.3c0.3,0,0.3-0.7,0.3-1.2c-0.3-0.7-0.7-2.2-1.2-3.7
			c-0.3-1.9,0-2.5,0.3-2.5c0,0.3,0.3,1.2,0.3,1.9c1.5,0.7,2.9,1.9,4.4,2.9c0.7,0.7,1.2,0.7,0.7,2.9c-0.7,1.9-2.2,4.4-3.4,5.9
			c0,0.3-0.3,1.2-0.7,1.9c-1.2,1.2-1.5,1.5-2.5-0.3c0-1.5-1.5-1.9-4-5.9c-0.7-1.2-0.3-1.9,0-2.2c1.2-1.9,2.2-4,3.4-5.6L216.6,201.2z
			"/>
		<path class="st1" d="M224.7,194.9c0.3-0.7,0.3-1.9,0.7-2.5c0-2.2,0-4.4,0-6.6c0.3,0.7,0.7,1.5,0.3,1.9c1.2,1.5,1.9,2.5,3.4,3.4
			c0.7,0,0.7,2.5-0.7,7.2c-1.2,1.2-1.9,2.9-2.9,4.4c-2.9-0.7-4.7-2.9-6.6-4.7c-0.3-1.2-0.7-2.2-1.2-2.9c0.7-1.5,2.2-1.5,3.4-2.5
			c0.3-1.5,0.7-1.9,1.9-1.9c0-0.7,0.3-1.5,0.7-1.9c0.3,1.2,0.3,3.4,0.3,4.7c0.3,0.3,0.7,1.2,0.7,1.5V194.9z"/>
		<path class="st1" d="M168,213.6c-1.2-1.9-1.5-4.4-1.5-8.7c0-1.2,0.7-1.5,1.5-2.5c0.3-2.5,2.2-4.7,3.7-5c-0.3,2.2-1.9,6.9-1.2,8.7
			c0.3-1.5,1.5-4,2.5-6.6c0.7,2.2,1.9,0.3,1.5,2.2c1.2,2.2,0.3,3.7-1.2,5.6c-2.2,3.7-2.9,4.4-5.6,6.6L168,213.6z"/>
		<path class="st1" d="M159.6,208.9c-1.2-1.5-1.9-4.4-1.2-8.7c0.3-1.2,1.2-1.2,1.5-2.2c0.7-2.9,2.9-5,4.4-5
			c-0.3,1.9-2.2,5.9-1.5,7.7c0.7-1.5,2.2-2.9,2.5-5.9c0.7,0.3,1.2,1.9,1.5,2.5c1.2,1.5-0.3,3.4-0.7,5
			C163.9,206.4,162.1,206.7,159.6,208.9z"/>
		<path class="st1" d="M150.8,205.9c-0.3-1.9-0.7-5.6,0-9.9c0-1.2,0.3-1.9,0.3-3.4c0.7-2.9,2.9-4,4.7-4.4c-0.7,1.9-1.9,5-1.2,6.6
			c0.7-0.3,1.9-4,2.2-5c0.3,0.7,0.7,2.5,1.5,3.4c1.9,0.7,0.3,3.7-0.7,5.6C155.9,202.7,153.7,203.7,150.8,205.9z"/>
		<path class="st1" d="M140.9,200.5c-0.3-1.9-0.7-4.4-0.7-6.9c1.2-0.7,1.5-2.2,1.9-3.7c1.5-1.5,1.2-2.9,1.9-4.4c0-2.5,3.4-4,4.4-4.4
			c-0.3,1.9-1.9,5.9-1.2,7.2c0.7-0.3,1.5-3.4,1.9-4.4c0.7,0.7,1.2,2.5,1.5,2.9c1.9,1.2,0.7,2.2-0.3,4c-0.7,2.9-5.9,8.1-9.1,9.6
			H140.9z"/>
		<path class="st1" d="M135.8,193.9c-2.2-5-1.5-10.6-0.3-14.3c0.3-4,2.5-4.4,4.4-4.4c0,1.5-1.2,6.9-1.2,8.7c1.2-1.5,2.2-5.6,2.5-6.6
			c1.2,1,2.5,6.2,1.2,9.1c-0.7,2.5-3.4,5.6-6.6,7.2V193.9z"/>
		<path class="st1" d="M126.2,189.2c1.9-4,2.5-7.7,3.4-11.8c1.2-0.7,1.9-1.5,2.9-2.5c-0.3,1.5-1.2,4.4-0.7,6.2
			c1.2-1.5,1.9-5.6,2.2-6.6c1.2,0.7,0.7,5-0.3,8.1c-1.9,4.7-4,6.9-7.2,6.6H126.2z"/>
		<path class="st1" d="M176.4,217c0.3-2.2-1.5-3.7-1.2-8.7c0.3-1.2,0.7-2.5,1.5-3.7c0-1.9,2.5-2.5,4-3.7c-0.3,1.9-2.2,7.7-1.5,9.6
			c1.2-1.2,1.9-6.6,3.4-8.7c0.7,2.2,0.3,2.2,1.2,3.4c1.2,0.3,0.7,2.9-0.7,5.6c-2.2,3.7-3.7,4.7-6.6,6.6L176.4,217z"/>
		<path class="st1" d="M189.2,220.5c0-1.5-1.5-1.2-0.7-2.2c-1.2-1.9-2.9-3.7-3.4-6.6c0-1.2,0-2.5,0.7-4c0-1.5,2.9-1.9,4.4-3.4
			c-0.3,1.9-1.9,7.2-0.7,9.1c1.5-0.7,1.9-6.2,2.9-8.7c0.3,2.5,1.5,2.9,2.2,4c1.2,0.7,0.3,2.9-0.7,5.6
			C192.7,216.5,192.4,217.7,189.2,220.5z"/>
		<path class="st1" d="M211,223.2c-1.5-1.5-3.4-2.5-3.7-6.6c-0.3-0.7-0.7-2.2-0.3-3.4c0.3-2.5,2.2-1.2,3.7-3.7
			c-0.3,1.9-0.3,6.9,0.3,8.1c1.2-0.7-0.3-5,0.7-8.1c0.3,2.9,2.2,5.6,3.4,6.6c0.7,0.3,0,0.7-0.3,1.5
			C214.1,219.8,213.2,220.5,211,223.2z"/>
		<path class="st1" d="M144.6,180.8c2.5-0.7,4.4-2.2,5.9-4.4c0-1.2-1.5-2.2-2.2-2.9c-0.7,0.3-1.2,1.9-1.5,2.9
			c-0.3,1.2-1.2,0.7-1.2-0.3c0.3-1.9,0.7-3.4,0.3-5c-0.7-0.7-1.2-1.2-1.5-1.5c-0.7,0.7-0.7,1-0.7,1.9c-0.7,1.5-0.7,3.4-1.2,5.6
			c0,0.3,0,0.7,0.3,1.2c0.3,1.5,0.7,2.9,1.5,2.9L144.6,180.8z"/>
		<path class="st1" d="M136.5,174.9c1.5-2.2,4.7-1.2,6.6-6.6c-0.7-1.9-1.5-2.5-2.5-3.7c-0.7,1.5-0.7,2.9-1.2,4
			c-0.3,0.3-0.7,0.7-1.2-0.3c0-1.9,0.3-2.9,0.7-4.7c0.3-0.7,0.3-1.5-0.3-2.2c0-0.7-0.3-1.2-0.7-1.5c-0.3,1.2,0,2.9-0.7,3.4
			c0,0,0,0.3,0,0.7c0.7,0.3,0.7,1.2,0.3,1.9c-0.3,0.7-0.3,1.9-1.2,2.5c-0.7,0.3-0.7,1.2,0,1.5c-0.7,0.3-1.2,0.7-1.2,1.5
			c-1.2,1.5,0.7,1.5,0.3,3.4c0,0.7,0.3,0.7,0.7,0.3L136.5,174.9z"/>
		<path class="st1" d="M153,187.7c2.5-1.9,4.7-3.4,5.6-4.7c-0.3-1.2-1.9-1.5-2.5-2.5c-0.7,0.7-1.2,1.9-1.5,2.9
			c-0.3,0.7-1.2,0.7-0.7-0.3c0-1.9,0.3-2.2,0.3-3.7c0-0.7-2.2-2.2-2.5-2.5c-0.3,0-1.2,1.9-1.2,2.5c0,0.7,0,1.9,0,2.5
			s0.3,2.2,0.7,2.9c0.3,1.5,1.5,1.9,1.9,2.9V187.7z"/>
		<path class="st1" d="M159.9,193.1c2.5-0.7,5-2.2,6.2-5c-0.3-1.2-1.2-1.2-2.2-1.5c-0.7,0.3-1.2,1.9-1.5,2.9
			c-0.7,0.3-1.2,1.2-1.2-0.3c0.3-1.9,0.7-2.2,0.3-4c-0.7-0.3-1.9-2.2-2.2-2.2c-0.7,0-0.7,1.5-1.2,2.2c-0.3,1.5-0.3,0.7-0.7,2.5
			c0.7,1.5,0.3,2.2,0.7,2.9c0.3,1,1.2,1,1.5,2.5L159.9,193.1z"/>
		<path class="st1" d="M206.7,210.8c1.5-1.2,2.5-1.5,4-2.9c-0.7-1.2-1.5-2.2-2.5-2.5c-0.3,1.2,0,1.2-0.3,1.9c-0.3,0.3-0.7,0.7-1.2,0
			c0.3-1.2,0.3-1.9,0-3.7c0-0.7-2.9-1.2-3.7-0.7c0,2.2,0,2.9,0,4c0.7,2.5,2.5,3.4,3.7,4V210.8z"/>
		<path class="st1" d="M203.5,193.9c-0.3,0.7-2.2,0.7-4.7,0c-0.7-0.3-0.3-1.2-0.7-1.2l-0.7,0.3c-1.2-0.7-2.2-2.2-2.9-3.7
			c-0.7-1.5-0.7-0.3-1.5-0.3c-0.7,0-0.7-1.5-2.2,1.2c-4.4,1.5-9.9-3.4-10.3-7.7c-0.7,0-1.9,0.3-2.5,0.7c-0.3-0.3,0-2.2-2.2,0.3
			c-2.9-0.3-7.2-2.9-7.7-8.1c-0.3-1.2-1.2,0.3-2.9,0c-2.2,0-4-1.2-5-1.5c0,0,0.7-1.2,0.3-1.5c-0.3,0-1.2,0.3-1.5,0.3
			c-1.2-1.9-1.9-4.4-1.5-5.9c0.3-1.9-0.3-1.2-1.5-0.7c-3.7-0.7-5.6-1.5-5.9-3.7c0-0.3-1.5,0.3-1.9-0.7c-1.9-2.5-1.2-5.9-0.7-8.1
			c-2.9,0-5.6-1.2-5.6-3.7c-2.2,0-0.7-1.5-1.2-2.2c-0.3-1.5-0.7-1.9-1.2-0.7c0,1.9,0.3,4.4,1.5,6.6c0,0.3,1.2,2.2,1.9,3.4
			c0.3,0.7,1.9,2.5,2.2,4c0.3,0.7,0.7,0.7,1.2,1.5c0.3,0.7,0.3,1.2,1.2,1.9c1.2,0.7,1.2,1.2,1.9,2.2c0.3,1.2,1.2,0.7,1.5,1.5
			c0.7,0.3,0.7,1.2,1.5,1.5c1.2,1.9,0.7,0.7,1.5,1.5c0.7,0.3,0,0.7,0.3,0.7c0.3,0,0.3,0,0.3,0l0,0c0.3,0.3,0.3,0.7,0.7,1.2
			c1.5,1.2,2.9,2.2,4.7,3.4c1.2,1.2,1.5,1.2,2.2,1.9c1.5,1.2,1.9,1.5,2.9,1.9c1.2,0.7,1.9,1.5,2.5,1.9c0.3,0.3,1.9,0.7,2.2,1.5
			c1.9,0.7,2.5,1.9,4.7,2.5c1.2,0.7,1.9,1.5,2.9,1.9c0.7,0.7,2.2,0.7,3.4,1.5c0.3,0,0.7,0.3,1.2,0.3c1.2,0.7,1.5,0.7,2.5,1.2
			c1.2,0.7,1.9,0.7,2.5,1c1.2,0.7,1.9,1.2,2.9,1.5c1.9,0.3,3.7,1.2,5,1.5c1.5,0.3,2.5,0.3,3.7,0.7c1.9,0.7,3.7,1.2,5.9,1.9
			c0.3-0.3-0.7-3.7-1.2-3.4L203.5,193.9z"/>
		<path class="st1" d="M142.7,143.8c-0.7-2.2-1.9,0-1.9,0.7c0.3,4.7,3.7,7.7,7.2,7.7c0.7-1.2,2.5,1.2,1.9,2.2
			c-2.5,2.9-0.7,10.9,7.2,9.1c1.2,0,2.2-1.9,2.2,1.2c-2.2,5.9,4,11.3,8.1,8.4c1.2-1.2,1.9-0.3,2.2,0.7c0.7,5.9,4.4,8.4,9.6,6.9
			c1.5-1.2,2.2-1.5,3.4,0.3c0,5.6,4.4,9.1,10.3,5.6c0.7-0.7,2.2-1.5,2.5,0.7c1.5,5.6,7.2,6.9,8.1,3.7c-0.7-1.2-1.2-2.2-0.3-3.4
			l-0.3-0.3c-0.7-0.3-1.9-3.7-1.2-4c0.3,0,0-0.3,0.3-0.7c-1.2-0.7-0.7-1.9-0.7-3.4c-1.2-0.3-3.7-0.3-4-1.2c-1.2-1.5-1.9-1.5-3.4-0.7
			c-2.5-1.2-5.6-2.2-7.7-4c-0.3,0-0.7-1.5-1.2-1.9c-0.7-0.3-0.7,1.2-1.5,0.7c-5-3.4-10.3-8.7-10.3-9.6c0.7-1.9,0-3.4-1.5-1.2
			c-0.3,0.3-3.4-2.5-4-4.7c-0.3-1.5,0.7-1.2,0.7-1.5c0.3-0.3-0.3-0.7-0.7-0.7c-1.2,0-1.2,1.5-1.9,1.2c-0.3,0-0.3-1.2-0.3-1.9
			c8.1-5,12.8-10.6,12.1-20.5c-1.5-8.7-7.7-16.8-19-19.7c-0.7,1.2-1.2,0-1.5,0c-17.2,0-26.2,10.9-27.4,27.4
			c-2.5,6.2-1.2,10.3-3.4,17.2c-2.5,7.7-6.9,15.6-15.6,21.9c2.5,0,16.5,1.2,22.7-8.7c3.7-6.2,3.7-25.9,2.9-34.3c0-0.7,0-1.9,0-3.7
			c0-1.9-0.3-2.9,0.3-4c0.7-1.2,0.3-1.9,0.7-2.5c1.9-2.5,3.7-5,6.2-6.9c1.9-1.5,5-2.2,7.7-2.2c0.7-0.7,1.5-0.3,2.2-0.3
			c0.7,0.7,1.2,0.7,2.9,0.7c1.9,0.7,5.9,1.9,8.1,4.7c2.2,2.5,3.7,5.6,3.7,9.6c0.7,7.7-5.9,16.8-16.2,16.2c-2.5,0-8.4-1.9-9.4-4.7
			L142.7,143.8z"/>
		<path class="st5" d="M138.7,156.3c1.2,4,3.4,5.6,4,8.1c3.4,4.4,6.6,8.4,10.6,11.8c3.7,1.2-0.3,1.2,8.1,6.2l4.4,3.4
			c5,3.4,8.4,4.7,13.1,6.9c2.2,0,4.4,1.9,6.2,2.5c2.2,1.2,3.4,0.7,5.6,2.2c2.2,0.7,4,1.5,6.6,2.2c4,1.2,7.2,1.2,9.1,2.2
			c0.3,0.3-0.7-2.2-0.3-3.4c-0.3-0.3-1.2,0-1.2,0c-2.2-0.3-4.7-0.7-6.6-1.5c-1.2-0.3-2.5-0.3-3.7-1.2c-1.5,0-2.2-0.3-3.7-1.2
			c-1.2,0-2.2-0.3-3.4-1.2c-0.3-0.3-0.7-0.3-1.2-0.7c-0.3-0.3-1.2-0.3-1.9-0.3c-0.7-0.3-1.2-0.7-2.2-1.2c-0.3-0.3-0.7-0.3-1.2-0.3
			c-0.3-0.3-1.2-0.7-1.5-1.2c-0.7-0.3-2.2-0.7-2.9-1.2c-1.5-0.3-2.2-1.2-3.4-1.5c-1.9-1.5-3.4-1.9-4.7-2.9c-0.3-0.3-2.9-1.9-3.4-2.2
			c-1.5-1.2-2.5-1.5-4-2.5c-0.3-0.3-1.5-1.2-1.9-1.9c-0.3,0-1.2-0.7-1.5-0.7c-0.7-0.7-1.5-1.5-2.5-2.2c-0.7-0.7-1.5-1.2-2.2-2.2l0,0
			c-0.3-0.3-0.3,0-1.2-1.2c-0.7-0.7-1.2-0.7-1.5-1.2c-0.7-0.7-0.7-1-1.5-1.9c-1.2-1.2-1.2-0.7-1.9-1.9c-0.3-0.7-1.2-1.2-1.5-1.9
			c-0.7-0.3-0.7-1.2-1.2-1.9c-1.2-1.5-1.5-1.5-1.9-2.9c-4.4-6.2-5.9-13.1-2.2-20.2c0,0-1.2-0.7-1.5-1.2c-0.3,1.2-2.5,5.9-2.2,12.4
			c0,1.2,0.7,3.7,1.2,4.7L138.7,156.3z"/>
		<path class="st1" d="M195.7,208.2c1.5-0.3,2.9-1.5,4-1.9c1.2-1.2,1.5-1.9,2.2-3.4c0-1.2-1.9-1.2-2.5-1.5c-1.2,0.3-0.7,1.2-1.2,2.2
			c0,0.3-0.7,0.3-1.2-0.3c0-1.5-0.3-1.9-0.7-2.2s-2.5-1.5-2.9-1.2c-0.7,0.3,0,1.9-0.3,2.5c0.3,1.9,0.3,2.2,1.2,2.2
			c0,0.3-0.3,0.7,0,1.2c0.3,0.7,1.2,1.2,1.5,2.2L195.7,208.2z"/>
		<path class="st1" d="M186.1,205.9c1.2-1.2,2.9-1.9,4-3.4c1.2-1.5,1.2-2.5,1.9-2.9c-0.3-0.7-1.9-1.5-2.5-1.2
			c-0.3,0-0.3,1.2-1.5,2.9c-0.3,0.7-1.2,1.2-1.2-0.7c0-1.9,0-0.7,0-2.5c-0.3-0.3-1.9-1.5-2.2-1.9c-1.2-0.3-1.2,0.3-1.5,1.2
			c0,1.9,0,2.2,0.7,3.7c-0.3,0.7,0.3,1.5,0.7,1.9c0,1.5,0.7,2.2,1.5,2.9H186.1z"/>
		<path class="st1" d="M176.7,202.3c1.5-1.2,3.7-2.5,4.7-4.7c0-1.2,0-1.2,0.7-1.2c0-1.2-0.7-1.2-1.2-1.5c-0.7,0-1.2-0.3-1.5-0.3
			c0,0.3-0.7,2.9-1.5,3.7c-0.7,0.7-0.7,0.7-1.2-0.3c0-1.9,1.2-2.5,0.7-4c-0.3-0.3-1.5-0.7-2.2-0.7c-0.3,0.3-0.7,1.2-1.2,1.9
			c-0.3,1.9-0.3,2.9,0.3,4c0,0.3,0,0.7,0,1.2c0.7,0.7,1.2,1.5,1.9,2.2L176.7,202.3z"/>
		<path class="st1" d="M168.6,197.6c2.2-1.5,4-2.9,5.6-5c0-0.7-1.9-1.5-2.5-1.5c-0.3,0.7-0.7,1.5-1.2,2.5c-0.7,0.7-1.2,1.2-1.2-0.3
			c0-1.5,0.3-1.9,0.3-3.4c-0.7-0.7-1.9-1.5-2.2-1.5c0,0.3-0.3,0.7-0.7,1.9c-0.3,1.5,0.3,2.2,0.3,4c0,0.3-0.3,1.2,0,1.5
			C167.5,197,167.8,197,168.6,197.6z"/>
		<path class="st1" d="M199.4,221.4c-1.5,0-2.5-4-2.9-6.9c0-1.2-0.7-2.9,0-4.4c0-1.5,2.5-1.5,4-2.9c0,2.2-1.2,6.6-0.3,8.4
			c1.5-0.7,0.7-5.6,1.9-8.1c0.7,2.2,2.5,2.9,2.9,4c1.5,0,0.3,3.7-0.3,4.4c-2.2,2.9-2.2,4-5,5.6L199.4,221.4z"/>
		<path class="st3" d="M141.6,200.5c-2.2,4.7-2.5,10.3-3.7,14.6c-0.3,1.9-0.3,0-0.3,2.2c0,0.7-0.7,5.6-0.7,5.9
			c-12.1,76.7-34.3,27.8-11.3,15.6c10.3-10.9,14.6-37,15.3-37.3c0.3-0.3,0.3-0.3,0.7-1.2V200.5z"/>
		<path class="st6" d="M141.6,200.5c-2.2,4.7-2.5,10.3-3.7,14.6c-0.3,1.9-0.3,0-0.3,2.2c0,0.7-0.7,5.6-0.7,5.9
			c-12.1,76.7-34.3,27.8-11.3,15.6c10.3-10.9,14.6-37,15.3-37.3c0.3-0.3,0.3-0.3,0.7-1.2V200.5z"/>
		<path class="st1" d="M141.9,256.9c-0.7-0.7,1.5-4,1.5-7.2c1.2-2.2,1.2-5,1.5-6.6c1.9-5.6,3.4-12.8,4.7-20.2
			c1.2-3.7,1.5-7.7,2.9-11.8c0.3-1.9,1.5-3.4,1.2-5c-0.3-0.7-2.5,1.9-2.9,1.2c-0.3-0.3,0-0.7-0.3-1.5c-2.5,1.9-3.7-4-1.2-5.6
			c0.3-0.3,0-0.7,0-1.2c-1.5,0-1.2-0.7-1.2-2.5c-1.9,1.5-4.7,3.4-5,5.6c-1.9,1.5-2.5,6.6-3.4,9.9c-0.7,4.7-1.2,8.7-1.5,12.4
			c-0.7,4.4-1.2,6.6-1.2,9.1c-0.7,0.7-0.7,2.9-0.7,4.7c-0.3,1.5-1.2,4.4-1.5,6.2c-1.2,1.9-0.3,1.5,0,2.2c-0.3,1.2-0.7,2.9-1.2,4
			c-1.5,1.5,0.3,0.7,0,1.5c-0.3,1.2-0.7,1.9-1.2,2.9c-0.3,0.7-0.7,1.9-1.2,2.9c-1.2,3.7-3.4,8.4-4.7,9.6c-4,1.9-0.7,1.2-1.5,1.9
			c-2.9,3.4-7.2,5.6-11.3,6.2c1.9,2.2,7.2,5.9,13.5,6.2c6.6-0.3,11.8-3.4,14-6.2c2.2-1.9,4.4-5,5-7.7c2.5-6.2,4.7-12.4,5.9-19.3
			c0.3-1.2,0.7-1.2,1.2-2.2c1.5-8.1,4-19,5.9-25.9c0.3-2.5,3.7-8.4,3.4-10.9c-6.6,2.2-5-5-5.9-5.6c-2.2,5.9-3.4,10.9-4.7,16.8
			c-0.7,3.4-1.9,6.6-2.5,9.9c-1.2,3.7-1.5,7.7-2.5,11.8c-1.5,5-2.2,9.9-5,14.6V256.9z"/>
		<path class="st3" d="M164.9,205.2c-0.7,2.2-1.5,3.4-1.2,4.7c-0.3,8.4-2.9,17.2-3.7,25.6c0,3.4-1.5,7.2-2.2,10.9
			c-1.2,5.6-1.5,14.3-4.7,20.5c-0.3,1.9,1.5,1.2,1.2,2.9c0,1.2-0.3,2.2-1.2,3.4c0,1.2,0.3,1.9-0.7,3.4c-19.3,30.8-3.7,2.2-1.5-10.6
			c4.4-17.5,6.6-36.2,12.1-53C163.8,209.6,163.4,207.1,164.9,205.2z"/>
		<path class="st1" d="M166.1,210.8c0.3,7.2,5,1.2,6.6,0c0.7,2.2,1.9,5.6,2.9,6.6c-1.5,7.2-0.3,8.7-2.9,21.9
			c-0.3,6.2-1.5,12.4-2.5,18.7c-1.5,5.9-2.5,11.8-3.4,16.8c-1.2,4.4-2.5,8.7-4.4,12.8c-0.3,1.2-0.3,1.5,0,1.5
			c2.2-4,3.4-8.1,4.7-12.1c1.2-5.6,2.2-10.9,3.7-16.2c0.7-2.9,1.5-5.9,1.9-9.1c0.3-1.9,0-3.4,1.2-5c0-1.2,0-2.2,0.3-2.9
			c0-1.2-1.5-0.7,0-1.9c0-1.9,0.3-3.4,0.3-4.4c1.2-0.3,0.3-3.7,1.2-5.9c0.3-1.2,0.7-1.5,0.3-2.9c-0.3-1.5,0-1.5,0.7-2.5
			c-0.3-1.9,0.3-5,1.5-8.4c1.5-0.7,4-3.4,5.6-4.7c1.2,5.6,1.5,11.8,0,16.2c0,0.3-1.9,16.8-2.2,16.8c0,3.4-1.5,8.7-1.9,11.3
			c-0.7,3.7-1.5,5.6-1.5,8.4c-0.3,3.7-1.5,4.4-2.5,7.2c-0.7,4-1.9,7.7-3.4,10.9c-0.7,2.9-2.2,5.9-4,8.7c-0.3,1.5-0.7,2.9-2.2,4.7
			c-4.7,6.6-7.7,8.7-10.3,10.3c-3.4,1.9-7.2,3.7-11.8,3.7c-4.7,0.3-10.3-0.7-14.3-3.4c5-1.2,9.9-3.7,14.3-7.7
			c3.7-3.4,5.9-6.9,7.2-10.9c1.2-3.7,2.2-7.7,2.9-11.8c1.5-5.6,2.2-10.9,3.4-16.5c0.3-6.6,0.7-9.1,3.4-18c0.7-8.1,3.7-29.3,5-32.5
			L166.1,210.8z"/>
		<path class="st3" d="M186.1,218.8c1.2,1.9-1.2,0,0.3,1.2c-1.2,9.4-0.3,17.2-0.3,26.7c1.2,6.2,2.9,11.8,0.7,17.8
			c-0.3,5.6-0.7,10.6-1.9,16.2c-1.2,4.7-3.7,19-6.6,23.4c-0.7-3.7-2.9-7.2-3.7-11.3c-0.3-4,3.7-18,4.4-21.9
			c1.2-9.1,2.9-16.8,4.4-25.6c0-1.9,0.7-6.2,0.7-7.7c0.3-6.9,2.9-12.4,1.9-18.7L186.1,218.8z"/>
		<path class="st1" d="M189.2,222c0.7-1.2,3.7-3.4,4.4-4c0,2.2-0.3,4.7-0.3,6.9c0,2.9-0.3,6.2,0,9.1c-0.7,1.5-0.3,3.7,0,4
			c0.7-1.9,1.2-5,1.5-6.9c0.3-4,0.7-8.4,1.2-12.1c1.2,1.5,1.9,3.4,2.9,3.4c0,3.4,0.3,6.2,0,9.1c0,3.7-0.3,6.9-1.2,10.3
			c-0.3,1.9-0.3,5.6-3.4,8.7c-2.9,5-5,6.2-4,6.9c-0.7-1.9-2.2-7.7-2.9-8.4c0-0.7,0-1.5,0-3.7c0-1.9,0-4,0-5.9
			c-0.7-3.7-0.7-7.2-0.3-13.5c0.3-1.5-0.7-6.9,2.2-4V222z"/>
		<path class="st1" d="M200.1,222.4c0,1.5,0,2.5,0,4c-0.3,1.2-0.3,1.5,0,1.5c0.3,2.9,1.9,4.7,2.9,6.6c1.5-1.5,2.9-3.7,3.7-5.6
			c0.3-1.9,0.3-4.7,0.7-7.2c-0.7-0.7-1.2-2.2-1.9-3.7c-0.3,1.9-1.2,4.7-1.2,7.2c-0.3,0-0.7,0.7-0.7,1.5c-0.3-0.7-0.3-2.2-0.3-3.4
			s0.3-2.9,0.3-4.4c-1.5,0.7-2.2,2.2-3.7,3.4H200.1z"/>
		<path class="st1" d="M220.3,233.3c1.5,2.2,3.4,4,3.4,4.4c0,0.3-1.2,1.9-1.9,2.5c-1.5,1.5-4.7,3.7-6.2,4c-0.3,0-0.3-0.7-0.7-1.5
			c0,0-0.3-0.3-0.7-0.3c-0.3-0.3-0.3-1.2-0.7-1.9c0-0.3-0.3-1.2-0.3-2.2c-0.3-0.3-0.3-1.5,0.3-2.9c1.2-0.3,2.9-1.9,4.4-2.9
			c0,1.9-0.3,3.7-0.3,5.6c-0.3,1.2,0,1.5,0.3,1.5c0-0.3,0.3-1.5,0.7-1.5c0.3-1.2,0.3-2.2,1.2-2.5c0-0.7,0-0.3,0-0.7s0.3-1.5,0.7-1.5
			L220.3,233.3z"/>
		<path class="st1" d="M215.7,116.4c0-0.3,0-0.7,0.3-1.2c0-0.3,0.7-0.7,0.3-1.2c0-0.3-1.2-0.3-1.2,0c-0.3,0.7,0.3,1.5,0.3,2.2
			L215.7,116.4z"/>
		<path class="st1" d="M214.1,112.7c0-0.3,0.7,0,1.2,0.7c-0.3,0.3-0.7,1.2-0.7,1.9c0,1.2,0.7,2.2,1.9,2.2c0.3,0,1.9,0,2.2-0.3
			c0.3-0.3,0.7-0.3,1.2,0c0.3,0.3,0.3,0.3-0.7,0.7c-0.3,0.3-0.7,0.7-1.5,0.7c-0.7,0.3-1.5,0-1.9,0c-0.7-0.7-1.5-1.2-1.9-2.2
			c0-0.3,0-1.2,0-1.9c0-0.7,0-1.2,0.3-1.9L214.1,112.7z"/>
		<path class="st5" d="M192.9,122.3c0-2.9-0.7-5,0-6.9c1.5-5,3.7-5,11.3-2.5c2.2,1.2,3.7,2.9,4.7,2.9c1.2,5,3.7,7.2,8.4,9.1
			c2.5,4,3.4,3.7,4.7,5.6c2.9,4,1.5,6.9-1.2,6.9c-8.4-0.3-12.4-8.1-20.2-7.2c1.5-1.9,3.4-2.5,8.4,0.3c4.4,2.9,9.1,3.7,8.7,1.2
			c-1.2-2.9-6.6-6.9-11.3-7.7c-1.9-1.2-2.5-1.9-4.7-3.4c-3.4-2.2-5.6-4-9.1,1.9H192.9z"/>
		<path class="st7" d="M192.9,122.3c0-2.9-0.7-5,0-6.9c1.5-5,3.7-5,11.3-2.5c2.2,1.2,3.7,2.9,4.7,2.9c1.2,5,3.7,7.2,8.4,9.1
			c2.5,4,3.4,3.7,4.7,5.6c2.9,4,1.5,6.9-1.2,6.9c-8.4-0.3-12.4-8.1-20.2-7.2c1.5-1.9,3.4-2.5,8.4,0.3c4.4,2.9,9.1,3.7,8.7,1.2
			c-1.2-2.9-6.6-6.9-11.3-7.7c-1.9-1.2-2.5-1.9-4.7-3.4c-3.4-2.2-5.6-4-9.1,1.9H192.9z"/>
		<path class="st5" d="M235.3,86.4c-2.9,1.9-3.7,5-4,8.4c-1.9,0.3-2.9-1.2-3.7,0c3.7,4.4,3.4,9.9,1.2,12.1
			c-4.4-1.5-8.4-2.5-12.4-2.9c0.3-0.7,0.7-2.2,0.7-3.4c0.7-2.2,1.9-4.7,4-5.9c2.2-1.2-1.9-1.9-6.6,0.3c0-1.9,0-3.7-1.5-5.6
			c-0.7-1.5-1.9-2.5-2.9-2.5c2.2,7.7,3.7,16.2,2.9,19.7c10.3-0.7,10.3,3.7,22.4,5V86.3V86.4z"/>
		<path class="st4" d="M235.6,67.8h-144v188.6c-1.5,78.6,63.9,145.9,144,143.7V67.8"/>
		<path class="st1" d="M235.6,295.5v20.9c-2.5-4.4-4-9.6-5.9-15.6c3.7-1.9,4-2.9,5.9-5V295.5z"/>
		<path class="st8" d="M235.6,295.5v20.9c-2.5-4.4-4-9.6-5.9-15.6c3.7-1.9,4-2.9,5.9-5V295.5z"/>
		<path class="st5" d="M158.7,316.4c-1.5-3.4,2.2-6.9,4-6.6c1.2,2.2,0.3,1.2,0.3,3.7C160.6,313.9,160.2,314.7,158.7,316.4z"/>
		<path class="st5" d="M209.2,313c0.3-0.7-0.7-1.5-1.2-1.5c1.2-3.7-0.7-4.4,1.5-4C211,307.5,211.7,312.2,209.2,313z"/>
		<path class="st5" d="M160.9,332.1c0,0-1.2-1.5-1.2-2.5c0-1.5,0-2.9,1.2-4c0.7-0.3,1.2-1.5,2.9-1.2c1.2,0,1.5,1.2,1.5,2.5
			c-3.4,0-4.4,2.9-4.4,5V332.1z"/>
		<path class="st5" d="M177.4,331.4c-0.7-0.3-1.9,0.3-2.5,0.3c-0.3,0.7-0.7,1.2-1.2,1.9c-1.2,1.5-1.2,5.6,1.5,6.2
			c0.7-5,1.9-5.6,3.4-5c0.3-0.3,0.7-1.5,0.3-2.2C178.6,331.9,178.2,331.9,177.4,331.4z"/>
		<path class="st9" d="M202,283.4c0,0,1.2-2.2,1.5-2.9c-0.3-0.3-0.7-0.3-2.5,0c-0.3-0.7-0.7-2.5-1.2-3.7c-0.3-0.3-1.2,1.9-1.5,2.2
			c-0.7,1.2-1.2,3.7-1.2,2.9c0,2.2-2.5,5.9-4.7,11.8c-2.5,6.6-5.6,13.1-6.2,13.1c-0.3,0.7-0.3,1.5-0.7,1.9c-0.3,0-0.3-0.3-0.3-0.3
			c-1.2,1.2-1.2,1.5-2.9,2.2c0,0.7,0,1-0.3,1c-0.3,0,0-0.3-0.3-0.3c-4.4,0.3-5.6,0.3-8.7-2.2c-1.2,0-1.5,0.3-1.9,0.3
			c0-1.5-1.2-1.5-1.5-1.5c-1.2-0.7-4.7,0.7-5.6,1.2c1.2,1.9-0.7,4.4,0,5.6c1.2,1.5,2.5,1.9,5,1.5c0-0.7,0.3-1.5,0.3-2.2
			c0.3,0,0.7,0.3,1.2,0.7c0-0.3,0-0.7,0-1.2c0.3,0,0.3,0,0.7,0c0,0.3,0,1.2,0.3,1.5c1.2,0,2.2,0.3,3.7,0c0,0,0,0,0.3,0.3
			c1.9-0.3,3.7,0,5-1.9c0,0,0.3,0,0.3,0.3c-0.7,0.3-1.9,1.5-2.5,2.2c0,0,0,0,0,0.3c-1.5,0.3-2.2,0.7-3.7,1.5h0.3
			c-1.2,0.3-2.5,0.7-3.7,1.2v0.3c-1.9,0-5,0-5.9,1.9c-0.3,0.7-0.7,1.5-0.7,1.9c1.2,0.3,2.2,1.9,1.9,3.7c0,0,0,0-0.3,0
			c0,0.3,0,1.2-0.3,1.5c0,0.3,0,0.7,0,1.5c0.7,0,1.2,0,1.9,0.3c2.2-0.3,4-1.2,4.4-3.7c0.3,0,0.3,0,0.3,0c0-0.7-0.3-1.5-0.3-2.2h0.3
			c0.3,2.2,5.9-3.4,6.9-4.4h0.3c0.3-0.7,1.2-1.5,1.5-2.2c0.3,0,1.2,0,1.9,0c0-0.3,0-0.7,0.3-1.2c2.2-0.3,0,2.9-0.7,4
			c0-0.3-0.3-0.3-0.3-0.7c-0.3,1-1.5,2.2-2.5,2.5c0,0.3-0.7,1.5-0.7,1.5c0.3,0,1.2-0.3,1.9,0v0.3c-0.7,0.3-3.7,1.5-5.6,4
			c-1.5,3.4-1.2,2.5,1.5,2.5h0.7c0.3,0,1.5,0,2.2,0.7c2.2,2.2,0.3,2.2,1.2,2.2c2.2,0.3,5.9-6.2,4.4-7.7c0-0.3,0-0.7,0-1.2l4.7-8.7
			c0,0,0,0.7,0,1.2c0.3,0,0.3,0,0.3,0c0.3,0,0.3,0.3,0.3,0.3c1.2-0.3,0.7-0.7,0.7-1.5c0.7-0.3,1.5-0.3,2.5-0.7
			c0.7-0.3,1.9-0.7,2.9-1.2c0.3,0,0-0.3,0-0.3c0.7-0.3,0.7-0.7,1.9-0.7c0.3-0.3,0.3-0.3,1.2-0.7c-2.9,2.2-0.7,2.5-0.3,2.5
			c1.9,1.9,5.9-1.2,6.6-2.5c0.3-0.7,0.7-1.2,1.2-1.9c0.7-5.9-5.9-4.7-5.9-3.4c-1.9,1.9-1.9,3.4-5.9,2.2c0,0.3,0.7,1.5-0.3,1.9
			c-0.3-0.7-1.2-0.7-1.9-0.7c0-0.3,0.7-0.7,0.7-0.7c-0.3-1.2-0.3-2.9-0.3-4c0,0,0,0,0.3,0c0-3.4,1.9-6.6,2.9-10.3
			c1.2-3.4,2.5-5.9,3.4-9.1l1.5-2.9L202,283.4z"/>
		<polygon class="st5" points="308.8,98.9 318.2,133.5 351.8,124.8 327.3,149.7 352.9,175.3 318.2,166.2 308.8,200.5 299.5,166.2 
			264.9,175.3 290.1,149.7 264,124.1 299.9,133.5 		"/>
		<polygon class="st5" points="308.8,227.2 318.2,261.9 351.8,253.2 327.3,278.1 352.9,303.6 318.2,294.4 308.8,328.9 299.5,294.4 
			264.9,303.6 290.1,278.1 264,252.3 299.9,261.9 		"/>
		<polygon class="st2" points="238.5,391.8 259.3,391.8 259.3,286.5 238.5,286.5 		"/>
		<path class="st0" d="M236.3,306.1v4.7c-7.7,0-14.3,0.7-14.3-4.7c0-5.9,6.6-5,14.3-5V306.1z"/>
		<path class="st5" d="M235.6,306.1v4c-6.6,0-12.1,0.3-12.1-4c0-4.7,5.6-4,12.1-4V306.1z"/>
		<line class="st10" x1="490.8" y1="70" x2="490.8" y2="382.9"/>
		<g>
			<path class="st11" d="M613.6,143.6V76.3h31.1c12.6,0,19,5.7,19,17.2c0,13.5-9.1,21.5-27.4,24.4l-1.9-11.1
				c10.9-2,16.3-6.4,16.3-13c0-4.4-2.4-6.6-6.9-6.6h-18v56.4H613.6z"/>
			<path class="st11" d="M689.3,122.4c-5.9,0-8.9,1.9-8.9,5.7c0,3.7,2.5,5.7,7.4,5.7c5,0,9.3-1.3,12.8-3.9v-6.6c-3-0.7-6.9-1-11.4-1
				H689.3z M668.1,128.2c0-10.1,7.1-15.1,21.2-15.1c4.2,0,8.1,0.3,11.4,1v-3.2c0-4.4-4.2-6.6-12.8-6.6c-5.4,0-10.6,0.8-16,2.4v-9.9
				c5.2-1.5,10.6-2.4,16-2.4c16.7,0,25.1,5.4,25.1,16.3v33.1h-6.2l-5.4-3.5c-4.2,2.4-8.7,3.5-13.6,3.5c-13.1,0-19.9-5.2-19.9-15.5
				L668.1,128.2z"/>
			<path class="st11" d="M724.6,86.3h9.1l1.9,8.1H747v9.9h-10.1V127c0,4.5,2,6.9,5.9,6.9h4v9.9h-10.1c-8.2,0-12.3-4.4-12.3-13.3
				V86.4L724.6,86.3z"/>
			<path class="st11" d="M756.3,143.6V94.2h9.6l1.5,6.4c4.2-4.2,8.7-6.4,13.6-6.4v10.1c-4.5,0-8.7,2-12.3,6.2v33.1h-12.3H756.3z"/>
			<path class="st11" d="M809.6,134.2c8.2,0,12.3-5.2,12.3-15.5c0-10.1-4-15.1-12.3-15.1s-12.3,5-12.3,15.1
				C797.3,129,801.4,134.2,809.6,134.2z M784.9,118.9c0-16.8,8.2-25.2,24.7-25.2c16.5,0,24.7,8.4,24.7,25.2s-8.2,25.2-24.7,25.2
				C793.3,144.1,785,135.7,784.9,118.9z"/>
			<path class="st11" d="M842.9,143.6V94.2h9.6l1.5,6.4c5.9-4.2,11.9-6.4,17.8-6.4c11.3,0,16.8,6.2,16.8,18.3v31.1h-12.3v-31.1
				c0-5.4-2.7-8.2-8.1-8.2c-4.4,0-8.7,2-13.1,6.2v33.1H842.9z"/>
			<path class="st11" d="M919.3,122.4c-5.9,0-8.9,1.9-8.9,5.7c0,3.7,2.5,5.7,7.4,5.7c5,0,9.3-1.3,12.8-3.9v-6.6c-3-0.7-6.9-1-11.4-1
				H919.3z M898.1,128.2c0-10.1,7.1-15.1,21.2-15.1c4.2,0,8.1,0.3,11.4,1v-3.2c0-4.4-4.2-6.6-12.8-6.6c-5.4,0-10.6,0.8-16,2.4v-9.9
				c5.2-1.5,10.6-2.4,16-2.4c16.7,0,25.1,5.4,25.1,16.3v33.1h-6.2l-5.4-3.5c-4.2,2.4-8.7,3.5-13.6,3.5c-13.1,0-19.9-5.2-19.9-15.5
				L898.1,128.2z"/>
			<path class="st11" d="M954.6,86.3h9.1l1.9,8.1H977v9.9h-10.1V127c0,4.5,2,6.9,5.9,6.9h4v9.9h-10.1c-8.2,0-12.3-4.4-12.3-13.3
				V86.4L954.6,86.3z"/>
			<polygon class="st11" points="1003.7,143.6 1003.7,76.3 1016.2,76.3 1016.2,104.1 1049,104.1 1049,76.3 1061.3,76.3 
				1061.3,143.6 1049,143.6 1049,115 1016.2,115 1016.2,143.6 			"/>
			<path class="st11" d="M1095.8,134.2c8.2,0,12.3-5.2,12.3-15.5c0-10.1-4-15.1-12.3-15.1s-12.3,5-12.3,15.1
				C1083.5,129,1087.5,134.2,1095.8,134.2z M1071,118.9c0-16.8,8.2-25.2,24.7-25.2c16.5,0,24.7,8.4,24.7,25.2s-8.2,25.2-24.7,25.2
				C1079.4,144.1,1071.2,135.7,1071,118.9z"/>
			<path class="st11" d="M1129.1,143.6V94.2h9.6l1.5,6.4c5.9-4.2,11.9-6.4,17.8-6.4c11.3,0,16.8,6.2,16.8,18.3v31.1h-12.3v-31.1
				c0-5.4-2.7-8.2-8.1-8.2c-4.4,0-8.7,2-13.1,6.2v33.1H1129.1z"/>
			<path class="st11" d="M1208.1,134.2c8.2,0,12.3-5.2,12.3-15.5c0-10.1-4-15.1-12.3-15.1s-12.3,5-12.3,15.1
				C1195.9,129,1199.9,134.2,1208.1,134.2z M1183.4,118.9c0-16.8,8.2-25.2,24.7-25.2s24.7,8.4,24.7,25.2s-8.2,25.2-24.7,25.2
				C1191.8,144.1,1183.6,135.7,1183.4,118.9z"/>
			<path class="st11" d="M1241.5,143.6V94.2h9.6l1.5,6.4c4.2-4.2,8.7-6.4,13.6-6.4v10.1c-4.5,0-8.7,2-12.3,6.2v33.1h-12.3H1241.5z"
				/>
			<path class="st11" d="M1294.8,134.2c8.2,0,12.3-5.2,12.3-15.5c0-10.1-4-15.1-12.3-15.1c-8.2,0-12.3,5-12.3,15.1
				C1282.5,129,1286.5,134.2,1294.8,134.2z M1270,118.9c0-16.8,8.2-25.2,24.7-25.2c16.5,0,24.7,8.4,24.7,25.2s-8.2,25.2-24.7,25.2
				C1278.5,144.1,1270.2,135.7,1270,118.9z"/>
			<polygon class="st11" points="1323.5,94.2 1335.8,94.2 1343.2,127.7 1354,94.2 1364.6,94.2 1376.4,127.7 1382.8,94.2 
				1395.5,94.2 1382.4,143.6 1370.8,143.6 1359.2,109.5 1347.6,143.6 1335.8,143.6 			"/>
			<path class="st11" d="M1396.7,94.2h13.1l12.3,35.7l12.1-35.7h12.8l-20.4,51c-3.5,8.9-9.4,15.3-17.3,19.2l-5.9-8.6
				c5.4-2.4,9.4-6.4,11.9-11.8L1396.7,94.2z"/>
			<polygon class="st11" points="1470.4,143.6 1470.4,76.3 1483.2,76.3 1505.7,127.5 1527.9,76.3 1540.2,76.3 1540.2,143.6 
				1528.8,143.6 1528.8,96.7 1510.8,143.6 1500.2,143.6 1481.9,96.7 1481.9,143.6 			"/>
			<path class="st11" d="M1572,122.4c-5.9,0-8.9,1.9-8.9,5.7c0,3.7,2.5,5.7,7.4,5.7c5,0,9.3-1.3,12.8-3.9v-6.6c-3-0.7-6.9-1-11.4-1
				H1572z M1550.8,128.2c0-10.1,7.1-15.1,21.2-15.1c4.2,0,8.1,0.3,11.4,1v-3.2c0-4.4-4.2-6.6-12.8-6.6c-5.4,0-10.6,0.8-16,2.4v-9.9
				c5.2-1.5,10.6-2.4,16-2.4c16.7,0,25.1,5.4,25.1,16.3v33.1h-6.2l-5.4-3.5c-4.2,2.4-8.7,3.5-13.6,3.5c-13.1,0-19.9-5.2-19.9-15.5
				L1550.8,128.2z"/>
			<path class="st11" d="M1607.4,143.6V94.2h9.6l1.5,6.4c4.2-4.2,8.7-6.4,13.6-6.4v10.1c-4.5,0-8.7,2-12.3,6.2v33.1h-12.3H1607.4z"
				/>
			<path class="st11" d="M1639,141.3v-10.4c5.4,2.2,11.8,3.4,18.8,3.4c5.4,0,7.9-1.7,7.9-5.2c0-3.2-1.9-4.7-5.4-4.7h-8.9
				c-9.9,0-15-5-15-15.1c0-10.4,7.2-15.5,21.7-15.5c6.2,0,11.9,1,17.3,2.9V107c-5.4-2.2-11.3-3.4-17.7-3.4c-6.7,0-10.1,1.7-10.1,5.2
				c0,3.2,2,4.7,5.9,4.7h7.9c10.9,0,16.3,5,16.3,15.1c0,10.4-6.9,15.5-20.7,15.5c-6.7,0-13-1-18.3-2.9H1639z"/>
			<polygon class="st11" points="1686.4,94.2 1724.1,94.2 1724.1,104.1 1699.2,134.2 1723.3,134.2 1723.3,143.6 1685.6,143.6 
				1685.6,134.2 1711,104.1 1686.4,104.1 			"/>
			<path class="st11" d="M1751.7,122.4c-5.9,0-8.9,1.9-8.9,5.7c0,3.7,2.5,5.7,7.4,5.7c5,0,9.3-1.3,12.8-3.9v-6.6
				c-3-0.7-6.9-1-11.4-1H1751.7z M1730.5,128.2c0-10.1,7.1-15.1,21.2-15.1c4.2,0,8.1,0.3,11.4,1v-3.2c0-4.4-4.2-6.6-12.8-6.6
				c-5.4,0-10.6,0.8-16,2.4v-9.9c5.2-1.5,10.6-2.4,16-2.4c16.7,0,25.1,5.4,25.1,16.3v33.1h-6.2l-5.4-3.5c-4.2,2.4-8.7,3.5-13.6,3.5
				c-13.1,0-19.9-5.2-19.9-15.5L1730.5,128.2z"/>
			<path class="st11" d="M1800.5,76.3v67.3h-12.3V76.3H1800.5z M1781.1,113.9l26.2-19.9v10.8l-26.2,19.9V113.9z"/>
			<path class="st11" d="M1822.7,114.7h20.4c0.5-7.1-2.9-10.6-9.8-10.6C1826.7,104.1,1823.2,107.6,1822.7,114.7z M1854.7,123.8h-32
				c0,6.7,5.4,9.9,16.2,9.9c4.9,0,9.9-0.5,14.8-1.3v9.9c-4.4,1-9.9,1.3-16.7,1.3c-17.7,0-26.6-8.4-26.6-25.2
				c0-16.2,8.1-24.2,24.4-24.2c16.2,0,22.9,9.9,20,29.6H1854.7z"/>
			<path class="st11" d="M1863.9,143.6V76.3h12.3V98c5-2.5,10.8-3.9,17-3.9c11.8,0,17.8,5.2,17.8,15.6c0,5.9-4.4,10.8-13.1,14.3
				l14.6,19.5l0,0h-14.6l-15.5-21v-3.9c10.8-1,16.2-4,16.2-8.9c0-3.9-2.7-5.7-7.9-5.7c-4.7,0-9.6,1.5-14.5,4.4v35.2H1863.9z"/>
			<polygon class="st11" points="606.7,192.1 618.7,192.1 627.2,239 643.7,192.1 655.5,192.1 670.8,237.2 679.7,192.1 691.5,192.1 
				678.9,259.5 667.1,259.5 648.9,206.6 629.3,259.5 617.7,259.5 			"/>
			<path class="st11" d="M718.9,250.1c8.2,0,12.3-5.2,12.3-15.5c0-10.1-4-15.1-12.3-15.1s-12.3,5-12.3,15.1
				C706.6,244.9,710.7,250.1,718.9,250.1z M694.2,234.8c0-16.8,8.2-25.2,24.7-25.2c16.5,0,24.7,8.4,24.7,25.2s-8.2,25.2-24.7,25.2
				C702.6,260.1,694.4,251.6,694.2,234.8z"/>
			<path class="st11" d="M764.5,192.1v9.9h-12.3v-9.9H764.5z M764.5,209.9v45.8c0,9.9-2.9,18.2-8.4,24.4l-9.8-6.9
				c3.9-4.2,5.9-10.1,5.9-17.5v-45.8H764.5z"/>
			<path class="st11" d="M785.5,230.4h20.4c0.5-7.1-2.9-10.6-9.8-10.6C789.6,219.8,786,223.4,785.5,230.4z M817.5,239.5h-32
				c0,6.7,5.4,9.9,16.2,9.9c4.9,0,9.9-0.5,14.8-1.3v9.9c-4.4,1-9.9,1.3-16.7,1.3c-17.7,0-26.6-8.4-26.6-25.2
				c0-16.2,8.1-24.2,24.4-24.2c16.2,0,22.9,9.9,20,29.6H817.5z"/>
			<polygon class="st11" points="822.1,210.1 834.5,210.1 841.7,243.6 852.7,210.1 863.3,210.1 874.9,243.6 881.4,210.1 
				894.2,210.1 880.9,259.5 869.3,259.5 857.9,225.4 846.3,259.5 834.5,259.5 			"/>
			<path class="st11" d="M931.9,187.2v9.9l-18.7,7.1v-9.9L931.9,187.2z M922.8,250.1c8.2,0,12.3-5.2,12.3-15.5
				c0-10.1-4-15.1-12.3-15.1s-12.3,5-12.3,15.1C910.5,244.9,914.6,250.1,922.8,250.1z M898.1,234.8c0-16.8,8.2-25.2,24.7-25.2
				s24.7,8.4,24.7,25.2s-8.2,25.2-24.7,25.2C906.5,260.1,898.3,251.6,898.1,234.8z"/>
			<path class="st11" d="M988.9,222.9c-3.2-1.7-7.1-2.5-11.4-2.5c-7.7,0-11.4,4.4-11.4,13.1c0,10.3,3.9,15.5,11.4,15.5
				c4.5,0,8.2-0.7,11.4-1.9V222.9z M1001.2,256.5c-7.4,2-15.1,3-22.9,3c-16.5,0-24.6-8.6-24.6-25.7c0-15.8,7.9-23.7,23.7-23.7
				c4.2,0,8.1,0.8,11.4,2.4v-20.2h12.3v64.4V256.5z"/>
			<polygon class="st11" points="1012.7,210.1 1050.5,210.1 1050.5,219.8 1025.4,250.1 1049.5,250.1 1049.5,259.5 1011.8,259.5 
				1011.8,250.1 1037.2,219.8 1012.7,219.8 			"/>
			<path class="st11" d="M1059.1,202h9.1l1.9,8.1h11.4v9.9h-10.1v22.7c0,4.5,2,6.9,5.9,6.9h4v9.9h-10.1c-8.2,0-12.3-4.4-12.3-13.3
				v-44.1L1059.1,202z"/>
			<polygon class="st11" points="1086,210.1 1098.5,210.1 1105.9,243.6 1116.6,210.1 1127.2,210.1 1139,243.6 1145.4,210.1 
				1158.2,210.1 1145.1,259.5 1133.4,259.5 1121.8,225.4 1110.2,259.5 1098.5,259.5 			"/>
			<path class="st11" d="M1184.1,238.4c-5.9,0-8.9,1.9-8.9,5.7c0,3.7,2.5,5.7,7.4,5.7c5,0,9.3-1.3,12.8-3.9v-6.6
				c-3-0.7-6.9-1-11.4-1H1184.1z M1162.9,244.1c0-10.1,7.1-15.1,21.2-15.1c4.2,0,8.1,0.3,11.4,1v-3.2c0-4.4-4.2-6.6-12.8-6.6
				c-5.4,0-10.6,0.8-16,2.4v-9.9c5.2-1.5,10.6-2.4,16-2.4c16.7,0,25.1,5.4,25.1,16.3v33.1h-6.2l-5.4-3.5c-4.2,2.4-8.7,3.5-13.6,3.5
				c-13.1,0-19.9-5.2-19.9-15.5L1162.9,244.1z"/>
			<polygon class="st11" points="1249.2,192.1 1249.2,248.6 1280.3,248.6 1280.3,259.5 1236.9,259.5 1236.9,192.1 			"/>
			<path class="st11" d="M1336.7,210.1v49.5h-9.6l-1.5-6.4c-5.9,4.2-11.9,6.4-17.8,6.4c-11.3,0-16.8-6.1-16.8-18.3v-31.1h12.3v31.1
				c0,5.4,2.7,8.2,8.1,8.2c4.4,0,8.7-2,13.1-6.2v-33.1H1336.7z"/>
			<path class="st11" d="M1360.7,248.1c2.9,0.8,6.1,1.3,9.8,1.3c8.1,0,12.1-5.4,12.1-16c0-8.7-3.5-13.1-10.6-13.1
				c-4.2,0-7.9,0.8-11.4,2.5v25.1L1360.7,248.1z M1348.4,192.3h12.3v20.2c3.7-1.5,7.6-2.4,11.4-2.4c15.1,0,22.7,7.9,22.7,23.7
				c0,17.2-8.2,25.7-24.9,25.7c-6.7,0-14-0.7-21.7-2v-65.3H1348.4z"/>
			<path class="st11" d="M1449.2,210.1v49.5h-9.6l-1.5-6.4c-5.9,4.2-11.9,6.4-17.8,6.4c-11.3,0-16.8-6.1-16.8-18.3v-31.1h12.3v31.1
				c0,5.4,2.7,8.2,8.1,8.2c4.4,0,8.7-2,13.1-6.2v-33.1H1449.2z"/>
			<path class="st11" d="M1461,257.2v-10.4c5.4,2.2,11.8,3.4,18.8,3.4c5.4,0,7.9-1.7,7.9-5.2c0-3.2-1.9-4.7-5.4-4.7h-8.9
				c-9.9,0-15-5-15-15.1c0-10.4,7.2-15.5,21.7-15.5c6.2,0,11.9,1,17.3,2.9v10.4c-5.4-2.2-11.3-3.4-17.7-3.4
				c-6.7,0-10.1,1.7-10.1,5.2c0,3.2,2,4.7,5.9,4.7h7.9c10.9,0,16.3,5,16.3,15.1c0,10.4-6.9,15.5-20.7,15.5c-6.7,0-13-1-18.3-2.9
				H1461z"/>
			<path class="st11" d="M1508.6,259.5v-67.3h12.3V214c5-2.5,10.8-3.9,16.8-3.9c11.8,0,17.8,5.2,17.8,15.6c0,5.9-4.4,10.8-13.1,14.3
				l14.6,19.5h-14.6l-15.5-21v-3.9c10.8-1,16.2-4,16.2-8.9c0-3.9-2.7-5.7-7.9-5.7c-4.7,0-9.6,1.5-14.5,4.4v35.2h-12.3H1508.6z"/>
			<path class="st11" d="M1577.9,210.1v49.5h-12.3v-49.5H1577.9z M1577.9,192.3v9.9h-12.3v-9.9H1577.9z"/>
			<path class="st11" d="M1598.8,230.4h20.4c0.5-7.1-2.9-10.6-9.8-10.6C1602.8,219.8,1599.3,223.4,1598.8,230.4z M1630.7,239.5h-32
				c0,6.7,5.4,9.9,16.2,9.9c4.9,0,9.9-0.5,14.8-1.3v9.9c-4.4,1-9.9,1.3-16.7,1.3c-17.7,0-26.6-8.4-26.6-25.2
				c0-16.2,8.1-24.2,24.4-24.2c16.2,0,22.9,9.9,20,29.6H1630.7z"/>
			<path class="st11" d="M1672.8,221.2c-2-0.7-5.2-1.2-9.6-1.2c-8.9,0-13.3,4.7-13.3,14.3c0,9.3,3.7,13.8,11.1,13.8
				c4.5,0,8.4-0.8,11.8-2.5V221.2z M1685.1,259.4c0,11.9-8.7,17.8-26.2,17.8c-6.1,0-11.4-0.8-16-2.4v-9.9c4.7,1.5,10.1,2.4,16.2,2.4
				c9.3,0,13.8-3.7,13.8-11.3c-3.7,1.5-7.6,2.4-11.8,2.4c-15.5,0-23.2-8.1-23.2-24.1c0-16.3,8.9-24.4,26.7-24.4
				c5.7,0,12.6,0.7,20.5,2V259.4z"/>
			<path class="st11" d="M1718.4,250.1c8.2,0,12.3-5.2,12.3-15.5c0-10.1-4-15.1-12.3-15.1s-12.3,5-12.3,15.1
				C1706.1,244.9,1710.1,250.1,1718.4,250.1z M1693.7,234.8c0-16.8,8.2-25.2,24.7-25.2s24.7,8.4,24.7,25.2s-8.2,25.2-24.7,25.2
				C1702.1,260.1,1693.8,251.6,1693.7,234.8z"/>
			<polygon class="st11" points="657.4,307.8 657.4,318.6 625.9,318.6 625.9,335.6 655.8,335.6 655.8,346.7 625.7,346.7 
				625.7,364.4 658,364.4 658,375.3 613.6,375.3 613.6,307.8 			"/>
			<polygon class="st11" points="670.1,375.3 682.4,375.3 682.4,307.8 670.1,307.8 			"/>
			<path class="st11" d="M718.6,307.8v10.4h-10.9v-10.4H718.6z M694,325.7h37.7v9.9l-25.1,30.1h25.1v9.4H693v-9.4l25.4-30.1H694
				V325.7z"/>
			<path class="st11" d="M752.6,363.9c2.9,0.8,6.1,1.3,9.8,1.3c8.1,0,12.1-5.4,12.1-16c0-8.7-3.5-13.1-10.6-13.1
				c-4.2,0-7.9,0.8-11.4,2.5v25.1L752.6,363.9z M740.3,308h12.3v20.2c3.7-1.5,7.6-2.4,11.4-2.4c15.1,0,22.7,7.9,22.7,23.7
				c0,17.2-8.2,25.7-24.9,25.7c-6.7,0-14-0.7-21.7-2V308H740.3z"/>
			<path class="st11" d="M807.6,325.8v49.5h-12.3v-49.5H807.6z M807.6,308v9.9h-12.3V308H807.6z"/>
			<path class="st11" d="M828.6,346.2H849c0.5-7.1-2.9-10.6-9.8-10.6C832.6,335.6,829.1,339.1,828.6,346.2z M860.6,355.3h-32
				c0,6.7,5.4,9.9,16.2,9.9c4.9,0,9.9-0.5,14.8-1.3v9.9c-4.4,1-9.9,1.3-16.7,1.3c-17.7,0-26.6-8.4-26.6-25.2
				c0-16.2,8.1-24.2,24.4-24.2c16.2,0,22.9,9.9,20,29.6H860.6z"/>
			<path class="st11" d="M869.8,317.8h9.1l1.9,8.1h11.4v9.9h-10.1v22.7c0,4.5,2,6.9,5.9,6.9h4v9.9h-10.1c-8.2,0-12.3-4.4-12.3-13.3
				v-44.1L869.8,317.8z"/>
			<path class="st11" d="M895.7,325.8h13.1l12.3,35.7l12.1-35.7H946l-20.4,51c-3.5,8.9-9.4,15.3-17.3,19.2l-5.9-8.6
				c5.4-2.4,9.4-6.4,11.9-11.8L895.7,325.8z"/>
			<polygon class="st11" points="963.5,375.3 991.8,307.8 1005.1,307.8 1033.9,375.3 1020.7,375.3 1012.3,357 991,357 995.2,346 
				1009,346 998.2,320.8 976.2,375.3 			"/>
			<path class="st11" d="M1040.9,375.3v-49.5h9.6l1.5,6.4c5.9-4.2,11.9-6.4,17.8-6.4c11.3,0,16.8,6.1,16.8,18.3v31.1h-12.3v-31.1
				c0-5.4-2.7-8.2-8.1-8.2c-4.4,0-8.7,2-13.1,6.2v33.1H1040.9z"/>
			<path class="st11" d="M1098.5,375.3v-49.5h9.6l1.5,6.4c5.9-4.2,11.9-6.4,17.8-6.4c11.3,0,16.8,6.1,16.8,18.3v31.1h-12.3v-31.1
				c0-5.4-2.7-8.2-8.1-8.2c-4.4,0-8.7,2-13.1,6.2v33.1H1098.5z"/>
			<path class="st11" d="M1150.1,325.8h13.1l12.3,35.7l12.1-35.7h12.8l-20.4,51c-3.5,8.9-9.4,15.3-17.3,19.2l-5.9-8.6
				c5.4-2.4,9.4-6.4,11.9-11.8L1150.1,325.8z"/>
			<path class="st11" d="M1223.8,375.3V308h31.1c12.6,0,19,5.7,19,17.2c0,13.5-9.1,21.5-27.4,24.4l-1.9-11.1
				c10.9-2,16.3-6.4,16.3-13c0-4.4-2.4-6.6-6.9-6.6h-18v56.4H1223.8z"/>
			<path class="st11" d="M1302.2,365.9c8.2,0,12.3-5.2,12.3-15.5c0-10.1-4-15.1-12.3-15.1s-12.3,5-12.3,15.1
				C1289.9,360.7,1293.9,365.9,1302.2,365.9z M1277.5,350.6c0-16.8,8.2-25.2,24.7-25.2s24.7,8.4,24.7,25.2s-8.2,25.2-24.7,25.2
				C1285.9,375.8,1277.6,367.4,1277.5,350.6z"/>
			<polygon class="st11" points="1335.3,375.3 1347.8,375.3 1347.8,307.8 1335.3,307.8 			"/>
			<path class="st11" d="M1378.2,354.1c-5.9,0-8.9,1.9-8.9,5.7c0,3.7,2.5,5.7,7.4,5.7c5,0,9.3-1.3,12.8-3.9v-6.6
				c-3-0.7-6.9-1-11.4-1H1378.2z M1357,359.8c0-10.1,7.1-15.1,21.2-15.1c4.2,0,8.1,0.3,11.4,1v-3.2c0-4.4-4.2-6.6-12.8-6.6
				c-5.4,0-10.6,0.8-16,2.4v-9.9c5.2-1.5,10.6-2.4,16-2.4c16.7,0,25.1,5.4,25.1,16.3v33.1h-6.2l-5.4-3.5c-4.2,2.4-8.7,3.5-13.6,3.5
				c-13.1,0-19.9-5.2-19.9-15.5L1357,359.8z"/>
			<path class="st11" d="M1413.5,375.3V308h12.3v21.7c5-2.5,10.8-3.9,17-3.9c11.9,0,17.8,5.2,17.8,15.6c0,5.9-4.4,10.8-13.1,14.3
				l14.6,19.5h-14.6l-15.5-21v-3.9c10.8-1,16.2-4,16.2-8.9c0-3.9-2.7-5.7-7.9-5.7c-4.7,0-9.6,1.5-14.5,4.4v35.2H1413.5z"/>
		</g>
	</g>
</g>
</svg>
