<svg xmlns="http://www.w3.org/2000/svg" xmlns:xlink="http://www.w3.org/1999/xlink" width="600" height="330" viewBox="0 0 600 330">
  <defs>
    <clipPath id="clip-Artboard_2">
      <rect width="600" height="330"/>
    </clipPath>
  </defs>
  <g id="Artboard_2" data-name="Artboard 2" clip-path="url(#clip-Artboard_2)">
    <path id="Path_1" data-name="Path 1" d="M364.4,52.8C343.7,51,249.8.4,228.9,5.2c-3.6.8,4.8,13.4,8.6,27.3,3.3,11.8.1,20.1-9.3,21C98.3,66.1,2,111.9,2,166.6c0,55.7,142.8,108.5,221.5,112.9,35.4,2,104.6,50.8,134.4,45.3,3.6-.7-3.4-9.5-7.2-23.4-3.3-11.8-.1-20.1,9.3-21,129.9-12.6,238-59.1,238-113.8C598,110.9,498,64.3,364.4,52.8ZM298,268.6c-139.7,0-253-45.4-253-101.5,0-56,113.3-101.5,253-101.5S551,111,551,167.1C551,223.1,437.8,268.6,298,268.6Z" fill="#fff"/>
    <path id="Path_2" data-name="Path 2" d="M107.9,129.5h10.5l25.1,60.4,25.2-60.4h9.7v68.7h-6.8V136.3h-.2l-25,61.9h-5.8l-25.8-61.9h-.2v61.9h-6.8V129.5Zm84.9,40c0-8.3,5.6-17.4,14.8-17.4s12.8,8.7,12.8,17.4Zm30.6,20.8c-3,1.9-9.5,3.7-14.1,3.7-10.8,0-16.5-8.6-16.5-19.2h34.3v-3.1c0-13.5-5.8-24.9-20-24.9-12.7,0-21.2,10.9-21.2,26.3,0,15.1,6.2,26.3,22.8,26.3a41.139,41.139,0,0,0,14.6-2.8v-6.3Zm32.3-37H244.3v32.5c0,4.5,1.7,8.3,6.7,8.3a14.094,14.094,0,0,0,5.7-1.2l.4,5.1a22.337,22.337,0,0,1-7.6,1.4c-11,0-11.4-7.6-11.4-16.7V153.4h-9.8V148h9.8V135.9l6.2-2.2V148h11.4Zm34.4,22.6c0,5.4-.3,18.1-14.9,18.1-5.7,0-10.4-2.5-10.4-9.1,0-11,12.8-12.1,23.5-12.1h1.8Zm.6,22.3h6.1a69.745,69.745,0,0,1-.5-10.5V165.6c0-13.1-5.2-18.7-17.6-18.7a41.537,41.537,0,0,0-14.8,3.4v6a26.118,26.118,0,0,1,14.8-4.1c8.4,0,11.4,4.3,11.4,12.9v2.6h-1.2c-13,0-30.9.8-30.9,17.6,0,4.5,2.3,14.2,16.5,14.2,6.2,0,13.2-3.2,15.9-9.2h.2v7.9Zm28.2-57.9h4.8c7.1,0,13.1,2.8,13.1,10.7,0,8-6.2,10.2-13.1,10.2h-4.8Zm-13.7,57.9H319V172.1h5.8c14.8,0,26.5-5.8,26.5-21.8,0-16.4-13.7-20.8-28.6-20.8H305.3v68.7Zm59.1-14.7c0-7.8,8.8-8.8,14.7-8.8h5.7c0,3.9-.6,7.6-2.8,10.4a11.11,11.11,0,0,1-9.3,4.5C368,189.7,364.3,187.8,364.3,183.5Zm-6.7-22a26.633,26.633,0,0,1,15.6-5.5c7.8,0,11.4,2.8,11.4,10.9h-7.3c-5.5,0-12,.5-17,3s-8.7,6.9-8.7,14.5c0,9.6,8.8,15.1,17.7,15.1,6,0,12.6-3.1,15.6-8.8h.2a61.354,61.354,0,0,0,.6,7.6h11.6c-.3-3.9-.5-7.5-.6-11.3-.1-3.7-.2-7.6-.2-12.7v-6.5c0-15-6.4-21.3-21.8-21.3a46.354,46.354,0,0,0-17.6,3.8Zm80-3.1a19.762,19.762,0,0,0-9-1.9c-8.2,0-13.4,6.5-13.4,16,0,9.3,4.4,16.5,13.7,16.5a27.258,27.258,0,0,0,10.1-2.4l.6,10.9a42.328,42.328,0,0,1-13.2,1.7c-16.6,0-25-11.3-25-26.8,0-14.7,8.7-26.3,24.5-26.3a42.2,42.2,0,0,1,12.8,1.7Zm6.2-34H457v43.4h.2l15.7-20.3h15.5l-18.9,22.6,21.3,28H474.1l-16.9-24.6H457v24.6H443.8Z" fill="#fff"/>
  </g>
</svg>
