<?xml version="1.0" encoding="utf-8"?>
<!-- Generator: Adobe Illustrator 22.1.0, SVG Export Plug-In . SVG Version: 6.00 Build 0)  -->
<svg version="1.1" id="Layer_1" xmlns="http://www.w3.org/2000/svg" xmlns:xlink="http://www.w3.org/1999/xlink" x="0px" y="0px"
	 viewBox="0 0 1100 370" style="enable-background:new 0 0 1100 370;" xml:space="preserve">
<style type="text/css">
	.st0{fill:#FFFFFF;}
	.st1{fill:#C9D300;}
	.st2{fill:#004D8E;}
</style>
<rect class="st0" width="1100" height="370"/>
<path class="st1" d="M614.4,72.8C593.7,71,499.8,20.4,478.9,25.2c-3.6,0.8,4.8,13.4,8.6,27.3c3.3,11.8,0.1,20.1-9.3,21
	C348.3,86.1,252,131.9,252,186.6c0,55.7,142.8,108.5,221.5,112.9c35.4,2,104.6,50.8,134.4,45.3c3.6-0.7-3.4-9.5-7.2-23.4
	c-3.3-11.8-0.1-20.1,9.3-21c129.9-12.6,238-59.1,238-113.8C848,130.9,748,84.3,614.4,72.8z M548,288.6c-139.7,0-253-45.4-253-101.5
	c0-56,113.3-101.5,253-101.5S801,131,801,187.1C801,243.1,687.8,288.6,548,288.6z"/>
<path class="st0" d="M548,288.6c139.8,0,253-45.5,253-101.5C801,131,687.7,85.6,548,85.6s-253,45.5-253,101.5
	C295,243.2,408.3,288.6,548,288.6z"/>
<path class="st2" d="M357.9,149.5h10.5l25.1,60.4l25.2-60.4h9.7v68.7h-6.8v-61.9h-0.2l-25,61.9h-5.8l-25.8-61.9h-0.2v61.9h-6.8
	v-68.7L357.9,149.5L357.9,149.5z M442.8,189.5c0-8.3,5.6-17.4,14.8-17.4s12.8,8.7,12.8,17.4H442.8z M473.4,210.3
	c-3,1.9-9.5,3.7-14.1,3.7c-10.8,0-16.5-8.6-16.5-19.2h34.3v-3.1c0-13.5-5.8-24.9-20-24.9c-12.7,0-21.2,10.9-21.2,26.3
	c0,15.1,6.2,26.3,22.8,26.3c4.6,0,10.2-1,14.6-2.8L473.4,210.3L473.4,210.3z M505.7,173.3h-11.4v32.5c0,4.5,1.7,8.3,6.7,8.3
	c2.4,0,3.9-0.5,5.7-1.2l0.4,5.1c-1.5,0.6-4.5,1.4-7.6,1.4c-11,0-11.4-7.6-11.4-16.7v-29.3h-9.8V168h9.8v-12.1l6.2-2.2V168h11.4
	V173.3z M540.1,195.9c0,5.4-0.3,18.1-14.9,18.1c-5.7,0-10.4-2.5-10.4-9.1c0-11,12.8-12.1,23.5-12.1h1.8V195.9z M540.7,218.2h6.1
	c-0.5-3.4-0.5-6.5-0.5-10.5v-22.1c0-13.1-5.2-18.7-17.6-18.7c-4.4,0-10.9,1.6-14.8,3.4v6c4.6-3,9.5-4.1,14.8-4.1
	c8.4,0,11.4,4.3,11.4,12.9v2.6h-1.2c-13,0-30.9,0.8-30.9,17.6c0,4.5,2.3,14.2,16.5,14.2c6.2,0,13.2-3.2,15.9-9.2h0.2v7.9
	L540.7,218.2L540.7,218.2z M568.9,160.3h4.8c7.1,0,13.1,2.8,13.1,10.7c0,8-6.2,10.2-13.1,10.2h-4.8V160.3z M555.2,218.2H569v-26.1
	h5.8c14.8,0,26.5-5.8,26.5-21.8c0-16.4-13.7-20.8-28.6-20.8h-17.4L555.2,218.2L555.2,218.2z M614.3,203.5c0-7.8,8.8-8.8,14.7-8.8
	h5.7c0,3.9-0.6,7.6-2.8,10.4c-2.1,2.8-5.2,4.5-9.3,4.5C618,209.7,614.3,207.8,614.3,203.5z M607.6,181.5c4.4-3.3,10-5.5,15.6-5.5
	c7.8,0,11.4,2.8,11.4,10.9h-7.3c-5.5,0-12,0.5-17,3s-8.7,6.9-8.7,14.5c0,9.6,8.8,15.1,17.7,15.1c6,0,12.6-3.1,15.6-8.8h0.2
	c0.1,1.6,0.1,4.9,0.6,7.6h11.6c-0.3-3.9-0.5-7.5-0.6-11.3c-0.1-3.7-0.2-7.6-0.2-12.7v-6.5c0-15-6.4-21.3-21.8-21.3
	c-5.6,0-12.5,1.5-17.6,3.8L607.6,181.5z M687.6,178.4c-2.4-1.1-4.9-1.9-9-1.9c-8.2,0-13.4,6.5-13.4,16c0,9.3,4.4,16.5,13.7,16.5
	c3.7,0,7.9-1.4,10.1-2.4l0.6,10.9c-3.8,1.2-7.8,1.7-13.2,1.7c-16.6,0-25-11.3-25-26.8c0-14.7,8.7-26.3,24.5-26.3
	c5.3,0,9.2,0.6,12.8,1.7L687.6,178.4z M693.8,144.4H707v43.4h0.2l15.7-20.3h15.5l-18.9,22.6l21.3,28h-16.7l-16.9-24.6H707v24.6
	h-13.2V144.4z"/>
</svg>
