<?xml version="1.0" encoding="utf-8"?>
<!-- Generator: Adobe Illustrator 23.0.3, SVG Export Plug-In . SVG Version: 6.00 Build 0)  -->
<svg version="1.1" id="Warstwa_1" xmlns="http://www.w3.org/2000/svg" xmlns:xlink="http://www.w3.org/1999/xlink" x="0px" y="0px"
	 viewBox="0 0 2004.1 638.8" style="enable-background:new 0 0 2004.1 638.8;" xml:space="preserve">
<style type="text/css">
	.st0{fill:#231F20;}
	.st1{fill-rule:evenodd;clip-rule:evenodd;fill:#231F20;}
</style>
<g id="Warstwa_x0020_1">
	<g id="_646671864">
		<g>
			<path class="st0" d="M742.6,180.4H726v71.8h11.3v-26.9h5.3c5.6,0,9.8-1.5,12.7-4.5c2.7-3.1,4.2-7.5,4.2-13.3v-9.3
				c0-5.8-1.5-10.2-4.2-13.3C752.6,181.9,748.2,180.4,742.6,180.4z M742.6,190.6c1.3,0,2.2,0.2,3.1,0.5c0.9,0.4,1.5,1.1,1.8,2.2
				c0.4,0.9,0.5,2.4,0.5,4v10.7c0,1.6-0.2,3.1-0.5,4c-0.4,0.9-1.1,1.6-1.8,2.2c-0.9,0.4-1.8,0.5-3.1,0.5h-5.3v-24.4h5.3V190.6z
				 M788.8,180.4h-16.5l-11.5,71.8h10.4l2-13.1h13.8l2,13.1h11.5l-11.5-71.8H788.8z M779.8,193.2l5.5,36.4h-10.9L779.8,193.2z
				 M798.2,190.6H810v61.6h11.3v-61.6h11.8v-10.2h-34.9V190.6z M873.1,252.2c-0.5-1.3-0.9-2.7-1.1-4c-0.2-1.5-0.2-2.9-0.2-4.7v-11.1
				c0-2.5-0.2-4.7-0.7-6.7s-1.3-3.8-2.4-5.1c-1.1-1.5-2.5-2.5-4.4-3.3c2.5-1.1,4.4-2.9,5.6-5.5c1.3-2.4,1.8-5.5,1.8-9.1v-5.6
				c0-3.6-0.5-6.7-1.8-9.3c-1.1-2.4-2.9-4.4-5.5-5.5c-2.5-1.3-5.6-1.8-9.5-1.8H838v71.8h11.3v-29.3h3.8c1.6,0,3.1,0.4,4.2,0.9
				c1.1,0.5,1.8,1.6,2.4,2.9c0.5,1.3,0.7,3.1,0.7,5.3v11.3c0,1.5,0,2.7,0,3.6s0.2,1.6,0.2,2.4c0,0.5,0.2,1.1,0.4,1.6
				c0.2,0.4,0.2,0.9,0.4,1.3h11.5L873.1,252.2z M854.7,190.6c2,0,3.5,0.5,4.4,1.8c0.9,1.3,1.5,3.1,1.5,5.6v7.1
				c0,1.8-0.4,3.5-0.9,4.5c-0.5,1.1-1.3,2-2.4,2.4c-1.1,0.5-2.2,0.7-3.6,0.7h-4.4v-22h5.5V190.6z M889.7,196.8
				c0-2.5,0.5-4.4,1.6-5.5c1.1-1.1,2.5-1.6,4.4-1.6c1.8,0,3.3,0.5,4.4,1.6c1.1,1.1,1.6,2.9,1.6,5.5v38.7c0,2.5-0.5,4.4-1.6,5.5
				s-2.5,1.6-4.4,1.6c-1.8,0-3.3-0.5-4.4-1.6s-1.6-2.9-1.6-5.5V196.8z M878.4,234.8c0,3.8,0.7,7.1,2,9.8c1.3,2.7,3.3,4.7,5.8,6.2
				c2.5,1.5,5.6,2.2,9.5,2.2c3.6,0,6.9-0.7,9.5-2.2s4.5-3.5,5.8-6.2c1.3-2.7,2-6,2-9.8v-37.3c0-3.8-0.7-7.1-2-9.8
				c-1.3-2.7-3.3-4.7-5.8-6.2c-2.5-1.5-5.6-2.2-9.5-2.2c-3.6,0-6.9,0.7-9.5,2.2c-2.5,1.5-4.5,3.5-5.8,6.2c-1.3,2.7-2,6-2,9.8V234.8z
				 M944,252.1h11.6v-71.8h-10v42.9L934,180.2h-14.2v71.8H930v-52L944,252.1z M988.7,180.2h-16.5l-11.5,71.8h10.4l2-13.1h13.8
				l2,13.1h11.5l-11.5-71.8H988.7z M979.8,193l5.5,36.4h-10.9L979.8,193z M998.2,190.4h11.8v61.6h11.3v-61.6h11.8v-10.2h-34.9V190.4
				z"/>
			<path class="st0" d="M1065.5,221.3h12.9v30.7h11.5v-71.8h-11.5V211h-12.9v-30.7h-11.3v71.8h11.3V221.3z M1110,196.8
				c0-2.5,0.5-4.4,1.6-5.5c1.1-1.1,2.5-1.6,4.4-1.6s3.3,0.5,4.4,1.6c1.1,1.1,1.6,2.9,1.6,5.5v38.7c0,2.5-0.5,4.4-1.6,5.5
				s-2.5,1.6-4.4,1.6s-3.3-0.5-4.4-1.6s-1.6-2.9-1.6-5.5V196.8z M1098.7,234.8c0,3.8,0.7,7.1,2,9.8c1.3,2.7,3.3,4.7,5.8,6.2
				s5.6,2.2,9.5,2.2c3.6,0,6.9-0.7,9.5-2.2c2.5-1.5,4.5-3.5,5.8-6.2c1.3-2.7,2-6,2-9.8v-37.3c0-3.8-0.7-7.1-2-9.8
				c-1.3-2.7-3.3-4.7-5.8-6.2c-2.5-1.5-5.6-2.2-9.5-2.2c-3.6,0-6.9,0.7-9.5,2.2c-2.5,1.5-4.5,3.5-5.8,6.2c-1.3,2.7-2,6-2,9.8V234.8z
				 M1166,252.1h11.6v-71.8h-10v42.9l-11.6-42.9h-14.2v71.8h10.2v-52L1166,252.1z M1197.6,196.8c0-2.5,0.5-4.4,1.6-5.5
				c1.1-1.1,2.5-1.6,4.4-1.6c1.8,0,3.3,0.5,4.4,1.6c1.1,1.1,1.6,2.9,1.6,5.5v38.7c0,2.5-0.5,4.4-1.6,5.5c-1.1,1.1-2.5,1.6-4.4,1.6
				c-1.8,0-3.3-0.5-4.4-1.6s-1.6-2.9-1.6-5.5V196.8z M1186.4,234.8c0,3.8,0.7,7.1,2,9.8c1.3,2.7,3.3,4.7,5.8,6.2
				c2.5,1.5,5.6,2.2,9.5,2.2c3.6,0,6.9-0.7,9.5-2.2c2.5-1.5,4.5-3.5,5.8-6.2c1.3-2.7,2-6,2-9.8v-37.3c0-3.8-0.7-7.1-2-9.8
				c-1.3-2.7-3.3-4.7-5.8-6.2c-2.5-1.5-5.6-2.2-9.5-2.2c-3.6,0-6.9,0.7-9.5,2.2c-2.5,1.5-4.5,3.5-5.8,6.2s-2,6-2,9.8V234.8z
				 M1264.5,252.1c-0.5-1.3-0.9-2.7-1.1-4c-0.2-1.5-0.2-2.9-0.2-4.7v-11.1c0-2.5-0.2-4.7-0.7-6.7c-0.5-2-1.3-3.8-2.4-5.1
				c-1.1-1.5-2.5-2.5-4.4-3.3c2.5-1.1,4.4-2.9,5.6-5.5c1.3-2.4,1.8-5.5,1.8-9.1V197c0-3.6-0.5-6.7-1.8-9.3c-1.1-2.4-2.9-4.4-5.5-5.5
				c-2.5-1.3-5.6-1.8-9.5-1.8h-17.1v71.8h11.3V223h3.8c1.6,0,3.1,0.4,4.2,0.9s1.8,1.6,2.4,2.9c0.5,1.3,0.7,3.1,0.7,5.3v11.3
				c0,1.5,0,2.7,0,3.6s0.2,1.6,0.2,2.4c0,0.5,0.2,1.1,0.4,1.6c0.2,0.4,0.2,0.9,0.4,1.3h11.5L1264.5,252.1z M1246.2,190.4
				c2,0,3.5,0.5,4.4,1.8c0.9,1.3,1.5,3.1,1.5,5.6v7.1c0,1.8-0.4,3.5-0.9,4.5c-0.5,1.1-1.3,2-2.4,2.4c-1.1,0.5-2.2,0.7-3.6,0.7h-4.4
				v-22h5.5V190.4z M1282.7,196.6c0-2.5,0.5-4.4,1.6-5.5s2.5-1.6,4.4-1.6c1.8,0,3.3,0.5,4.4,1.6c1.1,1.1,1.6,2.9,1.6,5.5v38.7
				c0,2.5-0.5,4.4-1.6,5.5c-1.1,1.1-2.5,1.6-4.4,1.6c-1.8,0-3.3-0.5-4.4-1.6c-1.1-1.1-1.6-2.9-1.6-5.5V196.6z M1271.4,234.6
				c0,3.8,0.7,7.1,2,9.8c1.3,2.7,3.3,4.7,5.8,6.2c2.5,1.5,5.6,2.2,9.5,2.2c3.6,0,6.9-0.7,9.5-2.2c2.5-1.5,4.5-3.5,5.8-6.2
				c1.3-2.7,2-6,2-9.8v-37.3c0-3.8-0.7-7.1-2-9.8c-1.3-2.7-3.3-4.7-5.8-6.2c-2.5-1.5-5.6-2.2-9.5-2.2c-3.6,0-6.9,0.7-9.5,2.2
				c-2.5,1.5-4.5,3.5-5.8,6.2c-1.3,2.7-2,6-2,9.8V234.6z M1343.6,251.9h14.9l8-71.8h-9.8l-5.8,57.1l-5.6-57.1h-10.9l-5.5,56.7
				l-6-56.7H1312l8,71.8h15.5l4.2-38.4l4.2,38.4H1343.6z M1384.3,251.9h11.3v-23.8l14.2-48h-10.7l-8.5,32.7l-8.5-32.7h-11.8l14.2,48
				V251.9z M1450.2,180.1h-16.5v71.8h11.3V225h5.3c5.6,0,9.8-1.5,12.7-4.5c2.7-3.1,4.2-7.5,4.2-13.3v-9.3c0-5.8-1.5-10.2-4.2-13.3
				C1460.2,181.5,1455.8,180.1,1450.2,180.1z M1450.2,190.2c1.3,0,2.2,0.2,3.1,0.5c0.9,0.4,1.5,1.1,1.8,2.2c0.4,0.9,0.5,2.4,0.5,4
				v10.7c0,1.6-0.2,3.1-0.5,4c-0.4,0.9-1.1,1.6-1.8,2.2c-0.9,0.4-1.8,0.5-3.1,0.5h-5.3v-24.4h5.3V190.2z M1509.4,251.9
				c-0.5-1.3-0.9-2.7-1.1-4c-0.2-1.5-0.2-2.9-0.2-4.7v-11.1c0-2.5-0.2-4.7-0.7-6.7s-1.3-3.8-2.4-5.1c-1.1-1.5-2.5-2.5-4.4-3.3
				c2.5-1.1,4.4-2.9,5.6-5.5c1.3-2.4,1.8-5.5,1.8-9.1v-5.6c0-3.6-0.5-6.7-1.8-9.3c-1.1-2.4-2.9-4.4-5.5-5.5
				c-2.5-1.3-5.6-1.8-9.5-1.8h-17.1v71.8h11.3v-29.3h3.8c1.6,0,3.1,0.4,4.2,0.9s1.8,1.6,2.4,2.9c0.5,1.3,0.7,3.1,0.7,5.3v11.3
				c0,1.5,0,2.7,0,3.6c0,0.9,0.2,1.6,0.2,2.4c0,0.5,0.2,1.1,0.4,1.6c0.2,0.4,0.2,0.9,0.4,1.3h11.5L1509.4,251.9z M1491.1,190.2
				c2,0,3.5,0.5,4.4,1.8c0.9,1.3,1.5,3.1,1.5,5.6v7.1c0,1.8-0.4,3.5-0.9,4.5s-1.3,2-2.4,2.4c-1.1,0.5-2.2,0.7-3.6,0.7h-4.4v-22h5.5
				V190.2z M1528.5,190.2h19.5v-10.2h-30.7v71.8h30.7v-10.2h-19.5v-21.1h15.5v-10.2h-15.5v-20V190.2z M1555.8,180.1v10.2h20.4
				l-21.5,51.5v10h33.1v-10.2h-21.5l21.5-51.5v-10H1555.8z M1606.7,251.9h11.3v-23.8l14.2-48h-10.7l-8.5,32.7l-8.5-32.7h-11.8
				l14.2,48V251.9z M1638.3,251.9h17.8c5.6,0,9.8-1.5,12.7-4.5c2.7-3.1,4.2-7.5,4.2-13.3v-36.4c0-5.8-1.5-10.2-4.2-13.3
				c-2.7-3.1-7.1-4.5-12.7-4.5h-17.8v71.8V251.9z M1656,190.2c1.3,0,2.2,0.2,3.1,0.7c0.9,0.5,1.5,1.3,2,2.2c0.4,1.1,0.7,2.4,0.7,4
				v37.3c0,1.6-0.2,3.1-0.7,4c-0.5,1.1-1.1,1.8-2,2.2c-0.9,0.5-1.8,0.7-3.1,0.7h-6.4v-51.3h6.4V190.2z M1693,190.2h19.5v-10.2h-30.7
				v71.8h30.7v-10.2H1693v-21.1h15.5v-10.2H1693v-20V190.2z M1745.2,251.9h11.6v-71.8h-10V223l-11.6-42.9H1721v71.8h10.2v-52
				L1745.2,251.9z M1763.2,190.2h11.8v61.6h11.3v-61.6h11.8v-10.2h-34.9V190.2z M1825.8,180.1h-16.5l-11.5,71.8h10.4l2-13.1h13.8
				l2,13.1h11.5l-11.5-71.8H1825.8z M1816.8,192.8l5.5,36.4h-10.9L1816.8,192.8z M743.5,303.1h-15.6V375h9.8v-50.7L746,375h10.7
				l7.8-51.5V375h10.7v-71.8h-15.6L752,354l-8.4-50.9H743.5z M784.9,375h11.3v-71.8h-11.3V375z M831.1,303.1h-16.5L803.1,375h10.4
				l2-13.1h13.8l2,13.1h11.5l-11.5-71.8H831.1z M822.2,315.9l5.5,36.4h-10.9L822.2,315.9z M847.8,320.4c0,2.9,0.4,5.5,1.3,7.8
				c0.7,2.4,1.8,4.4,3.1,6.2c1.3,1.8,2.7,3.5,4.4,5.1c1.6,1.5,3.1,2.9,4.7,4.4c1.6,1.5,3.1,2.9,4.4,4.4c1.3,1.5,2.4,3.1,3.1,4.7
				s1.3,3.6,1.3,5.6c0,1.6-0.2,3.1-0.7,4c-0.5,1.1-1.1,1.8-2,2.2c-0.9,0.4-2,0.7-3.1,0.7c-1.3,0-2.2-0.2-3.1-0.7
				c-0.9-0.5-1.5-1.3-2-2.2c-0.5-1.1-0.7-2.4-0.7-4v-5.1h-10.7v4.4c0,3.8,0.5,7.1,1.8,9.8c1.3,2.7,3.1,4.7,5.6,6.2
				c2.5,1.5,5.6,2.2,9.3,2.2s6.7-0.7,9.3-2.2c2.5-1.5,4.4-3.5,5.6-6.2c1.3-2.7,1.8-6,1.8-9.8c0-2.9-0.4-5.5-1.3-7.8
				c-0.7-2.4-1.8-4.4-3.1-6.2c-1.3-1.8-2.7-3.5-4.4-5.1c-1.6-1.5-3.1-2.9-4.7-4.4c-1.6-1.5-3.1-2.9-4.4-4.4
				c-1.3-1.5-2.4-3.1-3.1-4.7c-0.7-1.6-1.3-3.6-1.3-5.6c0-2.5,0.5-4.4,1.5-5.5s2.4-1.6,4.2-1.6s3.3,0.5,4.2,1.6s1.5,2.9,1.5,5.5v2.9
				h10.7v-2.2c0-3.8-0.5-7.1-1.8-9.8c-1.3-2.7-3.1-4.7-5.6-6.2c-2.5-1.5-5.5-2.2-9.1-2.2s-6.7,0.7-9.1,2.2c-2.5,1.5-4.4,3.5-5.6,6.2
				C848.4,313.3,847.8,316.6,847.8,320.4L847.8,320.4z M886,313.5h11.8v61.6h11.3v-61.6h11.8v-10.2H886V313.5z M948.6,303.3H932
				l-11.5,71.8h10.4l2-13.1h13.8l2,13.1h11.5l-11.5-71.8H948.6z M939.6,316.1l5.5,36.4h-10.9L939.6,316.1z M983.5,303.3v10.2h20.4
				L982.4,365v10h33.1v-10.2H994l21.5-51.5v-10H983.5z M1023.6,375.1h11.3v-71.8h-11.3V375.1z M1056,313.5h19.5v-10.2h-30.7v71.8
				h30.7V365H1056v-21.1h15.5v-10.2H1056v-20V313.5z M1084,375.1h29.8V365h-18.5v-61.6H1084V375.1z M1130.7,319.9
				c0-2.5,0.5-4.4,1.6-5.5s2.5-1.6,4.4-1.6c1.8,0,3.3,0.5,4.4,1.6s1.6,2.9,1.6,5.5v38.7c0,2.5-0.5,4.4-1.6,5.5
				c-1.1,1.1-2.5,1.6-4.4,1.6c-1.8,0-3.3-0.5-4.4-1.6c-1.1-1.1-1.6-2.9-1.6-5.5V319.9z M1119.5,357.9c0,3.8,0.7,7.1,2,9.8
				s3.3,4.7,5.8,6.2c2.5,1.5,5.6,2.2,9.5,2.2c3.6,0,6.9-0.7,9.5-2.2c2.5-1.5,4.5-3.5,5.8-6.2s2-6,2-9.8v-37.3c0-3.8-0.7-7.1-2-9.8
				s-3.3-4.7-5.8-6.2c-2.5-1.5-5.6-2.2-9.5-2.2c-3.6,0-6.9,0.7-9.5,2.2c-2.5,1.5-4.5,3.5-5.8,6.2s-2,6-2,9.8V357.9z M1186.7,375.1
				h11.6v-71.8h-10v42.9l-11.6-42.9h-14.2v71.8h10.2v-52L1186.7,375.1z M1233.1,303.3h-16.5l-11.5,71.8h10.4l2-13.1h13.8l2,13.1
				h11.5l-11.5-71.8H1233.1z M1224.2,316.1l5.5,36.4h-10.9L1224.2,316.1z M1285.8,345.3h5.1v13.3c0,1.6-0.2,3.1-0.7,4
				c-0.5,1.1-1.1,1.8-2,2.2c-0.9,0.5-2,0.7-3.1,0.7c-1.3,0-2.2-0.2-3.1-0.7c-0.9-0.5-1.5-1.3-2-2.2c-0.5-1.1-0.7-2.4-0.7-4v-38.7
				c0-2.5,0.5-4.4,1.6-5.5s2.5-1.6,4.4-1.6c1.8,0,3.3,0.5,4.4,1.6s1.6,2.9,1.6,5.5v7.6h10.7v-6.9c0-3.8-0.5-7.1-1.8-9.8
				c-1.3-2.7-3.1-4.7-5.6-6.2c-2.5-1.5-5.6-2.2-9.3-2.2c-3.6,0-6.7,0.7-9.3,2.2c-2.5,1.5-4.4,3.5-5.6,6.2c-1.3,2.7-1.8,6-1.8,9.8
				v37.3c0,3.8,0.5,7.1,1.8,9.8c1.3,2.7,3.1,4.7,5.6,6.2c2.5,1.5,5.6,2.2,9.3,2.2c3.6,0,6.7-0.7,9.3-2.2c2.5-1.5,4.4-3.5,5.6-6.2
				c1.3-2.7,1.8-6,1.8-9.8v-22.7h-15.8v10.2H1285.8z M1320.9,319.7c0-2.5,0.5-4.4,1.6-5.5s2.5-1.6,4.4-1.6c1.8,0,3.3,0.5,4.4,1.6
				s1.6,2.9,1.6,5.5v38.7c0,2.5-0.5,4.4-1.6,5.5s-2.5,1.6-4.4,1.6c-1.8,0-3.3-0.5-4.4-1.6s-1.6-2.9-1.6-5.5V319.7z M1309.6,357.7
				c0,3.8,0.7,7.1,2,9.8c1.3,2.7,3.3,4.7,5.8,6.2c2.5,1.5,5.6,2.2,9.5,2.2c3.6,0,6.9-0.7,9.5-2.2c2.5-1.5,4.5-3.5,5.8-6.2
				c1.3-2.7,2-6,2-9.8v-37.3c0-3.8-0.7-7.1-2-9.8c-1.3-2.7-3.3-4.7-5.8-6.2c-2.5-1.5-5.6-2.2-9.5-2.2c-3.6,0-6.9,0.7-9.5,2.2
				c-2.5,1.5-4.5,3.5-5.8,6.2c-1.3,2.7-2,6-2,9.8V357.7z M1327.8,287.9l-6.9,11.5h7.6l10.5-11.5H1328H1327.8z M1387.8,375
				c-0.5-1.3-0.9-2.7-1.1-4c-0.2-1.5-0.2-2.9-0.2-4.7v-11.1c0-2.5-0.2-4.7-0.7-6.7c-0.5-2-1.3-3.8-2.4-5.1c-1.1-1.5-2.5-2.5-4.4-3.3
				c2.5-1.1,4.4-2.9,5.6-5.5c1.3-2.4,1.8-5.5,1.8-9.1v-5.6c0-3.6-0.5-6.7-1.8-9.3c-1.1-2.4-2.9-4.4-5.5-5.5
				c-2.5-1.3-5.6-1.8-9.5-1.8h-17.1v71.8h11.3v-29.3h3.8c1.6,0,3.1,0.4,4.2,0.9s1.8,1.6,2.4,2.9c0.5,1.3,0.7,3.1,0.7,5.3v11.3
				c0,1.5,0,2.7,0,3.6c0,0.9,0.2,1.6,0.2,2.4c0,0.5,0.2,1.1,0.4,1.6c0.2,0.4,0.2,0.9,0.4,1.3h11.5L1387.8,375z M1369.4,313.3
				c2,0,3.5,0.5,4.4,1.8c0.9,1.3,1.5,3.1,1.5,5.6v7.1c0,1.8-0.4,3.5-0.9,4.5c-0.5,1.1-1.3,2-2.4,2.4c-1.1,0.5-2.2,0.7-3.6,0.7h-4.4
				v-22h5.5V313.3z M1420.5,303.1H1404l-11.5,71.8h10.4l2-13.1h13.8l2,13.1h11.5l-11.5-71.8H1420.5z M1411.6,315.9l5.5,36.4h-10.9
				L1411.6,315.9z M724.6,498c0.9,0.2,1.8,0.2,2.7,0.2s1.8,0,2.7,0c2.2,0,4.2-0.2,6.2-0.7c2-0.5,3.6-1.5,5.1-2.9
				c1.5-1.3,2.7-3.1,3.6-5.5s1.3-5.3,1.3-8.9v-54h-11.3v54.7c0,1.8-0.4,3.3-0.9,4.2c-0.5,1.1-1.3,1.6-2.4,2c-0.9,0.4-2,0.5-3.3,0.5
				c-0.5,0-1.3,0-2,0s-1.3,0-2,0v10.2L724.6,498z M780.6,426.2H764L752.6,498h10.4l2-13.1h13.8l2,13.1h11.5l-11.5-71.8H780.6z
				 M771.7,439l5.5,36.4h-10.9L771.7,439z M822.9,498h11.6v-71.8h-10v42.9l-11.6-42.9h-14.2V498h10.2v-52L822.9,498z M843.7,426.2
				v54.7c0,3.8,0.5,7.1,1.8,9.8s3.1,4.7,5.6,6.2c2.5,1.5,5.6,2.2,9.3,2.2s6.7-0.7,9.3-2.2c2.5-1.5,4.4-3.5,5.6-6.2
				c1.3-2.7,1.8-6,1.8-9.8v-54.7h-10.7v55.4c0,1.6-0.2,3.1-0.7,4c-0.5,1.1-1.1,1.8-2,2.2c-0.9,0.5-2,0.7-3.1,0.7
				c-1.3,0-2.2-0.2-3.1-0.7c-0.9-0.5-1.5-1.3-2-2.2c-0.5-1.1-0.7-2.4-0.7-4v-55.4h-11.3H843.7z M885.1,443.5c0,2.9,0.4,5.5,1.3,7.8
				c0.7,2.4,1.8,4.4,3.1,6.2c1.3,1.8,2.7,3.5,4.4,5.1c1.6,1.5,3.1,2.9,4.7,4.4c1.6,1.5,3.1,2.9,4.4,4.4c1.3,1.5,2.4,3.1,3.1,4.7
				s1.3,3.6,1.3,5.6c0,1.6-0.2,3.1-0.7,4c-0.5,1.1-1.1,1.8-2,2.2c-0.9,0.4-2,0.7-3.1,0.7c-1.3,0-2.2-0.2-3.1-0.7
				c-0.9-0.5-1.5-1.3-2-2.2c-0.5-1.1-0.7-2.4-0.7-4v-5.1h-10.7v4.4c0,3.8,0.5,7.1,1.8,9.8c1.3,2.7,3.1,4.7,5.6,6.2
				c2.5,1.5,5.6,2.2,9.3,2.2s6.7-0.7,9.3-2.2c2.5-1.5,4.4-3.5,5.6-6.2c1.3-2.7,1.8-6,1.8-9.8c0-2.9-0.4-5.5-1.3-7.8
				c-0.7-2.4-1.8-4.4-3.1-6.2c-1.3-1.8-2.7-3.5-4.4-5.1c-1.6-1.5-3.1-2.9-4.7-4.4c-1.6-1.5-3.1-2.9-4.4-4.4
				c-1.3-1.5-2.4-3.1-3.1-4.7s-1.3-3.6-1.3-5.6c0-2.5,0.5-4.4,1.5-5.5c0.9-1.1,2.4-1.6,4.2-1.6c1.8,0,3.3,0.5,4.2,1.6
				s1.5,2.9,1.5,5.5v2.9h10.7v-2.2c0-3.8-0.5-7.1-1.8-9.8c-1.3-2.7-3.1-4.7-5.6-6.2c-2.5-1.5-5.5-2.2-9.3-2.2
				c-3.6,0-6.7,0.7-9.1,2.2c-2.5,1.5-4.4,3.5-5.6,6.2c-1.3,2.7-1.8,6-1.8,9.8l0,0H885.1z M925.8,426.2v10.2h20.4l-21.5,51.5v10h33.1
				v-10.2h-21.5l21.5-51.5v-10H925.8z M991.1,426.2h-16.5L963.1,498h10.4l2-13.1h13.8l2,13.1h11.5l-11.5-71.8H991.1z M982.2,439
				l5.5,36.4h-10.9L982.2,439z M1052.5,498h11.6l-15.6-39.8l15.6-32h-11.3l-14.7,31.3v-31.3h-11.3V498h11.3v-22l3.5-6.5L1052.5,498z
				 M1070,426.2v54.7c0,3.8,0.5,7.1,1.8,9.8s3.1,4.7,5.6,6.2c2.5,1.5,5.6,2.2,9.3,2.2s6.7-0.7,9.3-2.2c2.5-1.5,4.4-3.5,5.6-6.2
				s1.8-6,1.8-9.8v-54.7h-10.7v55.4c0,1.6-0.2,3.1-0.7,4c-0.5,1.1-1.1,1.8-2,2.2c-0.9,0.5-2,0.7-3.1,0.7c-1.3,0-2.2-0.2-3.1-0.7
				c-0.9-0.5-1.5-1.3-2-2.2c-0.5-1.1-0.7-2.4-0.7-4v-55.4h-11.3H1070z M1130,426.2h-17.1V498h17.8c5.6,0,10-1.5,12.7-4.4
				c2.9-2.9,4.4-7.1,4.4-12.7v-5.8c0-3.8-0.5-7.1-2-9.6c-1.3-2.5-3.5-4.5-6.5-5.8c2.5-1.1,4.4-2.9,5.5-5.3s1.8-5.5,1.8-9.1v-2.5
				c0-3.6-0.5-6.7-1.8-9.3c-1.1-2.4-2.9-4.4-5.5-5.5c-2.5-1.3-5.6-1.8-9.5-1.8l0,0H1130z M1129.3,465.7c1.6,0,3.1,0.2,4.2,0.7
				c1.1,0.5,1.8,1.5,2.4,2.7s0.7,3.1,0.7,5.3v6.2c0,1.8-0.2,3.1-0.7,4.2c-0.4,1.1-1.1,1.8-2,2.2c-0.9,0.4-2,0.7-3.3,0.7h-6.5v-22
				h5.1H1129.3z M1129.6,436.4c2,0,3.5,0.5,4.4,1.8c0.9,1.3,1.5,3.1,1.5,5.6v4c0,1.8-0.4,3.5-0.9,4.5s-1.3,2-2.4,2.4
				c-1.1,0.5-2.2,0.7-3.6,0.7h-4.4v-18.9h5.5V436.4z M1156.2,498h11.3v-71.8h-11.3V498z M1199.3,471.3v10.2c0,1.6-0.2,3.1-0.7,4
				c-0.5,1.1-1.1,1.8-2,2.2c-0.9,0.5-2,0.7-3.1,0.7c-1.3,0-2.2-0.2-3.1-0.7c-0.9-0.5-1.5-1.3-2-2.2c-0.5-1.1-0.7-2.4-0.7-4v-38.7
				c0-2.5,0.5-4.4,1.6-5.5s2.5-1.6,4.4-1.6c1.8,0,3.3,0.5,4.4,1.6s1.6,2.9,1.6,5.5v7.6h10.7v-6.9c0-3.8-0.5-7.1-1.8-9.8
				c-1.3-2.7-3.1-4.7-5.6-6.2c-2.5-1.5-5.6-2.2-9.3-2.2c-3.6,0-6.7,0.7-9.3,2.2c-2.5,1.5-4.4,3.5-5.6,6.2c-1.3,2.7-1.8,6-1.8,9.8
				v37.3c0,3.8,0.5,7.1,1.8,9.8c1.3,2.7,3.1,4.7,5.6,6.2c2.5,1.5,5.6,2.2,9.3,2.2c3.6,0,6.7-0.7,9.3-2.2c2.5-1.5,4.4-3.5,5.6-6.2
				c1.3-2.7,1.8-6,1.8-9.8v-9.5h-10.7H1199.3z M1244.2,498h11.6l-15.6-39.8l15.6-32h-11.3l-14.7,31.3v-31.3h-11.3V498h11.3v-22
				l3.5-6.5L1244.2,498z M1262.5,498h11.3v-71.8h-11.3V498z M1294.9,436.4h19.5v-10.2h-30.7V498h30.7v-10.2h-19.5v-21.1h15.5v-10.2
				h-15.5v-20V436.4z M1339.8,468.2h5.1v13.3c0,1.6-0.2,3.1-0.7,4c-0.5,1.1-1.1,1.8-2,2.2c-0.9,0.5-2,0.7-3.1,0.7
				c-1.3,0-2.2-0.2-3.1-0.7c-0.9-0.5-1.5-1.3-2-2.2c-0.5-1.1-0.7-2.4-0.7-4v-38.7c0-2.5,0.5-4.4,1.6-5.5s2.5-1.6,4.4-1.6
				s3.3,0.5,4.4,1.6s1.6,2.9,1.6,5.5v7.6h10.7v-6.9c0-3.8-0.5-7.1-1.8-9.8c-1.3-2.7-3.1-4.7-5.6-6.2c-2.5-1.5-5.6-2.2-9.3-2.2
				s-6.7,0.7-9.3,2.2c-2.5,1.5-4.4,3.5-5.6,6.2c-1.3,2.7-1.8,6-1.8,9.8v37.3c0,3.8,0.5,7.1,1.8,9.8c1.3,2.7,3.1,4.7,5.6,6.2
				c2.5,1.5,5.6,2.2,9.3,2.2s6.7-0.7,9.3-2.2c2.5-1.5,4.4-3.5,5.6-6.2c1.3-2.7,1.8-6,1.8-9.8V458h-15.8v10.2H1339.8z M1374.9,442.6
				c0-2.5,0.5-4.4,1.6-5.5c1.1-1.1,2.5-1.6,4.4-1.6c1.8,0,3.3,0.5,4.4,1.6s1.6,2.9,1.6,5.5v38.7c0,2.5-0.5,4.4-1.6,5.5
				s-2.5,1.6-4.4,1.6c-1.8,0-3.3-0.5-4.4-1.6c-1.1-1.1-1.6-2.9-1.6-5.5V442.6z M1363.6,480.6c0,3.8,0.7,7.1,2,9.8
				c1.3,2.7,3.3,4.7,5.8,6.2c2.5,1.5,5.6,2.2,9.5,2.2c3.6,0,6.9-0.7,9.5-2.2c2.5-1.5,4.5-3.5,5.8-6.2c1.3-2.7,2-6,2-9.8v-37.3
				c0-3.8-0.7-7.1-2-9.8c-1.3-2.7-3.3-4.7-5.8-6.2c-2.5-1.5-5.6-2.2-9.5-2.2c-3.6,0-6.9,0.7-9.5,2.2c-2.5,1.5-4.5,3.5-5.8,6.2
				c-1.3,2.7-2,6-2,9.8V480.6z"/>
		</g>
		<g>
			<path class="st1" d="M425.1,520l-0.7-0.4L425.1,520z M421,315.9l0.7,0.4L421,315.9c-1.8-1.6,0.7-0.2-1.3-1.5
				c-1.3-0.9-1.5-0.2-1.5-2.4l0.2,0.2c0.2,1.5,3.5,2.4,4.5,2.9c-1.1-3.8-2.4,2.5-3.8-7.8c-0.9-7.3-2-5.8-2.7-9.3
				c2.2,1.5,1.8,1.6,3.1,5.8l2.4,6.5c0-0.4,0-0.7,0.2-0.7c0.2-0.5,0-0.7,0.5-1.5c0,2,0.5,4.2,2.4,4.5c1.8-7.8-4.2-18.4-8.7-24
				c-0.7-0.9-1.8-1.8-2-2.9h1.5c2.7,4,2.9,3.8,6,8.9c1.6,2.7,0.9,2.5,2.4,2.9c1.6-3.6-5.1-11.1-6.2-12.7c1.3,0,2.5,0.4,3.6-1.1
				c1.6-2.2-1.8-1.1-3.5-2.5c-1.1-0.9-1.5-1.8-2.7-2.5c0.5-1.5,0,0,1.1-1.5l-0.7-2.7c1.8,0.5,4.4,3.8,5.5,5.3
				c2.4,3.3,2.4,6.2,4.2,6.5c3.3-14.2-22.2-19.1-25.1-23.1c5.1,1.3,14.5,6.9,18.2,7.6c0.4-1.8,0.4-1.6-3.8-4.4
				c-4-2.5-7.3-2.9-8.7-4.4c-1.6-1.8-0.4-0.5-3.1-1.6c-3.1-1.3-2.4-2.9-6.4-2.9c0.7,1.1,0.5,1.1,2.4,1.1c-0.9,1.3,0.2,0.5-1.8,0.5
				c-2.2,0-4.7-0.4-6.2-2.4c3.1,0,4,0.4,5.5-1.5c-1.6-2.2-6.4-1.6-8.9-2.7c-2.2-0.9-5.6-3.1-8.5-3.1c0.7-0.5,0.2-0.2,0.9-0.5
				c1.3-0.7,2.2-1.3,2.2-3.6c0-1.8-1.3-4.4-2-5.8c-2.7-6,0.9-10.2,0-20c-0.5-4.9-2.7-9.5-3.1-12c-0.2-2.2,0-5.3,0-7.6
				c0.7,0.4,2.4,0.7,3.1,1.1c5.5,2.2,4.4,0.7,7.3,1.6c1.6,0.5,1.6,1.1,3.5,1.1c0.2,1.1,0,0.9,0.4,1.5c-5.3-0.2-8.4-3.5-11.3-2.9
				c-1.3,0.2-2.7,0.9-2.5,2.4c0.2,2,1.8,0.5,3.1,0.4c1.3,0,2.7,0.7,3.6,1.3c2.7,1.5,4.2,1.8,8.2,1.8c-0.4-0.4,0.2-0.2-0.5-0.5
				c-2.2-1.6-1.6,0.5-2.9-1.3c1.6,0.2,2.2,0.4,4.2,0.4v-0.7c4.7,0,5.6,4.2,9.6,3.5c2.2-0.4-0.5-0.5,2-0.4c0.9,0,6.4,0.9,7.3,0.5
				c1.3-0.4,0.4,0.2,0.7-0.9h-5.1c0.5-0.4,0.4-0.5,1.3-0.7c0.7-0.2,1.5,0,2.2,0v-0.7l-3.5-0.4c-0.4-1.5-0.4-0.7-1.1-2
				c4.7,0,2.4,2.2,10,1.5v-0.7h-4.2c0.9-1.1,0.7-0.7,2.7-0.7c-1.1-1.5-1.8-1.1-4.2-1.1c0.5-2.4,0.5-0.9-0.7-2.7c2,0.2,6,2.9,6.9-0.4
				c-4.5-0.4-3.6,1.5-5.1-0.4c2.9,0.7,2.2-0.4,2.4-0.7c-2-0.9-1.6,0.2-3.8-1.6c-1.8-1.5-4.2-4-6-5.6c-1.8-1.8-2-1.3-3.5-2.4
				c1.6-0.4,2.4,0.4,4.7,2.5c1.1,1.1,2.9,3.3,4.2,4c-0.2-4.2-4.7-5.8-5.8-7.3h1.1c-0.2-1.1,0-0.4-0.4-1.1c1.3,0.4,1.8,1.3,2.9,2
				c1.3,0.9,1.6,1.8,2.9,2.5c-0.4-1.5-0.7-1.1-1.5-2.4l0.4-0.7c-1.1-0.7-2.9-2.5-6-4.5c-2.2-1.5-1.6-0.7-1.8-2.2
				c3.3,0.9,10.4,8.5,12,9.6c-0.2-1.3-0.2-1.5-2.2-3.3l-2.9-2.5c1.1-0.4,0.7,0.2,0.4-0.7c-0.2-0.4-0.9-0.7-1.3-1.1
				c-1.1-0.7-1.8-1.3-2.5-2.2c1.6,0.4,3.1,1.8,4.5,2.4c-0.4-1.6-0.5-1.1-2.7-2.7c-8.7-6.5-4.9-7.8-17.5-10.4c-4.4-0.9-6.4-2-9.3-2
				v-0.2c0-0.7,0.7,0.5,0-0.4c-0.9-1.1-14-1.6-21.3,8.2c-2.4,3.1-3.1,5.8-5.1,6.9c-9.1,4.5-5.1,12.7-5.1,13.5c0,1.3-0.4,2.5-0.5,3.3
				c0,0.4,0.9,5.8,1.5,6.5c1.8,2.5,2.5,0.4,3.6,4.5c1.6,7.3,0.2,6.4,0.7,11.8c0.5,4.5,0.4,6.5-0.2,11.1c-0.5,3.8,1.1,2.5-0.2,6.4
				c-1.1,3.5-0.9,8.9,1.5,9.6c2.9,0,3.3-1.8,6.4-2.4c3.6-0.7,3.6-0.4,7.8-0.4c0.2,0.5,0.7-0.4-0.4,0.5l-0.5,0.4l1.6,0.4
				c2.7,0.7,3.3-0.9,4.5,0.9c-2.5,0-3.8,0.2-5.8,0.4c-0.9-3.3-8.5,0.5-10.7,1.3c-1.3,0.5-2.7,0.7-3.8,1.3c-2.2,1.3-1.1,3.1-5.3,4.4
				c-2.4,0.9-4.9,1.8-6.2,3.8c-1.1,0.2-0.5,0-1.1,0.7c1.1-0.2,0.5,0,1.1-0.7c1.1,0.5,1.8-0.2,2.9-1.1c1.5-1.1,1.6-1.6,2.5-0.5
				c-1.8,0.4-2.7,1.3-4,2.2c-1.5,1.1,0,0.5-2,1.1c-1.1,0.4-1.8,0.5-2.7,0.7c-4,0.9-4.9,1.3-8.7,4.4c-7.3,5.5-2.4,7.8-3.8,13.6
				c-1.6,6.7-5.1,9.5-0.5,13.8c2,2,2.5,7.6,2,10.7l-1.8,24.4c2.2,0,4.5-1.1,5.8-2c1.8,0.4,1.8,1.3,3.6,0.9c4.4-0.7,0.7,0,3.6,0.2
				c3.3-6.4,0.9-8.5,3.8-8.9c-0.5,1.1-0.7,3.1-0.7,4.5c2.4,0,1.8-0.4,3.1-3.8c0.5-1.6,0.9-3.8,1.8-5.1c0.9-1.5,2.4-2.2,2.7-4.2
				l0.9-6c-0.5,0.5-0.5,0-1.1,0.7c-0.5,0.7-0.5,0.9-0.5,2h-0.7c0.2-1.8,0.7-1.8,0.7-3.8c-0.9,0.7-0.4,0-1.1,1.5
				c-0.2,0.4,0-0.2-0.4,0.7H347c0-2.2,1.1-4.4,2-5.8c6.5,0,4.9-2,8.2-2.4c3.5-0.4,6.9,2,7.3-2.4c-2.4-0.5-8,0.5-10-0.9
				c-2.7-1.8,0-0.4-3.5-1.8c-1.8-0.7-1.3-1.6-1.3-4.2c1.8,1.3,1.8,0.7,3.8,1.6c1.3,0.7,2.4,1.8,3.6,2.2c3.6,0.7,0.9-1.6,6.7-0.2
				c0.7,0.2,1.3-0.2,2.4-0.5c4.4-1.6,5.1,0,9.6,0c2.4,0,3.3-0.7,4.9,0c1.8,0.7,1.8,1.5,4.4,1.5c-0.2-1.3-0.4-1.3-1.3-1.8
				c-1.5-0.9-1.5-0.5-1.8-1.6c4.5,0,4.2-0.7,6.5,1.8c1.8,2,4.2,2.2,1.8-2.2c7.6,0.7,12.9,8.2,14.9,15.1l1.5,3.6
				c0.4,1.3-0.2,2.5-0.2,4.4l1.1-1.6c0.4-0.9,0.5-1.5,0.5-2.5h0.4c0,2.4-0.4,3.1-0.4,5.1h0.7v-2.4h0.7c0,1.1,0,1.3,0.4,2
				c0-2.7,0.7-0.9,0.7-2.9c0-0.5-0.4-2.2-0.4-3.6h0.7v7.3h0.7c0-2.7,0.4-3.8,0.4-6.5h0.4l0.4,6.9c0-4.9,0.7,2,0.7-4.5
				c0-1.6-0.9-0.7,0.5-1.3c0,3.5-0.5,5.6,0.7,6.5c0-2.7-0.2-2.4,0.7-4.2l0.7,0.9c0.9,1.1,2,1.6,3.6,1.8L421,315.9z M416.8,504.8
				c0.4,0.4,1.5-0.5,0.4-0.2C417.1,504.6,416.1,504.2,416.8,504.8z M393,206.4h-2c-0.4-0.5-0.4,0,0-0.7L393,206.4z M391,39.9
				L391,39.9z M391,39.9c-2-0.9-0.9,0.9-2,0c-1.3-1.3,2.5-3.1-0.7-3.5c0,2,0.4,2.2-0.7,3.1c0-2.5,0.9-2.2-0.7-2.7
				c-0.7,1.5-0.2,2.7,0,4.4c0.5,3.5-3.3,6.5,7.3,6.5c-1.5-2.5-0.2-1.5,0-4.2c0.2-3.1-0.7-0.2-0.4-4.5c-1.1,0.4-0.5,0.2-1.5,0.7
				l-0.2-0.4v-0.2c-0.5-0.7-0.4-0.5-0.9-0.7v1.5H391z M336.2,364.4l-0.7,1.5c-4.9,0-3.6-0.4-3.8-0.7
				C335.9,364.2,334.4,364.8,336.2,364.4z M336.2,364.4l0.4-1.5c0.4,0.5,0.5-0.7,0.2,0.7C336.6,364.4,337,363.9,336.2,364.4z
				 M329.3,362v1.1h-0.7C328.8,362,328.4,362.6,329.3,362z M333.5,360.6c-0.2,0.9-0.2,0.7-0.2,1.6c-0.2,1.5,0.9,0.7-0.5,1.1
				C332.8,361.3,332.4,361.5,333.5,360.6z M333.5,360.6L333.5,360.6z M334.2,359.1l0.2,0.2C334.4,359.3,334.2,359.3,334.2,359.1z
				 M337.3,356.8c0.4,0.5,0.4,0,0.4,0.9c0,1.3,0,0.7-0.4,1.1C336.8,356.6,337.3,358.6,337.3,356.8z M331.5,356l-0.2,0.9L331.5,356z
				 M331.5,356l0.2-0.9L331.5,356z M328.1,338.8c0,2-1.5,5.6-1.6,8.5c-0.2,4.5,0,9.3-1.8,13.6c-0.5,1.5-1.3,2.4-1.6,3.8
				c-0.2,1.5-0.2,3.5-0.4,4.7c-0.4,2.2-2,6.4,1.1,6.4c1.6,0,1.3-1.6,3.1-2.2c0.4-0.2,0.4,0,0.9-0.2c1.3-0.4,0.4,0,1.3-0.9l3.8-2.7
				c2.4-1.1,0.9-0.7,2.7-1.5c0.7-0.2,0.2,0.2,0.7-0.4c0.5-0.5,0,0.2,0.4-0.7l0.2-0.5c1.6-3.3,0.7,0.2,1.3-3.5c0.2-1.6,1.6,0,1.6-6
				l0.5-8.4c0.4-2.5,0.9-5.1,1.5-7.8c0.5-2.9-0.2-4.5-2-6.5c-0.2-0.2-0.2-0.2-0.5-0.5c-0.9-1.3-0.4-2-1.3-1.8l-0.7,0.4
				c-0.5,0.2,0,0.5-0.5,0c-0.4-0.4-0.2,0.4-0.4-0.7c-2.2,0.5,0,0.9-3.8,0.4c-8.5-1.1-4.7,3.6-4.7,6.5H328.1z M372.8,149.5
				L372.8,149.5z M373.2,146.4c1.1,0.4,0.9,0,1.1,1.1c2.2,0,1.3-0.2,2.7-1.1l1.3,1.5c-1.3,0.5-0.5-0.7-0.9,1.3h-0.7
				c0-0.9,0-0.9-0.4-1.5c-0.2,0.7,0.2,0.5-2.4,1.1C373.7,147.9,373.5,147.2,373.2,146.4z M373.2,146.4L373.2,146.4z M367.3,145.3
				l0.2,0.2C367.5,145.5,367.3,145.5,367.3,145.3z M383.2,143.9c0.7,0,0.4-0.2,0.9,0.2c1.5,0.9,0.4,0.4,0.2,0.5
				C383.9,144.8,384.6,145.3,383.2,143.9z M370.8,140.8v1.5c-0.4-0.7-0.4,0.9-0.4-0.7C370.4,140.6,370.4,141.2,370.8,140.8z
				 M368.4,141.9c0-0.9,0.5,0,0.2,0l0,0C368.4,141.9,368.4,142.8,368.4,141.9z M371.2,141.2l0.2,0.2
				C371.3,141.3,371.2,141.3,371.2,141.2z M370.8,140.8c0-2,0-0.7,0.4-1.1C371.2,141.7,371.2,140.2,370.8,140.8z M387.3,139.3
				l0.2,0.2C387.5,139.5,387.3,139.5,387.3,139.3z M369.5,140.8h-0.7c0.2-1.3,0.9-2.9,1.5-3.8C370.2,139.5,369.7,138.8,369.5,140.8z
				 M387.3,138.1c0-1.5,0.7,0.4,0.5,0.4l0,0C387.5,138.2,387.3,138.8,387.3,138.1z M393.5,134.2L393.5,134.2z M387,101.9
				c0-0.9,0.5,0,0.2,0l0,0C387,101.9,387,102.8,387,101.9z M386.2,95.3c0.4,0.4,0-0.2,0.4,0.7c0.4,0.9,0.7,1.6,0.7,2.7
				c-0.5-0.5-0.5-0.5-0.9-1.5c-0.2-0.5-0.4-1.1-0.4-2H386.2z M385.2,93v1.5c-0.4-0.7-0.4,0.9-0.4-0.7
				C384.8,92.8,384.8,93.3,385.2,93z M377.5,88.8v1.5c-0.4-0.7-0.4,0.9-0.4-0.7C377.2,88.6,377.2,89.2,377.5,88.8z M377.5,88.8
				c0-1.3-0.2-2.5,0.2-3.6c0.5-1.6,0-0.4,0.5-1.1c0,1.3,0,3.5-0.7,4.5V88.8z M380.6,83.7c1.1,0.4,0.5-0.9,0.7,1.1
				C380.8,84.3,381,84.3,380.6,83.7z M382.6,83.3l0.2,0.2C382.8,83.5,382.6,83.5,382.6,83.3z M377.5,82.3l0.2,0.2
				C377.7,82.4,377.5,82.4,377.5,82.3z M380.6,73.7L380.6,73.7z M373,149.7c0,1.8,0.5,2.5,2.4,2.7c0.2-1.8-0.4-0.7,0.7-1.5
				c0,2,0,1.6,0.7,2.7c2-0.5,2.2-0.9,2.4-3.5c2.4,1.1,2.2,0,2.7-0.4l0.2-0.2c2.7-1.8,0-3.3,6-3.3c-0.4-0.9-0.4-1.5-0.4-2.7
				c-1.6,0.2-0.7,0-2,0.7l-0.4-2.4c6.2-1.5,1.5-1.5,5.5-1.1c0.2-1.3,1.3-4-1.1-3.1l-0.5,0.4c0.4-1.5,1.1-1.5,2.4-1.8
				c2-0.7,1.5-0.9,2.2-2c0.4,1.3,0,0.5,0.9,1.3c0.7,0.5,0.9,0.7,1.8,0.9c0.7-1.6,0.4-2.4,0-3.8c-0.5-0.4-0.5,0.2-1.5,0h-0.4
				c-0.9-0.2-0.9-0.5-0.9-1.1h4.5c0.7-3.1-1.8-5.5-3.8-8.2c-0.4-0.5-2.4-8.5-2.7-10c-1.1-4,0.7-4.4-1.8-10.9
				c-0.7-1.6-1.3-3.1-1.6-4.9c-0.4-1.3-1.1-4.2-1.1-5.5c-1.1,0.4,0-0.2-0.5,0.5l-0.5,1.1c0-3.1-1.1-3.1-0.4-5.8
				c0.5-2-0.7-5.6-1.1-7.8c-0.2-1.1,0-2-0.2-3.3c-0.4-2-0.9-4.2-1.5-6h-0.7v2.4c-0.9-0.7-0.4-1.1-1.3-1.3c-0.9-0.2-0.4,0.7-0.4,1.6
				c-1.1,0.4-0.5,0.2-1.5,0.7c0-2.2,0.2-3.3-1.1-4.2c-1.6,1.5-0.4,1.1-0.4,3.5l-0.2-0.4c-0.4,1.1,0.2-0.9-1.1-1.1
				c-1.6-0.2,0.5,2.4,0.5,6.2c0,2,0,0-0.4,1.8c-0.5,2.2-0.4,18.4-1.3,24.2c-0.4,2-0.7,2.9-1.3,4.5c-1.8,6-1.5,13.3-2.9,19.5
				c-0.7,2.7-1.5,8.5-1.8,9.3c-1.1,2-0.7,2-1.5,4.4c-0.5,1.6-0.9,2.7-1.3,4.4h1.1c0.4,1.5,0.5,2.4,2,2.7l0.5-2
				c0.5,1.6,0.2,1.3,0.5,2.7c0.9-0.5,0.5,0,0.7-1.1c0.9,0.5,0.4,0.5,1.5,0.7V149.7z M337.2,329c-0.4,0.2-1.6,0-0.2-0.5
				C338.1,328.1,337.5,328.8,337.2,329z M329,326.6c0-0.9,0.5,0,0.2,0l0,0C329,326.6,329,327.5,329,326.6z M337.5,323.5v-2
				C339.5,323,337.7,323.1,337.5,323.5z M339.5,326.2v-4.2c1.1,0,1.1,0.2,2,0.4c-0.4,0.7-0.5,1.1-0.9,1.8
				C340.2,325.3,340.2,325.5,339.5,326.2z M333.7,321.1l0.2,0.2C333.9,321.3,333.7,321.3,333.7,321.1z M334.1,320.4
				c0-0.9,0.5,0,0.2,0l0,0C334.1,320.4,334.1,321.3,334.1,320.4z M332.6,319.3c0-0.9,0.5,0,0.2,0l0,0
				C332.6,319.3,332.6,320.2,332.6,319.3z M417,313.5l-0.4-0.7L417,313.5z M348.4,311.5v2.4c-0.9-0.9-0.7-0.7-0.7-2.4H348.4z
				 M412.8,311.9c0-0.9,0.5,0,0.2,0l0,0C412.8,311.9,412.8,312.8,412.8,311.9z M348.4,311.5L348.4,311.5z M351.2,309.1l0.2,0.2
				C351.3,309.3,351.2,309.3,351.2,309.1z M413.1,308.8c0-0.9,0.5,0,0.2,0l0,0C413.1,308.8,413.1,309.7,413.1,308.8z M421.7,304.2
				c0,2,0.5,2,0.7,3.8l-1.1-2C420.6,303.9,420.8,305.1,421.7,304.2z M407.5,303.5c0.4,0.5,0.4-0.7,0.4,1.1
				C407.5,304.1,407.7,305,407.5,303.5z M407.5,303.5c-0.4-0.4-0.2,0-0.7-0.9c-0.4-0.7-0.4-0.5-0.5-1.5c0.9,0.7,1.1,0.7,1.1,2.4
				H407.5z M349.3,299.7v-2.4c1.1,0.7,1.3,1.1,3.1,1.1c-0.7,1.1-1.5,0.7-3.1,1.1V299.7z M348.6,297c0.4,0.7,0.4-0.9,0.4,0.7
				c0,0.9,0,0.4-0.4,0.7V297z M349.3,295.5l0.2,0.2C349.5,295.7,349.3,295.7,349.3,295.5z M347.3,292.1h0.4v4.2
				c-0.7-0.7-0.7-0.5-0.5-1.8c0-0.5,0.2-1.5,0.2-2.5V292.1z M344.2,294.1c2.2,0.5,1.5,1.1,1.5,3.8
				C344.6,297.1,344.4,295.5,344.2,294.1z M349.7,291v3.8H349c0-1.5,0.2-2.2,0.7-3.6c0,0,0-0.2,0.2-0.2H349.7z M409.9,294.1
				L409.9,294.1z M409.9,294.1l-0.7-0.4L409.9,294.1z M367.9,293.7l0.2,0.2C368.1,293.9,367.9,293.9,367.9,293.7z M409.1,293.7
				L409.1,293.7z M406.4,293.3L406.4,293.3z M364.1,293.7c3.6,0,3.3-1.8,5.5-0.4c-2.2,0-2.2,0.4-3.6,0.7c-1.3,0.2-2.7,0.2-4.2,0.2
				v-1.1c2.4,0,2.4,0.2,2.4,0.4v0.4V293.7z M366.1,292.6l0.2,0.2C366.2,292.8,366.1,292.8,366.1,292.6z M391.9,292.6L391.9,292.6z
				 M403,291.9L403,291.9z M379.5,291.5c0.4-0.4,1.5,0.5,0.4,0.2C379.9,291.7,378.8,292.1,379.5,291.5z M348.2,291.5l0.2,0.2
				C348.4,291.7,348.2,291.7,348.2,291.5z M406.4,293.5c-2-0.4-2.2-0.7-3.1-2.4C404.8,291.5,405.7,292.4,406.4,293.5z M403,292.1
				l-1.5-0.4c0.4-0.7,0.4-0.4,0.4-1.5c1.1,0.7,1.1,0.4,1.1,2V292.1z M400.2,291l0.9,0.2L400.2,291z M355.5,291c4.7,0,7.6,0.7,12,0.7
				c-1.8,1.6-3.8,1.1-6.4,1.5C359,293.5,357.2,292.4,355.5,291z M349.7,291.3c0.7-0.5,2.2-0.4,3.1-0.4
				C352.1,292.1,352.1,291.3,349.7,291.3z M400.2,291c-1.8,0.2-1.3,0.9-2.4-0.7C399.5,290.2,399.1,290.2,400.2,291z M383.3,290.2
				l0.2,0.2C383.5,290.4,383.3,290.4,383.3,290.2z M406.1,287.5c1.6,0.4,4.2,2.5,4.5,4.2c-0.7-0.5-1.6-1.3-2.4-1.8
				C407.3,289.1,406.6,288.4,406.1,287.5z M406.1,287.5l-0.4-0.4L406.1,287.5z M405.7,287.1L405.7,287.1z M414.6,286.8l-0.4-0.4
				L414.6,286.8z M413.1,284.8c1.1,0.7,0.7,0.2,1.1,1.5C413.1,285.5,413.5,286.1,413.1,284.8z M413.1,284.8l-0.4-0.4L413.1,284.8z
				 M412.8,284.4l-0.4-0.4L412.8,284.4z M412.4,284.1L412.4,284.1z M405.5,282.6c1.3,0.4,3.1,1.3,4.2,2l-0.7,1.5
				C407,284.8,406.2,284.1,405.5,282.6z M404.1,275.7c3.6,0,7.5,2.9,8.9,5.1c-0.9-0.2-4.5-2.7-6.7-3.6l-2.2-1.3V275.7z M416.4,275.7
				l-0.4-0.4L416.4,275.7z M416.1,275.3l-0.4-0.4L416.1,275.3z M415.7,275l-0.4-0.4L415.7,275z M415.3,274.6L415.3,274.6z
				 M413.9,273.5L413.9,273.5z M413.9,273.5L413.9,273.5z M412.8,272.8L412.8,272.8z M412.8,272.8L412.8,272.8z M411.7,272.1
				l0.2,0.2C411.9,272.2,411.7,272.2,411.7,272.1z M411,271.7L411,271.7z M411,271.7L411,271.7z M409.9,271l0.2,0.2
				C410.1,271.1,409.9,271.1,409.9,271z M394.4,270.2c2.9,0,3.6,1.1,9.6,1.5c2.2,0.2,5.6,2.9,7.3,4.4c-1.5-0.2-2.7-0.9-4-1.5
				l-6.4-2.2c-1.8-0.5-5.6-1.5-6.5-2.4V270.2z M399.5,268.2l0.2,0.2C399.7,268.4,399.5,268.4,399.5,268.2z M394.1,265.9
				c3.1,0,5.5,1.3,8.5,2c-1.3,1.8-0.5-0.4-3.5-0.4c-2.2,0-0.2,0.5-2.4,0c-0.9-0.2-1.6-0.5-2.7-0.9V265.9z M357,262.8
				c0.5-0.4-0.7-0.4,1.1-0.4C357.5,262.8,358.4,262.6,357,262.8z M346.2,262.4l0.2,0.2C346.4,262.6,346.2,262.6,346.2,262.4z
				 M356.2,262.1l0.2,0.2C356.4,262.2,356.2,262.2,356.2,262.1z M347.3,261.7l0.2,0.2C347.5,261.9,347.3,261.9,347.3,261.7z
				 M359.3,261.3l0.2,0.2C359.5,261.5,359.3,261.5,359.3,261.3z M399,259.9l0.2,0.2C399.1,260.1,399,260.1,399,259.9z M390.8,258.4
				l0.2,0.2C391,258.6,390.8,258.6,390.8,258.4z M385.3,257l0.2,0.2C385.5,257.1,385.3,257.1,385.3,257z M356.8,263.1
				c0,0-0.2,0-0.2,0.2c0,0.2-0.2,0.2-0.2,0.2c-3.3,1.5-6.4,2-10,2l0.2-0.2l0.2-0.2l8.4-4.4c2.2-1.6,0.5-2.5,3.5-3.1l10-3.5
				c3.3-1.5,10.5,0,14,1.5c0.5,0.2,0.5,0.2,1.1,0.5l1.1,0.7c-2.7,0-5.8-1.6-8.5-1.6c-2.4,0-6.2,1.1-8.7,1.6
				c-8.2,1.5-4.9,3.6-10.4,4.5c-1.5,0.2-2.9,0.5-4,1.5c2.4-0.2,1.1-0.2,3.5,0L356.8,263.1z M373,253.1c0.4-0.4,1.5,0.5,0.4,0.2
				C373.3,253.3,372.2,253.7,373,253.1z M373,251.1c0.4-0.4,1.5,0.5,0.4,0.2C373.3,251.3,372.2,251.7,373,251.1z M361.9,209.9v-1.1
				h1.5c0.4,1.5,0.9,1.6,2.4,2c-0.4,1.6-0.2,4.7-1.8,3.5c-0.7-0.5-2-3.1-2-4.2V209.9z M400.8,210.2c0.4-0.4,1.5,0.5,0.4,0.2
				C401.1,210.4,400.1,210.8,400.8,210.2z M353,209.9l0.2,0.2C353.2,210.1,353,210.1,353,209.9z M401.1,209.5l0.2,0.2
				C401.3,209.7,401.1,209.7,401.1,209.5z M358.4,212.2c-0.5-0.4-1.1-0.2-1.1-3.5c1.5-0.4,1.1-0.7,2.4-1.5c0,3.6-0.5,2.5-1.1,5.1
				L358.4,212.2z M369.2,206.4c0.4,0.5,0.5,0.5,0.9,1.5c0.2,0.5,0.5,1.3,0.5,1.6c0.5,1.5,1.1,2.5,0.4,3.8c-1.8-0.7,0.2-0.2-1.8-3.1
				C368.1,208.6,368.2,210.6,369.2,206.4z M373.3,206.8c1.5-0.4,0.5-0.4,2-0.7v2.4c-0.7-0.5-1.3-1.1-2-1.5V206.8z M389.9,204.4
				l0.2,0.2C390.1,204.6,389.9,204.6,389.9,204.4z M393.3,204.4c-0.7,0.9-0.5,0.9-2,1.1c0.4-0.9,0.9-0.5-0.5-1.3
				c-0.5-0.4-1.6-0.5-2.2-0.5c1.3-1.8,0.7,0.4,4.5,0.7H393.3z M393.3,204.4c-0.9-1.3-0.9-0.5-2-2c1.1,0.2,1.5,0.5,2.5,1.3
				c0.7,0.5,0.4,0.2,0.9,0.7H393.3z M391.3,202.4l-0.7-0.4L391.3,202.4z M370.6,199.7c0,2,0,0.7-0.4,1.1
				C370.2,198.8,370.2,200.2,370.6,199.7z M391.9,199.7l0.2,0.2C392.1,199.9,391.9,199.9,391.9,199.7z M371.2,199l-0.4,0.7
				L371.2,199z M383.5,199L383.5,199z M371.2,199L371.2,199z M392.8,198.2L392.8,198.2z M390.8,202.1l-6.9-1.1
				c-2.9-0.7-3.1-2-6.5-1.1c0.4-1.1,0-0.9,1.1-1.1c2.7-0.7,4.9,1.3,6.2,1.5l-0.9-0.9l-0.2-0.2c1.1-0.4,0.9,0.2,0.4-0.7
				c1.5,0.4,2.4,1.1,3.6,1.8c1.3,0.7,2.5,0.9,3.3,2.2V202.1z M382.2,198.2l0.2,0.2C382.4,198.4,382.2,198.4,382.2,198.2z
				 M392.6,198.2L392.6,198.2z M383.7,198.2L383.7,198.2z M382.6,197.5l0.2,0.2C382.8,197.7,382.6,197.7,382.6,197.5z M381.5,197.2
				l0.2,0.2C381.7,197.3,381.5,197.3,381.5,197.2z M362.2,206.1h-0.4c0-8.2-0.5-5.1-0.7-8.9c3.1-0.2,2.5-2.4,3.5-2
				c0.4,0.7,0.2-0.2-0.2,0.7C362.8,200.1,362.2,199.2,362.2,206.1z M388.4,192.2c2.2,0.2,0.5,0.4,2.9,1.3c1.1,0.4,2.2,0.9,3.3,1.1
				v1.5C393,195.2,389.3,193.5,388.4,192.2z M410.1,192.2L410.1,192.2z M401.9,191.9l-0.4-0.4L401.9,191.9z M401.5,191.5
				L401.5,191.5z M405,191.2c-1.1-0.2-0.5,0-1.1-0.7C405,190.6,404.4,190.4,405,191.2z M403.9,190.4L403.9,190.4z M405.9,190.1
				l-0.4-0.4L405.9,190.1z M396.6,189.7c1.3,0.4,2.9,1.1,3.8,2C398.6,191.7,397.3,190.8,396.6,189.7z M409.7,189L409.7,189z
				 M405.5,185.9l0.2,0.2C405.7,186.1,405.5,186.1,405.5,185.9z M405.5,189.7c-1.3-0.4-5.1-2.9-5.8-3.8
				C401.1,186.2,404.8,188.6,405.5,189.7z M402.1,185.5l0.2,0.2C402.2,185.7,402.1,185.7,402.1,185.5z M399.7,185.9l-0.7-0.4
				L399.7,185.9z M404.2,185.2l0.2,0.2C404.4,185.3,404.2,185.3,404.2,185.2z M401.1,185.2l0.2,0.2
				C401.3,185.3,401.1,185.3,401.1,185.2z M398.8,185.5L398.8,185.5z M397.7,184.8l0.2,0.2C397.9,185,397.7,185,397.7,184.8z
				 M403.1,184.4l0.2,0.2C403.3,184.6,403.1,184.6,403.1,184.4z M402.8,185.2c-1.1-0.2-0.5,0-1.1-0.7
				C402.8,184.6,402.2,184.4,402.8,185.2z M401.7,184.4L401.7,184.4z M400.6,183.7l0.2,0.2C400.8,183.9,400.6,183.9,400.6,183.7z
				 M399.9,183.3l0.2,0.2C400.1,183.5,399.9,183.5,399.9,183.3z M405,183.7c0.9,1.3,0.5,0.2,1.5,1.5c-3.3-0.7-9.8-7.1-21.6-7.6
				c-8.4-0.4-11.5-0.7-17.1,4.2c-1.5,1.3-2.5,2-5.3,2c2.4-3.5,3.6-5.3,7.8-6.9c6-2.5,7.1-1.5,12.7-1.3c3.1,0.2,4-0.2,6.7,0.5
				c3.5,0.9,9.8,3.6,12.4,5.6c0.9,0.7,1.3,1.1,2.4,1.5l0.4,0.4L405,183.7z M373.3,173.3c0.4-0.4,1.5,0.5,0.4,0.2
				C373.7,173.5,372.6,173.9,373.3,173.3z M345.2,374.6c0-0.7,0.2-0.5-0.5-0.5c-0.2-0.5,0.2-0.2-0.4-0.5c-1.6-1.3-2.5,0.2-4,1.1
				L317.5,389c-2.4,1.5-4.7,2.5-7.1,4c-3.3,2-6.5,4.5-9.8,6.7c-8.2,5.8-25.8,20.7-34,27.3c-5.6,4.5-8.2,5.5-13.5,8.9
				c-3.3,2.4-9.8,7.8-13.6,8.7c0.5-0.7,9.8-6.7,11.1-8.5c-2.2-0.9-10,5.1-12,6.5c-6.4,4.2-12.7,8.9-19.3,13.1
				c-5.3,3.5-11.5,5.6-17.1,8.7c-4.2,2.4-7.6,5.1-11.1,8.2c-4.7,3.8-4.7,2.9-8.2,7.6c-3.8,5.1-0.7,4.7-1.5,7.8
				c-0.4,1.1-1.6,1.6-2.4,4.2c-0.2,0.7-0.2,1.8-0.4,2.7c-0.4,1.6-3.5,4.4,0.2,6.5c7.1,4.2,27.3,2.4,35.6,2.4h19.3c8,0,22.4,2,30,2.4
				l24.4,1.5c10.4,0,43.3-1.1,50.9-0.2l24.9,0.9c3.3,0.2,14.4,1.1,17.1,2.2c2.4,0.9,2.2,0.9,5.1,1.5c10.4,1.5,10.7,2,20.9,4.9
				c6.7,1.8,13.3,4.5,20,6.2c-0.4-0.5,0,0-0.5-0.5l-0.5-0.5c2.7,0,4.4,1.1,6.9,1.1v-0.7c-1.3,0-6.7-1.5-7.6-2.4
				c2.4,0,2.4,0.7,5.5,0.7c-1.1-1.5-3.5-1.6-5.6-2c-2-0.4-4.7-1.3-6.4-1.5c1.8-1.1,2.9,0,3.1,0c-0.5-1.3-0.5-0.2,0.4-1.5
				c2.5,0.2,7.6,3.5,12.7,2.4v-0.7c-1.8,0-7.5-0.9-9.6-1.5c-1.3-0.4-1.8-0.4-2.7-1.1c1.5,0.2,2,0.5,3.5,0.9c0.9,0.2,2.5,0.4,4,0.4
				v-0.7c-1.5-0.2-9.6-2.5-11.8-3.3c-2-0.5-1.8-0.9-3.3-1.6c-4.2-2.2-10.5-3.5-15.8-4.5c-5.5-1.3-12.4-1.8-18-2.4
				c-3.3-0.4-6.2-0.7-9.3-0.9c-3.3-0.2-6.2-0.7-9.6-0.7v-0.4c6.7,0,14,0.5,20.4,1.3c20.5,2.5,24.9,2.7,44.4,10.5
				c1.8,0.7,6.4,2.7,8.2,2.9c-0.4-0.9-0.5-0.7-2.4-1.5c-1.1-0.5-1.6-0.5-2.4-1.6c1.1,0,1.1,0.2,2,0.4c-1.3-1.8-6.4-3.6-8.5-4.2
				c-1.8-0.5-2.9-0.9-4.7-1.5l-4.7-1.8c2,0,1.5,0.5,3.3-0.2c1.6-0.7,1.1-0.9,3.1,0l15.3,6c1.5,0.5,1.6,0.7,3.8,0.7l-1.3-1.5h2.7
				c0-3.3-1.5-4.5-3.6-6c-2.2-1.3-4.2-2.2-6.9-3.1c-12.2-4-18.7-5.5-32-8.2c-2.9-0.5-5.6-1.1-8.4-1.6l-6.2-1.1
				c-1.5-0.2-1.5-0.2-2.2-0.5c2.9,0,22.7,3.5,26.2,4c1.1,0.2,10,2.4,6.9-1.1c-1.1-1.1-13.1-3.8-15.1-4.2c-8.4-1.6-17.5-3.1-26-4
				c-6-0.5-23.1-2-28.4-2c-9.8,0-19.5-0.9-29.6-0.4l-14.7,0.4c-2.5,0-2.7,0.4-7.3,0.4l-28.4-1.6c-2-0.4-4.9-0.2-7.3-0.5
				c-2.2-0.4-11.5-0.5-14.2-0.9l-13.8-0.7c1.3-1.1,5.5-3.5,7.3-4.4c2.7-1.5,4.9-2.7,7.6-4.4c2.5-1.5,4.7-2.9,7.1-4.4
				c9.5-5.8,26.7-17.6,34.9-24.2c1.1-0.9,2-1.6,3.1-2.5l9.8-8l20-15.1c22.4-16.9,32.7-4.4,53.5,13.1c5.1,4.4,4.9,4,10,7.5
				c0.7,0.5,1.3,0.7,2,1.1c18.4,11.6,35.1-3.5,49.6-15.5c3.1-2.5,10-7.3,13.5-10l7.3-4.4l6.2-2.5c1.1-0.4,1.5-0.2,2.4-0.7
				c1.1,2.4,0.7,2.5,3.3,4.4c0.9,0.7,1.3,1.1,2.2,1.6c2.5,1.8,9.8,8.9,12.5,11.3l4.2,3.5c2,2,0,0.4,4,4c2.4,2.2,3.8,3.6,5.6,6.2
				l0.7-0.4c1.8,0.9,3.6,2.4,5.5,3.5c1.5,0.9,4.2,3.1,5.8,3.5l0.5,0.4c0,0,0.2,0,0.2,0.2l2.5,2c8.2,7.3,9.8,8.9,19.8,16.4
				c2,1.5,3.8,2.7,6,4.4c3.8,2.9,8.4,5.8,12.4,8.5c9.8,6.5,16.2,10,25.6,15.6l13.8,7.1c6.9,2.9,6.7,4,14.2,6.5
				c2.9,1.1,5.6,2.7,7.6,2.9v-0.7l-4.4-1.8c0,0-0.2,0-0.2-0.2c2.5,0,1.8,0.5,3.8,0.7c-0.4-1.6-0.9-1.5-2.4-1.8
				c-1.3-0.4-2.2-0.5-3.5-0.9c0.7-0.4,0.5-0.4,2-0.4v-1.1c-1.5-0.4-0.5,0-0.4-0.4c3.5,0.7,3.5,2.4,7.6,2.4v-0.7
				c-1.6-0.4-1.6-1.1-3.5-1.1c0.5-0.4,0.2,0.2,0.7-0.5c0.5-0.5,0.2,0.2,0.5-0.7c-1.6-0.9-4.2-1.8-6.2-2.4c-5.5-1.8-12-7.3-14.7-7.3
				c-1.6,0-2.2,0.9-3.1,1.5c-0.5-0.9-1.8-1.6-2.7-2.5c-0.7-0.7-0.9-0.7-1.5-1.3c-0.7-0.5-0.9-0.9-1.6-1.5c-1.1-0.9-2-1.6-2.9-2.4
				c-0.7-0.5-2.7-2.2-3.1-2.7c1.3,0.4,10.9,4.7,12.9,5.6c1.5,0.7,2.7,1.3,4.4,1.8c3.3,1.3,15.1,6.9,17.1,7.5c-0.4-1.6-6-4.5-7.5-5.6
				c-3.5-2.5-22.7-14.7-23.8-16.4c1.5,0.4,6.9,3.6,8.9,4.5c6.9,3.5,11.3,6,18.5,9.3c2.7,1.3,7.3,3.1,10.7,2.4
				c-1.6-2.9-5.3-4.7-8.2-6.4c-11.5-6.9-24.5-15.5-36.2-22.7c-6.9-4.2-2.9-2.9-5.5-5.3c-1.1-0.9-1.5-0.7-2.5-1.5
				c-1.3-0.7-2.9-2.2-4.2-3.1c-5.1-3.8-36.4-27.3-37.6-28.5l-14.2-15.5c-6.9-8.4-9.8-11.8-18.7-18.2c-0.7-0.5-1.8-1.1-2.2-1.6v-0.2
				c-0.2-0.5,0.4,0.2-0.2-0.9c-0.7-1.6-4-2.5-5.8-3.5c-2-1.1-2.7-1.8-4-3.3c-7.6-7.6-6.4-3.8-8.5-5.5c-0.5-0.4-2-2.7-5.3-1.1
				c-3.6,1.8-13.1,10.9-17.1,12.5c-3.1,1.3-6.5,3.5-9.5,5.3c-9.6,6.4-29.1,22.5-34,25.3c-3.6,2-4.2,2.4-9.6-2.2l-16.2-13.5
				c-1.5-1.3-2.5-2.2-4-3.3c-2.9-2.2-5.5-4.4-8.5-6.5c-4.2-3.1-14.4-12.5-16-13.6l-0.4-0.4c-1.6-2-0.5-1.3-2.7-2.5L345.2,374.6z
				 M425.7,521.7c-1.8,0-0.7,0-1.1-0.4C426.4,521.3,425.3,521.3,425.7,521.7z M424.6,521.3l-0.9-0.2L424.6,521.3z M423.1,520.6
				l0.2,0.2C423.3,520.8,423.1,520.8,423.1,520.6z M425.9,520.2L425.9,520.2z M419.3,515.1h1.5c-0.7,0.4,0.9,0.4-0.7,0.4
				C419.1,515.5,419.7,515.5,419.3,515.1z M422.4,514.4l0.2,0.2C422.6,514.6,422.4,514.6,422.4,514.4z M430.1,512.4l0.2,0.2
				C430.2,512.6,430.1,512.6,430.1,512.4z M429,512c0.4-0.4,1.5,0.5,0.4,0.2C429.3,512.2,428.2,512.6,429,512z M428.2,511.7l0.2,0.2
				C428.4,511.9,428.2,511.9,428.2,511.7z M427.5,511.3l0.2,0.2C427.7,511.5,427.5,511.5,427.5,511.3z M426.4,510.9l0.2,0.2
				C426.6,511.1,426.4,511.1,426.4,510.9z M425.7,510.6l0.2,0.2C425.9,510.8,425.7,510.8,425.7,510.6z M424.2,510.2
				c0.4-0.4,1.5,0.5,0.4,0.2C424.6,510.4,423.5,510.8,424.2,510.2z M423.9,510.2h-1.5c0.7-0.4-0.9-0.4,0.7-0.4
				C424.1,509.9,423.5,509.9,423.9,510.2z M421.5,509.5l0.2,0.2C421.7,509.7,421.5,509.7,421.5,509.5z M415,506c-2,0-0.7,0-1.1-0.4
				C415.9,505.7,414.4,505.7,415,506z M413.9,503.7c0.4-0.4,1.5,0.5,0.4,0.2C414.2,503.9,413.1,504.2,413.9,503.7z M609.7,500.2
				l0.2,0.2C609.9,500.4,609.7,500.4,609.7,500.2z M388.1,496h-1.5c0.7-0.4-0.9-0.4,0.7-0.4C388.2,495.7,387.7,495.7,388.1,496z
				 M355.7,493.3c3.3-0.7,11.1,0.4,15.5,0.4c1.6,0,2.5,0.2,3.6,0.4c1.5,0.2,2.7,0,4,0.2c2.2,0.4,4.9,1.1,7.5,1.1v0.4
				c-7.8,0-14.9-2-23.5-1.1c-1.8,0.2-4.7,0.7-6.9-1.3H355.7z M382.6,490.6l-2.7-0.4c0.4,0,1.1,0,1.5,0l1.1,0.4H382.6z M379.9,490.2
				l-2.7-0.4c0.4,0,1.1,0,1.5,0l1.1,0.4H379.9z M374.4,489.5h2.4v0.4h-2.4V489.5z M371,489.1h2.7v0.4H371V489.1z M578.8,474.4
				L578,474L578.8,474.4z M578,474L578,474z M577,473.3L577,473.3z M577,473.3L577,473.3z M575.9,472.6c0,0,0.2,0,0.2,0.2l0,0
				C576,472.8,575.9,472.8,575.9,472.6z M562.8,470.6L562.8,470.6z M561.7,469.9L561.7,469.9z M561.7,469.9L561.7,469.9z
				 M560.6,469.1l0.2,0.2C560.8,469.3,560.6,469.3,560.6,469.1z M568.8,468.4L568.8,468.4z M559.5,468.4l0.2,0.2
				C559.7,468.6,559.5,468.6,559.5,468.4z M568.8,468.4L568.8,468.4z M558.8,468l0.2,0.2C559,468.2,558.8,468.2,558.8,468z
				 M567.7,467.7l0.2,0.2C567.9,467.9,567.7,467.9,567.7,467.7z M567,467.3L567,467.3z M567,467.3l-0.7-0.4L567,467.3z M566.2,466.9
				l-0.4-0.4L566.2,466.9z M565.9,466.6l-0.7-0.4L565.9,466.6z M565.1,466.2l-0.7-0.4L565.1,466.2z M564.4,465.9L564.4,465.9z
				 M563.3,470.9h1.1c-0.4-1.5-4-3.1-5.5-3.8c-1.8-0.9-4.7-2-5.8-3.5l2.4,0.7c0.9,0.4-0.7-0.2,0.7,0.4c-0.2-0.4-0.2-0.5-0.7-0.9
				l-0.9-0.7c3.3,0,6.4,3.1,9.3,4.5c1.3,0.7,2.2,0.9,3.1,2c-1.3,0.4-2,1.1-2.4,2.4c-1.3-0.7-0.7,0-1.5-1.1H563.3z M553.3,463.7
				L553.3,463.7z M553.7,461.7L553.7,461.7z M553.7,461.7L553.7,461.7z M541.3,456.2L541.3,456.2z M541.3,456.2
				c-1.6-0.4-9.3-6.2-11.5-7.8c-1.1-0.7-3.1-2.2-3.6-2.9c2.9,0.7,7.5,4,10,5.8c1.6,1.1,3.8,3.3,5.1,5.1V456.2z M239.5,445.5l0.2,0.2
				C239.7,445.7,239.5,445.7,239.5,445.5z M240.6,445.1L240.6,445.1z M520.8,441.7L520.8,441.7z M520.8,441.7l-0.4-0.4L520.8,441.7z
				 M523.9,436.6l0.9,0.2L523.9,436.6z M519.7,437L519.7,437z M498,436.6l-0.4-0.4L498,436.6z M531.5,435.9L531.5,435.9z M518,435.9
				L518,435.9z M497.7,436.2L497.7,436.2z M531.7,435.9L531.7,435.9z M518.2,435.9L518.2,435.9z M530.6,435.1L530.6,435.1z
				 M517.1,435.1l0.2,0.2C517.3,435.3,517.1,435.3,517.1,435.1z M530.6,435.1l-0.4-0.4L530.6,435.1z M524,436.6
				c-1.3-0.4-1.6-0.9-2.4-2C523,435,523.3,435.5,524,436.6z M521.7,434.6l-0.4-0.4L521.7,434.6z M521.3,434.2L521.3,434.2z
				 M519.9,437h0.7c-0.4-1.5-1.3-2-2-3.1c1.1,0.4,3.1,1.5,3.5,3.1c-1.1,0.2-0.9,0.2-1.5,0.7L519.9,437z M518.8,433.9l-0.4-0.4
				L518.8,433.9z M518.4,433.5L518.4,433.5z M506.4,410.4c1.3,0.9,6.2,7.6,8.2,9.5c0.5,0.5,1.1,0.9,1.5,1.5c2.9,3.5,5.3,4.7,7.6,7.3
				l3.3,2.9c1.5,1.5,2.4,1.8,3.3,2.9c-1.6-0.4-2.4-1.3-3.8-2c-1.5-0.9-2.4-1.5-3.8-2.4c-4-2.5-3.6-2.2-6.4-5.6
				c-1.6-2-9.5-11.6-10-14.2L506.4,410.4z M506.4,410.4L506,410L506.4,410.4z M506,410L506,410z M520.8,441.3
				c-1.1-0.4-3.8-2.5-5.1-3.5c-10.4-7.1-6-4.2-13.8-12.4c-1.6-1.6-2.2-3.3-3.6-4.9l-6.2-6.9c-0.7-0.9-1.3-1.5-2.2-2.4
				c-1.1-1.1-3.6-3.6-4-4.9c2.5,0.5,8.9,8.2,11.1,10.5c0.7,0.9,1.5,1.3,2,2.2l4,4.7c1.5,1.5,2.7,2.7,4.2,4.2
				c4.7,4.7,5.1,6,11.3,10.7c0.9,0.7,1.6,1.3,2.4,2.4V441.3z M497,406.6l0.2,0.2C497.1,406.8,497,406.8,497,406.6z M510,444
				l-0.5-0.4 M349.2,377.7l0.4,0.4 M406.2,184.2l-0.4-0.4"/>
			<path class="st0" d="M167,601.7v-4.4l23.6-23.1c1.6-1.6,3.3-3.1,4.7-4.4h-25.6v-4.2h32.9v4.2l-25.8,24.9l-2.7,2.5h29.5v4.2h-36.4
				L167,601.7z M211,601.7v-36h6v36H211z M227.9,601.7v-36h33.3v4.2h-27.3v11.1h25.5v4.2h-25.5v12.2h28.2v4.2h-34.4L227.9,601.7z
				 M270.4,601.7v-36h6.2v31.8h22.7v4.2h-28.7H270.4z M304.6,584c0-6,2-10.7,6.2-14c4.2-3.5,9.5-5.1,15.8-5.1c4.2,0,8,0.7,11.5,2.4
				s6,3.8,7.8,6.7c1.8,2.9,2.7,6,2.7,9.6s-0.9,6.9-2.7,9.8c-1.8,2.9-4.5,5.1-8,6.5c-3.5,1.5-7.1,2.2-11.1,2.2
				c-4.4,0-8.2-0.7-11.6-2.5c-3.5-1.6-6-3.8-7.8-6.7C305.5,590,304.6,587.1,304.6,584z M311,584c0,4.4,1.5,7.8,4.5,10.2
				c2.9,2.5,6.7,3.8,11.3,3.8s8.4-1.3,11.3-3.8c2.9-2.5,4.4-6.2,4.4-10.7c0-2.9-0.7-5.5-2-7.6s-3.1-3.8-5.6-5.1
				c-2.4-1.3-5.1-1.8-8.2-1.8c-4.4,0-8,1.1-11.1,3.5c-3.1,2.4-4.7,6.2-4.7,11.6H311z M356.4,601.5v-36h6.2l24.2,28.4v-28.4h5.8v36
				h-6.2l-24.2-28.4v28.4H356.4z M397.9,601.5l17.6-36h6.5l18.9,36h-6.9l-5.5-10.9h-19.3l-5.1,10.9h-6.5H397.9z M411.1,586.8h15.6
				l-4.7-10c-1.5-3.1-2.5-5.5-3.3-7.5c-0.5,2.4-1.5,4.5-2.5,6.9L411.1,586.8z M481.7,587.5v-4.2h19.5v13.5c-2.9,1.8-6,3.3-9.3,4.2
				c-3.3,0.9-6.4,1.5-9.8,1.5c-4.5,0-8.7-0.7-12.4-2.4c-3.6-1.5-6.5-3.6-8.4-6.5c-1.8-2.9-2.9-6-2.9-9.6c0-3.5,0.9-6.7,2.9-9.8
				c1.8-3.1,4.5-5.3,8-6.7s7.6-2.2,12.2-2.2c3.3,0,6.4,0.4,9.1,1.3c2.7,0.9,4.7,2,6.4,3.5c1.5,1.5,2.7,3.5,3.5,5.8l-5.5,1.3
				c-0.7-1.8-1.6-3.3-2.5-4.4c-1.1-1.1-2.5-1.8-4.4-2.5c-1.8-0.5-4-0.9-6.4-0.9c-2.7,0-5.3,0.4-7.3,0.9c-2,0.7-3.6,1.5-4.9,2.5
				s-2.2,2.2-2.9,3.6c-1.1,2.2-1.8,4.7-1.8,7.3c0,3.3,0.7,5.8,2.2,8c1.5,2.2,3.5,3.8,6.2,4.7c2.7,1.1,5.6,1.6,8.5,1.6
				c2.7,0,5.3-0.4,7.8-1.3c2.5-0.7,4.4-1.6,5.6-2.5v-6.7h-13.5V587.5z M508.2,584c0-6,2-10.7,6.2-14c4.2-3.5,9.5-5.1,15.8-5.1
				c4.2,0,8,0.7,11.5,2.4c3.5,1.6,6,3.8,7.8,6.7c1.8,2.9,2.7,6,2.7,9.6s-0.9,6.9-2.7,9.8c-1.8,2.9-4.5,5.1-8,6.5
				c-3.5,1.5-7.1,2.2-11.1,2.2c-4.4,0-8.2-0.7-11.6-2.5c-3.5-1.6-6-3.8-7.8-6.7C509.1,590,508.2,587.1,508.2,584z M514.6,584
				c0,4.4,1.5,7.8,4.5,10.2c2.9,2.5,6.7,3.8,11.3,3.8c4.5,0,8.4-1.3,11.3-3.8c2.9-2.5,4.4-6.2,4.4-10.7c0-2.9-0.7-5.5-2-7.6
				c-1.3-2.2-3.1-3.8-5.6-5.1c-2.4-1.3-5.1-1.8-8.2-1.8c-4.4,0-8,1.1-11.1,3.5c-3.1,2.4-4.7,6.2-4.7,11.6H514.6z M526.4,563.3
				l4.2-6.9h7.5l-6.9,6.9H526.4z M560.2,601.5v-36h20.4c4.2,0,7.3,0.4,9.3,0.9c2.2,0.7,3.8,1.8,5.1,3.5c1.3,1.6,2,3.5,2,5.5
				c0,2.5-1.1,4.7-3.1,6.5c-2.2,1.8-5.5,2.9-9.8,3.3c1.6,0.5,2.9,1.3,3.6,1.8c1.8,1.3,3.5,2.9,5.1,4.7l8,9.8h-7.6l-6-7.5
				c-1.8-2.2-3.3-3.8-4.4-4.9s-2.2-2-3.1-2.4c-0.9-0.5-1.8-0.7-2.7-0.9c-0.7-0.2-1.8-0.2-3.5-0.2h-7.1v16h-6L560.2,601.5z
				 M566.2,581.3h13.1c2.7,0,4.9-0.2,6.5-0.7c1.6-0.4,2.7-1.1,3.6-2.2c0.7-0.9,1.3-2,1.3-3.3c0-1.6-0.7-3.1-2.4-4.2
				c-1.6-1.1-4-1.6-7.5-1.6h-14.5v12H566.2z M601.5,601.5l17.6-36h6.5l18.9,36h-6.9l-5.5-10.9h-19.3l-5.1,10.9h-6.5H601.5z
				 M614.8,586.8h15.6l-4.7-10c-1.5-3.1-2.5-5.5-3.3-7.5c-0.5,2.4-1.5,4.5-2.5,6.9L614.8,586.8z"/>
		</g>
	</g>
	<g id="_511265024">
		<path class="st0" d="M742.6,180.2H726v71.8h11.3v-26.9h5.3c5.6,0,9.8-1.5,12.7-4.5c2.7-3.1,4.2-7.5,4.2-13.3v-9.3
			c0-5.8-1.5-10.2-4.2-13.3C752.6,181.7,748.2,180.2,742.6,180.2z M742.6,190.4c1.3,0,2.2,0.2,3.1,0.5c0.9,0.4,1.5,1.1,1.8,2.2
			c0.4,0.9,0.5,2.4,0.5,4v10.7c0,1.6-0.2,3.1-0.5,4c-0.4,0.9-1.1,1.6-1.8,2.2c-0.9,0.4-1.8,0.5-3.1,0.5h-5.3v-24.4h5.3V190.4z
			 M788.8,180.2h-16.5l-11.5,71.8h10.4l2-13.1h13.8l2,13.1h11.5l-11.5-71.8H788.8z M779.8,193l5.5,36.4h-10.9L779.8,193z
			 M798.2,190.4H810v61.6h11.3v-61.6h11.8v-10.2h-34.9V190.4z M873.1,252.1c-0.5-1.3-0.9-2.7-1.1-4c-0.2-1.5-0.2-2.9-0.2-4.7v-11.1
			c0-2.5-0.2-4.7-0.7-6.7c-0.5-2-1.3-3.8-2.4-5.1c-1.1-1.5-2.5-2.5-4.4-3.3c2.5-1.1,4.4-2.9,5.6-5.5c1.3-2.4,1.8-5.5,1.8-9.1V197
			c0-3.6-0.5-6.7-1.8-9.3c-1.1-2.4-2.9-4.4-5.5-5.5c-2.5-1.3-5.6-1.8-9.5-1.8H838v71.8h11.3V223h3.8c1.6,0,3.1,0.4,4.2,0.9
			s1.8,1.6,2.4,2.9c0.5,1.3,0.7,3.1,0.7,5.3v11.3c0,1.5,0,2.7,0,3.6s0.2,1.6,0.2,2.4c0,0.5,0.2,1.1,0.4,1.6c0.2,0.4,0.2,0.9,0.4,1.3
			h11.5L873.1,252.1z M854.7,190.4c2,0,3.5,0.5,4.4,1.8c0.9,1.3,1.5,3.1,1.5,5.6v7.1c0,1.8-0.4,3.5-0.9,4.5s-1.3,2-2.4,2.4
			c-1.1,0.5-2.2,0.7-3.6,0.7h-4.4v-22h5.5V190.4z M889.7,196.6c0-2.5,0.5-4.4,1.6-5.5s2.5-1.6,4.4-1.6c1.8,0,3.3,0.5,4.4,1.6
			s1.6,2.9,1.6,5.5v38.7c0,2.5-0.5,4.4-1.6,5.5c-1.1,1.1-2.5,1.6-4.4,1.6c-1.8,0-3.3-0.5-4.4-1.6c-1.1-1.1-1.6-2.9-1.6-5.5V196.6z
			 M878.4,234.6c0,3.8,0.7,7.1,2,9.8c1.3,2.7,3.3,4.7,5.8,6.2c2.5,1.5,5.6,2.2,9.5,2.2c3.6,0,6.9-0.7,9.5-2.2s4.5-3.5,5.8-6.2
			c1.3-2.7,2-6,2-9.8v-37.3c0-3.8-0.7-7.1-2-9.8c-1.3-2.7-3.3-4.7-5.8-6.2s-5.6-2.2-9.5-2.2c-3.6,0-6.9,0.7-9.5,2.2
			c-2.5,1.5-4.5,3.5-5.8,6.2c-1.3,2.7-2,6-2,9.8V234.6z M944,251.9h11.6v-71.8h-10V223L934,180.1h-14.2v71.8H930v-52L944,251.9z
			 M988.7,180.1h-16.5l-11.5,71.8h10.4l2-13.1h13.8l2,13.1h11.5l-11.5-71.8H988.7z M979.8,192.8l5.5,36.4h-10.9L979.8,192.8z
			 M998.2,190.2h11.8v61.6h11.3v-61.6h11.8v-10.2h-34.9V190.2z"/>
		<path class="st0" d="M1065.5,221.3h12.9v30.7h11.5v-71.8h-11.5V211h-12.9v-30.7h-11.3v71.8h11.3V221.3z M1110,196.8
			c0-2.5,0.5-4.4,1.6-5.5c1.1-1.1,2.5-1.6,4.4-1.6s3.3,0.5,4.4,1.6c1.1,1.1,1.6,2.9,1.6,5.5v38.7c0,2.5-0.5,4.4-1.6,5.5
			s-2.5,1.6-4.4,1.6s-3.3-0.5-4.4-1.6s-1.6-2.9-1.6-5.5V196.8z M1098.7,234.8c0,3.8,0.7,7.1,2,9.8c1.3,2.7,3.3,4.7,5.8,6.2
			s5.6,2.2,9.5,2.2c3.6,0,6.9-0.7,9.5-2.2c2.5-1.5,4.5-3.5,5.8-6.2c1.3-2.7,2-6,2-9.8v-37.3c0-3.8-0.7-7.1-2-9.8
			c-1.3-2.7-3.3-4.7-5.8-6.2c-2.5-1.5-5.6-2.2-9.5-2.2c-3.6,0-6.9,0.7-9.5,2.2c-2.5,1.5-4.5,3.5-5.8,6.2c-1.3,2.7-2,6-2,9.8V234.8z
			 M1166,252.1h11.6v-71.8h-10v42.9l-11.6-42.9h-14.2v71.8h10.2v-52L1166,252.1z M1197.6,196.8c0-2.5,0.5-4.4,1.6-5.5
			c1.1-1.1,2.5-1.6,4.4-1.6c1.8,0,3.3,0.5,4.4,1.6c1.1,1.1,1.6,2.9,1.6,5.5v38.7c0,2.5-0.5,4.4-1.6,5.5c-1.1,1.1-2.5,1.6-4.4,1.6
			c-1.8,0-3.3-0.5-4.4-1.6s-1.6-2.9-1.6-5.5V196.8z M1186.4,234.8c0,3.8,0.7,7.1,2,9.8c1.3,2.7,3.3,4.7,5.8,6.2
			c2.5,1.5,5.6,2.2,9.5,2.2c3.6,0,6.9-0.7,9.5-2.2c2.5-1.5,4.5-3.5,5.8-6.2c1.3-2.7,2-6,2-9.8v-37.3c0-3.8-0.7-7.1-2-9.8
			c-1.3-2.7-3.3-4.7-5.8-6.2c-2.5-1.5-5.6-2.2-9.5-2.2c-3.6,0-6.9,0.7-9.5,2.2c-2.5,1.5-4.5,3.5-5.8,6.2s-2,6-2,9.8V234.8z
			 M1264.5,252.1c-0.5-1.3-0.9-2.7-1.1-4c-0.2-1.5-0.2-2.9-0.2-4.7v-11.1c0-2.5-0.2-4.7-0.7-6.7c-0.5-2-1.3-3.8-2.4-5.1
			c-1.1-1.5-2.5-2.5-4.4-3.3c2.5-1.1,4.4-2.9,5.6-5.5c1.3-2.4,1.8-5.5,1.8-9.1V197c0-3.6-0.5-6.7-1.8-9.3c-1.1-2.4-2.9-4.4-5.5-5.5
			c-2.5-1.3-5.6-1.8-9.5-1.8h-17.1v71.8h11.3V223h3.8c1.6,0,3.1,0.4,4.2,0.9s1.8,1.6,2.4,2.9c0.5,1.3,0.7,3.1,0.7,5.3v11.3
			c0,1.5,0,2.7,0,3.6s0.2,1.6,0.2,2.4c0,0.5,0.2,1.1,0.4,1.6c0.2,0.4,0.2,0.9,0.4,1.3h11.5L1264.5,252.1z M1246.2,190.4
			c2,0,3.5,0.5,4.4,1.8c0.9,1.3,1.5,3.1,1.5,5.6v7.1c0,1.8-0.4,3.5-0.9,4.5c-0.5,1.1-1.3,2-2.4,2.4c-1.1,0.5-2.2,0.7-3.6,0.7h-4.4
			v-22h5.5V190.4z M1282.7,196.6c0-2.5,0.5-4.4,1.6-5.5s2.5-1.6,4.4-1.6c1.8,0,3.3,0.5,4.4,1.6c1.1,1.1,1.6,2.9,1.6,5.5v38.7
			c0,2.5-0.5,4.4-1.6,5.5c-1.1,1.1-2.5,1.6-4.4,1.6c-1.8,0-3.3-0.5-4.4-1.6c-1.1-1.1-1.6-2.9-1.6-5.5V196.6z M1271.4,234.6
			c0,3.8,0.7,7.1,2,9.8c1.3,2.7,3.3,4.7,5.8,6.2c2.5,1.5,5.6,2.2,9.5,2.2c3.6,0,6.9-0.7,9.5-2.2c2.5-1.5,4.5-3.5,5.8-6.2
			c1.3-2.7,2-6,2-9.8v-37.3c0-3.8-0.7-7.1-2-9.8c-1.3-2.7-3.3-4.7-5.8-6.2c-2.5-1.5-5.6-2.2-9.5-2.2c-3.6,0-6.9,0.7-9.5,2.2
			c-2.5,1.5-4.5,3.5-5.8,6.2c-1.3,2.7-2,6-2,9.8V234.6z M1343.6,251.9h14.9l8-71.8h-9.8l-5.8,57.1l-5.6-57.1h-10.9l-5.5,56.7
			l-6-56.7H1312l8,71.8h15.5l4.2-38.4l4.2,38.4H1343.6z M1384.3,251.9h11.3v-23.8l14.2-48h-10.7l-8.5,32.7l-8.5-32.7h-11.8l14.2,48
			V251.9z M1450.2,180.1h-16.5v71.8h11.3V225h5.3c5.6,0,9.8-1.5,12.7-4.5c2.7-3.1,4.2-7.5,4.2-13.3v-9.3c0-5.8-1.5-10.2-4.2-13.3
			C1460.2,181.5,1455.8,180.1,1450.2,180.1z M1450.2,190.2c1.3,0,2.2,0.2,3.1,0.5c0.9,0.4,1.5,1.1,1.8,2.2c0.4,0.9,0.5,2.4,0.5,4
			v10.7c0,1.6-0.2,3.1-0.5,4c-0.4,0.9-1.1,1.6-1.8,2.2c-0.9,0.4-1.8,0.5-3.1,0.5h-5.3v-24.4h5.3V190.2z M1509.4,251.9
			c-0.5-1.3-0.9-2.7-1.1-4c-0.2-1.5-0.2-2.9-0.2-4.7v-11.1c0-2.5-0.2-4.7-0.7-6.7s-1.3-3.8-2.4-5.1c-1.1-1.5-2.5-2.5-4.4-3.3
			c2.5-1.1,4.4-2.9,5.6-5.5c1.3-2.4,1.8-5.5,1.8-9.1v-5.6c0-3.6-0.5-6.7-1.8-9.3c-1.1-2.4-2.9-4.4-5.5-5.5c-2.5-1.3-5.6-1.8-9.5-1.8
			h-17.1v71.8h11.3v-29.3h3.8c1.6,0,3.1,0.4,4.2,0.9s1.8,1.6,2.4,2.9c0.5,1.3,0.7,3.1,0.7,5.3v11.3c0,1.5,0,2.7,0,3.6
			c0,0.9,0.2,1.6,0.2,2.4c0,0.5,0.2,1.1,0.4,1.6c0.2,0.4,0.2,0.9,0.4,1.3h11.5L1509.4,251.9z M1491.1,190.2c2,0,3.5,0.5,4.4,1.8
			c0.9,1.3,1.5,3.1,1.5,5.6v7.1c0,1.8-0.4,3.5-0.9,4.5s-1.3,2-2.4,2.4c-1.1,0.5-2.2,0.7-3.6,0.7h-4.4v-22h5.5V190.2z M1528.5,190.2
			h19.5v-10.2h-30.7v71.8h30.7v-10.2h-19.5v-21.1h15.5v-10.2h-15.5v-20V190.2z M1555.8,180.1v10.2h20.4l-21.5,51.5v10h33.1v-10.2
			h-21.5l21.5-51.5v-10H1555.8z M1606.7,251.9h11.3v-23.8l14.2-48h-10.7l-8.5,32.7l-8.5-32.7h-11.8l14.2,48V251.9z M1638.3,251.9
			h17.8c5.6,0,9.8-1.5,12.7-4.5c2.7-3.1,4.2-7.5,4.2-13.3v-36.4c0-5.8-1.5-10.2-4.2-13.3c-2.7-3.1-7.1-4.5-12.7-4.5h-17.8v71.8
			V251.9z M1656,190.2c1.3,0,2.2,0.2,3.1,0.7c0.9,0.5,1.5,1.3,2,2.2c0.4,1.1,0.7,2.4,0.7,4v37.3c0,1.6-0.2,3.1-0.7,4
			c-0.5,1.1-1.1,1.8-2,2.2c-0.9,0.5-1.8,0.7-3.1,0.7h-6.4v-51.3h6.4V190.2z M1693,190.2h19.5v-10.2h-30.7v71.8h30.7v-10.2H1693
			v-21.1h15.5v-10.2H1693v-20V190.2z M1745.2,251.9h11.6v-71.8h-10V223l-11.6-42.9H1721v71.8h10.2v-52L1745.2,251.9z M1763.2,190.2
			h11.8v61.6h11.3v-61.6h11.8v-10.2h-34.9V190.2z M1825.8,180.1h-16.5l-11.5,71.8h10.4l2-13.1h13.8l2,13.1h11.5l-11.5-71.8H1825.8z
			 M1816.8,192.8l5.5,36.4h-10.9L1816.8,192.8z M743.5,303.1h-15.6V375h9.8v-50.7L746,375h10.7l7.8-51.5V375h10.7v-71.8h-15.6
			L752,354l-8.4-50.9H743.5z M784.9,375h11.3v-71.8h-11.3V375z M831.1,303.1h-16.5L803.1,375h10.4l2-13.1h13.8l2,13.1h11.5
			l-11.5-71.8H831.1z M822.2,315.9l5.5,36.4h-10.9L822.2,315.9z M847.8,320.4c0,2.9,0.4,5.5,1.3,7.8c0.7,2.4,1.8,4.4,3.1,6.2
			c1.3,1.8,2.7,3.5,4.4,5.1c1.6,1.5,3.1,2.9,4.7,4.4c1.6,1.5,3.1,2.9,4.4,4.4c1.3,1.5,2.4,3.1,3.1,4.7s1.3,3.6,1.3,5.6
			c0,1.6-0.2,3.1-0.7,4c-0.5,1.1-1.1,1.8-2,2.2c-0.9,0.4-2,0.7-3.1,0.7c-1.3,0-2.2-0.2-3.1-0.7c-0.9-0.5-1.5-1.3-2-2.2
			c-0.5-1.1-0.7-2.4-0.7-4v-5.1h-10.7v4.4c0,3.8,0.5,7.1,1.8,9.8c1.3,2.7,3.1,4.7,5.6,6.2c2.5,1.5,5.6,2.2,9.3,2.2s6.7-0.7,9.3-2.2
			c2.5-1.5,4.4-3.5,5.6-6.2c1.3-2.7,1.8-6,1.8-9.8c0-2.9-0.4-5.5-1.3-7.8c-0.7-2.4-1.8-4.4-3.1-6.2c-1.3-1.8-2.7-3.5-4.4-5.1
			c-1.6-1.5-3.1-2.9-4.7-4.4c-1.6-1.5-3.1-2.9-4.4-4.4c-1.3-1.5-2.4-3.1-3.1-4.7c-0.7-1.6-1.3-3.6-1.3-5.6c0-2.5,0.5-4.4,1.5-5.5
			s2.4-1.6,4.2-1.6s3.3,0.5,4.2,1.6s1.5,2.9,1.5,5.5v2.9h10.7v-2.2c0-3.8-0.5-7.1-1.8-9.8c-1.3-2.7-3.1-4.7-5.6-6.2
			c-2.5-1.5-5.5-2.2-9.1-2.2s-6.7,0.7-9.1,2.2c-2.5,1.5-4.4,3.5-5.6,6.2C848.4,313.3,847.8,316.6,847.8,320.4L847.8,320.4z
			 M886,313.5h11.8v61.6h11.3v-61.6h11.8v-10.2H886V313.5z M948.6,303.3H932l-11.5,71.8h10.4l2-13.1h13.8l2,13.1h11.5l-11.5-71.8
			H948.6z M939.6,316.1l5.5,36.4h-10.9L939.6,316.1z M983.5,303.3v10.2h20.4L982.4,365v10h33.1v-10.2H994l21.5-51.5v-10H983.5z
			 M1023.6,375.1h11.3v-71.8h-11.3V375.1z M1056,313.5h19.5v-10.2h-30.7v71.8h30.7V365H1056v-21.1h15.5v-10.2H1056v-20V313.5z
			 M1084,375.1h29.8V365h-18.5v-61.6H1084V375.1z M1130.7,319.9c0-2.5,0.5-4.4,1.6-5.5s2.5-1.6,4.4-1.6c1.8,0,3.3,0.5,4.4,1.6
			s1.6,2.9,1.6,5.5v38.7c0,2.5-0.5,4.4-1.6,5.5c-1.1,1.1-2.5,1.6-4.4,1.6c-1.8,0-3.3-0.5-4.4-1.6c-1.1-1.1-1.6-2.9-1.6-5.5V319.9z
			 M1119.5,357.9c0,3.8,0.7,7.1,2,9.8s3.3,4.7,5.8,6.2c2.5,1.5,5.6,2.2,9.5,2.2c3.6,0,6.9-0.7,9.5-2.2c2.5-1.5,4.5-3.5,5.8-6.2
			s2-6,2-9.8v-37.3c0-3.8-0.7-7.1-2-9.8s-3.3-4.7-5.8-6.2c-2.5-1.5-5.6-2.2-9.5-2.2c-3.6,0-6.9,0.7-9.5,2.2
			c-2.5,1.5-4.5,3.5-5.8,6.2s-2,6-2,9.8V357.9z M1186.7,375.1h11.6v-71.8h-10v42.9l-11.6-42.9h-14.2v71.8h10.2v-52L1186.7,375.1z
			 M1233.1,303.3h-16.5l-11.5,71.8h10.4l2-13.1h13.8l2,13.1h11.5l-11.5-71.8H1233.1z M1224.2,316.1l5.5,36.4h-10.9L1224.2,316.1z
			 M1285.8,345.3h5.1v13.3c0,1.6-0.2,3.1-0.7,4c-0.5,1.1-1.1,1.8-2,2.2c-0.9,0.5-2,0.7-3.1,0.7c-1.3,0-2.2-0.2-3.1-0.7
			c-0.9-0.5-1.5-1.3-2-2.2c-0.5-1.1-0.7-2.4-0.7-4v-38.7c0-2.5,0.5-4.4,1.6-5.5s2.5-1.6,4.4-1.6c1.8,0,3.3,0.5,4.4,1.6
			s1.6,2.9,1.6,5.5v7.6h10.7v-6.9c0-3.8-0.5-7.1-1.8-9.8c-1.3-2.7-3.1-4.7-5.6-6.2c-2.5-1.5-5.6-2.2-9.3-2.2c-3.6,0-6.7,0.7-9.3,2.2
			c-2.5,1.5-4.4,3.5-5.6,6.2c-1.3,2.7-1.8,6-1.8,9.8v37.3c0,3.8,0.5,7.1,1.8,9.8c1.3,2.7,3.1,4.7,5.6,6.2c2.5,1.5,5.6,2.2,9.3,2.2
			c3.6,0,6.7-0.7,9.3-2.2c2.5-1.5,4.4-3.5,5.6-6.2c1.3-2.7,1.8-6,1.8-9.8v-22.7h-15.8v10.2H1285.8z M1320.9,319.7
			c0-2.5,0.5-4.4,1.6-5.5s2.5-1.6,4.4-1.6c1.8,0,3.3,0.5,4.4,1.6s1.6,2.9,1.6,5.5v38.7c0,2.5-0.5,4.4-1.6,5.5s-2.5,1.6-4.4,1.6
			c-1.8,0-3.3-0.5-4.4-1.6s-1.6-2.9-1.6-5.5V319.7z M1309.6,357.7c0,3.8,0.7,7.1,2,9.8c1.3,2.7,3.3,4.7,5.8,6.2
			c2.5,1.5,5.6,2.2,9.5,2.2c3.6,0,6.9-0.7,9.5-2.2c2.5-1.5,4.5-3.5,5.8-6.2c1.3-2.7,2-6,2-9.8v-37.3c0-3.8-0.7-7.1-2-9.8
			c-1.3-2.7-3.3-4.7-5.8-6.2c-2.5-1.5-5.6-2.2-9.5-2.2c-3.6,0-6.9,0.7-9.5,2.2c-2.5,1.5-4.5,3.5-5.8,6.2c-1.3,2.7-2,6-2,9.8V357.7z
			 M1327.8,287.9l-6.9,11.5h7.6l10.5-11.5H1328H1327.8z M1387.8,375c-0.5-1.3-0.9-2.7-1.1-4c-0.2-1.5-0.2-2.9-0.2-4.7v-11.1
			c0-2.5-0.2-4.7-0.7-6.7c-0.5-2-1.3-3.8-2.4-5.1c-1.1-1.5-2.5-2.5-4.4-3.3c2.5-1.1,4.4-2.9,5.6-5.5c1.3-2.4,1.8-5.5,1.8-9.1v-5.6
			c0-3.6-0.5-6.7-1.8-9.3c-1.1-2.4-2.9-4.4-5.5-5.5c-2.5-1.3-5.6-1.8-9.5-1.8h-17.1v71.8h11.3v-29.3h3.8c1.6,0,3.1,0.4,4.2,0.9
			s1.8,1.6,2.4,2.9c0.5,1.3,0.7,3.1,0.7,5.3v11.3c0,1.5,0,2.7,0,3.6c0,0.9,0.2,1.6,0.2,2.4c0,0.5,0.2,1.1,0.4,1.6
			c0.2,0.4,0.2,0.9,0.4,1.3h11.5L1387.8,375z M1369.4,313.3c2,0,3.5,0.5,4.4,1.8c0.9,1.3,1.5,3.1,1.5,5.6v7.1c0,1.8-0.4,3.5-0.9,4.5
			c-0.5,1.1-1.3,2-2.4,2.4c-1.1,0.5-2.2,0.7-3.6,0.7h-4.4v-22h5.5V313.3z M1420.5,303.1H1404l-11.5,71.8h10.4l2-13.1h13.8l2,13.1
			h11.5l-11.5-71.8H1420.5z M1411.6,315.9l5.5,36.4h-10.9L1411.6,315.9z M724.6,498c0.9,0.2,1.8,0.2,2.7,0.2s1.8,0,2.7,0
			c2.2,0,4.2-0.2,6.2-0.7c2-0.5,3.6-1.5,5.1-2.9c1.5-1.3,2.7-3.1,3.6-5.5s1.3-5.3,1.3-8.9v-54h-11.3v54.7c0,1.8-0.4,3.3-0.9,4.2
			c-0.5,1.1-1.3,1.6-2.4,2c-0.9,0.4-2,0.5-3.3,0.5c-0.5,0-1.3,0-2,0s-1.3,0-2,0v10.2L724.6,498z M780.6,426.2H764L752.6,498h10.4
			l2-13.1h13.8l2,13.1h11.5l-11.5-71.8H780.6z M771.7,439l5.5,36.4h-10.9L771.7,439z M822.9,498h11.6v-71.8h-10v42.9l-11.6-42.9
			h-14.2V498h10.2v-52L822.9,498z M843.7,426.2v54.7c0,3.8,0.5,7.1,1.8,9.8s3.1,4.7,5.6,6.2c2.5,1.5,5.6,2.2,9.3,2.2
			s6.7-0.7,9.3-2.2c2.5-1.5,4.4-3.5,5.6-6.2c1.3-2.7,1.8-6,1.8-9.8v-54.7h-10.7v55.4c0,1.6-0.2,3.1-0.7,4c-0.5,1.1-1.1,1.8-2,2.2
			c-0.9,0.5-2,0.7-3.1,0.7c-1.3,0-2.2-0.2-3.1-0.7c-0.9-0.5-1.5-1.3-2-2.2c-0.5-1.1-0.7-2.4-0.7-4v-55.4h-11.3H843.7z M885.1,443.5
			c0,2.9,0.4,5.5,1.3,7.8c0.7,2.4,1.8,4.4,3.1,6.2c1.3,1.8,2.7,3.5,4.4,5.1c1.6,1.5,3.1,2.9,4.7,4.4c1.6,1.5,3.1,2.9,4.4,4.4
			c1.3,1.5,2.4,3.1,3.1,4.7s1.3,3.6,1.3,5.6c0,1.6-0.2,3.1-0.7,4c-0.5,1.1-1.1,1.8-2,2.2c-0.9,0.4-2,0.7-3.1,0.7
			c-1.3,0-2.2-0.2-3.1-0.7c-0.9-0.5-1.5-1.3-2-2.2c-0.5-1.1-0.7-2.4-0.7-4v-5.1h-10.7v4.4c0,3.8,0.5,7.1,1.8,9.8
			c1.3,2.7,3.1,4.7,5.6,6.2c2.5,1.5,5.6,2.2,9.3,2.2s6.7-0.7,9.3-2.2c2.5-1.5,4.4-3.5,5.6-6.2c1.3-2.7,1.8-6,1.8-9.8
			c0-2.9-0.4-5.5-1.3-7.8c-0.7-2.4-1.8-4.4-3.1-6.2c-1.3-1.8-2.7-3.5-4.4-5.1c-1.6-1.5-3.1-2.9-4.7-4.4c-1.6-1.5-3.1-2.9-4.4-4.4
			c-1.3-1.5-2.4-3.1-3.1-4.7s-1.3-3.6-1.3-5.6c0-2.5,0.5-4.4,1.5-5.5c0.9-1.1,2.4-1.6,4.2-1.6c1.8,0,3.3,0.5,4.2,1.6
			s1.5,2.9,1.5,5.5v2.9h10.7v-2.2c0-3.8-0.5-7.1-1.8-9.8c-1.3-2.7-3.1-4.7-5.6-6.2c-2.5-1.5-5.5-2.2-9.3-2.2c-3.6,0-6.7,0.7-9.1,2.2
			c-2.5,1.5-4.4,3.5-5.6,6.2c-1.3,2.7-1.8,6-1.8,9.8l0,0H885.1z M925.8,426.2v10.2h20.4l-21.5,51.5v10h33.1v-10.2h-21.5l21.5-51.5
			v-10H925.8z M991.1,426.2h-16.5L963.1,498h10.4l2-13.1h13.8l2,13.1h11.5l-11.5-71.8H991.1z M982.2,439l5.5,36.4h-10.9L982.2,439z
			 M1052.5,498h11.6l-15.6-39.8l15.6-32h-11.3l-14.7,31.3v-31.3h-11.3V498h11.3v-22l3.5-6.5L1052.5,498z M1070,426.2v54.7
			c0,3.8,0.5,7.1,1.8,9.8s3.1,4.7,5.6,6.2c2.5,1.5,5.6,2.2,9.3,2.2s6.7-0.7,9.3-2.2c2.5-1.5,4.4-3.5,5.6-6.2s1.8-6,1.8-9.8v-54.7
			h-10.7v55.4c0,1.6-0.2,3.1-0.7,4c-0.5,1.1-1.1,1.8-2,2.2c-0.9,0.5-2,0.7-3.1,0.7c-1.3,0-2.2-0.2-3.1-0.7c-0.9-0.5-1.5-1.3-2-2.2
			c-0.5-1.1-0.7-2.4-0.7-4v-55.4h-11.3H1070z M1130,426.2h-17.1V498h17.8c5.6,0,10-1.5,12.7-4.4c2.9-2.9,4.4-7.1,4.4-12.7v-5.8
			c0-3.8-0.5-7.1-2-9.6c-1.3-2.5-3.5-4.5-6.5-5.8c2.5-1.1,4.4-2.9,5.5-5.3s1.8-5.5,1.8-9.1v-2.5c0-3.6-0.5-6.7-1.8-9.3
			c-1.1-2.4-2.9-4.4-5.5-5.5c-2.5-1.3-5.6-1.8-9.5-1.8l0,0H1130z M1129.3,465.7c1.6,0,3.1,0.2,4.2,0.7c1.1,0.5,1.8,1.5,2.4,2.7
			s0.7,3.1,0.7,5.3v6.2c0,1.8-0.2,3.1-0.7,4.2c-0.4,1.1-1.1,1.8-2,2.2c-0.9,0.4-2,0.7-3.3,0.7h-6.5v-22h5.1H1129.3z M1129.6,436.4
			c2,0,3.5,0.5,4.4,1.8c0.9,1.3,1.5,3.1,1.5,5.6v4c0,1.8-0.4,3.5-0.9,4.5s-1.3,2-2.4,2.4c-1.1,0.5-2.2,0.7-3.6,0.7h-4.4v-18.9h5.5
			V436.4z M1156.2,498h11.3v-71.8h-11.3V498z M1199.3,471.3v10.2c0,1.6-0.2,3.1-0.7,4c-0.5,1.1-1.1,1.8-2,2.2
			c-0.9,0.5-2,0.7-3.1,0.7c-1.3,0-2.2-0.2-3.1-0.7c-0.9-0.5-1.5-1.3-2-2.2c-0.5-1.1-0.7-2.4-0.7-4v-38.7c0-2.5,0.5-4.4,1.6-5.5
			s2.5-1.6,4.4-1.6c1.8,0,3.3,0.5,4.4,1.6s1.6,2.9,1.6,5.5v7.6h10.7v-6.9c0-3.8-0.5-7.1-1.8-9.8c-1.3-2.7-3.1-4.7-5.6-6.2
			c-2.5-1.5-5.6-2.2-9.3-2.2c-3.6,0-6.7,0.7-9.3,2.2c-2.5,1.5-4.4,3.5-5.6,6.2c-1.3,2.7-1.8,6-1.8,9.8v37.3c0,3.8,0.5,7.1,1.8,9.8
			c1.3,2.7,3.1,4.7,5.6,6.2c2.5,1.5,5.6,2.2,9.3,2.2c3.6,0,6.7-0.7,9.3-2.2c2.5-1.5,4.4-3.5,5.6-6.2c1.3-2.7,1.8-6,1.8-9.8v-9.5
			h-10.7H1199.3z M1244.2,498h11.6l-15.6-39.8l15.6-32h-11.3l-14.7,31.3v-31.3h-11.3V498h11.3v-22l3.5-6.5L1244.2,498z M1262.5,498
			h11.3v-71.8h-11.3V498z M1294.9,436.4h19.5v-10.2h-30.7V498h30.7v-10.2h-19.5v-21.1h15.5v-10.2h-15.5v-20V436.4z M1339.8,468.2
			h5.1v13.3c0,1.6-0.2,3.1-0.7,4c-0.5,1.1-1.1,1.8-2,2.2c-0.9,0.5-2,0.7-3.1,0.7c-1.3,0-2.2-0.2-3.1-0.7c-0.9-0.5-1.5-1.3-2-2.2
			c-0.5-1.1-0.7-2.4-0.7-4v-38.7c0-2.5,0.5-4.4,1.6-5.5s2.5-1.6,4.4-1.6s3.3,0.5,4.4,1.6s1.6,2.9,1.6,5.5v7.6h10.7v-6.9
			c0-3.8-0.5-7.1-1.8-9.8c-1.3-2.7-3.1-4.7-5.6-6.2c-2.5-1.5-5.6-2.2-9.3-2.2s-6.7,0.7-9.3,2.2c-2.5,1.5-4.4,3.5-5.6,6.2
			c-1.3,2.7-1.8,6-1.8,9.8v37.3c0,3.8,0.5,7.1,1.8,9.8c1.3,2.7,3.1,4.7,5.6,6.2c2.5,1.5,5.6,2.2,9.3,2.2s6.7-0.7,9.3-2.2
			c2.5-1.5,4.4-3.5,5.6-6.2c1.3-2.7,1.8-6,1.8-9.8V458h-15.8v10.2H1339.8z M1374.9,442.6c0-2.5,0.5-4.4,1.6-5.5
			c1.1-1.1,2.5-1.6,4.4-1.6c1.8,0,3.3,0.5,4.4,1.6s1.6,2.9,1.6,5.5v38.7c0,2.5-0.5,4.4-1.6,5.5s-2.5,1.6-4.4,1.6
			c-1.8,0-3.3-0.5-4.4-1.6c-1.1-1.1-1.6-2.9-1.6-5.5V442.6z M1363.6,480.6c0,3.8,0.7,7.1,2,9.8c1.3,2.7,3.3,4.7,5.8,6.2
			c2.5,1.5,5.6,2.2,9.5,2.2c3.6,0,6.9-0.7,9.5-2.2c2.5-1.5,4.5-3.5,5.8-6.2c1.3-2.7,2-6,2-9.8v-37.3c0-3.8-0.7-7.1-2-9.8
			c-1.3-2.7-3.3-4.7-5.8-6.2c-2.5-1.5-5.6-2.2-9.5-2.2c-3.6,0-6.9,0.7-9.5,2.2c-2.5,1.5-4.5,3.5-5.8,6.2c-1.3,2.7-2,6-2,9.8V480.6z"
			/>
	</g>
</g>
</svg>
