<svg xmlns="http://www.w3.org/2000/svg" width="224.86" height="51.61" viewBox="0 0 224.86 51.61">
  <g id="Group_10" data-name="Group 10" transform="translate(-308.025 -131.458)">
    <g id="Group_7" data-name="Group 7">
      <path id="Path_28" data-name="Path 28" d="M510.872,146.4q-1.62-2.152-5.523-2.156a14.247,14.247,0,0,0-2.955.311,9.087,9.087,0,0,0-3.031,1.341,10.921,10.921,0,0,0-2.727,2.546,13.654,13.654,0,0,0-1.826,3.233,13.145,13.145,0,0,0-.846,3.513,6.414,6.414,0,0,0,1.536,5.36,7.377,7.377,0,0,0,5.52,1.911,11.859,11.859,0,0,0,3.055-.391,10.174,10.174,0,0,0,3.112-1.55,11,11,0,0,0,2.784-2.825,12.473,12.473,0,0,0,1.613-3.219,13.679,13.679,0,0,0,.6-2.769A7.342,7.342,0,0,0,510.872,146.4Zm-3.851,5.281a12.48,12.48,0,0,1-.737,2.577,8.156,8.156,0,0,1-1.847,3,3.714,3.714,0,0,1-2.705,1.188,2.427,2.427,0,0,1-2.046-.886,3.076,3.076,0,0,1-.55-2.237,11.952,11.952,0,0,1,.82-3.081,7.77,7.77,0,0,1,1.847-2.9,3.664,3.664,0,0,1,2.59-1.089,2.56,2.56,0,0,1,2.041.867A3.3,3.3,0,0,1,507.021,151.686Z" fill="#fff" fill-rule="evenodd"/>
      <path id="Path_29" data-name="Path 29" d="M389.04,144.548l-1.291,4.328h-5.542l-4.065,13.286h-5.3l4.054-13.286h-5.3l1.3-4.328Z" fill="#fff" fill-rule="evenodd"/>
      <path id="Path_30" data-name="Path 30" d="M404.482,145.907a4.19,4.19,0,0,0-3.546-1.359h-9.713l-5.32,17.614H391.2l2.149-7.16h.281a1.725,1.725,0,0,1,1.117.36,7.322,7.322,0,0,1,1.175,2.625c.484,1.506.9,2.9,1.241,4.175h5.581q-1.652-6.062-3.129-7.4a6.762,6.762,0,0,0,4.138-1.977,6.142,6.142,0,0,0,1.581-3.611A4.461,4.461,0,0,0,404.482,145.907Zm-4.206,3.652a2.328,2.328,0,0,1-1.646,1.908,13.451,13.451,0,0,1-3.278.243h-1l1.079-3.59h2.679a2.864,2.864,0,0,1,1.841.384A1.236,1.236,0,0,1,400.276,149.559Z" fill="#fff" fill-rule="evenodd"/>
      <path id="Path_31" data-name="Path 31" d="M421.634,162.162l-1.013-17.614H415l-11.34,17.614h5.681l1.607-2.886h5.568l-.046,2.886Zm-8.605-6.619,3.552-6.416h.048l-.1,6.416Z" fill="#fff" fill-rule="evenodd"/>
      <path id="Path_32" data-name="Path 32" d="M445.21,144.548l-5.37,17.614H434.9l-3.238-10.236h-.046l-3.107,10.236h-4.962l5.367-17.614h4.938l3.215,10.26h.046l3.134-10.26Z" fill="#fff" fill-rule="evenodd"/>
      <path id="Path_33" data-name="Path 33" d="M460.1,149.437l-4.963.278a1.985,1.985,0,0,0-2.261-2.294,2.426,2.426,0,0,0-1.491.415,1.389,1.389,0,0,0-.6.99.992.992,0,0,0,.33.8,6.194,6.194,0,0,0,1.838.963,23.565,23.565,0,0,1,3.008,1.456,5.17,5.17,0,0,1,1.8,1.777,4.324,4.324,0,0,1,.508,2.729,5.737,5.737,0,0,1-1.109,2.862,7.314,7.314,0,0,1-2.61,2.189,9.92,9.92,0,0,1-4.537.861q-4.063,0-5.61-1.613a4.987,4.987,0,0,1-1.3-4.134l.039-.4,5-.351a2.941,2.941,0,0,0,.479,2.326,2.48,2.48,0,0,0,1.888.678,3.083,3.083,0,0,0,1.968-.565,1.867,1.867,0,0,0,.78-1.286,1.3,1.3,0,0,0-.325-1,5.228,5.228,0,0,0-1.954-1.069q-3.625-1.395-4.511-2.569a3.944,3.944,0,0,1-.722-2.836,5.356,5.356,0,0,1,1.09-2.764,6.1,6.1,0,0,1,2.572-1.942,9.79,9.79,0,0,1,3.822-.689q6.93,0,6.873,5.188Z" fill="#fff" fill-rule="evenodd"/>
      <path id="Path_34" data-name="Path 34" d="M469.08,144.548l-5.355,17.614h-5.346l5.357-17.614Z" fill="#fff" fill-rule="evenodd"/>
      <path id="Path_35" data-name="Path 35" d="M487.418,144.548l-1.29,4.328h-5.542l-4.064,13.286h-5.3l4.055-13.286h-5.3l1.3-4.328Z" fill="#fff" fill-rule="evenodd"/>
      <path id="Path_36" data-name="Path 36" d="M494.973,144.548l-5.356,17.614h-5.344l5.356-17.614Z" fill="#fff" fill-rule="evenodd"/>
      <path id="Path_37" data-name="Path 37" d="M532.885,144.548l-5.367,17.614h-4.937l-3.241-10.236h-.047l-3.108,10.236h-4.96l5.368-17.614h4.938l3.213,10.26h.047l3.132-10.26Z" fill="#fff" fill-rule="evenodd"/>
      <g id="Group_6" data-name="Group 6">
        <path id="Path_38" data-name="Path 38" d="M374.27,170.2v-3.816h-1.425v-.512h3.43v.512h-1.431V170.2Z" fill="#fff" fill-rule="evenodd"/>
        <path id="Path_39" data-name="Path 39" d="M386.762,170.2v-4.328h3.13v.512h-2.555v1.324h2.393v.51h-2.393v1.471h2.656v.511Z" fill="#fff" fill-rule="evenodd"/>
        <path id="Path_40" data-name="Path 40" d="M403.731,168.683l.573.147a1.946,1.946,0,0,1-.647,1.075,1.787,1.787,0,0,1-1.144.371,2.048,2.048,0,0,1-1.138-.285,1.8,1.8,0,0,1-.669-.824,2.924,2.924,0,0,1-.228-1.16,2.531,2.531,0,0,1,.259-1.18,1.756,1.756,0,0,1,.735-.766,2.143,2.143,0,0,1,1.05-.261,1.784,1.784,0,0,1,1.092.331,1.715,1.715,0,0,1,.617.93l-.563.133a1.323,1.323,0,0,0-.44-.687,1.151,1.151,0,0,0-.719-.216,1.4,1.4,0,0,0-.834.238,1.291,1.291,0,0,0-.471.642,2.786,2.786,0,0,0,.026,1.8,1.215,1.215,0,0,0,.5.616,1.418,1.418,0,0,0,.736.2,1.238,1.238,0,0,0,.813-.277,1.4,1.4,0,0,0,.452-.827Z" fill="#fff" fill-rule="evenodd"/>
        <path id="Path_41" data-name="Path 41" d="M414.79,170.2v-4.328h.573v1.777h2.252v-1.777h.571V170.2h-.571v-2.039h-2.252V170.2Z" fill="#fff" fill-rule="evenodd"/>
        <path id="Path_42" data-name="Path 42" d="M428.672,170.2v-4.328h.589l2.275,3.4v-3.4h.547V170.2H431.5l-2.275-3.4v3.4Z" fill="#fff" fill-rule="evenodd"/>
        <path id="Path_43" data-name="Path 43" d="M446.455,166.881a1.859,1.859,0,0,0-.734-.8,2.065,2.065,0,0,0-1.08-.287,1.979,1.979,0,0,0-1.5.608,2.361,2.361,0,0,0-.576,1.687,2.458,2.458,0,0,0,.247,1.083,1.9,1.9,0,0,0,.729.8,2.051,2.051,0,0,0,1.092.3,2.167,2.167,0,0,0,1.053-.266,1.842,1.842,0,0,0,.752-.79,2.519,2.519,0,0,0,.266-1.174A2.637,2.637,0,0,0,446.455,166.881Zm-.756,2.452a1.466,1.466,0,0,1-2.119,0,1.719,1.719,0,0,1-.422-1.232,1.849,1.849,0,0,1,.439-1.393,1.462,1.462,0,0,1,1.045-.419,1.407,1.407,0,0,1,.772.217,1.381,1.381,0,0,1,.526.611,2.248,2.248,0,0,1,.177.921A1.843,1.843,0,0,1,445.7,169.333Z" fill="#fff" fill-rule="evenodd"/>
        <path id="Path_44" data-name="Path 44" d="M457.193,170.2v-4.328h.573v3.817H459.9v.511Z" fill="#fff" fill-rule="evenodd"/>
        <path id="Path_45" data-name="Path 45" d="M474.272,166.881a1.863,1.863,0,0,0-.733-.8,2.063,2.063,0,0,0-1.083-.287,1.968,1.968,0,0,0-1.492.608,2.349,2.349,0,0,0-.579,1.687,2.446,2.446,0,0,0,.249,1.083,1.882,1.882,0,0,0,.729.8,2.043,2.043,0,0,0,1.092.3,2.16,2.16,0,0,0,1.051-.266,1.844,1.844,0,0,0,.753-.79,2.53,2.53,0,0,0,.263-1.174A2.61,2.61,0,0,0,474.272,166.881Zm-.756,2.452a1.467,1.467,0,0,1-2.12,0,1.732,1.732,0,0,1-.421-1.232,1.853,1.853,0,0,1,.439-1.393,1.463,1.463,0,0,1,1.047-.419,1.413,1.413,0,0,1,.771.217,1.373,1.373,0,0,1,.522.611,2.216,2.216,0,0,1,.18.921A1.853,1.853,0,0,1,473.516,169.333Z" fill="#fff" fill-rule="evenodd"/>
        <path id="Path_46" data-name="Path 46" d="M487.179,168.505V168l1.835,0V169.6a3.275,3.275,0,0,1-.873.508,2.575,2.575,0,0,1-.92.169,2.449,2.449,0,0,1-1.158-.273,1.809,1.809,0,0,1-.787-.79,2.478,2.478,0,0,1-.268-1.154,2.671,2.671,0,0,1,.267-1.179,1.754,1.754,0,0,1,.758-.815,2.416,2.416,0,0,1,1.143-.265,2.229,2.229,0,0,1,.849.153,1.434,1.434,0,0,1,.6.42,1.943,1.943,0,0,1,.328.712l-.518.142a1.572,1.572,0,0,0-.244-.521.985.985,0,0,0-.412-.3,1.5,1.5,0,0,0-.6-.114,1.759,1.759,0,0,0-.68.119,1.323,1.323,0,0,0-.462.314,1.557,1.557,0,0,0-.272.428,2.253,2.253,0,0,0-.165.872,2.078,2.078,0,0,0,.2.968,1.264,1.264,0,0,0,.577.579,1.82,1.82,0,0,0,.812.189,1.935,1.935,0,0,0,.723-.142,1.848,1.848,0,0,0,.538-.308v-.8Z" fill="#fff" fill-rule="evenodd"/>
        <path id="Path_47" data-name="Path 47" d="M499.5,170.2v-4.328h.572V170.2Z" fill="#fff" fill-rule="evenodd"/>
        <path id="Path_48" data-name="Path 48" d="M510.557,170.2v-4.328h3.13v.512H511.13v1.324h2.4v.51h-2.4v1.471h2.658v.511Z" fill="#fff" fill-rule="evenodd"/>
        <path id="Path_49" data-name="Path 49" d="M524.273,168.812l.541-.046a1.135,1.135,0,0,0,.18.529.916.916,0,0,0,.433.337,1.756,1.756,0,0,0,1.244.033.779.779,0,0,0,.372-.268.627.627,0,0,0,.125-.37.546.546,0,0,0-.121-.353.845.845,0,0,0-.387-.258c-.117-.044-.374-.116-.773-.212a3.919,3.919,0,0,1-.834-.268,1.161,1.161,0,0,1-.462-.4,1,1,0,0,1-.155-.541,1.1,1.1,0,0,1,.188-.611,1.14,1.14,0,0,1,.544-.432,2.05,2.05,0,0,1,.794-.149,2.153,2.153,0,0,1,.848.155,1.231,1.231,0,0,1,.566.457,1.308,1.308,0,0,1,.213.682l-.549.041a.876.876,0,0,0-.3-.619,1.139,1.139,0,0,0-.753-.21,1.2,1.2,0,0,0-.756.19.568.568,0,0,0-.239.459.5.5,0,0,0,.169.385,2.324,2.324,0,0,0,.864.309,5.932,5.932,0,0,1,.958.272,1.367,1.367,0,0,1,.559.442,1.088,1.088,0,0,1,.179.618,1.173,1.173,0,0,1-.2.651,1.289,1.289,0,0,1-.568.475,1.972,1.972,0,0,1-.831.169,2.524,2.524,0,0,1-.989-.17,1.392,1.392,0,0,1-.621-.518,1.438,1.438,0,0,1-.238-.776Z" fill="#fff" fill-rule="evenodd"/>
      </g>
    </g>
    <g id="Group_8" data-name="Group 8">
      <path id="Path_50" data-name="Path 50" d="M315.066,175.358V164.012a1.456,1.456,0,0,1,1.5-1.589,1.422,1.422,0,0,1,1.44,1.1h.021a3.162,3.162,0,0,1,2.707-1.2,3.707,3.707,0,0,1,3.611,2.643,10.873,10.873,0,0,1,0,5.587,3.708,3.708,0,0,1-3.611,2.642,3.078,3.078,0,0,1-2.643-1.117h-.02v3.288a1.507,1.507,0,1,1-3.009,0Zm6.4-5.909a7.524,7.524,0,0,0,0-3.4,1.585,1.585,0,0,0-1.611-1.2,1.562,1.562,0,0,0-1.59,1.2,7.562,7.562,0,0,0,0,3.4,1.562,1.562,0,0,0,1.59,1.2A1.585,1.585,0,0,0,321.469,169.449Z" fill="#fff"/>
      <path id="Path_51" data-name="Path 51" d="M326.044,172.2a1.341,1.341,0,0,1-.731-1.2,1.224,1.224,0,0,1,1.246-1.2,1.732,1.732,0,0,1,.881.279,4.979,4.979,0,0,0,2.557.752c1.1,0,1.612-.387,1.612-.967,0-.494-.279-.751-1.5-.881l-1.139-.129c-2.256-.258-3.395-1.375-3.395-3.179,0-2.043,1.569-3.353,4.3-3.353a7.05,7.05,0,0,1,3.159.687,1.326,1.326,0,0,1,.881,1.182,1.14,1.14,0,0,1-1.182,1.182,2.02,2.02,0,0,1-.859-.258,4.94,4.94,0,0,0-2.106-.451c-.924,0-1.311.323-1.311.817,0,.472.258.73,1.44.859l1.138.129c2.45.28,3.461,1.418,3.461,3.158,0,2.127-1.7,3.567-4.642,3.567A7.243,7.243,0,0,1,326.044,172.2Z" fill="#fff"/>
      <path id="Path_52" data-name="Path 52" d="M335.432,170.222a9.047,9.047,0,0,1,0-4.942,4.277,4.277,0,0,1,4.426-2.965,4.627,4.627,0,0,1,3.266,1.139,1.624,1.624,0,0,1,.6,1.2,1.258,1.258,0,0,1-1.311,1.289,1.83,1.83,0,0,1-1.225-.623,1.737,1.737,0,0,0-1.289-.472,1.492,1.492,0,0,0-1.569,1.138,8.14,8.14,0,0,0,0,3.524,1.492,1.492,0,0,0,1.569,1.139,1.741,1.741,0,0,0,1.289-.472,1.832,1.832,0,0,1,1.225-.624,1.258,1.258,0,0,1,1.311,1.289,1.625,1.625,0,0,1-.6,1.2,4.627,4.627,0,0,1-3.266,1.138A4.277,4.277,0,0,1,335.432,170.222Z" fill="#fff"/>
    </g>
    <g id="Group_9" data-name="Group 9">
      <path id="Path_53" data-name="Path 53" d="M343.49,175.559a1.275,1.275,0,0,1,1.4-1.31h7.666a1.313,1.313,0,1,1,0,2.62h-7.666A1.276,1.276,0,0,1,343.49,175.559Z" fill="#fff"/>
    </g>
    <path id="Path_54" data-name="Path 54" d="M355.384,183.068H312.278a4.258,4.258,0,0,1-4.253-4.253V135.709a4.257,4.257,0,0,1,4.253-4.251h43.106a4.256,4.256,0,0,1,4.251,4.251v43.106A4.257,4.257,0,0,1,355.384,183.068Zm-43.106-48.89a1.533,1.533,0,0,0-1.532,1.531v43.106a1.533,1.533,0,0,0,1.532,1.532h43.106a1.533,1.533,0,0,0,1.531-1.532V135.709a1.533,1.533,0,0,0-1.531-1.531Z" fill="#fff"/>
  </g>
</svg>
