<?xml version="1.0" encoding="utf-8"?>
<!-- Generator: Adobe Illustrator 22.1.0, SVG Export Plug-In . SVG Version: 6.00 Build 0)  -->
<svg version="1.1" id="Layer_1" xmlns="http://www.w3.org/2000/svg" xmlns:xlink="http://www.w3.org/1999/xlink" x="0px" y="0px"
	 viewBox="0 0 205 41.1" style="enable-background:new 0 0 205 41.1;" xml:space="preserve">
<style type="text/css">
	.st0{fill:#84B702;}
	.st1{fill:#FEB802;}
	.st2{fill:#02A3F0;}
	.st3{fill:#F15413;}
	.st4{fill:#4E4E4E;}
</style>
<g id="Warstwa_x0020_1">
	<path class="st0" d="M58.9,29.6c-0.1-0.3-3.9-5.5-4.2-6c-0.5-0.7-0.3-0.4-0.3-1.7c0-0.6,0-0.5,0.7-1.1c3.6-3,7-6.2,10.6-9
		c0.4-0.8,0.8-2.4,0.8-3.1L49.2,8.6c-0.1,0.7,0.3,2.2-0.1,2.6c-4.1-0.1-17.2-0.1-19.6,0.1c-0.1,2.1,0.1,10.8-0.2,12.1l-4.1,6
		l6.1,0.1c0.2-0.1,6.9-4,7.1-4.1c0.5-0.3,3.1-2.2,3.5-2.1c0.3,0,6.8,4,8.6,5.1c0.4,0.3,1.7,1.3,1.9,1.3L58.9,29.6z"/>
	<path class="st1" d="M31.9,32.2c0.6,0,9.4-2.7,10.1-2.6c2.8,0.3,9,2.6,10.2,2.5v-2.3c-1.1-0.9-5.8-3.7-7.5-4.8
		c-3-1.9-2.7-1.8-4.3-0.8l-8.7,5.4L31.9,32.2z"/>
	<polygon class="st2" points="29.7,10.8 48.9,11 48.9,8.8 29.6,8.9 	"/>
	<path class="st2" d="M24.8,32.2l6.8-0.1c0-0.1,0.1-2-0.1-2.1h-6.6V32.2z"/>
	<path class="st3" d="M13,10c0.1,0.1,0.7,1,1,1.3l2.2,2.5c0.7,0.7,2.2,2.5,3,3.4c0.3,0.4,0.6,0.6,1.3,0.7c2.8,0.7,6.2,2.1,8.8,2.5
		l0.1-11l-3,0.1c-0.3,3.3-0.4,0.5-0.4,0.5L13,10z"/>
	<path class="st2" d="M52.7,32.2h6.5c0-0.3,0.1-1.8-0.1-1.9c-0.1-0.2,0-0.4-0.6-0.3c-1.2,0-5.3,0.1-5.9,0.2L52.7,32.2z"/>
	<path class="st4" d="M52.8,30.2c0.6-0.1,4.3-0.1,5.4-0.1c0.5,0,0.4-0.1,0.6,0c0.1,0.2,0.1,1.6,0.1,1.9h-6.1V30.2z M25.1,30.1h6
		c0.2,0.1,0.1,1.8,0.1,1.9L25,32.1L25.1,30.1z M32.1,31.9l-0.1-2l8.7-5.4c1.6-1,0.8-1,3.8,0.8l6.3,4c0.4,0.2,0.9,0.4,1.2,0.7v1.9
		c-0.3,0.1-6.3-1.6-7.4-1.9c-0.7-0.2-1.9-0.6-2.5-0.7C41.4,29.3,32.7,31.9,32.1,31.9z M29.8,9l19-0.1v1.9l-19-0.1V9z M13.5,10.2
		h12.2c0,0.4,0,2.4,0.1,2.6c0.1,0.1,0.4,0.3,0.6,0.1c0.4-0.2,0.1-2.8,0.1-3.4H29v10.4c-0.7-0.1-4-1-5-1.3c-0.8-0.2-1.6-0.4-2.5-0.7
		c-0.4-0.1-0.8-0.2-1.2-0.3c-0.7-0.2-0.6-0.3-1-0.7c-0.8-0.9-2.2-2.5-3-3.4l-2.2-2.5C14,10.9,13.6,10.5,13.5,10.2z M58.5,29.3
		l-5.7,0.1c-0.2,0-0.4-0.3-0.9-0.5c-1.8-1.1-9.5-6-9.8-6c-0.4-0.1-3.1,1.7-3.7,2.1c-0.1,0.1-6.9,4.3-7.1,4.4l-5.8-0.1l4-5.6
		c0.4-0.4,0.3-0.5,0.3-1.1c0-1.9,0-3.7,0-5.5s-0.1-3.7,0-5.5c0.6-0.1,1.7,0,2.4,0l12.2,0.1c1,0,4,0.1,4.9-0.1
		c0.4-0.4,0.1-1.8,0.1-2.5L66,8.9c-0.1,0.4-0.4,1.3-0.5,1.8c-0.3,1.1-0.2,0.8-0.9,1.4l-2.5,2.2c-1.4,1.1-3.4,3-4.9,4.2
		c-0.8,0.7-1.6,1.4-2.5,2.1c-0.7,0.6-0.7,0.4-0.7,1.6c0,1.2-0.1,1,0.5,1.8C54.9,24.4,58.3,29,58.5,29.3z M29,8.7
		c-0.9,0-2.7-0.1-3.3,0.1c-0.2,0.8,0.4,0.6-3,0.6h-9.2c-0.7,0-1.4-0.1-1.4,0.5c0,0.2,1.3,1.6,1.6,1.9l0.8,1c0.3,0.3,0.5,0.5,0.8,0.9
		c0.1,0.1,0.2,0.2,0.4,0.4c0.2,0.1,0.2,0.3,0.4,0.4l3.3,3.6l2.6,0.7c0.4,0.1,0.9,0.3,1.3,0.4c1,0.2,1.8,0.5,2.7,0.7l2.7,0.7l0.1,1.7
		c0.1,0.7,0.1,0.7-0.4,1.3l-1.6,2.2c-0.5,0.8-1,1.5-1.6,2.3c-0.1,0.1-0.2,0.3-0.4,0.5c-0.6,0.7-0.5,0.9-0.5,2.4
		c0,0.4-0.1,1.6,0.4,1.6h6.5c0.7,0,4.6-1,5.4-1.3c0.8-0.2,1.8-0.4,2.6-0.7l2.8-0.7l8,2.1c0.4,0.1,0.9,0.2,1.3,0.4
		c0.4,0.1,1,0.3,1.4,0.3h6.6c0.3,0,0.5-0.2,0.5-0.5v-2.1c0-0.7-0.1-0.8-0.4-1.2l-4-5.3c-0.1-0.2-0.1-0.3-0.3-0.5
		c-0.4-0.4-0.2-0.7-0.2-1.6c0-0.2,2.8-2.6,3.3-3l7.5-6.3c0.4-0.4,0.4-0.5,0.7-1.3c0.1-0.4,0.2-0.7,0.3-1.2c0.6-2.1,1-1.7-4.2-1.7
		c-4.9,0-9.9,0-14.8,0L31,8.1C29.5,8.1,29.2,7.9,29,8.7z"/>
	<path class="st4" d="M82.4,24.3c-0.4,0.4-0.4,0.9-0.3,1.6l1.3,6.2c0.1,0.7-0.1,1-0.7,1h-1.9c-0.6,0-1-0.3-1.1-0.9l-1.1-5.7
		c-0.1-0.7-0.4-1-0.6-1c-0.2,0-0.4,0.3-0.4,1v5.7c0,0.6-0.3,0.9-1,0.9h-1.9c-0.6,0-1-0.3-1-0.9V9.1c0-0.6,0.4-0.9,1-0.9h4.9
		c2.5,0,3.8,1.3,3.8,3.8v9.4C83.2,22.6,82.9,23.6,82.4,24.3z M78.4,12c-0.7,0-1,0.3-1,1v7.6c0,0.7,0.3,1,1,1c0.6,0,1-0.3,1-1V13
		C79.4,12.3,79,12,78.4,12z M85.6,12c-0.6,0-0.9-0.3-0.9-1V9.1c0-0.6,0.3-0.9,0.9-0.9H89h3.3c0.7,0,1,0.3,1,0.9v1.9
		c0,0.7-0.1,1.3-0.2,1.9l-4.3,15.3c-0.2,0.7,0,1,0.7,1h2.8c0.7,0,1,0.3,1,1v1.9c0,0.6-0.3,0.9-1,0.9h-6.7c-0.6,0-0.9-0.3-0.9-0.9
		v-1.9c0-0.7,0.1-1.3,0.3-2l4.2-15.2c0.2-0.7,0-1-0.7-1H85.6z M95.1,9.2c0-0.7,0.4-1,1-1h4.9c0.6,0,0.9,0.3,0.9,0.9v1.9
		c0,0.7-0.3,1-1,1h-0.9c-0.7,0-1,0.3-1,1v5.2c0,0.7,0.3,1,1,1c0.6,0,0.9,0.3,0.9,1v1.9c0,0.6-0.3,1-0.9,1c-0.7,0-1,0.3-1,0.9v4.3
		c0,0.7,0.3,1,1,1h1c0.6,0,0.9,0.3,0.9,1v1.9c0,0.6-0.3,0.9-0.9,0.9H96c-0.6,0-1-0.3-1-0.9V9.2z M103.7,9.2c0-0.7,0.4-1,1.2-1h3.2
		c0.8,0,1.3,0.4,1.4,1.3l2.4,16.3c0.3,1.6,0.5,1.6,0.7,0L115,9.5c0.1-0.9,0.6-1.3,1.4-1.3h3.3c0.8,0,1.3,0.3,1.3,1v22.9
		c0,0.7-0.3,1-0.9,1h-1.9c-0.6,0-0.9-0.3-0.9-0.9V20.8c0-2.8-0.1-2.8-0.5,0l-1.4,11.3c-0.1,0.7-0.4,1-1.1,1h-3.8c-0.7,0-1-0.3-1.1-1
		l-1.4-11.3c-0.4-2.8-0.5-2.8-0.5,0v11.4c0,0.6-0.3,0.9-0.9,0.9h-1.9c-0.6,0-0.9-0.3-0.9-1V9.2z M125.8,8.2c0.7,0,1,0.3,1,1v23
		c0,0.6-0.3,0.9-1,0.9h-1.9c-0.6,0-0.9-0.3-0.9-0.9v-23c0-0.7,0.3-1,0.9-1H125.8z M128.7,12c0-2.5,1.3-3.8,3.8-3.8h1.9
		c2.5,0,3.8,1.3,3.8,3.8v17.2c0,2.5-1.3,3.8-3.8,3.8h-1.9c-2.5,0-3.8-1.3-3.8-3.8V12z M133.4,12c-0.7,0-1,0.3-1,1v15.3
		c0,0.7,0.3,1,1,1c0.6,0,1-0.3,1-1V13C134.4,12.3,134,12,133.4,12z M140.2,12c0-2.5,1.3-3.8,3.8-3.8h1.9c2.5,0,3.8,1.3,3.8,3.8v3.8
		c0,0.7-0.3,1-1,1h-1.9c-0.6,0-0.9-0.3-0.9-1V13c0-0.7-0.4-1-1-1c-0.7,0-1,0.3-1,1v4.8c0,0.7,0.3,1,1,1h1c2.5,0,3.8,1.3,3.8,3.8v6.7
		c0,2.5-1.3,3.8-3.8,3.8H144c-2.5,0-3.8-1.3-3.8-3.8v-3.8c0-0.7,0.3-1,1-1h1.9c0.7,0,1,0.3,1,1v2.8c0,0.7,0.3,1,1,1c0.6,0,1-0.3,1-1
		v-4.8c0-0.7-0.4-1-1-1h-1c-2.5,0-3.8-1.3-3.8-3.8V12z M153.5,33.1c-0.6,0-0.9-0.3-0.9-0.9v-8.7c0-0.7-0.2-1-0.5-1s-0.4-0.3-0.4-1
		v-1.9c0-0.7,0.1-1,0.4-1.1s0.5-0.3,0.5-0.8V9.2c0-0.7,0.3-1,0.9-1h1.9c0.7,0,1,0.3,1,0.9v7.7c0,0.5,0.2,0.8,0.7,0.7l1.4-0.3
		c0.4-0.1,0.7,0.1,0.7,0.8v1.9c0,0.7-0.2,1-0.7,1.1l-1.4,0.3c-0.5,0.1-0.7,0.6-0.7,1.3v5.7c0,0.7,0.3,1,1,1h1c0.6,0,0.9,0.3,0.9,1
		v1.9c0,0.6-0.3,0.9-0.9,0.9H153.5z M161.2,12c0-2.5,1.3-3.8,3.8-3.8h1.9c2.5,0,3.8,1.3,3.8,3.8v17.2c0,2.5-1.3,3.8-3.8,3.8H165
		c-2.5,0-3.8-1.3-3.8-3.8V12z M166,12c-0.7,0-1,0.3-1,1v15.3c0,0.7,0.3,1,1,1s1-0.3,1-1V13C167,12.3,166.7,12,166,12z M181.4,8.2
		c0.6,0,0.9,0.3,0.9,1v23c0,0.6-0.3,0.9-0.9,0.9h-1.9c-0.7,0-1-0.3-1-0.9v-23c0-0.7,0.3-1,1-1H181.4z M191.9,8.2c0.6,0,1,0.3,1,0.9
		v1.9c0,0.7-0.3,1-1,1h-1c-0.7,0-1,0.3-1,1v19.2c0,0.6-0.3,0.9-1,0.9h-1.9c-0.7,0-1-0.3-1-0.9V13c0-0.7-0.3-1-1-1h-1
		c-0.6,0-1-0.3-1-1V9.1c0-0.6,0.4-0.9,1-0.9h3.9H191.9z"/>
</g>
</svg>
