<?xml version="1.0" encoding="UTF-8"?>
<!DOCTYPE svg PUBLIC "-//W3C//DTD SVG 1.1//EN" "http://www.w3.org/Graphics/SVG/1.1/DTD/svg11.dtd">
<!-- Creator: CorelDRAW X7 -->
<svg xmlns="http://www.w3.org/2000/svg" xml:space="preserve" width="210mm" height="297mm" version="1.1" style="shape-rendering:geometricPrecision; text-rendering:geometricPrecision; image-rendering:optimizeQuality; fill-rule:evenodd; clip-rule:evenodd"
viewBox="0 0 21000 29700"
 xmlns:xlink="http://www.w3.org/1999/xlink">
 <defs>
  <style type="text/css">
   <![CDATA[
    .fil2 {fill:#02A3F0}
    .fil4 {fill:#4E4E4E}
    .fil8 {fill:#595959}
    .fil9 {fill:#727272}
    .fil0 {fill:#84B702}
    .fil6 {fill:#A0A0A0}
    .fil7 {fill:#D0D0D0}
    .fil3 {fill:#F15413}
    .fil1 {fill:#FEB802}
    .fil10 {fill:#FEFEFE;fill-rule:nonzero}
    .fil5 {fill:#4E4E4E;fill-rule:nonzero}
   ]]>
  </style>
 </defs>
 <g id="Warstwa_x0020_1">
  <metadata id="CorelCorpID_0Corel-Layer"/>
  <path class="fil0" d="M795 410c-1,-4 -52,-74 -56,-80 -7,-10 -4,-6 -4,-23 0,-8 0,-7 9,-15 48,-40 94,-83 142,-120 5,-11 11,-32 11,-42l-231 -1c-1,10 4,29 -1,35 -55,-1 -230,-1 -262,1 -1,28 1,145 -3,162l-55 81 82 2c3,-1 93,-53 95,-55 7,-4 41,-29 47,-28 4,0 91,54 115,68 5,4 23,18 26,18l85 -3z"/>
  <path class="fil1" d="M434 445c8,0 126,-36 135,-35 37,4 120,35 137,34l0 -31c-15,-12 -78,-50 -100,-64 -40,-25 -36,-24 -57,-11l-117 73 2 34z"/>
  <polygon class="fil2" points="404,159 661,161 662,132 403,133 "/>
  <path class="fil2" d="M338 445l91 -1c0,-2 1,-27 -2,-28l-89 0 0 29z"/>
  <path class="fil3" d="M180 148c2,2 10,14 13,17l29 33c10,10 29,33 40,45 4,6 8,8 17,10 38,10 83,28 118,34l1 -148 -40 1c-4,44 -6,7 -6,7l-172 1z"/>
  <path class="fil2" d="M712 445l87 0c0,-4 1,-24 -1,-26 -2,-3 0,-5 -8,-4 -16,0 -71,1 -79,3l1 27z"/>
  <path class="fil4" d="M714 419c8,-1 57,-1 73,-1 7,0 6,-2 8,0 2,3 1,21 1,26l-82 0 0 -25zm-372 -2l81 0c3,2 2,24 2,26l-84 1 1 -27zm94 24l-1 -27 117 -73c21,-13 11,-14 51,11l84 53c5,3 12,6 16,10l0 26c-4,1 -84,-21 -99,-25 -9,-3 -26,-8 -34,-9 -9,-1 -126,34 -134,34zm-30 -307l254 -1 0 25 -254 -1 0 -23zm-219 17l163 0c0,5 0,32 1,35 1,2 5,4 8,1 5,-3 1,-38 2,-46l34 0 0 140c-9,-1 -54,-14 -67,-18 -11,-3 -22,-6 -33,-9 -6,-1 -11,-3 -16,-4 -9,-3 -8,-4 -13,-9 -11,-12 -30,-34 -40,-45l-30 -33c-2,-3 -7,-9 -9,-12zm603 256l-77 1c-3,0 -6,-4 -12,-7 -24,-15 -127,-80 -131,-81 -6,-1 -42,23 -49,28 -2,1 -92,58 -95,59l-78 -1 54 -75c5,-6 4,-7 4,-15 0,-25 0,-50 0,-74 0,-24 -1,-50 0,-74 8,-1 23,0 32,0l164 1c14,0 54,2 66,-1 5,-6 2,-24 2,-34l221 -1c-1,6 -5,18 -7,24 -4,15 -3,11 -12,19l-33 29c-19,15 -46,40 -66,56 -11,10 -22,19 -33,28 -9,8 -9,6 -9,22 0,16 -1,14 7,24 4,6 50,68 52,72zm-395 -277c-12,0 -36,-2 -44,2 -3,11 5,8 -40,8l-123 0c-10,0 -19,-2 -19,7 0,3 18,22 21,25l11 13c4,4 7,7 11,12 2,2 3,3 5,6 3,2 3,4 5,6l44 48 35 10c6,2 12,4 18,5 13,3 24,7 36,10l36 10 2 23c2,10 1,9 -6,18l-22 30c-7,11 -14,20 -22,31 -2,2 -3,4 -5,7 -8,10 -7,12 -7,32 0,6 -2,22 5,22l87 0c9,0 61,-14 73,-18 11,-3 24,-6 35,-9l37 -10 107 28c6,1 12,3 18,5 5,1 14,4 19,4l88 0c4,0 7,-3 7,-7l0 -28c0,-9 -2,-11 -5,-16l-53 -71c-1,-3 -2,-4 -4,-7 -5,-6 -3,-10 -3,-22 0,-3 38,-35 44,-40l100 -85c6,-5 6,-7 9,-18 1,-5 3,-10 4,-16 8,-28 14,-23 -56,-23 -66,0 -132,0 -198,0l-224 1c-20,0 -24,-3 -26,7z"/>
  <path class="fil5" d="M1110 340c-5,5 -6,12 -4,21l17 83c2,9 -1,13 -10,13l-26 0c-8,0 -13,-4 -15,-12l-15 -77c-2,-9 -5,-13 -8,-13 -3,0 -5,4 -5,13l0 77c0,8 -4,12 -13,12l-26 0c-8,0 -13,-4 -13,-12l0 -309c0,-8 5,-12 13,-12l65 0c34,0 51,17 51,51l0 126c0,16 -4,29 -11,39zm-53 -165c-9,0 -13,4 -13,13l0 102c0,9 4,13 13,13 8,0 13,-4 13,-13l0 -102c0,-9 -5,-13 -13,-13zm96 0c-8,0 -12,-4 -12,-13l0 -26c0,-8 4,-12 12,-12l46 0 44 0c9,0 13,4 13,12l0 26c0,9 -1,17 -3,26l-57 205c-3,9 0,13 9,13l38 0c9,0 13,4 13,13l0 26c0,8 -4,12 -13,12l-90 0c-8,0 -12,-4 -12,-12l0 -26c0,-9 1,-18 4,-27l56 -203c3,-9 0,-14 -9,-14l-39 0zm127 -38c0,-9 5,-13 13,-13l65 0c8,0 12,4 12,12l0 26c0,9 -4,13 -13,13l-12 0c-9,0 -13,4 -13,13l0 70c0,9 4,13 13,13 8,0 12,4 12,13l0 26c0,8 -4,13 -12,13 -9,0 -13,4 -13,12l0 58c0,9 4,13 13,13l13 0c8,0 12,4 12,13l0 26c0,8 -4,12 -12,12l-65 0c-8,0 -13,-4 -13,-12l0 -308zm116 0c0,-9 5,-13 16,-13l43 0c11,0 17,5 19,17l32 219c4,22 7,22 10,0l31 -219c2,-12 8,-17 19,-17l44 0c11,0 17,4 17,13l0 307c0,9 -4,13 -12,13l-25 0c-8,0 -12,-4 -12,-12l0 -153c0,-37 -2,-37 -7,0l-19 152c-1,9 -6,13 -15,13l-51 0c-9,0 -14,-4 -15,-13l-19 -152c-5,-37 -7,-37 -7,0l0 153c0,8 -4,12 -12,12l-25 0c-8,0 -12,-4 -12,-13l0 -307zm295 -13c9,0 13,4 13,13l0 308c0,8 -4,12 -13,12l-26 0c-8,0 -12,-4 -12,-12l0 -308c0,-9 4,-13 12,-13l26 0zm39 51c0,-34 17,-51 51,-51l26 0c34,0 51,17 51,51l0 231c0,34 -17,51 -51,51l-26 0c-34,0 -51,-17 -51,-51l0 -231zm64 0c-9,0 -13,4 -13,13l0 205c0,9 4,13 13,13 8,0 13,-4 13,-13l0 -205c0,-9 -5,-13 -13,-13zm90 0c0,-34 17,-51 51,-51l26 0c34,0 51,17 51,51l0 51c0,9 -4,13 -13,13l-26 0c-8,0 -12,-4 -12,-13l0 -38c0,-9 -5,-13 -13,-13 -9,0 -13,4 -13,13l0 64c0,9 4,13 13,13l13 0c34,0 51,17 51,51l0 90c0,34 -17,51 -51,51l-26 0c-34,0 -51,-17 -51,-51l0 -51c0,-9 4,-13 13,-13l25 0c9,0 13,4 13,13l0 38c0,9 4,13 13,13 8,0 13,-4 13,-13l0 -64c0,-9 -5,-13 -13,-13l-13 0c-34,0 -51,-17 -51,-51l0 -90zm179 282c-8,0 -12,-4 -12,-12l0 -116c0,-9 -3,-13 -7,-13 -4,0 -6,-4 -6,-13l0 -25c0,-9 2,-14 6,-15 4,-1 7,-4 7,-11l0 -115c0,-9 4,-13 12,-13l26 0c9,0 13,4 13,12l0 103c0,7 3,11 10,9l19 -4c6,-2 9,2 9,11l0 25c0,9 -3,14 -9,15l-19 4c-7,2 -10,8 -10,17l0 77c0,9 4,13 13,13l13 0c8,0 12,4 12,13l0 26c0,8 -4,12 -12,12l-65 0zm103 -282c0,-34 17,-51 51,-51l26 0c34,0 51,17 51,51l0 231c0,34 -17,51 -51,51l-26 0c-34,0 -51,-17 -51,-51l0 -231zm64 0c-9,0 -13,4 -13,13l0 205c0,9 4,13 13,13 9,0 13,-4 13,-13l0 -205c0,-9 -4,-13 -13,-13zm206 -51c8,0 12,4 12,13l0 308c0,8 -4,12 -12,12l-26 0c-9,0 -13,-4 -13,-12l0 -308c0,-9 4,-13 13,-13l26 0zm141 0c8,0 13,4 13,12l0 26c0,9 -4,13 -13,13l-13 0c-9,0 -13,4 -13,13l0 257c0,8 -4,12 -13,12l-25 0c-9,0 -13,-4 -13,-12l0 -257c0,-9 -4,-13 -13,-13l-13 0c-8,0 -13,-4 -13,-13l0 -26c0,-8 5,-12 13,-12l52 0 51 0z"/>
  <path class="fil6" d="M795 793c-1,-4 -52,-75 -56,-80 -7,-10 -4,-7 -4,-23 0,-8 0,-7 9,-15 48,-40 94,-83 142,-120 5,-11 11,-33 11,-42l-231 -1c-1,10 4,29 -1,35 -55,-1 -230,-1 -262,1 -1,28 1,144 -3,162l-55 81 82 2c3,-1 93,-54 95,-55 7,-4 41,-29 47,-28 4,0 91,54 115,68 5,4 23,17 26,18l85 -3z"/>
  <path class="fil7" d="M434 828c8,0 126,-36 135,-35 37,4 120,35 137,34l0 -31c-15,-13 -78,-50 -100,-64 -40,-26 -36,-24 -57,-11l-117 73 2 34z"/>
  <polygon class="fil8" points="404,542 661,543 662,515 403,516 "/>
  <path class="fil8" d="M338 828l91 -1c0,-2 1,-27 -2,-28l-89 0 0 29z"/>
  <path class="fil9" d="M180 530c2,3 10,15 13,18l29 33c10,10 29,33 40,45 4,6 8,8 17,10 38,10 83,28 118,34l1 -148 -40 1c-4,44 -6,7 -6,7l-172 0z"/>
  <path class="fil8" d="M712 828l87 0c0,-4 1,-24 -1,-27 -2,-2 0,-4 -8,-4 -16,1 -71,2 -79,4l1 27z"/>
  <path class="fil4" d="M714 802c8,-2 57,-1 73,-1 7,-1 6,-2 8,0 2,3 1,21 1,26l-82 0 0 -25zm-372 -2l81 0c3,1 2,24 2,26l-84 1 1 -27zm94 24l-1 -27 117 -73c21,-13 11,-14 51,11l84 53c5,3 12,6 16,10l0 26c-4,0 -84,-21 -99,-25 -9,-3 -26,-8 -34,-9 -9,-1 -126,34 -134,34zm-30 -307l254 -1 0 25 -254 -1 0 -23zm-219 17l163 0c0,5 0,32 1,35 1,2 5,4 8,1 5,-3 1,-38 2,-46l34 0 0 140c-9,-1 -54,-14 -67,-18 -11,-3 -22,-6 -33,-9 -6,-2 -11,-3 -16,-4 -9,-3 -8,-4 -13,-9 -11,-12 -30,-34 -40,-45l-30 -33c-2,-4 -7,-9 -9,-12zm603 256l-77 1c-3,0 -6,-4 -12,-7 -24,-15 -127,-80 -131,-81 -6,-1 -42,23 -49,28 -2,1 -92,58 -95,58l-78 0 54 -75c5,-6 4,-7 4,-15 0,-25 0,-50 0,-74 0,-25 -1,-50 0,-74 8,-1 23,0 32,0l164 1c14,0 54,2 66,-1 5,-6 2,-24 2,-35l221 0c-1,6 -5,18 -7,24 -4,15 -3,11 -12,19l-33 28c-19,16 -46,40 -66,57 -11,9 -22,19 -33,28 -9,8 -9,6 -9,22 0,16 -1,14 7,24 4,5 50,68 52,72zm-395 -277c-12,0 -36,-2 -44,2 -3,11 5,8 -40,8l-123 0c-10,0 -19,-2 -19,7 0,3 18,22 21,25l11 13c4,4 7,7 11,11 2,3 3,4 5,7 3,2 3,3 5,6l44 48 35 10c6,2 12,4 18,5 13,3 24,7 36,10l36 10 2 23c2,10 1,8 -6,18l-22 30c-7,10 -14,20 -22,30 -2,3 -3,5 -5,8 -8,10 -7,12 -7,32 0,6 -2,22 5,22l87 0c9,0 61,-15 73,-18 11,-3 24,-6 35,-10l37 -9 107 28c6,1 12,3 18,5 5,1 14,4 19,4l88 0c4,0 7,-3 7,-7l0 -29c0,-8 -2,-10 -5,-15l-53 -71c-1,-3 -2,-4 -4,-7 -5,-6 -3,-10 -3,-22 0,-3 38,-35 44,-40l100 -85c6,-5 6,-8 9,-18 1,-6 3,-10 4,-16 8,-28 14,-23 -56,-23 -66,0 -132,0 -198,0l-224 1c-20,0 -24,-3 -26,7z"/>
  <path class="fil5" d="M1110 723c-5,5 -6,11 -4,21l17 82c2,10 -1,14 -10,14l-26 0c-8,0 -13,-4 -15,-13l-15 -77c-2,-8 -5,-12 -8,-12 -3,0 -5,4 -5,12l0 77c0,9 -4,13 -13,13l-26 0c-8,0 -13,-4 -13,-12l0 -309c0,-8 5,-13 13,-13l65 0c34,0 51,18 51,52l0 126c0,16 -4,29 -11,39zm-53 -165c-9,0 -13,4 -13,13l0 102c0,9 4,13 13,13 8,0 13,-4 13,-13l0 -102c0,-9 -5,-13 -13,-13zm96 0c-8,0 -12,-4 -12,-13l0 -26c0,-8 4,-13 12,-13l46 0 44 0c9,0 13,5 13,13l0 26c0,9 -1,17 -3,25l-57 206c-3,9 0,13 9,13l38 0c9,0 13,4 13,13l0 25c0,9 -4,13 -13,13l-90 0c-8,0 -12,-4 -12,-13l0 -25c0,-9 1,-18 4,-27l56 -203c3,-9 0,-14 -9,-14l-39 0zm127 -38c0,-9 5,-14 13,-14l65 0c8,0 12,5 12,13l0 26c0,9 -4,13 -13,13l-12 0c-9,0 -13,4 -13,13l0 70c0,9 4,13 13,13 8,0 12,4 12,13l0 26c0,8 -4,12 -12,12 -9,0 -13,5 -13,13l0 58c0,9 4,13 13,13l13 0c8,0 12,4 12,13l0 25c0,9 -4,13 -12,13l-65 0c-8,0 -13,-4 -13,-13l0 -307zm116 0c0,-9 5,-14 16,-14l43 0c11,0 17,6 19,17l32 219c4,23 7,23 10,0l31 -219c2,-11 8,-17 19,-17l44 0c11,0 17,5 17,14l0 307c0,9 -4,13 -12,13l-25 0c-8,0 -12,-4 -12,-13l0 -152c0,-37 -2,-37 -7,0l-19 151c-1,10 -6,14 -15,14l-51 0c-9,0 -14,-4 -15,-14l-19 -151c-5,-37 -7,-37 -7,0l0 152c0,9 -4,13 -12,13l-25 0c-8,0 -12,-4 -12,-13l0 -307zm295 -14c9,0 13,5 13,14l0 307c0,9 -4,13 -13,13l-26 0c-8,0 -12,-4 -12,-13l0 -307c0,-9 4,-14 12,-14l26 0zm39 52c0,-34 17,-52 51,-52l26 0c34,0 51,18 51,52l0 231c0,34 -17,51 -51,51l-26 0c-34,0 -51,-17 -51,-51l0 -231zm64 0c-9,0 -13,4 -13,13l0 205c0,9 4,13 13,13 8,0 13,-4 13,-13l0 -205c0,-9 -5,-13 -13,-13zm90 0c0,-34 17,-52 51,-52l26 0c34,0 51,18 51,52l0 51c0,9 -4,13 -13,13l-26 0c-8,0 -12,-4 -12,-13l0 -38c0,-9 -5,-13 -13,-13 -9,0 -13,4 -13,12l0 65c0,8 4,13 13,13l13 0c34,0 51,17 51,51l0 90c0,34 -17,51 -51,51l-26 0c-34,0 -51,-17 -51,-51l0 -51c0,-9 4,-13 13,-13l25 0c9,0 13,4 13,13l0 38c0,9 4,13 13,13 8,0 13,-4 13,-13l0 -64c0,-9 -5,-13 -13,-13l-13 0c-34,0 -51,-17 -51,-51l0 -90zm179 282c-8,0 -12,-4 -12,-13l0 -115c0,-9 -3,-13 -7,-13 -4,0 -6,-4 -6,-13l0 -25c0,-9 2,-14 6,-15 4,-1 7,-4 7,-11l0 -115c0,-9 4,-14 12,-14l26 0c9,0 13,5 13,13l0 103c0,7 3,11 10,9l19 -4c6,-2 9,2 9,10l0 26c0,9 -3,14 -9,15l-19 4c-7,2 -10,7 -10,17l0 77c0,9 4,13 13,13l13 0c8,0 12,4 12,13l0 25c0,9 -4,13 -12,13l-65 0zm103 -282c0,-34 17,-52 51,-52l26 0c34,0 51,18 51,52l0 231c0,34 -17,51 -51,51l-26 0c-34,0 -51,-17 -51,-51l0 -231zm64 0c-9,0 -13,4 -13,13l0 205c0,9 4,13 13,13 9,0 13,-4 13,-13l0 -205c0,-9 -4,-13 -13,-13zm206 -52c8,0 12,5 12,14l0 307c0,9 -4,13 -12,13l-26 0c-9,0 -13,-4 -13,-13l0 -307c0,-9 4,-14 13,-14l26 0zm141 0c8,0 13,5 13,13l0 26c0,9 -4,13 -13,13l-13 0c-9,0 -13,4 -13,13l0 256c0,9 -4,13 -13,13l-25 0c-9,0 -13,-4 -13,-13l0 -256c0,-9 -4,-13 -13,-13l-13 0c-8,0 -13,-4 -13,-13l0 -26c0,-8 5,-13 13,-13l52 0 51 0z"/>
  <path class="fil0" d="M795 1192c-1,-4 -52,-75 -56,-80 -7,-10 -4,-7 -4,-23 0,-8 0,-7 9,-15 48,-40 94,-83 142,-120 5,-11 11,-33 11,-42l-231 -1c-1,10 4,29 -1,35 -55,-1 -230,-1 -262,1 -1,28 1,144 -3,162l-55 81 82 2c3,-1 93,-54 95,-55 7,-4 41,-29 47,-28 4,0 91,54 115,68 5,4 23,17 26,18l85 -3z"/>
  <path class="fil1" d="M434 1227c8,0 126,-36 135,-35 37,4 120,35 137,34l0 -32c-15,-12 -78,-49 -100,-63 -40,-26 -36,-24 -57,-11l-117 73 2 34z"/>
  <polygon class="fil2" points="404,941 661,942 662,914 403,914 "/>
  <path class="fil2" d="M338 1227l91 -1c0,-2 1,-27 -2,-28l-89 0 0 29z"/>
  <path class="fil3" d="M180 929c2,3 10,15 13,18l29 33c10,10 29,33 40,45 4,6 8,8 17,10 38,10 83,28 118,34l1 -148 -40 1c-4,44 -6,7 -6,7l-172 0z"/>
  <path class="fil2" d="M712 1227l87 0c0,-4 1,-24 -1,-27 -2,-2 0,-4 -8,-4 -16,1 -71,2 -79,4l1 27z"/>
  <path class="fil4" d="M714 1201c8,-2 57,-1 73,-1 7,-1 6,-2 8,0 2,3 1,21 1,26l-82 -1 0 -24zm-372 -2l81 0c3,1 2,24 2,26l-84 1 1 -27zm94 24l-1 -27 117 -73c21,-13 11,-14 51,11l84 52c5,4 12,7 16,11l0 26c-4,0 -84,-21 -99,-25 -9,-3 -26,-8 -34,-9 -9,-1 -126,34 -134,34zm-30 -307l254 -1 0 25 -254 -1 0 -23zm-219 17l163 0c0,5 0,32 1,35 1,2 5,4 8,1 5,-3 1,-38 2,-46l34 0 0 140c-9,-1 -54,-14 -67,-18 -11,-3 -22,-6 -33,-9 -6,-2 -11,-3 -16,-5 -9,-2 -8,-3 -13,-8 -11,-12 -30,-34 -40,-45l-30 -33c-2,-4 -7,-9 -9,-12zm603 256l-77 1c-3,0 -6,-4 -12,-7 -24,-15 -127,-80 -131,-81 -6,-1 -42,23 -49,28 -2,1 -92,58 -95,58l-78 0 54 -75c5,-6 4,-7 4,-16 0,-24 0,-49 0,-73 0,-25 -1,-50 0,-74 8,-1 23,0 32,0l164 1c14,0 54,2 66,-1 5,-6 2,-24 2,-35l221 0c-1,6 -5,18 -7,24 -4,15 -3,10 -12,19l-33 28c-19,16 -46,40 -66,57 -11,9 -22,19 -33,28 -9,8 -9,6 -9,22 0,16 -1,14 7,24 4,5 50,68 52,72zm-395 -277c-12,0 -36,-2 -44,1 -3,12 5,9 -40,9l-123 0c-10,0 -19,-2 -19,7 0,3 18,22 21,25l11 12c4,5 7,8 11,12 2,3 3,4 5,7 3,2 3,3 5,6l44 48 35 10c6,2 12,4 18,5 13,3 24,7 36,10l36 10 2 23c2,10 1,8 -6,18l-22 30c-7,10 -14,20 -22,30 -2,3 -3,5 -5,8 -8,10 -7,12 -7,32 0,6 -2,22 5,22l87 0c9,0 61,-15 73,-18 11,-4 24,-6 35,-10l37 -9 107 28c6,1 12,3 18,4 5,2 14,5 19,5l88 0c4,0 7,-3 7,-8l0 -28c0,-8 -2,-10 -5,-15l-53 -72c-1,-2 -2,-3 -4,-6 -5,-6 -3,-10 -3,-22 0,-3 38,-35 44,-40l100 -85c6,-5 6,-8 9,-18 1,-6 3,-10 4,-16 8,-28 14,-23 -56,-23 -66,0 -132,0 -198,0l-224 1c-20,0 -24,-3 -26,7z"/>
  <path class="fil10" d="M1110 1122c-5,4 -6,11 -4,21l17 82c2,10 -1,14 -10,14l-26 0c-8,0 -13,-4 -15,-13l-15 -77c-2,-8 -5,-13 -8,-13 -3,0 -5,5 -5,13l0 77c0,9 -4,13 -13,13l-26 0c-8,0 -13,-4 -13,-12l0 -309c0,-8 5,-13 13,-13l65 0c34,0 51,17 51,52l0 126c0,16 -4,29 -11,39zm-53 -165c-9,0 -13,4 -13,13l0 102c0,9 4,13 13,13 8,0 13,-4 13,-13l0 -102c0,-9 -5,-13 -13,-13zm96 0c-8,0 -12,-5 -12,-13l0 -26c0,-8 4,-13 12,-13l46 0 44 0c9,0 13,5 13,13l0 26c0,8 -1,17 -3,25l-57 206c-3,9 0,13 9,13l38 0c9,0 13,4 13,13l0 25c0,9 -4,13 -13,13l-90 0c-8,0 -12,-4 -12,-13l0 -25c0,-9 1,-18 4,-28l56 -202c3,-9 0,-14 -9,-14l-39 0zm127 -39c0,-8 5,-13 13,-13l65 0c8,0 12,5 12,13l0 26c0,8 -4,13 -13,13l-12 0c-9,0 -13,4 -13,13l0 70c0,9 4,13 13,13 8,0 12,4 12,13l0 26c0,8 -4,12 -12,12 -9,0 -13,5 -13,13l0 58c0,9 4,13 13,13l13 0c8,0 12,4 12,13l0 25c0,9 -4,13 -12,13l-65 0c-8,0 -13,-4 -13,-13l0 -308zm116 0c0,-8 5,-13 16,-13l43 0c11,0 17,6 19,17l32 219c4,23 7,23 10,0l31 -219c2,-11 8,-17 19,-17l44 0c11,0 17,5 17,13l0 308c0,9 -4,13 -12,13l-25 0c-8,0 -12,-4 -12,-13l0 -152c0,-37 -2,-37 -7,0l-19 151c-1,10 -6,14 -15,14l-51 0c-9,0 -14,-4 -15,-14l-19 -151c-5,-37 -7,-37 -7,0l0 152c0,9 -4,13 -12,13l-25 0c-8,0 -12,-4 -12,-13l0 -308zm295 -13c9,0 13,5 13,13l0 308c0,9 -4,13 -13,13l-26 0c-8,0 -12,-4 -12,-13l0 -308c0,-8 4,-13 12,-13l26 0zm39 52c0,-35 17,-52 51,-52l26 0c34,0 51,17 51,52l0 231c0,34 -17,51 -51,51l-26 0c-34,0 -51,-17 -51,-51l0 -231zm64 0c-9,0 -13,4 -13,13l0 205c0,9 4,13 13,13 8,0 13,-4 13,-13l0 -205c0,-9 -5,-13 -13,-13zm90 0c0,-35 17,-52 51,-52l26 0c34,0 51,17 51,52l0 51c0,9 -4,13 -13,13l-26 0c-8,0 -12,-4 -12,-13l0 -38c0,-9 -5,-13 -13,-13 -9,0 -13,4 -13,12l0 65c0,8 4,13 13,13l13 0c34,0 51,17 51,51l0 90c0,34 -17,51 -51,51l-26 0c-34,0 -51,-17 -51,-51l0 -52c0,-8 4,-12 13,-12l25 0c9,0 13,4 13,12l0 39c0,9 4,13 13,13 8,0 13,-4 13,-13l0 -64c0,-9 -5,-13 -13,-13l-13 0c-34,0 -51,-17 -51,-51l0 -90zm179 282c-8,0 -12,-4 -12,-13l0 -115c0,-9 -3,-13 -7,-13 -4,0 -6,-4 -6,-13l0 -26c0,-8 2,-13 6,-14 4,-1 7,-5 7,-11l0 -116c0,-8 4,-13 12,-13l26 0c9,0 13,5 13,13l0 102c0,8 3,11 10,10l19 -4c6,-2 9,2 9,10l0 26c0,9 -3,14 -9,15l-19 4c-7,2 -10,7 -10,17l0 77c0,9 4,13 13,13l13 0c8,0 12,4 12,13l0 25c0,9 -4,13 -12,13l-65 0zm103 -282c0,-35 17,-52 51,-52l26 0c34,0 51,17 51,52l0 231c0,34 -17,51 -51,51l-26 0c-34,0 -51,-17 -51,-51l0 -231zm64 0c-9,0 -13,4 -13,13l0 205c0,9 4,13 13,13 9,0 13,-4 13,-13l0 -205c0,-9 -4,-13 -13,-13zm206 -52c8,0 12,5 12,13l0 308c0,9 -4,13 -12,13l-26 0c-9,0 -13,-4 -13,-13l0 -308c0,-8 4,-13 13,-13l26 0zm141 0c8,0 13,5 13,13l0 26c0,8 -4,13 -13,13l-13 0c-9,0 -13,4 -13,13l0 256c0,9 -4,13 -13,13l-25 0c-9,0 -13,-4 -13,-13l0 -256c0,-9 -4,-13 -13,-13l-13 0c-8,0 -13,-5 -13,-13l0 -26c0,-8 5,-13 13,-13l52 0 51 0z"/>
 </g>
</svg>
