<?xml version="1.0" encoding="utf-8"?>
<!-- Generator: Adobe Illustrator 22.1.0, SVG Export Plug-In . SVG Version: 6.00 Build 0)  -->
<svg version="1.1" id="Warstwa_1" xmlns="http://www.w3.org/2000/svg" xmlns:xlink="http://www.w3.org/1999/xlink" x="0px" y="0px"
	 viewBox="0 0 1104 370.4" style="enable-background:new 0 0 1104 370.4;" xml:space="preserve">
<style type="text/css">
	.st0{fill:#1D1D1B;}
	.st1{fill:#D03A8C;}
	.st2{fill:#64B237;}
	.st3{fill:#7B2D85;}
</style>
<title>Logo_PSC_color</title>
<g id="_Group_">
	<g id="_Group_2">
		<path id="_Compound_Path_" class="st0" d="M881.1,145.7c-3.9-5.2-10.6-7.9-20.1-7.9c-3.7,0-7.3,0.4-10.9,1.1
			c-3.9,1-7.6,2.6-10.9,4.9c-3.8,2.5-7.2,5.6-9.9,9.3c-2.7,3.6-5,7.5-6.6,11.8c-1.6,4.1-2.7,8.4-3.1,12.8c-1.2,7,0.8,14.2,5.6,19.5
			c5.4,5,12.7,7.5,20.1,7c3.7,0,7.5-0.5,11.1-1.4c4.1-1.2,7.9-3.1,11.3-5.6c4-2.8,7.4-6.2,10.2-10.3c2.5-3.6,4.5-7.5,5.9-11.7
			c1.1-3.3,1.8-6.7,2.2-10.1C886.7,158.2,885.1,151.3,881.1,145.7z M867,164.9c-0.6,3.2-1.5,6.3-2.7,9.4c-1.4,4.1-3.7,7.8-6.7,10.9
			c-2.5,2.7-6.1,4.3-9.8,4.3c-2.9,0.2-5.6-1-7.5-3.2c-1.7-2.3-2.4-5.3-2-8.1c0.5-3.9,1.5-7.6,3-11.2c1.4-4,3.7-7.6,6.7-10.6
			c2.5-2.5,5.9-4,9.4-4c2.8-0.1,5.4,1.1,7.3,3.2C866.8,158.2,867.6,161.6,867,164.9z"/>
		<polygon id="_Path_" class="st0" points="437.7,138.9 433,154.7 412.8,154.7 398,203 378.8,203 393.5,154.7 374.2,154.7 
			379,138.9 437.7,138.9 		"/>
		<path id="_Compound_Path_2" class="st0" d="M493.9,143.9c-3.3-3.6-8.1-5.5-12.9-4.9h-35.3l-19.4,64h19.3l7.8-26.1h1
			c1.5-0.1,2.9,0.4,4.1,1.3c2.1,2.9,3.5,6.1,4.3,9.6c1.7,5.5,3.3,10.6,4.5,15.2h20.5c-4-14.6-7.8-23.7-11.4-26.9
			c5.7-0.6,11-3.2,15.1-7.3c3.2-3.6,5.2-8.2,5.6-13.1C497.5,151.5,496.4,147.2,493.9,143.9z M478.6,157.2c-0.2,1.5-0.8,2.8-1.7,4
			c-1.1,1.4-2.6,2.5-4.3,2.9c-3.9,0.8-7.9,1.1-11.9,0.9H457l3.9-13h9.8c2.3-0.3,4.7,0.2,6.7,1.4
			C478.4,154.4,478.8,155.8,478.6,157.2z"/>
		<path id="_Compound_Path_3" class="st0" d="M556.3,202.9l-3.6-64.1h-20.5l-41.3,64.1h20.7l5.9-10.5h20.3v10.5H556.3z M525,178.8
			l12.9-23.2l0,0l-0.4,23.3L525,178.8z"/>
		<polygon id="_Path_2" class="st0" points="642.1,138.9 622.5,203 604.6,203 592.8,165.8 592.6,165.8 581.3,203 563.3,203 
			582.8,138.9 600.8,138.9 612.5,176.3 612.6,176.3 624,138.9 642.1,138.9 		"/>
		<path id="_Path_3" class="st0" d="M696.3,156.7l-18.2,1c0.6-4-2-7.7-6-8.4c-0.7-0.1-1.5-0.1-2.2,0c-1.9-0.1-3.8,0.4-5.4,1.5
			c-1.2,0.8-2,2.2-2.2,3.6c-0.1,1.1,0.4,2.2,1.2,2.9c2,1.6,4.3,2.8,6.7,3.6c3.8,1.5,7.4,3.3,10.9,5.3c2.7,1.6,4.9,3.8,6.6,6.4
			c1.7,3,2.4,6.5,1.9,9.9c-0.4,3.8-1.8,7.4-4,10.4c-2.5,3.4-5.8,6.1-9.5,7.9c-5.2,2.3-10.8,3.4-16.5,3.1c-9.9,0-16.7-1.9-20.4-5.9
			c-3.8-4-5.5-9.6-4.7-15v-1.5l18.2-1.3c-0.6,2.9,0,6,1.7,8.5c1.8,1.8,4.3,2.7,6.8,2.5c2.6,0.2,5.2-0.6,7.3-2.1
			c1.6-1.1,2.6-2.8,2.8-4.7c0.1-1.3-0.3-2.6-1.2-3.6c-2.1-1.8-4.6-3.1-7.3-3.9c-8.8-3.4-14.3-6.5-16.4-9.4c-2.1-3-3.1-6.7-2.6-10.3
			c0.4-3.7,1.8-7.3,4.1-10.3c2.4-3.2,5.7-5.6,9.4-7.1c4.4-1.8,9.1-2.6,13.9-2.5c16.8,0,25.2,6.3,25,18.9H696.3z"/>
		<polygon id="_Path_4" class="st0" points="729,138.9 709.5,203 690,203 709.5,138.9 729,138.9 		"/>
		<polygon id="_Path_5" class="st0" points="795.7,138.9 791,154.7 770.8,154.7 756.1,203 736.8,203 751.5,154.7 732.2,154.7 
			737,138.9 795.7,138.9 		"/>
		<polygon id="_Path_6" class="st0" points="823.2,138.9 803.7,203 784.3,203 803.7,138.9 823.2,138.9 		"/>
		<polygon id="_Path_7" class="st0" points="961.2,138.9 941.6,203 923.7,203 911.8,165.8 911.7,165.8 900.4,203 882.3,203 
			901.9,138.9 919.9,138.9 931.5,176.3 931.7,176.3 943.1,138.9 961.2,138.9 		"/>
		<g id="_Group_3">
			<polygon id="_Path_8" class="st0" points="384,232.3 384,218.4 378.8,218.4 378.8,216.5 391.2,216.5 391.2,218.4 386,218.4 
				386,232.3 384,232.3 			"/>
			<polygon id="_Path_9" class="st0" points="429.4,232.3 429.4,216.5 440.8,216.5 440.8,218.4 431.5,218.4 431.5,223.2 
				440.2,223.2 440.2,225.1 431.5,225.1 431.5,230.4 441.2,230.4 441.2,232.3 429.4,232.3 			"/>
			<path id="_Path_10" class="st0" d="M491.2,226.7l2.1,0.5c-0.3,1.5-1.2,2.9-2.4,3.9c-1.2,0.9-2.7,1.4-4.1,1.3
				c-1.5,0.1-2.9-0.3-4.1-1.1c-1.1-0.7-1.9-1.8-2.4-3c-0.6-1.3-0.8-2.8-0.8-4.2c0-1.5,0.3-3,0.9-4.3c0.6-1.2,1.5-2.2,2.7-2.8
				c1.1-0.6,2.4-0.9,3.6-0.9c1.4,0,2.8,0.4,4,1.2c1.1,0.8,1.9,2,2.3,3.4l-2.1,0.5c-0.2-1-0.8-1.9-1.6-2.5c-0.8-0.6-1.7-0.8-2.6-0.8
				c-1.1,0-2.1,0.3-3,0.9c-0.8,0.6-1.4,1.4-1.7,2.3c-0.3,1-0.5,2-0.5,3.1c0,1.2,0.2,2.5,0.6,3.6c0.3,0.9,1,1.7,1.8,2.2
				c0.8,0.5,1.7,0.8,2.7,0.8c1.1,0,2.1-0.3,2.9-1c0.9-0.8,1.5-1.8,1.7-3L491.2,226.7z"/>
			<polygon id="_Path_11" class="st0" points="531.4,232.3 531.4,216.5 533.5,216.5 533.5,223 541.7,223 541.7,216.5 543.8,216.5 
				543.8,232.3 541.7,232.3 541.7,224.8 533.5,224.8 533.5,232.3 531.4,232.3 			"/>
			<polygon id="_Path_12" class="st0" points="581.9,232.3 581.9,216.5 584,216.5 592.3,228.9 592.3,216.5 594.3,216.5 594.3,232.3 
				592.2,232.3 583.9,219.9 583.9,232.3 581.9,232.3 			"/>
			<path id="_Compound_Path_4" class="st0" d="M646.6,220.2c-0.6-1.2-1.5-2.2-2.7-2.9c-3-1.8-6.9-1.3-9.4,1.2
				c-1.5,1.7-2.2,3.9-2.1,6.1c0,1.3,0.3,2.6,0.8,3.8c0.6,1.2,1.5,2.2,2.7,2.9c1.2,0.7,2.6,1.1,4,1.1c1.3,0,2.5-0.4,3.6-1
				c1.2-0.6,2.2-1.7,2.8-2.9c1.2-2.7,1.2-5.8,0-8.5L646.6,220.2z M643.9,229.1c-2,2.1-5.4,2.2-7.5,0.2c-0.1-0.1-0.1-0.1-0.2-0.2
				c-1.1-1.2-1.7-2.9-1.6-4.5c-0.2-1.8,0.4-3.7,1.6-5.1c1-1,2.3-1.5,3.6-1.5c1,0,2,0.3,2.8,0.8c0.9,0.5,1.5,1.3,1.9,2.2
				c0.4,1.1,0.6,2.2,0.6,3.3C645.4,226.1,644.9,227.7,643.9,229.1z"/>
			<polygon id="_Path_13" class="st0" points="685.7,232.3 685.7,216.5 687.8,216.5 687.8,230.4 695.5,230.4 695.5,232.3 
				685.7,232.3 			"/>
			<path id="_Compound_Path_5" class="st0" d="M747.9,220.2c-0.6-1.2-1.5-2.2-2.7-2.9c-1.2-0.7-2.5-1.1-3.9-1.1
				c-2-0.1-4,0.8-5.4,2.2c-1.5,1.7-2.2,3.9-2.1,6.1c0,1.4,0.3,2.7,0.9,4c0.6,1.2,1.5,2.2,2.7,2.9c1.2,0.7,2.6,1.1,4,1.1
				c1.3,0,2.7-0.3,3.8-1c1.2-0.6,2.2-1.7,2.8-2.9C749.1,226,749.1,222.9,747.9,220.2L747.9,220.2z M745.1,229.1
				c-1,1.1-2.4,1.7-3.9,1.7c-1.5,0-2.9-0.6-3.9-1.6c-1.1-1.2-1.6-2.9-1.5-4.5c-0.2-1.8,0.4-3.7,1.6-5.1c1-1,2.3-1.5,3.6-1.5
				c1,0,2,0.3,2.8,0.8c1,0.5,1.8,1.3,2.2,2.3c0.5,1.1,0.7,2.2,0.7,3.3C746.8,226.2,746.2,227.8,745.1,229.1z"/>
			<path id="_Path_14" class="st0" d="M794.8,226.1v-1.9h6.7v5.9c-1,0.8-2,1.4-3.2,1.9c-1.1,0.4-2.2,0.6-3.3,0.6
				c-1.5,0-2.9-0.3-4.2-1c-1.2-0.6-2.2-1.6-2.9-2.9c-0.7-1.3-1-2.7-1-4.2c0-1.5,0.3-3,1-4.3c0.6-1.3,1.5-2.3,2.8-2.9
				c1.3-0.7,2.7-1,4.1-1c1.1,0,2.1,0.2,3.1,0.5c0.8,0.3,1.6,0.9,2.2,1.5c0.6,0.8,1,1.7,1.2,2.6l-1.9,0.5c-0.2-0.7-0.5-1.3-0.9-1.9
				c-0.4-0.5-0.9-0.9-1.5-1.1c-0.7-0.3-1.4-0.4-2.1-0.4c-0.8,0-1.7,0.1-2.5,0.4c-0.6,0.3-1.2,0.6-1.7,1.1c-0.3,0.5-0.6,1-0.9,1.5
				c-0.4,1-0.6,2.1-0.6,3.2c-0.1,1.3,0.2,2.5,0.7,3.6c0.4,0.9,1.2,1.7,2.1,2.1c0.9,0.5,1.9,0.7,3,0.7c0.9,0,1.8-0.2,2.6-0.5
				c0.7-0.3,1.4-0.7,2-1.1v-2.9L794.8,226.1z"/>
			<polygon id="_Path_15" class="st0" points="839.6,232.3 839.6,216.5 841.8,216.5 841.8,232.3 839.6,232.3 			"/>
			<polygon id="_Path_16" class="st0" points="879.9,232.3 879.9,216.5 891.3,216.5 891.3,218.4 882,218.4 882,223.2 890.7,223.2 
				890.7,225.1 882,225.1 882,230.4 891.6,230.4 891.6,232.3 879.9,232.3 			"/>
			<path id="_Path_17" class="st0" d="M929.8,227.2h2c0,0.7,0.3,1.4,0.7,1.9c0.4,0.5,0.9,1,1.6,1.2c0.8,0.3,1.6,0.5,2.4,0.5
				c0.7,0,1.4-0.1,2.1-0.3c0.5-0.2,1-0.5,1.3-1c0.3-0.4,0.4-0.9,0.4-1.3c0-0.5-0.1-0.9-0.4-1.3c-0.4-0.4-0.8-0.7-1.4-0.9
				c-0.9-0.3-1.9-0.6-2.8-0.8c-1-0.2-2-0.5-3-0.9c-0.7-0.3-1.3-0.9-1.7-1.5c-0.4-0.6-0.6-1.3-0.6-2c0-0.8,0.3-1.6,0.7-2.2
				c0.5-0.7,1.2-1.3,2-1.6c1.9-0.8,4.1-0.8,6,0c0.8,0.3,1.5,0.9,2,1.6c0.5,0.7,0.8,1.6,0.8,2.5h-2c0-0.9-0.4-1.7-1.1-2.3
				c-0.8-0.6-1.8-0.9-2.7-0.8c-1-0.1-1.9,0.2-2.8,0.7c-0.5,0.4-0.8,1-0.8,1.7c0,0.5,0.2,1,0.6,1.4c1,0.6,2,1,3.2,1.1
				c1.2,0.2,2.5,0.6,3.6,1c0.8,0.4,1.5,0.9,2,1.6c0.4,0.7,0.7,1.5,0.7,2.3c0,0.8-0.3,1.7-0.7,2.4c-0.5,0.8-1.2,1.4-2.1,1.7
				c-1,0.4-2,0.6-3,0.6c-1.2,0-2.5-0.2-3.6-0.6c-0.9-0.4-1.7-1.1-2.3-1.9c-0.6-0.8-0.9-1.8-0.9-2.8L929.8,227.2z"/>
		</g>
	</g>
	<g id="_Group_4">
		<path id="_Compound_Path_6" class="st1" d="M168.5,251v-41.3c-0.3-2.9,1.9-5.5,4.8-5.8c0.2,0,0.5,0,0.7,0c2.5-0.1,4.7,1.6,5.2,4
			l0,0c2.3-3,6-4.6,9.8-4.4c6-0.1,11.4,3.8,13.1,9.6c1,3.3,1.5,6.7,1.3,10.2c0.1,3.4-0.3,6.9-1.3,10.2c-1.7,5.8-7.1,9.7-13.1,9.6
			c-3.7,0.3-7.3-1.2-9.6-4.1l0,0v12c0.3,3-1.8,5.7-4.8,6.1c-3,0.3-5.7-1.8-6.1-4.8C168.5,251.9,168.5,251.5,168.5,251L168.5,251z
			 M191.8,229.5c0.6-2,0.8-4.1,0.7-6.2c0.1-2.1-0.2-4.1-0.7-6.2c-0.9-3.2-4.2-5.1-7.4-4.2c-2,0.6-3.6,2.2-4.2,4.2
			c-0.5,2-0.8,4.1-0.7,6.2c-0.1,2.1,0.2,4.2,0.7,6.2c1,3.2,4.3,5,7.6,4.1C189.7,233,191.2,231.5,191.8,229.5z"/>
		<path id="_Compound_Path_7" class="st1" d="M208.4,239.5c-1.6-0.8-2.7-2.5-2.7-4.4c0-2.5,2.1-4.4,4.5-4.4c0,0,0,0,0,0
			c1.1,0.1,2.2,0.4,3.2,1c2.8,1.8,6,2.7,9.3,2.8c4,0,5.9-1.4,5.9-3.6s-1-2.7-5.5-3.2l-4.1-0.5c-8.2-0.9-12.3-5-12.3-11.6
			c0-7.3,5.7-12.2,15.6-12.2c4-0.1,7.9,0.8,11.5,2.5c2.1,1.1,3.2,2.4,3.2,4.3c0.1,2.3-1.7,4.2-4,4.3c-0.1,0-0.2,0-0.3,0
			c-1.1-0.1-2.2-0.4-3.1-0.9c-2.4-1.1-5-1.7-7.6-1.6c-3.4,0-4.8,1.2-4.8,3s0.9,2.7,5.2,3.1l4.1,0.5c8.9,1,12.6,5.2,12.6,11.5
			c0,7.8-6.2,13-16.9,13C217.4,243.2,212.6,242,208.4,239.5z"/>
		<path id="_Compound_Path_8" class="st1" d="M242.6,232.3c-1.7-5.9-1.7-12.1,0-18c2.1-7,8.8-11.5,16.1-10.9
			c4.4-0.2,8.6,1.3,11.9,4.1c1.3,1.1,2.1,2.7,2.2,4.4c0.1,2.5-1.9,4.6-4.5,4.7c-0.1,0-0.2,0-0.3,0c-1.7-0.2-3.3-1-4.4-2.3
			c-1.3-1.2-3-1.8-4.7-1.7c-2.7-0.2-5.1,1.5-5.7,4.1c-0.6,2.1-0.8,4.2-0.7,6.4c-0.1,2.2,0.1,4.3,0.7,6.4c0.6,2.6,3,4.4,5.7,4.1
			c1.7,0.1,3.4-0.5,4.7-1.7c1.1-1.3,2.7-2.1,4.4-2.3c2.5-0.1,4.7,1.9,4.8,4.4c0,0.1,0,0.2,0,0.3c-0.1,1.7-0.9,3.3-2.2,4.4
			c-3.3,2.9-7.5,4.4-11.9,4.1C251.5,243.6,244.9,239.2,242.6,232.3z"/>
	</g>
	<g id="_Group_5">
		<path id="_Compound_Path_9" class="st2" d="M272,251.8c-0.1-2.6,1.9-4.7,4.5-4.8c0.2,0,0.4,0,0.6,0h27.9c2.6,0,4.8,2.1,4.8,4.8
			c0,2.6-2.1,4.8-4.8,4.8c0,0,0,0,0,0H277c-2.5,0.2-4.8-1.6-5-4.2C272,252.2,271.9,252,272,251.8z"/>
	</g>
	<path id="_Compound_Path_10" class="st3" d="M315.2,279.1H158.3c-8.5,0-15.4-6.9-15.5-15.5V106.8c0-8.5,6.9-15.4,15.5-15.5h156.9
		c8.5,0,15.4,6.9,15.5,15.5v156.9C330.7,272.2,323.8,279.1,315.2,279.1z M158.3,101c-3.1,0.1-5.4,2.7-5.4,5.7v156.9
		c0,3.1,2.5,5.5,5.6,5.6h156.7c3.1,0,5.5-2.5,5.6-5.6V106.8c0.1-3.1-2.4-5.7-5.5-5.7c0,0,0,0-0.1,0H158.3z"/>
</g>
</svg>
