<svg id="Artboard1" xmlns="http://www.w3.org/2000/svg" width="1024" height="768" viewBox="0 0 1024 768">
  <defs>
    <style>
      .cls-1 {
        fill: #fff;
      }

      .cls-1, .cls-2, .cls-3, .cls-4, .cls-5, .cls-6 {
        fill-rule: evenodd;
      }

      .cls-2 {
        fill: #999;
      }

      .cls-3 {
        fill: #f99;
      }

      .cls-4 {
        fill: #c99;
      }

      .cls-5 {
        fill: #fcc;
      }

      .cls-6 {
        fill: #333;
      }
    </style>
  </defs>
  <g id="Wariant_1" data-name="Wariant 1">
    <path class="cls-1" d="M1024,0H0V768H1024V0Z"/>
    <path class="cls-2" d="M443.7,516.4a167.734,167.734,0,0,1-131.913,64.011c-92.722,0-168-75.283-168-168.011s75.278-168.011,168-168.011A167.734,167.734,0,0,1,443.7,308.4H422.6a152,152,0,1,0,0,208h21.1Z"/>
    <g>
      <path class="cls-3" d="M215.66,250.278h0l29.459,110.964-114.808.011,56.9-73.983-9.82-36.989ZM187.21,287.27l-38.27,0,28.45-36.992Z"/>
      <path class="cls-4" d="M148.94,287.273l38.27,0-28.45,36.991Z"/>
      <path class="cls-4" d="M168.075,287.271H187.21l-14.225,18.5Z"/>
      <path class="cls-3" d="M120.491,324.265l38.269,0-28.449,36.992Z"/>
      <path class="cls-5" d="M144.536,342.757l-4.91-18.494-14.225,18.5Z"/>
      <path class="cls-5" d="M168.58,361.25l-9.82-36.989-28.449,36.992Z"/>
      <path class="cls-4" d="M158.76,324.261l38.27,0L168.58,361.25Z"/>
      <path class="cls-5" d="M172.985,305.765l38.27,0-28.45,36.992Z"/>
      <path class="cls-4" d="M192.12,305.764l19.135,0-14.225,18.5Z"/>
      <path class="cls-5" d="M230.39,305.76l-4.91-18.494-14.225,18.5Z"/>
      <path class="cls-5" d="M216.165,324.256l-4.91-18.494-14.225,18.5Z"/>
      <path class="cls-5" d="M228.187,333.5l-4.91-18.494-14.225,18.5Z"/>
      <path class="cls-4" d="M206.85,361.246l-9.82-36.988L168.58,361.25Z"/>
      <path class="cls-5" d="M245.119,361.242l-9.82-36.988L206.85,361.246Z"/>
      <path class="cls-5" d="M158.76,324.261l-9.82-36.988-28.449,36.992Z"/>
      <path class="cls-4" d="M134.716,305.769l38.269,0-28.449,36.992Z"/>
    </g>
    <g>
      <path class="cls-6" d="M371.2,401.6l23.1-70H376.1l-13.5,51.5-13.7-51.5H331.5l-13.4,51.5-13.7-51.5h-19l22.9,70h18.4l13.2-48.4,13,48.4h18.3Z"/>
      <path class="cls-6" d="M433.6,331c-21.6,0-37.8,15.1-37.8,35.5,0,20.5,16.2,35.9,37.8,35.9,21.7,0,37.9-15.5,37.9-35.9C471.5,346.2,455.3,331,433.6,331Zm0.2,14.9c10.8,0,19.4,8.9,19.4,20.7s-8.6,20.9-19.4,20.9c-10.7,0-19.8-9.1-19.8-20.9S423,345.9,433.8,345.9Z"/>
      <path class="cls-6" d="M557.8,401.6V331.5H538.4l-19,41.7-19-41.7H480.9v70.1h15.9V356.1l16.8,38.5h11.6L542,356.1l0.1,45.5h15.7Z"/>
      <path class="cls-6" d="M626.7,345.6v-14H571.9v70h55.9v-14H589.7V373.5h33.4v-14H589.7V345.6h37Z"/>
      <path class="cls-6" d="M703.9,401.6v-70H687.3v43.2L655,331.6H639.3v70H656V358.5l32.2,43.1h15.7Z"/>
      <path class="cls-6" d="M758.9,401.6v-70H741.1v70h17.8Z"/>
      <path class="cls-6" d="M837.5,401.6v-70H820.9v43.2l-32.3-43.2H772.9v70h16.7V358.5l32.2,43.1h15.7Z"/>
      <path class="cls-6" d="M258.05,437.9V423.5h-59.8v14.4h20.9v55.7h17.8V437.9h21.1Z"/>
      <path class="cls-6" d="M320.45,437.6v-14h-54.8v70h55.9v-14h-38.1V465.5h33.4v-14h-33.4V437.6h37Z"/>
      <path class="cls-6" d="M365.85,423c-21.3,0-37.4,15.2-37.4,35.4,0,20.5,15.7,36,36.8,36,10.3,0,21.4-5.1,28.9-12.8l-10.4-11c-4.9,5-11.7,8.2-17.6,8.2-11.1,0-19.5-8.9-19.5-20.6,0-11.5,8.4-20.3,19.5-20.3,6.2,0,13,3.5,17.6,9.1l10.3-12.2A40.649,40.649,0,0,0,365.85,423Z"/>
      <path class="cls-6" d="M466.85,493.6v-70h-17.8v28.8h-29V423.6h-17.8v70h17.8V466.4h29v27.2h17.8Z"/>
      <path class="cls-6" d="M545.45,493.6v-70h-16.6v43.2l-32.3-43.2h-15.7v70h16.7V450.5l32.2,43.1h15.7Z"/>
      <path class="cls-6" d="M592.65,423c-21.6,0-37.8,15.1-37.8,35.5,0,20.5,16.2,35.9,37.8,35.9,21.7,0,37.9-15.5,37.9-35.9C630.55,438.2,614.35,423,592.65,423Zm0.2,14.9c10.8,0,19.4,8.9,19.4,20.7s-8.6,20.9-19.4,20.9c-10.7,0-19.8-9.1-19.8-20.9S582.05,437.9,592.85,437.9Z"/>
      <path class="cls-6" d="M657.75,478.7V423.6h-17.8v70h47.5V478.7h-29.7Z"/>
      <path class="cls-6" d="M729.15,423c-21.6,0-37.8,15.1-37.8,35.5,0,20.5,16.2,35.9,37.8,35.9,21.7,0,37.9-15.5,37.9-35.9C767.05,438.2,750.85,423,729.15,423Zm0.2,14.9c10.8,0,19.4,8.9,19.4,20.7s-8.6,20.9-19.4,20.9c-10.7,0-19.8-9.1-19.8-20.9S718.55,437.9,729.35,437.9Z"/>
      <path class="cls-6" d="M821.65,458v18.1a29.747,29.747,0,0,1-12.4,3.4c-11.6,0-20.5-9-20.5-20.9,0-11.7,8.8-20.7,20.3-20.7a28.731,28.731,0,0,1,18.7,7.6l10-12.1c-7.2-6.4-18.2-10.4-28.6-10.4-22.1,0-38.6,15.3-38.6,35.6,0,20.4,16.1,35.8,37.4,35.8,9.8,0,21.6-3.8,29.1-9.1V458h-15.4Z"/>
      <path class="cls-6" d="M885.55,471l25.4-47.4h-17.8l-16.5,30.5-16.9-30.5h-17.8l25.9,47.9v22.1h17.7V471Z"/>
    </g>
  </g>
</svg>
