<?xml version="1.0" encoding="utf-8"?>
<!-- Generator: Adobe Illustrator 22.1.0, SVG Export Plug-In . SVG Version: 6.00 Build 0)  -->
<svg version="1.1" id="Layer_1" xmlns="http://www.w3.org/2000/svg" xmlns:xlink="http://www.w3.org/1999/xlink" x="0px" y="0px"
	 viewBox="0 0 229.5 73" style="enable-background:new 0 0 229.5 73;" xml:space="preserve">
<style type="text/css">
	.st0{fill:#0D109C;}
	.st1{fill:#00D8FF;}
	.st2{fill:#E74B19;}
	.st3{fill:#0F10A7;}
</style>
<g>
	<path class="st0" d="M120.3,36.9c-1.1,1.3-2.6,1.9-4.6,1.9c-1.9,0-3.4-0.6-4.5-1.9c-1.1-1.3-1.7-3.4-1.7-6.3c0-3,0.6-5.1,1.7-6.4
		c1.1-1.3,2.6-1.9,4.4-1.9c1.9,0,3.4,0.6,4.6,1.9c1.1,1.3,1.7,3.3,1.7,6C121.9,33.4,121.4,35.7,120.3,36.9z M92.1,26.4
		c-0.4,0.5-0.9,0.8-1.5,0.9c-1.2,0.3-2,0.4-2.4,0.4h-3.9v-5.9h4c1.7,0,2.8,0.3,3.4,0.8s0.9,1.2,0.9,2.2C92.7,25.4,92.5,26,92.1,26.4
		z M148.8,33.1c-0.4,1.8-1.1,3.2-1.9,4.2c-0.9,1-2.2,1.4-4,1.4s-3.2-0.6-4.2-1.8c-1-1.2-1.5-3.4-1.5-6.6c0-2.6,0.4-4.5,1.3-5.7
		c1.1-1.6,2.7-2.4,4.8-2.4c0.9,0,1.7,0.2,2.5,0.6c0.7,0.4,1.4,0.9,1.9,1.6c0.3,0.4,0.6,1.1,0.9,1.9l8.1-1.8c-1-3.1-2.6-5.3-4.8-6.8
		c-2.1-1.5-5.1-2.2-8.8-2.2c-4.8,0-8.5,1.3-11.1,3.9c-1,1-1.8,2.1-2.4,3.4c-0.6-1.3-1.4-2.4-2.5-3.4c-2.7-2.6-6.5-3.9-11.4-3.9
		c-4.8,0-8.6,1.3-11.2,4c-1.1,1.1-1.9,2.3-2.6,3.6c-0.1-1.4-0.6-2.7-1.3-3.8c-0.9-1.3-2.1-2.2-3.6-2.6c-1.6-0.5-3.8-0.7-6.6-0.7
		H67.6l-3.1,16.2L59.8,16h-8.6l-4.6,16.2L43.5,16h-8.7l6.6,29h9l5.2-18.3L60.7,45h9l5.5-24.4V45h9.2V33.2h0.8c0.8,0,1.6,0.2,2.2,0.7
		c0.5,0.3,1,1.1,1.7,2.2L94,45h10.3l-4.4-8.4c-0.2-0.4-0.6-1-1.3-1.8c-0.6-0.8-1.1-1.3-1.5-1.5c-0.5-0.4-1.3-0.7-2.4-1.1
		c1.4-0.3,2.4-0.7,3.2-1.1c1-0.6,1.8-1.3,2.5-2.2c0,0.6-0.1,1.1-0.1,1.7c0,3.4,0.7,6.2,2,8.5c1.4,2.3,3.1,3.9,5.3,4.9
		c2.2,1,5,1.6,8.3,1.6s6-0.6,8.2-1.8s3.9-2.9,5-5.1c0.1-0.2,0.2-0.4,0.3-0.5c0.2,0.4,0.4,0.8,0.7,1.2c1.5,2.3,3.2,3.9,5.3,4.8
		c2,0.9,4.7,1.4,7.9,1.4c2.7,0,4.8-0.4,6.6-1.1c1.7-0.7,3.2-1.9,4.3-3.3c1.2-1.5,2-3.3,2.5-5.5C156.8,35.5,148.8,33.1,148.8,33.1z
		 M190.6,39.5h-5.8l1.2-6h5.8L190.6,39.5z"/>
	<path class="st1" d="M188.6,22.5h-5.8l1.2-6h5.8L188.6,22.5z"/>
	<path class="st2" d="M184.6,39.5h-5.8l1.2-6h5.8L184.6,39.5z"/>
	<path class="st0" d="M183.6,45.5h-5.8l1.2-6h5.8L183.6,45.5z"/>
	<path class="st1" d="M174.6,33.5h-5.8l1.2-6h5.8L174.6,33.5z"/>
	<path class="st0" d="M188,22.2h-11.5l1.2-5.7h-5.8l-1.2,5.7h-5.8l-1.2,5.7H181l-1.2,5.7h5.8l1.2-5.7h5.8l1.2-5.7
		C193.8,22.2,188,22.2,188,22.2z M174.9,33.5h-11.8l-1.3,6h5.9l-1.3,6h5.9l1.3-6h5.9l1.3-6H174.9z"/>
	<path class="st3" d="M35.6,56.8h1.3c0.4,0,0.7,0,0.9-0.1c0.2-0.1,0.4-0.2,0.5-0.3c0.2-0.2,0.3-0.4,0.4-0.8c0.1-0.3,0.2-0.7,0.2-1.2
		c0-0.6-0.1-1.1-0.3-1.4c-0.2-0.3-0.5-0.6-0.8-0.7c-0.2-0.1-0.6-0.1-1-0.1h-1.3L35.6,56.8L35.6,56.8z M34.8,57.5v-6h2.1
		c0.5,0,0.8,0,1.1,0.1s0.6,0.2,0.9,0.4c0.3,0.3,0.6,0.6,0.7,1c0.2,0.4,0.2,0.9,0.2,1.4s-0.1,0.9-0.2,1.2s-0.2,0.6-0.4,0.9
		c-0.2,0.2-0.4,0.4-0.6,0.5s-0.4,0.2-0.7,0.3c-0.3,0.1-0.6,0.1-1,0.1C37,57.5,34.8,57.5,34.8,57.5z M45.8,57.5v-6h3.9v0.7h-3.2V54h3
		v0.7h-3v2h3.3v0.7L45.8,57.5L45.8,57.5z M58.3,57.5l-2.5-6h0.9l1.7,4.4c0.1,0.3,0.3,0.7,0.3,1c0.1-0.3,0.2-0.7,0.4-1l1.8-4.4h0.9
		l-2.6,6H58.3L58.3,57.5z M66.8,57.5v-6h3.9v0.7h-3.2V54h3v0.7h-3v2h3.3v0.7L66.8,57.5L66.8,57.5z M77.8,57.5v-6h0.8v5.3h3.2v0.7
		H77.8z M87.6,54.6c0,0.7,0.2,1.2,0.6,1.7c0.4,0.4,0.9,0.6,1.5,0.6s1.1-0.2,1.5-0.6c0.4-0.4,0.6-1,0.6-1.7c0-0.5-0.1-0.9-0.3-1.2
		c-0.2-0.3-0.4-0.6-0.8-0.8c-0.3-0.2-0.7-0.3-1.1-0.3c-0.6,0-1.1,0.2-1.5,0.6C87.9,53.1,87.6,53.7,87.6,54.6 M86.8,54.6
		c0-1,0.3-1.7,0.8-2.3c0.6-0.5,1.3-0.8,2.2-0.8c0.6,0,1.1,0.1,1.6,0.4c0.5,0.3,0.8,0.6,1.1,1.1c0.2,0.5,0.4,1,0.4,1.6
		s-0.1,1.1-0.4,1.6s-0.6,0.8-1.1,1.1c-0.5,0.2-1,0.4-1.5,0.4c-0.6,0-1.1-0.1-1.6-0.4c-0.5-0.2-0.8-0.6-1.1-1.1
		C86.9,55.6,86.8,55.1,86.8,54.6 M99.5,54.4h1.4c0.4,0,0.8-0.1,1-0.3s0.3-0.5,0.3-0.8s-0.1-0.5-0.2-0.6c-0.1-0.2-0.3-0.3-0.4-0.4
		c-0.1,0-0.3-0.1-0.6-0.1h-1.3C99.5,52.2,99.5,54.4,99.5,54.4z M98.8,57.5v-6h2c0.3,0,0.6,0,0.8,0.1c0.3,0,0.5,0.1,0.6,0.3
		c0.2,0.1,0.3,0.3,0.4,0.6c0.1,0.2,0.2,0.5,0.2,0.8c0,0.5-0.1,0.9-0.4,1.3c-0.3,0.4-0.8,0.5-1.5,0.5h-1.3v2.4
		C99.6,57.5,98.8,57.5,98.8,57.5z M118.3,57.5V55l-2.5-3.5h1.1l1.3,1.8c0.2,0.3,0.5,0.7,0.7,1c0.2-0.3,0.4-0.7,0.7-1.1l1.3-1.8h1
		l-2.7,3.6v2.5H118.3z M127.6,54.6c0,0.7,0.2,1.2,0.6,1.7c0.4,0.4,0.9,0.6,1.5,0.6c0.6,0,1.1-0.2,1.5-0.6c0.4-0.4,0.6-1,0.6-1.7
		c0-0.5-0.1-0.9-0.3-1.2c-0.2-0.3-0.4-0.6-0.8-0.8c-0.3-0.2-0.7-0.3-1.1-0.3c-0.6,0-1.1,0.2-1.5,0.6
		C127.9,53.1,127.6,53.7,127.6,54.6 M126.8,54.6c0-1,0.3-1.7,0.8-2.3c0.6-0.5,1.3-0.8,2.2-0.8c0.6,0,1.1,0.1,1.6,0.4
		c0.5,0.3,0.8,0.6,1.1,1.1c0.2,0.5,0.4,1,0.4,1.6s-0.1,1.1-0.4,1.6s-0.6,0.8-1.1,1.1c-0.5,0.2-1,0.4-1.5,0.4c-0.6,0-1.1-0.1-1.6-0.4
		c-0.5-0.2-0.8-0.6-1.1-1.1C126.9,55.6,126.8,55.1,126.8,54.6 M142.1,51.5h0.7v3.4c0,0.6-0.1,1.1-0.2,1.4c-0.1,0.3-0.3,0.6-0.6,0.9
		c-0.3,0.2-0.7,0.3-1.2,0.3s-0.9-0.1-1.2-0.3c-0.3-0.2-0.5-0.5-0.6-0.8c-0.1-0.4-0.2-0.9-0.2-1.5v-3.4h0.7v3.4c0,0.5,0,0.9,0.1,1.1
		c0.1,0.2,0.2,0.4,0.4,0.6c0.2,0.1,0.4,0.2,0.7,0.2c0.5,0,0.8-0.1,1.1-0.4c0.2-0.3,0.3-0.8,0.3-1.5
		C142.1,54.9,142.1,51.5,142.1,51.5z M149.5,54.1h1.6c0.3,0,0.6,0,0.8-0.1s0.3-0.2,0.4-0.4c0.1-0.2,0.2-0.3,0.2-0.5
		c0-0.3-0.1-0.5-0.3-0.7s-0.5-0.3-0.9-0.3h-1.8L149.5,54.1L149.5,54.1z M148.8,57.5v-6h2.5c0.5,0,0.9,0.1,1.2,0.2
		c0.3,0.1,0.5,0.3,0.6,0.6c0.2,0.3,0.2,0.6,0.2,0.9c0,0.4-0.1,0.8-0.4,1.1s-0.7,0.5-1.2,0.6c0.2,0.1,0.3,0.2,0.5,0.3
		c0.2,0.2,0.4,0.5,0.6,0.8l1,1.6h-0.9l-0.8-1.2c-0.2-0.4-0.4-0.6-0.5-0.8c-0.1-0.2-0.2-0.3-0.4-0.4c-0.1-0.1-0.2-0.1-0.3-0.2
		c-0.1,0-0.3,0-0.4,0h-0.9v2.7h-0.8V57.5z M159.8,55.5l0.8-0.1c0,0.3,0.1,0.5,0.3,0.7c0.1,0.2,0.3,0.3,0.6,0.5
		c0.3,0.1,0.6,0.2,1,0.2c0.3,0,0.6,0,0.8-0.1s0.4-0.2,0.5-0.4c0.1-0.1,0.2-0.3,0.2-0.5s-0.1-0.3-0.2-0.5c-0.1-0.1-0.3-0.3-0.6-0.3
		c-0.2-0.1-0.5-0.2-1.1-0.3s-1-0.2-1.2-0.4c-0.3-0.1-0.5-0.3-0.7-0.5c-0.1-0.2-0.2-0.5-0.2-0.7c0-0.3,0.1-0.6,0.3-0.8
		c0.2-0.3,0.4-0.4,0.8-0.6c0.3-0.1,0.7-0.2,1.2-0.2s0.9,0.1,1.2,0.2c0.4,0.1,0.6,0.3,0.8,0.6s0.3,0.6,0.3,0.9l-0.8,0.1
		c0-0.4-0.2-0.6-0.4-0.8s-0.6-0.3-1.1-0.3s-0.9,0.1-1.1,0.3c-0.2,0.2-0.3,0.4-0.3,0.6c0,0.2,0.1,0.4,0.2,0.5
		c0.2,0.1,0.6,0.3,1.3,0.4c0.7,0.1,1.1,0.3,1.4,0.4c0.4,0.2,0.6,0.4,0.8,0.6c0.2,0.2,0.3,0.5,0.3,0.8s-0.1,0.6-0.3,0.9
		c-0.2,0.3-0.5,0.5-0.8,0.6c-0.4,0.2-0.8,0.2-1.2,0.2c-0.6,0-1-0.1-1.4-0.2c-0.4-0.1-0.7-0.4-0.9-0.7
		C159.9,56.3,159.8,55.9,159.8,55.5 M170.8,57.5v-6h3.9v0.7h-3.2V54h3v0.7h-3v2h3.3v0.7L170.8,57.5L170.8,57.5z M180.8,57.5v-6h0.8
		v5.3h3.2v0.7H180.8z M190.8,57.5v-6h4v0.7h-3.2v1.9h2.8v0.7h-2.8v2.7C191.6,57.5,190.8,57.5,190.8,57.5z"/>
</g>
</svg>
