<svg viewBox="0 0 160 42" xmlns="http://www.w3.org/2000/svg">
  <g fill="none" fill-rule="evenodd">
    <path d="M85.488 21.412c-1.078 1.253-2.6 1.88-4.564 1.88-1.912 0-3.422-.64-4.533-1.92-1.11-1.28-1.666-3.384-1.666-6.312 0-2.956.558-5.073 1.676-6.353 1.117-1.28 2.598-1.92 4.442-1.92 1.926 0 3.45.631 4.574 1.89 1.124 1.26 1.687 3.256 1.687 5.987 0 3.245-.54 5.495-1.616 6.748zM57.342 10.943a2.42 2.42 0 0 1-1.485.91c-1.198.265-2.006.396-2.423.396h-3.856V6.352h4.017c1.67 0 2.808.252 3.413.753.606.501.91 1.22.91 2.156 0 .634-.193 1.195-.576 1.682zm56.641 6.689c-.404 1.834-1.053 3.233-1.948 4.195-.896.964-2.219 1.445-3.969 1.445-1.804 0-3.204-.596-4.2-1.79-.995-1.19-1.494-3.395-1.494-6.61 0-2.596.417-4.5 1.252-5.713 1.104-1.633 2.692-2.45 4.765-2.45.917 0 1.744.184 2.484.554a5.22 5.22 0 0 1 1.878 1.583c.31.41.607 1.056.89 1.939l8.076-1.761c-1.037-3.06-2.622-5.33-4.755-6.808C114.828.74 111.896 0 108.168 0c-4.766 0-8.451 1.29-11.056 3.866-.99.98-1.79 2.123-2.404 3.424a12.147 12.147 0 0 0-2.455-3.401C89.587 1.296 85.79 0 80.863 0c-4.806 0-8.554 1.32-11.246 3.957a12.409 12.409 0 0 0-2.56 3.643c-.134-1.439-.572-2.692-1.325-3.75a6.89 6.89 0 0 0-3.615-2.643C60.623.732 58.462.495 55.635.495H32.772l-3.132 16.22L25.051.494h-8.657l-4.578 16.241L8.688.495H0l6.585 29.01h8.97l5.173-18.265 5.192 18.266h8.97l5.5-24.45v24.45h9.188V17.73h.807c.834 0 1.582.224 2.241.673.485.344 1.037 1.088 1.656 2.237l4.89 8.865h10.336l-4.43-8.407c-.215-.422-.642-1.023-1.282-1.802-.638-.78-1.126-1.288-1.463-1.526-.497-.355-1.291-.712-2.38-1.069 1.36-.303 2.43-.686 3.212-1.148a8.208 8.208 0 0 0 2.475-2.239c-.041.553-.062 1.12-.062 1.705 0 3.39.68 6.214 2.04 8.47 1.359 2.255 3.132 3.905 5.32 4.947C75.125 29.479 77.888 30 81.227 30c3.285 0 6.027-.603 8.229-1.81 2.2-1.207 3.883-2.896 5.048-5.066.092-.171.174-.353.258-.531.203.415.42.818.665 1.198 1.48 2.307 3.24 3.918 5.28 4.835 2.04.916 4.667 1.374 7.885 1.374 2.652 0 4.836-.375 6.552-1.128a11.018 11.018 0 0 0 4.312-3.344c1.157-1.478 2.005-3.317 2.544-5.52l-8.017-2.376zM155.772 24H150l1.227-6H157z" fill="#0D109C"/>
    <path fill="#00D8FF" d="M153.773 7H148l1.227-6H155z"/>
    <path fill="#E74B19" d="M149.773 24H144l1.227-6H151z"/>
    <path fill="#0D109C" d="M148.773 30H143l1.227-6H150z"/>
    <path fill="#00D8FF" d="M139.773 18H134l1.227-6H141z"/>
    <path fill="#0D109C" d="M153.244 6.666h-11.51L142.957 1h-5.756l-1.223 5.666h-5.755L129 12.334h17.266L145.042 18h5.755l1.224-5.666h5.755L159 6.666zM140.086 18h-11.829L127 24h5.914l-1.257 6h5.914l1.257-6h5.915L146 18z"/>
    <path d="M.8 41.292h1.292c.398 0 .711-.037.938-.11a1.35 1.35 0 0 0 .543-.312c.19-.188.337-.44.443-.759.106-.318.159-.703.159-1.156 0-.628-.104-1.11-.311-1.447-.208-.337-.46-.563-.758-.677-.214-.082-.56-.123-1.035-.123H.801v4.584zM0 42v-6h2.083c.47 0 .83.029 1.077.086.347.079.642.222.887.43.319.267.557.609.716 1.025.158.416.237.891.237 1.426 0 .456-.054.86-.161 1.211a2.91 2.91 0 0 1-.413.874c-.167.23-.351.412-.55.545-.2.132-.44.233-.722.3a4.143 4.143 0 0 1-.972.103H0zM11 42v-6h3.876v.708H11.71v1.838h2.965v.703H11.71v2.043H15V42zM23.541 42L21 36h.94l1.705 4.359c.136.349.252.676.344.982.101-.327.22-.655.353-.982L26.114 36H27l-2.568 6h-.89zM32 42v-6h3.876v.708H32.71v1.838h2.965v.703H32.71v2.043H36V42zM43 42v-6h.847v5.292H47V42zM52.856 39.09c0 .698.203 1.249.61 1.65.407.403.916.604 1.53.604.624 0 1.139-.203 1.543-.61.403-.405.605-.982.605-1.728 0-.472-.086-.884-.259-1.236a1.886 1.886 0 0 0-.758-.819 2.18 2.18 0 0 0-1.119-.29c-.587 0-1.093.186-1.517.559-.423.373-.635.996-.635 1.87M52 39.076c0-.962.28-1.716.84-2.26.558-.545 1.28-.817 2.164-.817.58 0 1.101.128 1.567.383.465.256.82.613 1.063 1.07.244.458.366.977.366 1.557a3.21 3.21 0 0 1-.385 1.578c-.257.464-.62.816-1.092 1.054-.47.24-.978.358-1.523.358-.59 0-1.119-.132-1.583-.395a2.63 2.63 0 0 1-1.058-1.08A3.072 3.072 0 0 1 52 39.077M64.694 38.853h1.354c.448 0 .767-.096.955-.287.188-.191.282-.46.282-.806 0-.251-.055-.466-.166-.645a.788.788 0 0 0-.438-.354c-.117-.035-.332-.053-.647-.053h-1.34v2.145zM64 42v-6h1.977c.348 0 .613.019.797.057.257.05.473.143.647.28.174.139.314.331.42.58.106.248.159.521.159.818 0 .51-.142.942-.425 1.296-.284.353-.796.53-1.537.53h-1.344V42H64zM83.523 42v-2.542L81 36h1.054l1.29 1.81c.238.337.46.676.666 1.014.195-.314.434-.667.713-1.06L85.991 36H87l-2.611 3.458V42h-.866zM92.856 39.09c0 .698.203 1.249.61 1.65.407.403.916.604 1.53.604.624 0 1.139-.203 1.543-.61.403-.405.605-.982.605-1.728 0-.472-.086-.884-.259-1.236a1.886 1.886 0 0 0-.758-.819 2.18 2.18 0 0 0-1.119-.29c-.587 0-1.093.186-1.517.559-.423.373-.635.996-.635 1.87M92 39.076c0-.962.28-1.716.84-2.26.558-.545 1.28-.817 2.164-.817.58 0 1.101.128 1.567.383.465.256.82.613 1.063 1.07.244.458.366.977.366 1.557a3.21 3.21 0 0 1-.385 1.578c-.257.464-.62.816-1.092 1.054-.47.24-.978.358-1.523.358-.59 0-1.119-.132-1.583-.395a2.63 2.63 0 0 1-1.058-1.08A3.072 3.072 0 0 1 92 39.077M107.327 36H108v3.409c0 .592-.058 1.064-.173 1.412a1.687 1.687 0 0 1-.627.851c-.302.219-.698.328-1.188.328-.476 0-.866-.095-1.169-.286a1.566 1.566 0 0 1-.649-.827c-.13-.36-.194-.853-.194-1.478V36h.673v3.405c0 .512.041.89.123 1.132.082.243.224.43.423.562.2.131.445.197.734.197.495 0 .847-.13 1.058-.39.21-.26.316-.761.316-1.501V36zM114.75 38.648h1.614c.344 0 .612-.038.805-.112a.864.864 0 0 0 .441-.36c.1-.166.152-.345.152-.539a.916.916 0 0 0-.293-.7c-.195-.183-.502-.274-.922-.274h-1.796v1.985zM114 42v-6h2.516c.505 0 .89.054 1.153.161.262.109.473.299.63.572.157.272.236.574.236.904 0 .426-.13.785-.39 1.077-.261.292-.663.477-1.207.556.198.1.349.2.452.299.22.213.427.479.623.798L119 42h-.944l-.751-1.248c-.22-.36-.4-.636-.542-.827a1.754 1.754 0 0 0-.38-.401 1.105 1.105 0 0 0-.344-.16 2.156 2.156 0 0 0-.418-.029h-.87V42H114zM125 40.037l.784-.063c.037.29.123.528.26.714.135.186.345.337.631.451.286.115.607.173.964.173.317 0 .597-.044.84-.131.243-.087.423-.206.542-.358a.79.79 0 0 0 .178-.497.718.718 0 0 0-.172-.477c-.114-.135-.302-.25-.565-.342-.169-.06-.542-.155-1.118-.283-.577-.128-.982-.249-1.213-.362-.3-.145-.523-.326-.67-.54a1.25 1.25 0 0 1-.221-.723c0-.293.09-.566.27-.82.18-.256.443-.449.788-.581.346-.132.73-.198 1.153-.198.465 0 .876.07 1.231.208.356.139.63.342.82.611.192.27.295.574.31.915l-.798.055c-.042-.367-.188-.643-.434-.831-.247-.187-.612-.281-1.095-.281-.503 0-.869.085-1.099.255-.23.17-.345.376-.345.615 0 .21.081.38.244.515.16.135.578.272 1.254.414.675.14 1.138.264 1.39.37.365.156.635.353.81.591.174.24.261.514.261.826 0 .308-.096.6-.287.872-.191.273-.466.486-.825.637a3.072 3.072 0 0 1-1.21.228c-.568 0-1.045-.076-1.43-.23a1.972 1.972 0 0 1-.903-.69 1.856 1.856 0 0 1-.345-1.043M136 42v-6h3.876v.708h-3.166v1.838h2.965v.703h-2.965v2.043H140V42zM146 42v-6h.847v5.292H150V42zM156 42v-6h4v.708h-3.215v1.858h2.782v.709h-2.782V42z" fill="#0F10A7"/>
  </g>
</svg>
